<svg id="Layer_1" data-name="Layer 1" xmlns="http://www.w3.org/2000/svg" viewBox="0 0 1632 1164"><defs><style>.cls-1{fill:#e0e5e9;}.cls-2{fill:#c2b9d6;}.cls-3{fill:#9f95b7;}.cls-4{fill:#6a6675;}.cls-5{fill:#ffc97b;}.cls-6{fill:#ffe4c0;}.cls-7{fill:#efb262;}.cls-8{fill:#ffdf5a;}.cls-9{fill:#fff3c0;}.cls-10{fill:#ffc200;}</style></defs><title>obrigado</title><path class="cls-1" d="M4960.18,1806h-219c-29.82,0-56.18-24-56.18-53.82V1752c0-29.83,26.36-54,56.18-54h108c29.83,0,51.82-24,51.82-53.82V1644c0-29.83-22-54-51.82-54h-129a553.08,553.08,0,0,0-126.08-194.21C4396.32,1198,4086.31,1180.7,3868.9,1344H3591.32c-29.83,0-52.32,23-52.32,52.78v.48c0,29.83,22.49,54.74,52.32,54.74h171c29.82,0,52.68,23,52.68,52.78v.48c0,29.83-22.86,54.74-52.68,54.74h-327c-29.83,0-52.32,23-52.32,52.78v.48c0,29.83,22.49,54.74,52.32,54.74h219c29.82,0,52.68,23,52.68,52.78v.48c0,29.83-22.86,54.74-52.68,54.74h-108c-29.83,0-55.32,23-55.32,52.78v.48c0,29.83,25.49,54.74,55.32,54.74H3655a552.39,552.39,0,0,0,154.27,296.67c216.74,216.74,568.14,216.74,784.89,0A559.56,559.56,0,0,0,4639,2130h165.14c29.83,0,54.82-24,54.82-53.82V2076c0-29.83-25-54-54.82-54h-171c-29.82,0-56.18-24-56.18-53.82V1968c0-29.83,26.36-54,56.18-54h327c29.83,0,54.82-24,54.82-53.82V1860C5015,1830.14,4990,1806,4960.18,1806Z" transform="translate(-3383 -1193.75)"/><path d="M3893.27,1296h-36a6,6,0,0,1,0-12h36a6,6,0,1,1,0,12Z" transform="translate(-3383 -1193.75)"/><path d="M4061.27,1296h-132a6,6,0,0,1,0-12h132a6,6,0,1,1,0,12Z" transform="translate(-3383 -1193.75)"/><path d="M3953.27,1332h-132a6,6,0,0,1,0-12h132a6,6,0,1,1,0,12Z" transform="translate(-3383 -1193.75)"/><path d="M4025.27,1332h-24a6,6,0,0,1,0-12h24a6,6,0,1,1,0,12Z" transform="translate(-3383 -1193.75)"/><path d="M3617.27,1878h-18a6,6,0,0,1,0-12h18a6,6,0,1,1,0,12Z" transform="translate(-3383 -1193.75)"/><path d="M3707.27,1878h-18a6,6,0,0,1,0-12h18a6,6,0,1,1,0,12Z" transform="translate(-3383 -1193.75)"/><path d="M3627.81,1852.29a6,6,0,0,1-4.24-1.75l-12.73-12.73a6,6,0,0,1,8.49-8.49l12.72,12.73a6,6,0,0,1-4.24,10.24Z" transform="translate(-3383 -1193.75)"/><path d="M3691.45,1915.93a5.93,5.93,0,0,1-4.24-1.76l-12.73-12.72A6,6,0,0,1,3683,1893l12.73,12.73a6,6,0,0,1-4.24,10.24Z" transform="translate(-3383 -1193.75)"/><path d="M3653,1841.75a6,6,0,0,1-6-6v-18a6,6,0,0,1,12,0v18A6,6,0,0,1,3653,1841.75Z" transform="translate(-3383 -1193.75)"/><path d="M3653,1931.75a6,6,0,0,1-6-6v-18a6,6,0,0,1,12,0v18A6,6,0,0,1,3653,1931.75Z" transform="translate(-3383 -1193.75)"/><path d="M3678.72,1852.29a6,6,0,0,1-4.24-10.24l12.73-12.73a6,6,0,0,1,8.48,8.49L3683,1850.54A6,6,0,0,1,3678.72,1852.29Z" transform="translate(-3383 -1193.75)"/><path d="M3615.08,1915.93a6,6,0,0,1-4.24-10.24l12.73-12.73a6,6,0,1,1,8.48,8.49l-12.72,12.72A6,6,0,0,1,3615.08,1915.93Z" transform="translate(-3383 -1193.75)"/><path d="M4721.27,2022h-18a6,6,0,0,1,0-12h18a6,6,0,0,1,0,12Z" transform="translate(-3383 -1193.75)"/><path d="M4811.27,2022h-18a6,6,0,0,1,0-12h18a6,6,0,0,1,0,12Z" transform="translate(-3383 -1193.75)"/><path d="M4731.81,1996.3a6,6,0,0,1-4.24-1.76l-12.73-12.73a6,6,0,0,1,8.48-8.49l12.74,12.73a6,6,0,0,1-4.25,10.25Z" transform="translate(-3383 -1193.75)"/><path d="M4795.45,2059.93a6,6,0,0,1-4.24-1.75l-12.73-12.74A6,6,0,1,1,4787,2037l12.73,12.73a6,6,0,0,1-4.24,10.24Z" transform="translate(-3383 -1193.75)"/><path d="M4757,1985.75a6,6,0,0,1-6-6v-18a6,6,0,0,1,12,0v18A6,6,0,0,1,4757,1985.75Z" transform="translate(-3383 -1193.75)"/><path d="M4757,2075.75a6,6,0,0,1-6-6v-18a6,6,0,0,1,12,0v18A6,6,0,0,1,4757,2075.75Z" transform="translate(-3383 -1193.75)"/><path d="M4782.72,1996.3a6,6,0,0,1-4.24-10.25l12.73-12.73a6,6,0,0,1,8.48,8.49L4787,1994.54A6,6,0,0,1,4782.72,1996.3Z" transform="translate(-3383 -1193.75)"/><path d="M4719.08,2059.93a6,6,0,0,1-4.24-10.24l12.73-12.73a6,6,0,1,1,8.49,8.48l-12.74,12.74A6,6,0,0,1,4719.08,2059.93Z" transform="translate(-3383 -1193.75)"/><path d="M4683.19,1565.91a6,6,0,0,1-5.27-3.12l-7.34-13.42a36.05,36.05,0,0,0-14.35-14.36l-13.42-7.34a6,6,0,0,1,0-10.53l13.42-7.34a36,36,0,0,0,14.35-14.35l7.34-13.42c2.1-3.85,8.43-3.85,10.53,0l7.34,13.42a36.05,36.05,0,0,0,14.36,14.35h0l13.41,7.34a6,6,0,0,1,0,10.53l-13.42,7.34a36.14,36.14,0,0,0-14.36,14.36l-7.34,13.42A6,6,0,0,1,4683.19,1565.91Zm-25-43.5,3.8,2.07a48.08,48.08,0,0,1,19.12,19.13l2.08,3.8,2.08-3.8a48.14,48.14,0,0,1,19.12-19.13l3.79-2.07-3.79-2.08a48.06,48.06,0,0,1-19.12-19.12l-2.08-3.8-2.08,3.8a48,48,0,0,1-19.12,19.12Z" transform="translate(-3383 -1193.75)"/><path d="M3655.34,1597.91h0a6,6,0,0,1-5.26-3.12l-7.34-13.42a36,36,0,0,0-14.36-14.36l-13.42-7.34a6,6,0,0,1,0-10.53l13.42-7.34a35.93,35.93,0,0,0,14.36-14.35l7.34-13.42c2.1-3.85,8.41-3.85,10.53,0l7.34,13.52c3.32,6.07,8.28,10.45,14.35,14.45h0l13.42,7.24a5.94,5.94,0,0,1,0,10.46L3682.3,1567a36,36,0,0,0-14.35,14.34l-7.34,13.42A6,6,0,0,1,3655.34,1597.91Zm-25-43.5,3.8,2.08a48,48,0,0,1,19.13,19.12l2.07,3.79,2.08-3.79a48,48,0,0,1,19.12-19.12l3.8-2.08-3.8-2.08a48,48,0,0,1-19.12-19.12l-2.08-3.8-2.07,3.8a48,48,0,0,1-19.13,19.12Z" transform="translate(-3383 -1193.75)"/><path d="M4379.27,1242h-12a6,6,0,0,1,0-12h12a6,6,0,0,1,0,12Z" transform="translate(-3383 -1193.75)"/><path d="M4439.27,1242h-12a6,6,0,0,1,0-12h12a6,6,0,0,1,0,12Z" transform="translate(-3383 -1193.75)"/><path d="M4403,1217.75a6,6,0,0,1-6-6v-12a6,6,0,0,1,12,0v12A6,6,0,0,1,4403,1217.75Z" transform="translate(-3383 -1193.75)"/><path d="M4403,1277.75a6,6,0,0,1-6-6v-12a6,6,0,0,1,12,0v12A6,6,0,0,1,4403,1277.75Z" transform="translate(-3383 -1193.75)"/><path d="M4223.27,2322h-12a6,6,0,0,1,0-12h12a6,6,0,0,1,0,12Z" transform="translate(-3383 -1193.75)"/><path d="M4283.27,2322h-12a6,6,0,0,1,0-12h12a6,6,0,0,1,0,12Z" transform="translate(-3383 -1193.75)"/><path d="M4247,2297.75a6,6,0,0,1-6-6v-12a6,6,0,0,1,12,0v12A6,6,0,0,1,4247,2297.75Z" transform="translate(-3383 -1193.75)"/><path d="M4247,2357.75a6,6,0,0,1-6-6v-12a6,6,0,0,1,12,0v12A6,6,0,0,1,4247,2357.75Z" transform="translate(-3383 -1193.75)"/><path d="M4541.27,2184h-78a6,6,0,0,1,0-12h78a6,6,0,0,1,0,12Z" transform="translate(-3383 -1193.75)"/><path d="M4745.27,2226h-234a6,6,0,0,1,0-12h234a6,6,0,0,1,0,12Z" transform="translate(-3383 -1193.75)"/><path d="M4661.27,2268h-30a6,6,0,0,1,0-12h30a6,6,0,0,1,0,12Z" transform="translate(-3383 -1193.75)"/><path d="M4583.27,2268h-168a6,6,0,0,1,0-12h168a6,6,0,0,1,0,12Z" transform="translate(-3383 -1193.75)"/><path d="M4001.27,2238h-168a6,6,0,0,1,0-12h168a6,6,0,1,1,0,12Z" transform="translate(-3383 -1193.75)"/><path d="M3953.27,2280h-114a6,6,0,0,1,0-12h114a6,6,0,1,1,0,12Z" transform="translate(-3383 -1193.75)"/><path d="M3815.27,2280h-36a6,6,0,0,1,0-12h36a6,6,0,1,1,0,12Z" transform="translate(-3383 -1193.75)"/><path d="M4949.27,1698h-222a6,6,0,0,1,0-12h222a6,6,0,0,1,0,12Z" transform="translate(-3383 -1193.75)"/><path d="M4811.27,1662h-66a6,6,0,0,1,0-12h66a6,6,0,0,1,0,12Z" transform="translate(-3383 -1193.75)"/><path d="M4871.27,1662h-30a6,6,0,0,1,0-12h30a6,6,0,0,1,0,12Z" transform="translate(-3383 -1193.75)"/><path class="cls-2" d="M3894,1588.25c0,29.83,9.3,57.85,25.63,82.2,5.44,8.12-20.61,57.17-68.32,74.74,70.31,25.11,125.92-18.51,150.65-7.51a238.2,238.2,0,0,0,96.69,20.07c113,0,204.66-75.89,204.66-169.5s-91.63-169.5-204.66-169.5S3894,1494.64,3894,1588.25Z" transform="translate(-3383 -1193.75)"/><path class="cls-1" d="M3856.65,1745.19c47.71-17.57,73.76-66.62,68.32-74.74-16.33-24.35-25.63-52.37-25.63-82.2,0-93.61,91.62-169.5,204.65-169.5,6.36,0,12.63.27,18.84.74-104.2,7.88-185.83,80.41-185.83,168.76,0,29.83,9.31,57.85,25.64,82.2,5.44,8.12-20.61,57.17-68.33,74.74a134.54,134.54,0,0,0,27.67,6.69C3902.27,1754.29,3880.3,1753.64,3856.65,1745.19Z" transform="translate(-3383 -1193.75)"/><path class="cls-3" d="M4265.6,1588.25c0-88.35-81.63-160.88-185.82-168.76,6.2-.47,12.48-.74,18.83-.74,113,0,204.66,75.89,204.66,169.5s-91.63,169.5-204.66,169.5c-6.24,0-12.39-.31-18.5-.77C4184.15,1749,4265.6,1676.5,4265.6,1588.25Z" transform="translate(-3383 -1193.75)"/><path class="cls-4" d="M4098.61,1769.75c-35.4,0-70.52-7.3-101.56-21.11-5.65-2.52-19.25,1.26-33.65,5.24-29.33,8.14-69.52,19.27-116.17,2.61a12,12,0,0,1-.11-22.56c37.86-14,58.72-49.25,61-59.11-17.12-26.42-26.14-56.29-26.14-86.57,0-100.08,97.19-181.5,216.65-181.5s216.65,81.42,216.65,181.5S4218.08,1769.75,4098.61,1769.75Zm-106.46-45.91a35.54,35.54,0,0,1,14.65,2.87c28,12.46,59.75,19,91.81,19,106.23,0,192.65-70.66,192.65-157.5s-86.42-157.5-192.65-157.5S3906,1501.4,3906,1588.25c0,26.39,8.16,52.5,23.59,75.51,3.35,5,3.64,11.52.9,20-4.75,14.66-20.26,38.88-45.27,56.83,27.17,2.59,51.34-4.12,71.81-9.79C3970.41,1727,3982,1723.84,3992.15,1723.84Z" transform="translate(-3383 -1193.75)"/><path class="cls-4" d="M4001.27,1554h-24a12,12,0,0,1,0-24h24a12,12,0,1,1,0,24Z" transform="translate(-3383 -1193.75)"/><path class="cls-4" d="M4031.27,1553.75a12,12,0,0,1-8.46-20.46,12.34,12.34,0,0,1,16.91-.06,12.11,12.11,0,0,1,3.55,8.52,12.1,12.1,0,0,1-12,12Z" transform="translate(-3383 -1193.75)"/><path class="cls-4" d="M4211.27,1554h-150a12,12,0,0,1,0-24h150a12,12,0,0,1,0,24Z" transform="translate(-3383 -1193.75)"/><path class="cls-4" d="M4241.27,1608h-282a12,12,0,0,1,0-24h282a12,12,0,0,1,0,24Z" transform="translate(-3383 -1193.75)"/><path class="cls-4" d="M4175.27,1668h-180a12,12,0,0,1,0-24h180a12,12,0,0,1,0,24Z" transform="translate(-3383 -1193.75)"/><path class="cls-2" d="M4614.22,1738.25c0,39.86-12.43,77.31-34.25,109.84-7.28,10.85,27.54,76.39,91.3,99.88-94,33.56-168.27-24.74-201.32-10-38.48,17.11-82.47,26.82-129.21,26.82-151,0-273.47-101.41-273.47-226.5s122.44-226.5,273.47-226.5S4614.22,1613.16,4614.22,1738.25Z" transform="translate(-3383 -1193.75)"/><path class="cls-3" d="M4670.08,1948c-63.76-23.49-98.58-89-91.3-99.88,21.82-32.53,34.25-70,34.25-109.84,0-125.09-122.44-226.5-273.48-226.5-8.49,0-16.87.36-25.16,1,139.23,10.53,248.31,107.45,248.31,225.51,0,39.86-12.43,77.31-34.26,109.84-7.27,10.85,27.55,76.39,91.3,99.88a179.87,179.87,0,0,1-37,8.94C4609.11,1960.13,4638.47,1959.26,4670.08,1948Z" transform="translate(-3383 -1193.75)"/><path class="cls-1" d="M4117.6,1738.25c0-118.06,109.08-215,248.31-225.51-8.29-.63-16.68-1-25.17-1-151,0-273.47,101.41-273.47,226.5s122.44,226.5,273.47,226.5c8.35,0,16.57-.42,24.72-1C4226.44,1953,4117.6,1856.18,4117.6,1738.25Z" transform="translate(-3383 -1193.75)"/><path class="cls-4" d="M4340.75,1976.75c-157.42,0-285.48-107-285.48-238.5s128.06-238.5,285.48-238.5c79.51,0,161.49,29.58,208.85,75.37a12,12,0,0,1-16.67,17.26c-42.47-41.05-119.7-68.63-192.18-68.63-144.18,0-261.48,96.22-261.48,214.5s117.3,214.5,261.48,214.5c43.4,0,86.39-8.92,124.32-25.79,16.75-7.45,37.53-1.68,63.84,5.61,30.4,8.42,66.81,18.5,108.19,11.86-37.81-23.71-61.1-59.14-67.81-79.85-3.25-10-3-17.61.71-23.17,21.08-31.42,32.22-67.09,32.22-103.16a179.25,179.25,0,0,0-12.6-65.94c-1.1-2.77-5.69-11-8.73-16.4-2.28-4.05-4.3-7.69-5.35-9.78a12,12,0,0,1,21.46-10.76c.94,1.88,2.78,5.16,4.82,8.81,4.94,8.81,8.56,15.36,10.12,19.33a202.94,202.94,0,0,1,14.28,74.74c0,40.2-12.16,79.87-35.18,114.85,1.17,12.87,31.55,64.15,84.38,83.61a12,12,0,0,1-.11,22.57c-61.12,21.81-114.12,7.14-152.81-3.58-20.81-5.77-38.8-10.76-47.68-6.81C4433.85,1967.12,4387.49,1976.75,4340.75,1976.75Z" transform="translate(-3383 -1193.75)"/><path class="cls-4" d="M4568.75,1625.12c-3.09,0-6.78-1.31-10.4-5.77a11.9,11.9,0,0,1-2.49-5.34c-2.31-7.71,3.59-12.31,4.41-12.9a12.12,12.12,0,0,1,16.71,2.61c.56.75,1.05,1.48,1.48,2.19a9.66,9.66,0,0,1,.52.94c4.79,9.06-1.36,14.58-2.77,15.69A12.86,12.86,0,0,1,4568.75,1625.12Z" transform="translate(-3383 -1193.75)"/><path class="cls-4" d="M4487.27,1650h-144a12,12,0,0,1,0-24h144a12,12,0,0,1,0,24Z" transform="translate(-3383 -1193.75)"/><path class="cls-4" d="M4307.27,1650h-72a12,12,0,0,1,0-24h72a12,12,0,0,1,0,24Z" transform="translate(-3383 -1193.75)"/><path class="cls-4" d="M4505.27,1722h-30a12,12,0,0,1,0-24h30a12,12,0,0,1,0,24Z" transform="translate(-3383 -1193.75)"/><path class="cls-4" d="M4441.18,1717.91a12.33,12.33,0,0,1-8.52-3.54,12.1,12.1,0,0,1,0-17,12.49,12.49,0,0,1,17,0,12,12,0,0,1-8.46,20.52Z" transform="translate(-3383 -1193.75)"/><path class="cls-4" d="M4403.27,1722h-216a12,12,0,0,1,0-24h216a12,12,0,0,1,0,24Z" transform="translate(-3383 -1193.75)"/><path class="cls-4" d="M4529.27,1788h-342a12,12,0,0,1,0-24h342a12,12,0,0,1,0,24Z" transform="translate(-3383 -1193.75)"/><path class="cls-4" d="M4487.27,1860h-162a12,12,0,0,1,0-24h162a12,12,0,0,1,0,24Z" transform="translate(-3383 -1193.75)"/><path class="cls-4" d="M4290.16,1854.53a12.31,12.31,0,0,1-8.52-3.54,12,12,0,0,1-3.48-8.46,12.13,12.13,0,0,1,3.48-8.52,12.49,12.49,0,0,1,17,0,12,12,0,0,1,3.54,8.52,11.9,11.9,0,0,1-3.54,8.46A12,12,0,0,1,4290.16,1854.53Z" transform="translate(-3383 -1193.75)"/><path class="cls-4" d="M4253.27,1860h-66a12,12,0,0,1,0-24h66a12,12,0,0,1,0,24Z" transform="translate(-3383 -1193.75)"/><path class="cls-1" d="M4388,1900.93l36-13.34s4.22-17.15,4.22-33.18c0-49.49-44.86-42.41-44.86-42.41H4240.78c39.9-30,57.32-94.48,60.8-114.48,11.39-65.54-6.65-84.16-50.21-78.06-25.87,3.62-32.44,31.62-48.58,71.51-11.64,28.75-33.62,64.94-75,67.17-52.69,2.85-68.47,32.37-92.73,49.41C4009,1825.88,3989,1860,3953.65,1860h-46.57s-51.27,8-51.27,102,51.27,72,51.27,72h60.1c18.59,0,37,6.21,53.92,13.84l42.29,19.26a235,235,0,0,0,96.3,20.9H4320.1s47-1.23,47-37.55c0-14.24-12.82-25.19-12.82-25.19l20.44-16.91a43.52,43.52,0,0,0,12.05-50.73c-3.15-7.24-5.18-13.46-3.17-16l14.21-17.74C4405.46,1914.35,4389.91,1913,4388,1900.93Z" transform="translate(-3383 -1193.75)"/><path class="cls-5" d="M4410.77,1933.25c0-24-31.5-31.5-31.5-31.5s48,4.5,48-46.5c0-36.73-38.65-39-38.65-39H4239.77c15.4-15.2,48.29-68.33,56.22-87,18.57-43.71,14.34-114.09-29.22-108-22,3.07-35.61-2-49.85,36.92-15.33,41.9-45.39,98.71-93.73,101.33-52.69,2.84-70.66,41.21-94.92,58.25-26.1,18.33-38.18,48-73.5,48l-72,1.5s-22.5,14-22.5,108,46.81,97.83,46.81,97.83h60.1c18.59,0,37,7.51,53.92,15.14l42.29,18.21c30.27,13.62,63.1,19.85,96.3,19.85H4320.1s47,.46,47-35.85c0-14.24-12.82-24.34-12.82-24.34s40-11.34,40-50.34c0-19.56-18-37.5-18-37.5C4403.27,1969.25,4410.77,1952.75,4410.77,1933.25Z" transform="translate(-3383 -1193.75)"/><path class="cls-6" d="M3947.27,1913.87s-18.76.21-31.5-3.06c0-24,4.5-36.86,4.5-36.86l72-1.85c35.32,0,47.4-29.85,73.5-48.18,24.26-17,42.23-55.49,94.92-58.34,48.34-2.61,78.4-59.46,93.73-101.36,8-21.83,15.78-29.84,25-33.19-5.45-3.4-12.12-4.89-20.11-3.77-22,3.07-35.61-2-49.85,36.92-15.33,41.9-45.39,98.7-93.73,101.32-52.69,2.85-70.66,41.21-94.92,58.25-26.1,18.33-38.18,48-73.5,48l-72,1.5s-22.5,15.46-22.5,109.46,46.81,99.29,46.81,99.29h29.69Z" transform="translate(-3383 -1193.75)"/><path class="cls-7" d="M4428.77,1856.12c0-36.72-38.65-38.12-38.65-38.12h-45s38.65,1.4,38.65,38.12c0,51-48,46.07-48,46.07s31.5,7.23,31.5,31.28c0,19.5-7.5,35.89-34.5,44.89,0,0,18,17.89,18,37.44,0,39-40,50.32-40,50.32s12.82,8.94,12.82,23.18c0,36.32-47,34.7-47,34.7h45s47,1.6,47-34.71c0-14.24-12.82-23.77-12.82-23.77s40-11.06,40-50.06c0-19.55-18-37.35-18-37.35,27-9,34.5-25.43,34.5-44.93,0-24-31.5-31-31.5-31S4428.77,1907.12,4428.77,1856.12Z" transform="translate(-3383 -1193.75)"/><path class="cls-7" d="M4199.64,1806h43c39.17-30,87.13-136.5,55.45-145.32C4266.77,1738.5,4213.88,1806,4199.64,1806Z" transform="translate(-3383 -1193.75)"/><path d="M4239.84,1823.1a12,12,0,0,1-8-20.95c28.68-25.63,49.46-57.74,58.5-90.43,8-28.78,14.63-60.75-7.1-75.77-9.37-6.47-17.79-8.42-25.71-5.94-11.5,3.61-29.2,18.56-48.25,69.36-12.08,32.22-42.34,67.19-76.81,71.68-36.14,4.72-54.53,20.57-72.31,35.9l-3.89,3.33a12,12,0,1,1-15.58-18.25l3.8-3.26c18.54-16,41.61-35.87,84.88-41.52,23.91-3.12,48-31.08,57.44-56.31,18.28-48.74,39.07-76.16,63.55-83.83,15.24-4.77,30.9-1.7,46.53,9.1,37.58,26,23.39,77.26,16.58,101.91-10.25,37.07-33.56,73.27-65.63,101.92A12,12,0,0,1,4239.84,1823.1Z" transform="translate(-3383 -1193.75)"/><path d="M4019.37,1836.62a11.75,11.75,0,0,1-6.74-2,11.28,11.28,0,0,1-5-8,12,12,0,0,1,1-8.32c5.93-11.43,13.89-9.23,17-7.76,5.35,2.52,7.84,8.88,6.29,14.5a11.94,11.94,0,0,1-3.75,8.22A12.9,12.9,0,0,1,4019.37,1836.62Z" transform="translate(-3383 -1193.75)"/><path d="M4159.69,2141.75a141.49,141.49,0,0,1-43.54-6.86l-50.85-17.81-48.36-17.88-.76-.31c-16.42-7.4-32.91-11.14-49-11.14h-60.09a11.81,11.81,0,0,1-3.13-.42c-2.46-.66-60.15-17.42-60.15-119.43,0-103.05,58.88-113.6,61.39-114a11.85,11.85,0,0,1,1.89-.15h46.56c11.74,0,22.47-5,35.89-16.81a12,12,0,0,1,15.83,18c-12.07,10.6-28.86,22.77-51.72,22.77h-45.31c-5.33,1.4-40.53,13.55-40.53,90.15,0,75.3,34.06,92.95,41.29,95.85h58.08c19.38,0,39.05,4.4,58.46,13.08l47.79,17.66,50.37,17.65a117.11,117.11,0,0,0,35.89,5.61H4320.1c1.16,0,35-1.21,35-25.25,0-8.18-2.08-13.93-6.35-17.59-8.57-7.35-24.17-5.33-24.32-5.3a12.67,12.67,0,0,1-1.84.14h-61.33a12,12,0,0,1,0-24h60.51c5.44-.66,27.07-2.37,42.6,10.94,6.72,5.75,14.73,16.64,14.73,35.81,0,38-38.44,48.84-58.76,49.25Z" transform="translate(-3383 -1193.75)"/><path d="M4346.22,2069.77c-1,0-1.64,0-1.8,0h-19.15a11.88,11.88,0,1,1,0-23.75H4345c6.4,0,23.57-1.31,32.95-10.34,4.85-4.68,7.21-10.93,7.21-19.25,0-27.14-29.84-30.41-33.36-30.41H4223.27a12,12,0,0,1,0-24h128.87c.23,0,.47-.12.69-.11,19.47,1.13,56.28,13.88,56.28,54.39,0,15-4.94,27.37-14.69,36.69C4378,2068.66,4353.13,2069.77,4346.22,2069.77Z" transform="translate(-3383 -1193.75)"/><path d="M4229.27,2069.75a12,12,0,0,1-12-12,11.8,11.8,0,0,1,3.54-8.46,12.29,12.29,0,0,1,16.92,0,11.88,11.88,0,0,1,0,16.92A11.92,11.92,0,0,1,4229.27,2069.75Z" transform="translate(-3383 -1193.75)"/><path d="M4368.61,1986c-1.49,0-2.63,0-3.32,0h-22a12,12,0,0,1,0-24h22.4c.3,0,.58-.11.88-.1,5,.34,20.22-.61,28.64-8.51,4.64-4.36,6.9-10.54,6.9-18.81s-3-11.85-5.2-13.9c-7.52-6.9-22.09-7.25-26.62-6.84-.34,0-.69.16-1,.16h-134a12,12,0,0,1,0-24h133.51c4.74-1,28.62-1.31,44.33,13.1,8.5,7.79,13,18.65,13,31.51,0,14.93-5.05,27.55-14.63,36.45C4397.13,1984.38,4377.12,1986,4368.61,1986Z" transform="translate(-3383 -1193.75)"/><path d="M4365.88,1913.9c-.9,0-1.57.1-1.95.1h-62.66a12,12,0,0,1,0-24h63c9,0,34-1.86,45.67-13.26,4.33-4.23,6.35-9.31,6.35-15.86,0-11.27-2.85-19.56-8.45-24.6-8.93-8-22.89-6.49-23-6.47a13.07,13.07,0,0,1-1.38.19H4199.27a12,12,0,0,1,0-24H4382.8c4.85-1,25.21-1.51,40.83,12.31,11.05,9.78,16.66,24.06,16.66,42.57,0,12.93-4.72,24.39-13.65,33.07C4407.53,1912.53,4374.84,1913.9,4365.88,1913.9Z" transform="translate(-3383 -1193.75)"/><polygon class="cls-8" points="420 921.7 420 635.52 512.67 636.8 512.21 920.49 420 921.7"/><polygon class="cls-9" points="420 921.7 420 635.52 443.64 637.96 443.18 921.65 420 921.7"/><polygon class="cls-10" points="489.19 924.31 498.64 745.55 481.92 740.18 482.08 640.18 510.63 642.63 505.03 738.83 525.03 742.65 518.42 924.26 489.19 924.31"/><path d="M3803.27,2130c-3.16,0-6.32-2.52-8.57-4.73s-3.7-6.61-3.7-9.82v-27.7a12,12,0,0,1,24,0v15.54l69.24-.91,14.55-158.22-10.85.34a11.76,11.76,0,0,1-9.05-3.72,12,12,0,0,1-3.27-9.23l7.06-89.18-67.68-.93v186.31a12,12,0,0,1-24,0V1829.27a12.1,12.1,0,0,1,3.71-8.54,12.52,12.52,0,0,1,8.66-3.46l92.57,1.28a12,12,0,0,1,11.82,13l-7.13,88.59,11-.35a11.62,11.62,0,0,1,9.11,3.77,12,12,0,0,1,3.21,9.32l-16.7,182.5c-.56,6.11-5.64,12.09-11.79,12.17l-92.08,2.49Z" transform="translate(-3383 -1193.75)"/><path d="M3804.41,2072.15a13.5,13.5,0,0,1-9.55-23,13.94,13.94,0,0,1,19.09,0,13.5,13.5,0,0,1-9.54,23Z" transform="translate(-3383 -1193.75)"/><circle cx="3855.26" cy="1878.81" r="17.42" transform="translate(-3200.25 2899.92) rotate(-57.08)"/><path d="M3842,1950c-7.23,0-13.21-6.49-13.47-13.78a13.84,13.84,0,0,1,13-14.34l43.34-1.71a13.48,13.48,0,0,1,14,12.91c.26,7.45-5.56,14.41-13,14.68l-43.34,2.24Z" transform="translate(-3383 -1193.75)"/></svg>