<svg xmlns="http://www.w3.org/2000/svg" xmlns:xlink="http://www.w3.org/1999/xlink" viewBox="0 0 624 547.26"><defs><style>.cls-1{isolation:isolate;}.cls-2{fill:url(#New_Gradient_Swatch_copy_10);}.cls-3{fill:#149173;}.cls-4{fill:url(#New_Gradient_Swatch_copy_10-2);}.cls-5{fill:url(#New_Gradient_Swatch_copy_10-3);}.cls-6{fill:#21692b;}.cls-7{fill:url(#linear-gradient);}.cls-8{fill:url(#linear-gradient-2);}.cls-9{fill:url(#New_Gradient_Swatch_copy_26);}.cls-10{fill:url(#New_Gradient_Swatch_copy_4);}.cls-11{fill:url(#New_Gradient_Swatch_copy_4-2);}.cls-12{fill:url(#New_Gradient_Swatch_copy_4-3);}.cls-13{fill:url(#New_Gradient_Swatch_copy_12);}.cls-14{fill:url(#New_Gradient_Swatch_copy_7);}.cls-15{fill:url(#New_Gradient_Swatch_copy_11);}.cls-16{fill:url(#New_Gradient_Swatch_copy_8);}.cls-17{fill:url(#New_Gradient_Swatch_copy_8-2);}.cls-18{fill:url(#New_Gradient_Swatch_copy_8-3);}.cls-19{fill:url(#New_Gradient_Swatch_copy_8-4);}.cls-20{fill:url(#New_Gradient_Swatch_copy_8-5);}.cls-21{fill:url(#New_Gradient_Swatch_copy_8-6);}.cls-22{fill:url(#New_Gradient_Swatch_copy_8-7);}.cls-23{fill:url(#New_Gradient_Swatch_copy_8-8);}.cls-24{fill:url(#New_Gradient_Swatch_copy_8-9);}.cls-25{fill:url(#New_Gradient_Swatch_copy_8-10);}.cls-26{fill:url(#New_Gradient_Swatch_copy_8-11);}.cls-27{fill:url(#New_Gradient_Swatch_copy_8-12);}.cls-28{fill:url(#New_Gradient_Swatch_copy_8-13);}.cls-29{fill:url(#New_Gradient_Swatch_copy_11-2);}.cls-30{fill:url(#New_Gradient_Swatch_copy_7-2);}.cls-31{fill:url(#New_Gradient_Swatch_copy_12-2);}.cls-32{fill:url(#New_Gradient_Swatch_copy_4-4);}.cls-33,.cls-41{fill-rule:evenodd;}.cls-33{fill:url(#New_Gradient_Swatch_copy_12-3);}.cls-34{fill:url(#New_Gradient_Swatch_copy_12-4);}.cls-35{fill:url(#New_Gradient_Swatch_copy_12-5);}.cls-36{fill:url(#New_Gradient_Swatch_copy_12-6);}.cls-37{fill:url(#New_Gradient_Swatch_copy_12-7);}.cls-38{fill:url(#New_Gradient_Swatch_copy_12-8);}.cls-39{fill:url(#New_Gradient_Swatch_copy_12-9);}.cls-40{fill:url(#New_Gradient_Swatch_copy_12-10);}.cls-41{fill:url(#New_Gradient_Swatch_copy_8-14);}.cls-42{fill:url(#New_Gradient_Swatch_copy_8-15);}.cls-43{fill:url(#New_Gradient_Swatch_copy_8-16);}.cls-44{fill:url(#New_Gradient_Swatch_copy_8-17);}.cls-45{fill:url(#New_Gradient_Swatch_copy_8-18);}.cls-46{fill:url(#New_Gradient_Swatch_copy_8-19);}.cls-47{fill:url(#New_Gradient_Swatch_copy_8-20);}.cls-48{fill:url(#New_Gradient_Swatch_copy_8-21);}.cls-49{fill:url(#New_Gradient_Swatch_copy_4-5);}.cls-50{fill:url(#New_Gradient_Swatch_copy_8-22);}.cls-51{fill:url(#New_Gradient_Swatch_copy_8-23);}.cls-52{fill:url(#New_Gradient_Swatch_copy_4-6);}.cls-53{fill:url(#New_Gradient_Swatch_copy_4-7);}.cls-54{fill:url(#New_Gradient_Swatch_copy_22);}.cls-55{opacity:0.5;mix-blend-mode:multiply;}.cls-56{fill:#6c78ba;}.cls-57{fill:#fff;}.cls-58{fill:#aba6e2;}.cls-59{fill:url(#New_Gradient_Swatch_copy_16);}.cls-60{fill:url(#New_Gradient_Swatch_copy_16-2);}.cls-61{fill:url(#New_Gradient_Swatch_copy_16-3);}.cls-62{fill:url(#New_Gradient_Swatch_copy_16-4);}.cls-63{fill:url(#New_Gradient_Swatch_copy_16-5);}.cls-64{fill:#71c48f;}.cls-65{fill:url(#New_Gradient_Swatch_copy_10-4);}.cls-66{fill:url(#New_Gradient_Swatch_copy_4-8);}.cls-67{fill:url(#New_Gradient_Swatch_copy_4-9);}.cls-68{fill:url(#New_Gradient_Swatch_copy_4-10);}.cls-69{fill:url(#New_Gradient_Swatch_copy_4-11);}.cls-70{fill:url(#New_Gradient_Swatch_copy_4-12);}.cls-71{fill:url(#New_Gradient_Swatch_copy_4-13);}.cls-72{fill:url(#New_Gradient_Swatch_copy_14);}.cls-73{fill:url(#New_Gradient_Swatch_copy_14-2);}.cls-74{fill:url(#New_Gradient_Swatch_copy);}.cls-75{fill:url(#New_Gradient_Swatch_copy_14-3);}.cls-76{fill:url(#New_Gradient_Swatch_copy-2);}.cls-77{fill:url(#New_Gradient_Swatch_copy_14-4);}.cls-78{fill:#f9b253;}.cls-79{fill:url(#New_Gradient_Swatch_copy-3);}.cls-80{fill:#ccc;}.cls-81{fill:url(#New_Gradient_Swatch_copy_10-5);}.cls-82{fill:url(#New_Gradient_Swatch_copy_14-5);}.cls-83{fill:url(#New_Gradient_Swatch_copy-4);}.cls-84{fill:url(#New_Gradient_Swatch_copy_10-6);}.cls-85{fill:#2d9678;}.cls-86{fill:url(#New_Gradient_Swatch_copy_10-7);}.cls-87{fill:url(#New_Gradient_Swatch_copy_10-8);}.cls-88{fill:url(#New_Gradient_Swatch_copy-5);}.cls-89{fill:url(#New_Gradient_Swatch_copy-6);}.cls-90{fill:url(#New_Gradient_Swatch_copy_8-24);}.cls-91{fill:url(#New_Gradient_Swatch_copy_8-25);}.cls-92{opacity:0.1;}.cls-93{fill:url(#New_Gradient_Swatch_copy_26-2);}.cls-94{fill:url(#New_Gradient_Swatch_copy_24);}.cls-95{fill:url(#New_Gradient_Swatch_copy_24-2);}.cls-96{fill:url(#New_Gradient_Swatch_copy_24-3);}.cls-97{fill:url(#New_Gradient_Swatch_copy_24-4);}.cls-98{fill:url(#New_Gradient_Swatch_copy_24-5);}.cls-99{fill:url(#New_Gradient_Swatch_copy_24-6);}.cls-100{fill:url(#New_Gradient_Swatch_copy_24-7);}.cls-101{fill:url(#New_Gradient_Swatch_copy_8-26);}.cls-102{fill:url(#New_Gradient_Swatch_copy_8-27);}</style><linearGradient id="New_Gradient_Swatch_copy_10" x1="-1114.6" y1="596.02" x2="-979.76" y2="334.04" gradientTransform="translate(2147.15)" gradientUnits="userSpaceOnUse"><stop offset="0" stop-color="#30944c"/><stop offset="0.41" stop-color="#8abb62"/><stop offset="0.82" stop-color="#dedf77"/><stop offset="1" stop-color="#ffed7f"/></linearGradient><linearGradient id="New_Gradient_Swatch_copy_10-2" x1="-1032.07" y1="563.39" x2="-845.22" y2="534.49" xlink:href="#New_Gradient_Swatch_copy_10"/><linearGradient id="New_Gradient_Swatch_copy_10-3" x1="-1083.71" y1="631.57" x2="-959.47" y2="431.23" xlink:href="#New_Gradient_Swatch_copy_10"/><linearGradient id="linear-gradient" x1="3031.01" y1="794.48" x2="3682.23" y2="794.48" gradientTransform="matrix(-1, 0, 0, 1, 4312, 0)" gradientUnits="userSpaceOnUse"><stop offset="0" stop-color="#44a552"/><stop offset="0.43" stop-color="#59bd62"/><stop offset="1" stop-color="#79e27a"/></linearGradient><linearGradient id="linear-gradient-2" x1="3682.2" y1="775.69" x2="2975.62" y2="774.37" gradientTransform="matrix(-1, 0, 0, 1, 3663.82, -266.61)" xlink:href="#linear-gradient"/><linearGradient id="New_Gradient_Swatch_copy_26" x1="822.74" y1="721.01" x2="1254.64" y2="478.14" gradientTransform="translate(-663.74 -266.61)" gradientUnits="userSpaceOnUse"><stop offset="0" stop-color="#fff"/><stop offset="0.37" stop-color="#f2f2ff"/><stop offset="1" stop-color="#d2d2ff"/></linearGradient><linearGradient id="New_Gradient_Swatch_copy_4" x1="802.11" y1="638.26" x2="1230.42" y2="637.06" gradientTransform="translate(-15.56)" gradientUnits="userSpaceOnUse"><stop offset="0" stop-color="#be73de"/><stop offset="1" stop-color="#514eb7"/></linearGradient><linearGradient id="New_Gradient_Swatch_copy_4-2" x1="981.05" y1="805.01" x2="981.05" y2="736.95" xlink:href="#New_Gradient_Swatch_copy_4"/><linearGradient id="New_Gradient_Swatch_copy_4-3" x1="848.79" y1="662.99" x2="869.65" y2="662.99" gradientTransform="translate(-663.74 -266.61)" xlink:href="#New_Gradient_Swatch_copy_4"/><linearGradient id="New_Gradient_Swatch_copy_12" x1="848.79" y1="676.82" x2="869.65" y2="676.82" gradientTransform="translate(-663.74 -266.61)" gradientUnits="userSpaceOnUse"><stop offset="0" stop-color="#7de1f6"/><stop offset="0.07" stop-color="#74d8f4"/><stop offset="0.71" stop-color="#218be2"/><stop offset="1" stop-color="#006ddb"/></linearGradient><linearGradient id="New_Gradient_Swatch_copy_7" x1="848.79" y1="690.66" x2="869.65" y2="690.66" gradientTransform="translate(-663.74 -266.61)" gradientUnits="userSpaceOnUse"><stop offset="0" stop-color="#ffc1d6"/><stop offset="0.38" stop-color="#eb849d"/><stop offset="0.8" stop-color="#d84764"/><stop offset="1" stop-color="#d02f4d"/></linearGradient><linearGradient id="New_Gradient_Swatch_copy_11" x1="848.79" y1="704.49" x2="869.65" y2="704.49" gradientTransform="translate(-663.74 -266.61)" gradientUnits="userSpaceOnUse"><stop offset="0" stop-color="#caedc0"/><stop offset="0.06" stop-color="#c2eab9"/><stop offset="0.71" stop-color="#6fca6e"/><stop offset="1" stop-color="#4ebd50"/></linearGradient><linearGradient id="New_Gradient_Swatch_copy_8" x1="883.77" y1="663.67" x2="980.89" y2="663.67" gradientTransform="translate(-663.74 -266.61)" gradientUnits="userSpaceOnUse"><stop offset="0" stop-color="#ffd571"/><stop offset="0.25" stop-color="#ffbd60"/><stop offset="0.78" stop-color="#ff8035"/><stop offset="1" stop-color="#ff6421"/></linearGradient><linearGradient id="New_Gradient_Swatch_copy_8-2" x1="883.77" y1="684.08" x2="980.89" y2="684.08" xlink:href="#New_Gradient_Swatch_copy_8"/><linearGradient id="New_Gradient_Swatch_copy_8-3" x1="883.77" y1="704.49" x2="980.89" y2="704.49" xlink:href="#New_Gradient_Swatch_copy_8"/><linearGradient id="New_Gradient_Swatch_copy_8-4" x1="883.77" y1="694.29" x2="980.89" y2="694.29" xlink:href="#New_Gradient_Swatch_copy_8"/><linearGradient id="New_Gradient_Swatch_copy_8-5" x1="883.77" y1="673.88" x2="980.89" y2="673.88" xlink:href="#New_Gradient_Swatch_copy_8"/><linearGradient id="New_Gradient_Swatch_copy_8-6" x1="999.29" y1="662.62" x2="1114.91" y2="662.62" xlink:href="#New_Gradient_Swatch_copy_8"/><linearGradient id="New_Gradient_Swatch_copy_8-7" x1="999.29" y1="676.72" x2="1114.91" y2="676.72" xlink:href="#New_Gradient_Swatch_copy_8"/><linearGradient id="New_Gradient_Swatch_copy_8-8" x1="999.29" y1="690.82" x2="1114.91" y2="690.82" xlink:href="#New_Gradient_Swatch_copy_8"/><linearGradient id="New_Gradient_Swatch_copy_8-9" x1="999.29" y1="683.77" x2="1114.91" y2="683.77" xlink:href="#New_Gradient_Swatch_copy_8"/><linearGradient id="New_Gradient_Swatch_copy_8-10" x1="999.29" y1="669.67" x2="1114.91" y2="669.67" xlink:href="#New_Gradient_Swatch_copy_8"/><linearGradient id="New_Gradient_Swatch_copy_8-11" x1="999.29" y1="698.1" x2="1114.91" y2="698.1" xlink:href="#New_Gradient_Swatch_copy_8"/><linearGradient id="New_Gradient_Swatch_copy_8-12" x1="999.29" y1="705.15" x2="1060.55" y2="705.15" xlink:href="#New_Gradient_Swatch_copy_8"/><linearGradient id="New_Gradient_Swatch_copy_8-13" x1="834.38" y1="641" x2="1036.57" y2="541.69" xlink:href="#New_Gradient_Swatch_copy_8"/><linearGradient id="New_Gradient_Swatch_copy_11-2" x1="901.23" y1="625.52" x2="922.81" y2="625.52" gradientTransform="translate(-15.56)" xlink:href="#New_Gradient_Swatch_copy_11"/><linearGradient id="New_Gradient_Swatch_copy_7-2" x1="922.52" y1="611.2" x2="948.49" y2="611.2" gradientTransform="translate(-15.56)" xlink:href="#New_Gradient_Swatch_copy_7"/><linearGradient id="New_Gradient_Swatch_copy_12-2" x1="919.33" y1="580.6" x2="943.88" y2="580.6" gradientTransform="translate(-15.56)" xlink:href="#New_Gradient_Swatch_copy_12"/><linearGradient id="New_Gradient_Swatch_copy_4-4" x1="881.31" y1="598.64" x2="915" y2="598.64" xlink:href="#New_Gradient_Swatch_copy_4"/><linearGradient id="New_Gradient_Swatch_copy_12-3" x1="1004.99" y1="560.09" x2="1004.99" y2="673.75" xlink:href="#New_Gradient_Swatch_copy_12"/><linearGradient id="New_Gradient_Swatch_copy_12-4" x1="1019.79" y1="560.09" x2="1019.79" y2="673.75" xlink:href="#New_Gradient_Swatch_copy_12"/><linearGradient id="New_Gradient_Swatch_copy_12-5" x1="1034.6" y1="560.09" x2="1034.6" y2="673.75" xlink:href="#New_Gradient_Swatch_copy_12"/><linearGradient id="New_Gradient_Swatch_copy_12-6" x1="1049.41" y1="560.09" x2="1049.41" y2="673.75" xlink:href="#New_Gradient_Swatch_copy_12"/><linearGradient id="New_Gradient_Swatch_copy_12-7" x1="1064.22" y1="560.09" x2="1064.22" y2="673.75" xlink:href="#New_Gradient_Swatch_copy_12"/><linearGradient id="New_Gradient_Swatch_copy_12-8" x1="1078.65" y1="560.09" x2="1078.65" y2="673.75" xlink:href="#New_Gradient_Swatch_copy_12"/><linearGradient id="New_Gradient_Swatch_copy_12-9" x1="1093.46" y1="560.09" x2="1093.46" y2="673.75" xlink:href="#New_Gradient_Swatch_copy_12"/><linearGradient id="New_Gradient_Swatch_copy_12-10" x1="1108.26" y1="560.09" x2="1108.26" y2="673.75" xlink:href="#New_Gradient_Swatch_copy_12"/><linearGradient id="New_Gradient_Swatch_copy_8-14" x1="1006.59" y1="603.69" x2="1004.8" y2="645.56" xlink:href="#New_Gradient_Swatch_copy_8"/><linearGradient id="New_Gradient_Swatch_copy_8-15" x1="1021.16" y1="604.31" x2="1019.37" y2="646.19" xlink:href="#New_Gradient_Swatch_copy_8"/><linearGradient id="New_Gradient_Swatch_copy_8-16" x1="1035.57" y1="604.93" x2="1033.78" y2="646.8" xlink:href="#New_Gradient_Swatch_copy_8"/><linearGradient id="New_Gradient_Swatch_copy_8-17" x1="1050.56" y1="605.57" x2="1048.76" y2="647.45" xlink:href="#New_Gradient_Swatch_copy_8"/><linearGradient id="New_Gradient_Swatch_copy_8-18" x1="1065.21" y1="606.2" x2="1063.41" y2="648.07" xlink:href="#New_Gradient_Swatch_copy_8"/><linearGradient id="New_Gradient_Swatch_copy_8-19" x1="1079.77" y1="606.83" x2="1077.98" y2="648.7" xlink:href="#New_Gradient_Swatch_copy_8"/><linearGradient id="New_Gradient_Swatch_copy_8-20" x1="1094.44" y1="607.45" x2="1092.64" y2="649.33" xlink:href="#New_Gradient_Swatch_copy_8"/><linearGradient id="New_Gradient_Swatch_copy_8-21" x1="1109" y1="608.08" x2="1107.21" y2="649.95" xlink:href="#New_Gradient_Swatch_copy_8"/><linearGradient id="New_Gradient_Swatch_copy_4-5" x1="3124.3" y1="347.48" x2="3183.62" y2="290.92" gradientTransform="matrix(-1, 0, 0, 1, 4312, 0)" xlink:href="#New_Gradient_Swatch_copy_4"/><linearGradient id="New_Gradient_Swatch_copy_8-22" x1="3443.55" y1="282.08" x2="3458.34" y2="259.63" gradientTransform="matrix(-1, 0, 0, 1, 4312, 0)" xlink:href="#New_Gradient_Swatch_copy_8"/><linearGradient id="New_Gradient_Swatch_copy_8-23" x1="3456.2" y1="290.42" x2="3470.99" y2="267.97" gradientTransform="matrix(-1, 0, 0, 1, 4312, 0)" xlink:href="#New_Gradient_Swatch_copy_8"/><linearGradient id="New_Gradient_Swatch_copy_4-6" x1="3425.44" y1="303.74" x2="3458.71" y2="276.02" gradientTransform="matrix(-1, 0, 0, 1, 4312, 0)" xlink:href="#New_Gradient_Swatch_copy_4"/><linearGradient id="New_Gradient_Swatch_copy_4-7" x1="3625.71" y1="590.58" x2="3647.37" y2="538.58" gradientTransform="matrix(-1, 0, 0, 1, 3663.82, -266.61)" xlink:href="#New_Gradient_Swatch_copy_4"/><linearGradient id="New_Gradient_Swatch_copy_22" x1="3491.08" y1="446.72" x2="3520.18" y2="501.25" gradientTransform="matrix(-1, 0, 0, 1, 3663.82, -266.61)" gradientUnits="userSpaceOnUse"><stop offset="0" stop-color="#ffd582"/><stop offset="0.29" stop-color="#ffbd6e"/><stop offset="0.9" stop-color="#ff8039"/><stop offset="1" stop-color="#ff7530"/></linearGradient><linearGradient id="New_Gradient_Swatch_copy_16" x1="3345.29" y1="367.17" x2="3360.26" y2="474.29" gradientTransform="matrix(1, 0, 0, -1, -2392.5, 833.92)" gradientUnits="userSpaceOnUse"><stop offset="0" stop-color="#ab75c7"/><stop offset="0.05" stop-color="#a673c6"/><stop offset="0.69" stop-color="#6958bb"/><stop offset="1" stop-color="#514eb7"/></linearGradient><linearGradient id="New_Gradient_Swatch_copy_16-2" x1="3363.98" y1="364.56" x2="3378.95" y2="471.68" gradientTransform="matrix(1, 0, 0, -1, -2431.87, 842.89)" xlink:href="#New_Gradient_Swatch_copy_16"/><linearGradient id="New_Gradient_Swatch_copy_16-3" x1="3325.02" y1="370" x2="3339.99" y2="477.12" gradientTransform="matrix(1, 0, 0, -1, -2353.48, 850.55)" xlink:href="#New_Gradient_Swatch_copy_16"/><linearGradient id="New_Gradient_Swatch_copy_16-4" x1="3384.42" y1="361.7" x2="3399.39" y2="468.82" gradientTransform="matrix(1, 0, 0, -1, -2471.24, 826.48)" xlink:href="#New_Gradient_Swatch_copy_16"/><linearGradient id="New_Gradient_Swatch_copy_16-5" x1="3328.43" y1="376.84" x2="3395.7" y2="376.84" gradientTransform="matrix(-1, 0, 0, 1, 3663.82, -266.61)" xlink:href="#New_Gradient_Swatch_copy_16"/><linearGradient id="New_Gradient_Swatch_copy_10-4" x1="3471.34" y1="389.55" x2="3708.69" y2="310.93" gradientTransform="matrix(-1, 0, 0, 1, 3663.82, -266.61)" xlink:href="#New_Gradient_Swatch_copy_10"/><linearGradient id="New_Gradient_Swatch_copy_4-8" x1="3492.23" y1="375.71" x2="3502.35" y2="375.71" gradientTransform="matrix(-1, 0, 0, 1, 4312, 0)" xlink:href="#New_Gradient_Swatch_copy_4"/><linearGradient id="New_Gradient_Swatch_copy_4-9" x1="3515.79" y1="352.29" x2="3525.91" y2="352.29" gradientTransform="matrix(-1, 0, 0, 1, 4312, 0)" xlink:href="#New_Gradient_Swatch_copy_4"/><linearGradient id="New_Gradient_Swatch_copy_4-10" x1="3542.32" y1="377.81" x2="3552.44" y2="377.81" gradientTransform="matrix(-1, 0, 0, 1, 4312, 0)" xlink:href="#New_Gradient_Swatch_copy_4"/><linearGradient id="New_Gradient_Swatch_copy_4-11" x1="3566.18" y1="352.29" x2="3576.3" y2="352.29" gradientTransform="matrix(-1, 0, 0, 1, 4312, 0)" xlink:href="#New_Gradient_Swatch_copy_4"/><linearGradient id="New_Gradient_Swatch_copy_4-12" x1="3584.38" y1="370.65" x2="3594.51" y2="370.65" gradientTransform="matrix(-1, 0, 0, 1, 4312, 0)" xlink:href="#New_Gradient_Swatch_copy_4"/><linearGradient id="New_Gradient_Swatch_copy_4-13" x1="3627.54" y1="326.77" x2="3637.67" y2="326.77" gradientTransform="matrix(-1, 0, 0, 1, 4312, 0)" xlink:href="#New_Gradient_Swatch_copy_4"/><linearGradient id="New_Gradient_Swatch_copy_14" x1="799.4" y1="672.99" x2="811.42" y2="636.93" gradientUnits="userSpaceOnUse"><stop offset="0" stop-color="#ffecdc"/><stop offset="0.24" stop-color="#f6dac4"/><stop offset="0.74" stop-color="#e0ad87"/><stop offset="1" stop-color="#d39364"/></linearGradient><linearGradient id="New_Gradient_Swatch_copy_14-2" x1="803.55" y1="725.93" x2="821.13" y2="725.93" xlink:href="#New_Gradient_Swatch_copy_14"/><linearGradient id="New_Gradient_Swatch_copy" x1="803.32" y1="782.22" x2="819.92" y2="782.22" gradientUnits="userSpaceOnUse"><stop offset="0" stop-color="gray"/><stop offset="0.64" stop-color="#52524d"/><stop offset="1" stop-color="#3c3c35"/></linearGradient><linearGradient id="New_Gradient_Swatch_copy_14-3" x1="806.07" y1="725.13" x2="841.07" y2="725.13" xlink:href="#New_Gradient_Swatch_copy_14"/><linearGradient id="New_Gradient_Swatch_copy-2" x1="823.88" y1="783.94" x2="841.34" y2="783.94" xlink:href="#New_Gradient_Swatch_copy"/><linearGradient id="New_Gradient_Swatch_copy_14-4" x1="902.46" y1="614.92" x2="820.86" y2="637.87" xlink:href="#New_Gradient_Swatch_copy_14"/><linearGradient id="New_Gradient_Swatch_copy-3" x1="831.37" y1="718.53" x2="805.87" y2="659.16" xlink:href="#New_Gradient_Swatch_copy"/><linearGradient id="New_Gradient_Swatch_copy_10-5" x1="791.68" y1="679.58" x2="840.86" y2="612.19" gradientTransform="matrix(1, 0, 0, 1, 0, 0)" xlink:href="#New_Gradient_Swatch_copy_10"/><linearGradient id="New_Gradient_Swatch_copy_14-5" x1="834.35" y1="604.62" x2="801.93" y2="614.82" xlink:href="#New_Gradient_Swatch_copy_14"/><linearGradient id="New_Gradient_Swatch_copy-4" x1="788" y1="620.35" x2="824.99" y2="620.35" xlink:href="#New_Gradient_Swatch_copy"/><linearGradient id="New_Gradient_Swatch_copy_10-6" x1="724.25" y1="745.29" x2="684.28" y2="666.03" gradientTransform="matrix(1, 0, 0, 1, 0, 0)" xlink:href="#New_Gradient_Swatch_copy_10"/><linearGradient id="New_Gradient_Swatch_copy_10-7" x1="718.98" y1="746.07" x2="749.81" y2="673.85" gradientTransform="matrix(1, 0, 0, 1, 0, 0)" xlink:href="#New_Gradient_Swatch_copy_10"/><linearGradient id="New_Gradient_Swatch_copy_10-8" x1="705.26" y1="709.61" x2="735.83" y2="709.61" gradientTransform="matrix(1, 0, 0, 1, 0, 0)" xlink:href="#New_Gradient_Swatch_copy_10"/><linearGradient id="New_Gradient_Swatch_copy-5" x1="83.64" y1="510.11" x2="60.92" y2="465.07" xlink:href="#New_Gradient_Swatch_copy"/><linearGradient id="New_Gradient_Swatch_copy-6" x1="725.47" y1="756.64" x2="714.54" y2="734.96" xlink:href="#New_Gradient_Swatch_copy"/><linearGradient id="New_Gradient_Swatch_copy_8-24" x1="484.8" y1="412.32" x2="484.26" y2="476.07" gradientTransform="matrix(1, 0, 0, 1, 0, 0)" xlink:href="#New_Gradient_Swatch_copy_8"/><linearGradient id="New_Gradient_Swatch_copy_8-25" x1="1133.04" y1="650.55" x2="1131.98" y2="748.24" gradientTransform="matrix(1, 0, 0, 1, 0, 0)" xlink:href="#New_Gradient_Swatch_copy_8"/><linearGradient id="New_Gradient_Swatch_copy_26-2" x1="434.34" y1="402.86" x2="531.32" y2="501.44" gradientTransform="matrix(1, 0, 0, 1, 0, 0)" xlink:href="#New_Gradient_Swatch_copy_26"/><linearGradient id="New_Gradient_Swatch_copy_24" x1="519.66" y1="419.52" x2="436.85" y2="419.52" gradientUnits="userSpaceOnUse"><stop offset="0" stop-color="#c7bde7"/><stop offset="0.33" stop-color="#afabd1"/><stop offset="1" stop-color="#75819d"/></linearGradient><linearGradient id="New_Gradient_Swatch_copy_24-2" x1="519.66" y1="433.1" x2="436.85" y2="433.1" xlink:href="#New_Gradient_Swatch_copy_24"/><linearGradient id="New_Gradient_Swatch_copy_24-3" x1="519.66" y1="437.6" x2="436.85" y2="437.6" xlink:href="#New_Gradient_Swatch_copy_24"/><linearGradient id="New_Gradient_Swatch_copy_24-4" x1="519.66" y1="442.1" x2="436.85" y2="442.1" xlink:href="#New_Gradient_Swatch_copy_24"/><linearGradient id="New_Gradient_Swatch_copy_24-5" x1="519.66" y1="446.6" x2="436.85" y2="446.6" xlink:href="#New_Gradient_Swatch_copy_24"/><linearGradient id="New_Gradient_Swatch_copy_24-6" x1="519.66" y1="451.1" x2="436.85" y2="451.1" xlink:href="#New_Gradient_Swatch_copy_24"/><linearGradient id="New_Gradient_Swatch_copy_24-7" x1="519.66" y1="456.5" x2="436.85" y2="456.5" xlink:href="#New_Gradient_Swatch_copy_24"/><linearGradient id="New_Gradient_Swatch_copy_8-26" x1="484.4" y1="428.97" x2="484.07" y2="541.2" gradientTransform="matrix(1, 0, 0, 1, 0, 0)" xlink:href="#New_Gradient_Swatch_copy_8"/><linearGradient id="New_Gradient_Swatch_copy_8-27" x1="1132.44" y1="725.29" x2="1132.44" y2="805.95" gradientTransform="matrix(1, 0, 0, 1, 0, 0)" xlink:href="#New_Gradient_Swatch_copy_8"/></defs><g class="cls-1"><g id="Camada_1" data-name="Camada 1"><path class="cls-2" d="M1073,623.77s-54.93-99.7-32.35-167.45c27.69-83.07,66-112,66-112S1215.53,471.3,1073,623.77Z" transform="translate(-648.18 -266.61)"/><path class="cls-3" d="M1083.78,392.56l1.94,1.82,20.47,19.19c3.56-47.22.41-69.21.41-69.21,4.2,21,5.76,43.89,5.55,67.21L1125,395.92l-13,24.52c-.3,10.73-1,21.51-1.86,32.19L1127,425.92l-17.65,35.39c-.87,8.75-1.91,17.41-3.07,25.89l26.47-35.43L1104.41,500c-1.79,11.72-3.78,23-5.84,33.62l24.92-24.92-28.17,41c-2.29,10.81-4.57,20.69-6.68,29.34l24.74-31.85-27,46.94c-3.79,12.13-9,24.9-9,24.9l-4.4,4.81-4.21-8.2c3.65-9.14,6.47-16.5,8.65-25.66l-14.75-40.5,17.25,26.88q3.25-14.2,6-27.48l-25-44.62,27.56,32.13q3.73-18.66,6.58-35.38l-24.58-40.56,26.35,29.88q2.36-14.6,4.11-27.65l-22.51-43.75,24.07,31.54c1.37-11.26,2.41-21.57,3.2-31Z" transform="translate(-648.18 -266.61)"/><path class="cls-4" d="M1066,618.93s96.75,8.25,141.74-32.84c55.15-50.39,64.4-90.24,64.4-90.24S1135.47,455,1066,618.93Z" transform="translate(-648.18 -266.61)"/><path class="cls-3" d="M1242.52,530.35l-2.09-.88-22.06-9.31c35.58-19.14,53.81-24.31,53.81-24.31-17.81,4-36.21,10.72-54.32,19l7.75-15.43L1211,518c-8.26,4-16.44,8.2-24.45,12.61l15-22.39-21.47,26c-6.52,3.71-12.91,7.52-19.12,11.37l18.44-32.92-27.74,38.78c-8.51,5.46-16.61,10.92-24.18,16.21l10.78-28.07-22.17,36.17c-7.64,5.53-14.55,10.74-20.55,15.38l16.24-30.33-27.22,37.33c-8.14,7.16-16.29,15.64-16.29,15.64l-2.22,5.1,7.85.44c5.86-6,10.61-10.77,17-15.64l36.68-2.54-26.94-4.13q10-7.47,19.34-14.23l43.45,4-34.6-10.35q13.25-9.37,25.3-17.39l40.14,5.1L1161.82,554q10.56-6.9,20.14-12.79l41.9,2.38-32.93-7.84q12.45-7.44,23-13.22Z" transform="translate(-648.18 -266.61)"/><path class="cls-5" d="M1069.3,620.61s79.11-31.85,98.11-81.87c23.28-61.35,14.75-96.25,14.75-96.25S1058.79,464.56,1069.3,620.61Z" transform="translate(-648.18 -266.61)"/><path class="cls-3" d="M1172.57,481.28l-2,.14-21,1.44c20.32-29.1,32.56-40.37,32.56-40.37-12.38,10.18-24.14,22.74-35.07,36.38l0-15.16L1143,484.1c-4.92,6.37-9.64,12.93-14.17,19.56l2.87-23.48-6.52,28.9c-3.65,5.49-7.14,11-10.49,16.49l1.42-33.11-6.39,41.39c-4.51,7.65-8.7,15.14-12.54,22.28l-2.66-26.28L1091.45,567c-3.8,7.36-7.15,14.18-10,20.19l.72-30.2-6.56,40c-3.54,8.84-6.57,18.71-6.57,18.71l.28,4.88,6.32-2.77a131.56,131.56,0,0,1,7.14-19l27.75-16.52-22.75,7.43q4.85-9.79,9.52-18.81l35.65-14.05-31.22,5.59q6.68-12.6,13-23.66l33.48-11.89-29.46,4.86q5.55-9.6,10.73-18l33.79-14.73-28.92,6.9q6.81-10.77,12.82-19.49Z" transform="translate(-648.18 -266.61)"/><g class="cls-1"><g class="cls-1"><path class="cls-6" d="M648.18,775.09V787a2.77,2.77,0,0,0,.44,1.44V776.52a2.71,2.71,0,0,1-.44-1.43" transform="translate(-648.18 -266.61)"/><path class="cls-7" d="M648.18,775.09a2.79,2.79,0,0,0,.49,1.51l.21.3.11.14.25.28.12.12.39.37,0,0c.15.13.32.26.49.39l.21.15.28.19.24.16.31.19.26.15.34.19.28.16.36.19.32.15.38.19.34.16.41.18.36.16.45.19.37.15.48.19.4.15.31.11.53.2.33.12.55.18.35.12.61.2.32.1.76.24.2.06,1,.3.27.08.78.22.39.11.7.19.43.11.7.18.45.12.75.19.43.1.9.22.31.07,1.25.29.24.06,1.05.23.45.1.88.19.52.11.85.17.54.11.9.18.52.11,1,.19.44.09,1.48.28.18,0,1.34.24.53.1,1,.18.61.1,1,.17.64.11,1,.17.64.1,1.14.19.53.08,1.69.27h0l1.74.27.58.08,1.2.18.68.1L693,789l.73.11,1.14.16.72.1,1.25.17.64.08,1.6.22.32,0,2,.25.6.08,1.39.17.74.09,1.29.16.8.1,1.28.15.79.1,1.35.15.77.09,1.57.18.55.06,2.15.24.52.06,1.66.18.79.09,1.43.15.87.09,1.42.14.85.09,1.48.15.83.08,1.69.17.63.06,2.34.23.45,0,1.93.18.85.08,1.55.14,1,.09,1.51.13,1,.09,1.55.13.92.08,1.74.15.77.06,2.51.21.32,0,2.25.18.82.07L750,795l1,.08,1.59.12,1.06.08,1.66.13,1,.07,1.79.13.89.07,2.48.18h.21l2.71.19.91.07,1.85.12,1,.07,1.74.12,1.13.07,1.7.12,1.11.07,1.87.12.95.06,2.4.15.46,0,2.86.18.92,0,2,.12,1.09.06,1.85.11,1.17.07,1.82.1,1.17.06,1.86.11,1.14.06,2.23.12.76,0,3,.15.68,0,2.34.11,1.16.06,1.92.1,1.24.06,1.9.09,1.22,0,2,.1,1.13,0,2.24.1.92,0,3.15.14.58,0,2.59.11,1.16,0,2.06.08,1.29,0,2,.08,1.28,0,2,.08,1.25,0,2.15.08,1.14,0,3.27.12h0l3.27.11,1.05,0,2.27.07,1.29,0,2.08.07,1.31,0,2.13.07,1.28,0,2.26.07,1.13,0,3,.09h.36l3.41.09,1.08,0,2.37.06,1.34,0,2.1.05,1.44,0,2.13,0,1.34,0,2.28,0,1.24,0,2.78.06h.73l3.51.07,1,0,2.52,0,1.32,0,2.24,0,1.4,0,2.27,0,1.34,0,2.34,0,1.29,0,2.74,0h.86l3.63,0h.8l2.84,0,1.31,0,2.31,0,1.5,0,2.2,0,1.51,0,2.26,0h1.42l2.61,0h1.07l3.71,0h.55l3.17,0h20.32c172.16,0,311.73-12,311.73-26.91V787c0,14.86-139.57,26.91-311.73,26.91H939.6l-3.17,0h-.55l-3.71,0H931.1l-2.61,0h-1.42l-2.26,0-1.51,0-2.2,0h-1.5l-2.31,0-1.31,0-2.84,0h-.8l-3.63-.05-.86,0-2.74,0-1.29,0-2.34,0-1.34,0-2.27,0-1.4,0-2.24,0-1.32,0-2.52,0-1,0-3.51-.08h-.73l-2.78-.06-1.24,0-2.28,0-1.34,0-2.13,0-1.44,0-2.1-.05-1.34,0-2.37-.06-1.08,0-3.41-.09h-.36l-3-.09-1.13,0-2.26-.07-1.28,0-2.13-.06-1.31,0-2.08-.07-1.29,0-2.27-.08-1.05,0-3.27-.11h0l-3.27-.12-1.14,0-2.15-.08-1.25,0-2-.07-1.28,0-2-.08-1.29,0-2.06-.09-1.16,0-2.59-.11-.58,0-3.15-.14-.92,0-2.24-.1-1.13,0-2-.09-1.22-.06-1.9-.09-1.24-.06-1.92-.09-1.16-.06-2.34-.12-.68,0-3-.16-.76,0-2.23-.12-1.14-.06-1.86-.1-1.17-.07-1.82-.1-1.17-.07-1.85-.1-1.09-.07-2-.11-.92-.06-2.86-.17-.46,0-2.4-.15-.95-.06-1.87-.12-1.11-.07-1.7-.11-1.13-.08-1.74-.11-1-.07-1.85-.13-.91-.06-2.71-.19-.21,0-2.48-.18-.89-.06-1.79-.14-1-.07-1.66-.12-1.06-.09-1.59-.12-1-.08-1.75-.14-.82-.06-2.25-.19-.32,0-2.51-.21-.77-.07-1.74-.15-.92-.08-1.55-.13-1-.09-1.51-.13-1-.09-1.55-.14-.85-.08-1.93-.18-.45,0-2.34-.23-.63-.06-1.69-.16-.83-.09-1.48-.15-.85-.08-1.42-.15-.87-.09-1.43-.15-.79-.09-1.66-.18-.52,0-2.15-.24-.55-.06-1.57-.18-.77-.09-1.35-.16-.79-.09-1.28-.16-.8-.09-1.29-.16-.74-.09-1.39-.18-.6-.08-2-.25-.32,0-1.6-.21-.64-.09-1.25-.17-.72-.1L693.7,801l-.73-.1-1.14-.17-.68-.1-1.2-.17-.58-.09-1.74-.27h0l-1.69-.26-.53-.09-1.14-.18-.64-.11-1-.16-.64-.11-1-.17-.61-.11-1-.18-.53-.09-1.34-.25-.18,0-1.48-.28-.44-.08-1-.2-.52-.1-.9-.18-.54-.11-.85-.18-.52-.11-.88-.19-.45-.1-1.05-.23-.24-.05-1.25-.29-.31-.08-.9-.21-.43-.11-.75-.19-.45-.11-.7-.18-.43-.12-.7-.19-.39-.11-.78-.22-.27-.07-1-.3-.2-.07-.76-.23-.32-.11-.61-.2-.35-.11-.55-.19-.33-.12-.53-.19-.31-.12-.12,0-.28-.11-.48-.19-.37-.15-.45-.19-.36-.15-.41-.19-.34-.15-.38-.19-.32-.16-.36-.19-.28-.15-.34-.19-.26-.16-.31-.19-.24-.15-.28-.2-.16-.11-.05,0c-.17-.13-.34-.26-.49-.39l0,0a4.59,4.59,0,0,1-.39-.37l-.12-.12c-.09-.09-.17-.19-.25-.28l-.11-.13-.21-.31,0-.07h0a2.71,2.71,0,0,1-.44-1.43Z" transform="translate(-648.18 -266.61)"/></g><ellipse class="cls-8" cx="311.74" cy="508.47" rx="311.74" ry="26.91"/></g><rect class="cls-9" x="168.13" y="273.57" width="298.37" height="183.61"/><path class="cls-10" d="M1111.19,517.23H819.79a26.43,26.43,0,0,0-26.43,26.37V752.49a5.73,5.73,0,0,0,5.73,5.74h332.8a5.74,5.74,0,0,0,5.74-5.74V543.6A26.43,26.43,0,0,0,1111.19,517.23ZM816.31,718.06V545.92a5.73,5.73,0,0,1,5.74-5.73h286.89a5.73,5.73,0,0,1,5.74,5.73V718.06a5.74,5.74,0,0,1-5.74,5.74H822.05A5.74,5.74,0,0,1,816.31,718.06Z" transform="translate(-648.18 -266.61)"/><path class="cls-11" d="M1143.37,746.75H787.62a5.74,5.74,0,0,0-5.74,5.74h0a23,23,0,0,0,23,23h321.28a23,23,0,0,0,23-23h0A5.74,5.74,0,0,0,1143.37,746.75Z" transform="translate(-648.18 -266.61)"/><rect class="cls-12" x="185.05" y="393.34" width="20.86" height="6.07"/><rect class="cls-13" x="185.05" y="407.17" width="20.86" height="6.07"/><rect class="cls-14" x="185.05" y="421.01" width="20.86" height="6.07"/><rect class="cls-15" x="185.05" y="434.84" width="20.86" height="6.07"/><rect class="cls-16" x="220.04" y="393.64" width="97.12" height="6.83"/><rect class="cls-17" x="220.04" y="414.06" width="97.12" height="6.82"/><rect class="cls-18" x="220.04" y="434.47" width="97.12" height="6.82"/><rect class="cls-19" x="220.04" y="424.26" width="97.12" height="6.82"/><rect class="cls-20" x="220.04" y="403.85" width="97.12" height="6.82"/><rect class="cls-21" x="335.55" y="393.64" width="115.62" height="4.72"/><rect class="cls-22" x="335.55" y="407.74" width="115.62" height="4.71"/><rect class="cls-23" x="335.55" y="421.85" width="115.62" height="4.71"/><rect class="cls-24" x="335.55" y="414.8" width="115.62" height="4.71"/><rect class="cls-25" x="335.55" y="400.7" width="115.62" height="4.71"/><rect class="cls-26" x="335.55" y="429.12" width="115.62" height="4.72"/><rect class="cls-27" x="335.55" y="436.18" width="61.26" height="4.71"/><rect class="cls-28" x="184.81" y="290.04" width="132.5" height="89.7"/><path class="cls-29" d="M901.19,616.42a14.61,14.61,0,0,1-6.35-.56l-9.16,16.37a33.42,33.42,0,0,0,21.58,2Z" transform="translate(-648.18 -266.61)"/><path class="cls-30" d="M914,598.11a15,15,0,0,1-7,16.34l6.07,17.8c.19-.09.39-.15.58-.25a33.58,33.58,0,0,0,17.3-41.84Z" transform="translate(-648.18 -266.61)"/><path class="cls-31" d="M903.77,587.31a14.76,14.76,0,0,1,7.6,5.28l17-8a33.54,33.54,0,0,0-22.81-16Z" transform="translate(-648.18 -266.61)"/><path class="cls-32" d="M889.51,612.91a14.69,14.69,0,0,1-3.75-4.94,14.83,14.83,0,0,1,11.93-21.23l1.75-18.7A33.51,33.51,0,0,0,869,615.86a33.2,33.2,0,0,0,11.4,13.39Z" transform="translate(-648.18 -266.61)"/><polygon class="cls-33" points="334.86 365.6 347.67 365.6 347.64 377.25 334.83 377.25 334.86 365.6"/><rect class="cls-34" x="349.65" y="342.28" width="12.81" height="34.98"/><rect class="cls-35" x="364.46" y="318.4" width="12.81" height="58.87"/><rect class="cls-36" x="379.27" y="334.54" width="12.81" height="42.73"/><rect class="cls-37" x="394.07" y="328.44" width="12.81" height="48.84"/><rect class="cls-38" x="408.51" y="336.02" width="12.81" height="41.24"/><rect class="cls-39" x="423.32" y="310.13" width="12.81" height="67.14"/><rect class="cls-40" x="438.12" y="300.1" width="12.81" height="77.18"/><polygon class="cls-41" points="334.86 371.71 347.67 371.72 347.64 377.25 334.83 377.25 334.86 371.71"/><rect class="cls-42" x="349.65" y="361.98" width="12.81" height="15.27"/><rect class="cls-43" x="364.46" y="344.9" width="12.81" height="32.37"/><rect class="cls-44" x="379.27" y="354.25" width="12.81" height="23.03"/><rect class="cls-45" x="394.07" y="348.15" width="12.81" height="29.13"/><rect class="cls-46" x="408.51" y="355.73" width="12.81" height="21.54"/><rect class="cls-47" x="423.32" y="350.22" width="12.81" height="27.05"/><rect class="cls-48" x="438.12" y="340.19" width="12.81" height="37.09"/><path class="cls-49" d="M1155.58,327.92l-4-.59a19.57,19.57,0,0,0,0,8.79l4-.59a15.73,15.73,0,0,0,1.88,4.53l-3.26,2.42a20.11,20.11,0,0,0,6.21,6.21l2.43-3.25a15.89,15.89,0,0,0,4.53,1.88l-.59,4a19.91,19.91,0,0,0,8.78,0l-.58-4a16,16,0,0,0,4.53-1.88l2.42,3.25a20.11,20.11,0,0,0,6.21-6.21l-3.26-2.42a15.73,15.73,0,0,0,1.88-4.53l4,.59a19.57,19.57,0,0,0,0-8.79l-4,.59a15.73,15.73,0,0,0-1.88-4.53l3.26-2.42a20.22,20.22,0,0,0-6.21-6.21l-2.42,3.25a16,16,0,0,0-4.53-1.87l.58-4a19.52,19.52,0,0,0-8.78,0l.59,4a15.87,15.87,0,0,0-4.53,1.87l-2.43-3.25a20.22,20.22,0,0,0-6.21,6.21l3.26,2.42A15.73,15.73,0,0,0,1155.58,327.92Zm4.92,3.81a10.67,10.67,0,1,1,10.67,10.67A10.67,10.67,0,0,1,1160.5,331.73Z" transform="translate(-648.18 -266.61)"/><path class="cls-50" d="M859.22,280l-5.9-7.65A21.71,21.71,0,0,1,867,266.61v9.61A12.12,12.12,0,0,0,859.22,280Z" transform="translate(-648.18 -266.61)"/><path class="cls-51" d="M846.33,287.78a21.65,21.65,0,0,1,5.45-13.85l6.05,7.85a12.09,12.09,0,0,0-1.92,6.55c0,.36,0,.71.05,1.06Z" transform="translate(-648.18 -266.61)"/><path class="cls-52" d="M856.38,291.67a12.16,12.16,0,1,0,12.79-15.45v-9.61A21.76,21.76,0,1,1,846.39,290Z" transform="translate(-648.18 -266.61)"/><polygon class="cls-53" points="13.45 299.87 28.2 276.95 42.7 299.87 34.53 299.87 34.53 318.83 21.62 318.83 21.62 299.87 13.45 299.87"/><circle class="cls-54" cx="161.71" cy="200.77" r="22.28"/><g class="cls-55"><rect class="cls-56" x="147.78" y="192.69" width="28.59" height="19.48"/></g><rect class="cls-57" x="146.78" y="191.69" width="28.59" height="19.48"/><path class="cls-58" d="M823.55,477.79c-2.47-1.85-4.9-3.76-7.32-5.68-1.22-.95-2.4-1.94-3.6-2.91l-3.6-2.92h.45l-3.59,2.92c-1.2,1-2.39,2-3.61,2.91-2.42,1.92-4.84,3.83-7.32,5.68,2.29-2.08,4.63-4.09,7-6.1,1.16-1,2.36-2,3.54-3l3.55-3,.23-.19.22.19,3.55,3c1.19,1,2.38,2,3.55,3C818.92,473.7,821.26,475.71,823.55,477.79Z" transform="translate(-648.18 -266.61)"/><polyline class="cls-57" points="175.37 191.69 161.07 203.47 146.78 191.69"/><path class="cls-58" d="M823.55,458.31c-2.29,2.07-4.63,4.09-7,6.1-1.17,1-2.36,2-3.55,3l-3.55,3-.22.19-.23-.19-3.55-3c-1.18-1-2.38-2-3.54-3-2.35-2-4.69-4-7-6.1,2.48,1.85,4.9,3.76,7.32,5.68,1.22.95,2.41,1.93,3.61,2.9l3.59,2.92H809l3.6-2.92c1.2-1,2.38-1.95,3.6-2.9C818.65,462.07,821.08,460.16,823.55,458.31Z" transform="translate(-648.18 -266.61)"/><rect class="cls-59" x="953.63" y="389" width="12.25" height="55.93" transform="translate(1271.32 567.31) rotate(180)"/><rect class="cls-60" x="933.94" y="397.97" width="12.25" height="46.96" transform="translate(1231.95 576.27) rotate(180)"/><rect class="cls-61" x="973.13" y="405.62" width="12.25" height="39.3" transform="translate(1310.33 583.93) rotate(180)"/><rect class="cls-62" x="914.25" y="381.56" width="12.25" height="63.36" transform="translate(1192.58 559.87) rotate(180)"/><polygon class="cls-63" points="334.6 127.83 335.38 127.02 313.06 105.5 290.89 118.74 268.99 92.62 268.12 93.34 290.64 120.2 312.9 106.91 334.6 127.83"/><path class="cls-64" d="M980.71,394a2.41,2.41,0,1,0,2.4-2.41A2.4,2.4,0,0,0,980.71,394Z" transform="translate(-648.18 -266.61)"/><path class="cls-64" d="M958.76,373.12a2.41,2.41,0,1,0,2.4-2.4A2.41,2.41,0,0,0,958.76,373.12Z" transform="translate(-648.18 -266.61)"/><path class="cls-64" d="M936.54,385.77a2.41,2.41,0,1,0,2.41-2.4A2.41,2.41,0,0,0,936.54,385.77Z" transform="translate(-648.18 -266.61)"/><path class="cls-64" d="M914.33,359.59a2.41,2.41,0,1,0,2.41-2.4A2.41,2.41,0,0,0,914.33,359.59Z" transform="translate(-648.18 -266.61)"/><polygon class="cls-65" points="116.4 112.48 142.98 86.5 165.91 108.43 167.15 107.13 142.96 84.02 116.47 109.9 92.84 83.94 74.39 103.75 31.86 59.54 30.57 60.78 74.42 106.35 92.82 86.58 116.4 112.48"/><path class="cls-66" d="M809.65,375.71a5.06,5.06,0,1,0,5.06-5.06A5.07,5.07,0,0,0,809.65,375.71Z" transform="translate(-648.18 -266.61)"/><path class="cls-67" d="M786.09,352.29a5.06,5.06,0,1,0,5.06-5.06A5.06,5.06,0,0,0,786.09,352.29Z" transform="translate(-648.18 -266.61)"/><path class="cls-68" d="M759.56,377.81a5.06,5.06,0,1,0,5.06-5.06A5.06,5.06,0,0,0,759.56,377.81Z" transform="translate(-648.18 -266.61)"/><path class="cls-69" d="M735.7,352.29a5.06,5.06,0,1,0,5.06-5.06A5.05,5.05,0,0,0,735.7,352.29Z" transform="translate(-648.18 -266.61)"/><path class="cls-70" d="M717.49,370.65a5.07,5.07,0,1,0,5.06-5.06A5.06,5.06,0,0,0,717.49,370.65Z" transform="translate(-648.18 -266.61)"/><path class="cls-71" d="M674.33,326.77a5.07,5.07,0,1,0,5.06-5.06A5.06,5.06,0,0,0,674.33,326.77Z" transform="translate(-648.18 -266.61)"/><path class="cls-72" d="M800.63,644.83l-2.89,12.6c-.07,1.21,2.31,2.43,2.76,3.56l4.89,12.2,3.18-3.18-3.18-12.13.68-12.09Z" transform="translate(-648.18 -266.61)"/><path class="cls-73" d="M819.86,677.34l-14.56-11.7s-3.41,8.23-.7,16.86c1.33,4.24-.09,7.26.63,9.27s5.61,28.59,5.34,30.56-2.45,7.51-3.2,13.3c-.81,6.36-.28,25.79-.7,33.67h0s-.35,5.87-1,7.17a11.78,11.78,0,0,0-1.73,4.48,2.75,2.75,0,0,0,1.67,2.63c1.17.56,1.93-.07,2.35,0,2.42.23,2.9,2.06,7.06,2.64a6.36,6.36,0,0,0,4.34-1.21.94.94,0,0,0,.14-1.29c-.25-.37-3.34-1.35-4.74-2.2a10.92,10.92,0,0,1-3-3.9,4.31,4.31,0,0,1,0-1.53h0c.16-1.24.33-2.52.53-3.85.16-1,.3-1.74.3-1.74h0c2.61-17.15,7.7-39.86,8.38-47.66C821.58,714.13,820.81,698.27,819.86,677.34Z" transform="translate(-648.18 -266.61)"/><path class="cls-74" d="M819.67,785.28c.29-.53.35-1.31.06-1.5a25.91,25.91,0,0,0-2.62-1.49c-.81-.35-2.1-.65-1.64-.41s-.35,1.16-1.11,1.13c-2.6-.1-4.56-1.78-6.05-2.12-2.15-.48-3.11-3-3.21-3.39a9.86,9.86,0,0,0-1.46,3,5.12,5.12,0,0,0-.27,2.25,5,5,0,0,1,.29,2.12,4,4,0,0,0,1.55.52,6,6,0,0,0,1.66,0L807,784a5.75,5.75,0,0,1,1.32.1,7.24,7.24,0,0,1,2,.89c.3.35.55,1,1,1.18a8.35,8.35,0,0,0,3.43.77C817.56,787,819.17,786.17,819.67,785.28Z" transform="translate(-648.18 -266.61)"/><path class="cls-75" d="M840.8,783.94c-.31-.34-3.62-.84-5.18-1.47a9,9,0,0,1-3.65-3.41c-.36-.84-.32-5.11-.29-6.9.18-12.51,2.14-42.14,2.41-49.76.45-12.56-1.31-25.5-6.34-45.61l-18.13-13.62s-4.94,9.41-3.17,18.35c1,5.19,5.35,5.94,6.1,8s12,34.46,12,34.46a61,61,0,0,0-2.09,14.77c0,6.58,3.15,26.4,3.78,34,.08,1.48.37,5-.06,6.14-.52,1.39-1.86,3-1.77,4.76a2.67,2.67,0,0,0,2.06,2.35c1.28.38,2-.36,2.42-.38,2.54-.13,3.26,1.6,7.64,1.56a6.93,6.93,0,0,0,4.32-1.85A.92.92,0,0,0,840.8,783.94Z" transform="translate(-648.18 -266.61)"/><path class="cls-76" d="M841.19,785.48c.24-.56.2-1.35-.12-1.49a24.51,24.51,0,0,0-2.9-1.08c-.88-.23-2.25-.33-1.75-.17s-.21,1.2-1,1.29c-2.7.29-4.94-1.08-6.52-1.19-2.28-.15-3.14-2.49-3.3-2.88a10.41,10.41,0,0,0-1.59,3.16,4.93,4.93,0,0,0,0,2.26,5,5,0,0,1,.56,2.07,4.54,4.54,0,0,0,1.67.28,6.59,6.59,0,0,0,1.71-.27V786.1a6.8,6.8,0,0,1,1.38-.1,4.63,4.63,0,0,1,2.24.77,4.1,4.1,0,0,0,1.21.85,9.15,9.15,0,0,0,3.55.23C839.24,787.53,840.79,786.44,841.19,785.48Z" transform="translate(-648.18 -266.61)"/><path class="cls-77" d="M876.65,615.77c.12-.52-.48-.68-1.11.36a5.9,5.9,0,0,1-4,2.65c-.11-.29.27-.38.56-1s.1-1.14-.2-1.25-.74.68-.92.83l-2,1.71a4.18,4.18,0,0,0-1.46,2,2.92,2.92,0,0,0-.1.5c-4.49,3.42-19.27,7.67-21.27,8.89-1.31.8-22.55-.07-22.55-.07l2.46,8.76c6.75-.07,18.84-1.23,20.51-1.56,6.25-1.22,19.59-11.73,21-12.68.93.24,6-.77,6.76-2a2,2,0,0,0,.34-1.31c.45-.52,1.21-2.37-.12-2C875.93,618.72,876.28,617.33,876.65,615.77Z" transform="translate(-648.18 -266.61)"/><path class="cls-78" d="M803.6,630.85a86.21,86.21,0,0,0-3.81,13.85l6.94,1.09V636" transform="translate(-648.18 -266.61)"/><path class="cls-79" d="M827.06,662.37c.12,1.1,6,13.47,6.77,26.73.49,8.79.61,13.83-.07,20.17-6.17,3.64-19.81,4.06-26.53-.81.09-5.24-1.38-12-2.1-16.62-.32-2-2.36-7.58-2.63-9.61-1-7.64.92-14.81,5.92-19.12Z" transform="translate(-648.18 -266.61)"/><path class="cls-80" d="M826.88,650.45a62.17,62.17,0,0,0,.33,10,20,20,0,0,1,.33,2.65,1.51,1.51,0,0,1-.53,1v0c.45-1-.63-6-1.09-8.79a31.6,31.6,0,0,1,.66-11.68c1-3.43,1.36-5.06,1.36-5.06s.78-1.17,1.32-2a6.21,6.21,0,0,1,0,4.79A33.73,33.73,0,0,0,826.88,650.45Z" transform="translate(-648.18 -266.61)"/><path class="cls-81" d="M838.78,630s-6.11-1-9-2.75c-1.6-.94-4.38-1-5.79-1-1.53-1.94-3-3.2-3.47-3.27s-3,0-5.92,0A11.87,11.87,0,0,0,803,635.66a83.36,83.36,0,0,0,1.3,9.66c.71,3.87.83,12.53.66,16.33-.07,1.74-.88,2.24-.88,3.12,0,1.27,2.14,2,4.22,1.56s10.09.16,15.06-.74a7.36,7.36,0,0,0,3.64-1.4,1.51,1.51,0,0,0,.53-1,20,20,0,0,0-.33-2.65,62.17,62.17,0,0,1-.33-10,33.73,33.73,0,0,1,2.37-9.07,8.12,8.12,0,0,0,.36-1.24l.83-.11c6-.66,8.06-.34,8.06-.34C839.25,637,838.78,630,838.78,630Z" transform="translate(-648.18 -266.61)"/><path class="cls-82" d="M823.12,602.89c-1.49-2.85-3.85-6.88-9.5-6.32s-10.48,4.11-10.41,8.35,2.93,9.32,4,12.25.64,7.28.64,7.28l12-.36s.17-3.92.93-5.36a20.2,20.2,0,0,1,4-3.9c.85-.68,1.54-2.12,1-4.35-.76-3.34-1-4.81-1.52-5.79C824,604,823.44,603.51,823.12,602.89Z" transform="translate(-648.18 -266.61)"/><path class="cls-83" d="M824.1,599.87c1.89-1.1,1-4.61-4.8-5.8s-19.48-.8-17.49,16.5-11.42,26.72-12.73,27.83c-2.58,2.19-.39,6.76,4.78,4.17s3.77,3.58,6,4.18,3.89.33,6.91-1.92,3.37,1.23,5.61,1.52c4.57.6,5.17-4.37,4-7.16s-6.16-25.64-.4-30a5.06,5.06,0,0,1,4.36-.83.55.55,0,0,0,.64-.74C820.22,605.9,821.44,601.41,824.1,599.87Z" transform="translate(-648.18 -266.61)"/><path class="cls-84" d="M721.14,716.24c-2.35-1.24-5-2-6.89-3.92-3.33-3.4-2.89-9.14-5.79-12.92-2.69-3.49-7.65-4.56-10.48-7.95-1.57-1.88-2.8-4.64-5.25-4.79s-4.17,2.92-3.74,5.4,2.13,4.52,3.47,6.65c2.25,3.58-.1,6.36.08,10.58.21,5,6.71,6.34,9.08,10.7,2.67,4.92-2.27,8,2,14.26,3.27,4.8,7.09,5.48,9.13,11.25,1.68,4.75,9.19,5.22,13.61,2.8C738.44,741.69,730.55,721.21,721.14,716.24Z" transform="translate(-648.18 -266.61)"/><path class="cls-85" d="M726.55,743.77q-3.25-4.53-6.41-9.11c-.13-2.57-.26-5.13-.42-7.7-.1-1.74.19-4.15-.52-5.75a.46.46,0,0,0-.51-.21l-.15,0a.46.46,0,0,0-.33.44l0,.12a16.32,16.32,0,0,0,.38,1.87c0,.58.07,1.16.11,1.74l.18,3c.09,1.65.18,3.31.26,5q-6.4-9.35-12.44-18.92c0-3.57-.06-7.13-.26-10.69,0-.58-.93-.58-.9,0,.17,3.08.25,6.15.26,9.23q-5.28-8.43-10.24-17.06a.45.45,0,0,0-.78.45q4.83,8.4,10,16.62l-4.88-3.62c-.47-.34-.91.44-.45.78l6.61,4.9h0q5.81,9.21,12,18.2a65.37,65.37,0,0,0-8.14-4.44c-.53-.23-1,.54-.46.78a63.21,63.21,0,0,1,9.94,5.63c2.12,3.06,4.25,6.11,6.42,9.12C726.11,744.69,726.89,744.24,726.55,743.77Z" transform="translate(-648.18 -266.61)"/><path class="cls-86" d="M740.29,725.11c-.19-2.63-.94-5.29-.32-7.86,1.12-4.59,6.18-7.24,7.83-11.67,1.54-4.1-.17-8.84,1.2-13,.76-2.31,2.44-4.8,1.27-6.94s-4.65-2-6.52-.32-2.68,4.17-3.77,6.42c-1.83,3.78-5.41,3.26-8.87,5.63-4.07,2.79-1.82,9-4.25,13.28-2.73,4.83-7.91,2.28-11,9.18-2.32,5.27-.88,8.85-4.67,13.6-3.12,3.91.43,10.49,4.79,12.94C727.94,753.07,741,735.66,740.29,725.11Z" transform="translate(-648.18 -266.61)"/><path class="cls-85" d="M719.94,744.14Q722,739,724.25,734c2.09-1.45,4.18-2.92,6.26-4.39,1.42-1,3.6-2,4.57-3.47a.46.46,0,0,0-.09-.54l-.12-.09a.45.45,0,0,0-.54-.05l-.1.08a16.73,16.73,0,0,0-1.38,1.3l-1.4,1L729,729.55l-4.05,2.83q4.5-10.3,9.4-20.43,4.53-2.79,8.87-5.83c.47-.33,0-1.09-.47-.76-2.5,1.76-5.05,3.44-7.65,5.07q4.35-8.88,9-17.6a.45.45,0,0,0-.79-.41q-4.54,8.48-8.77,17.12l.49-6c0-.57-.85-.54-.9,0-.22,2.71-.43,5.43-.65,8.14h0q-4.73,9.74-9.05,19.64a62.67,62.67,0,0,0-.54-9.18c-.08-.57-1-.55-.89,0a63.14,63.14,0,0,1,.48,11.33q-2.21,5.09-4.31,10.2C718.93,744.25,719.72,744.67,719.94,744.14Z" transform="translate(-648.18 -266.61)"/><path class="cls-87" d="M707.82,715.77c1.52-2.63,3.64-5,4.29-8,1.16-5.34-2.77-10.64-2.25-16.08.47-5,4.64-9.1,5.32-14.11.37-2.79-.12-6.22,2.17-7.85s5.83.29,6.94,3,.68,5.68.68,8.57c0,4.84,4,6.11,6.37,10.32,2.82,4.94-2.64,10.25-2.28,15.93.4,6.4,7.08,6.37,6.76,15.07-.25,6.65-3.55,9.64-2,16.5,1.26,5.63-5.74,10.67-11.51,11C706.55,751.05,701.71,726.35,707.82,715.77Z" transform="translate(-648.18 -266.61)"/><path class="cls-85" d="M719.36,745.81c.27-4.25.48-8.51.66-12.76q-2.16-3.85-4.29-7.73c-1-1.75-2.71-3.92-3-5.91a.53.53,0,0,1,.37-.51l.18,0a.5.5,0,0,1,.58.22l.06.13a17.12,17.12,0,0,1,.77,2l1,1.75,1.68,3.07q1.38,2.49,2.77,5,.52-13,.54-26-3.3-5.18-6.27-10.53c-.33-.58.55-1.13.87-.55q2.58,4.63,5.39,9.12,0-11.42-.47-22.82a.52.52,0,0,1,1,0q.43,11.1.47,22.21l2.53-6.49c.24-.62,1.15-.13.91.48l-3.42,8.8h0q0,12.5-.51,25a72.15,72.15,0,0,1,5.2-9.28c.36-.55,1.28-.07.92.48A72.41,72.41,0,0,0,721.06,733c-.19,4.26-.4,8.52-.67,12.77C720.35,746.43,719.32,746.47,719.36,745.81Z" transform="translate(-648.18 -266.61)"/><polygon class="cls-88" points="54.64 482.14 62.08 511.56 85.36 511.56 91.82 482.14 54.64 482.14"/><path class="cls-89" d="M740.49,750H702.66a1.13,1.13,0,0,1-1.13-1.13h0a1.12,1.12,0,0,1,.33-.8,1.14,1.14,0,0,1,.8-.33h37.83a1.12,1.12,0,0,1,1.13,1.13h0a1.18,1.18,0,0,1-.21.67A1.14,1.14,0,0,1,740.49,750Z" transform="translate(-648.18 -266.61)"/><rect class="cls-90" x="428.37" y="439.4" width="111.76" height="75.31"/><path class="cls-91" d="M1076.63,706.09l51.54-45.72a6.42,6.42,0,0,1,8.53,0l51.54,45.72Z" transform="translate(-648.18 -266.61)"/><polygon class="cls-92" points="465.95 406.17 502.56 406.17 504.06 407.52 464.6 407.52 465.95 406.17"/><rect class="cls-93" x="437.75" y="407.07" width="90.16" height="90.16"/><rect class="cls-94" x="455.15" y="414.57" width="55.36" height="9.9"/><rect class="cls-95" x="447.2" y="432.72" width="72.46" height="0.75"/><rect class="cls-96" x="447.2" y="437.22" width="72.46" height="0.75"/><rect class="cls-97" x="447.2" y="441.72" width="72.46" height="0.75"/><rect class="cls-98" x="447.2" y="446.23" width="72.46" height="0.75"/><rect class="cls-99" x="447.2" y="450.73" width="72.46" height="0.75"/><rect class="cls-100" x="447.2" y="456.13" width="45.91" height="0.75"/><polygon class="cls-101" points="428.45 439.32 484.26 473.53 540.06 439.32 540.06 514.63 428.45 514.63 428.45 439.32"/><polygon class="cls-92" points="484.41 471.28 540.06 439.32 484.26 473.53 428.45 439.32 484.41 471.28"/><path class="cls-102" d="M1076.63,781.25l51.83-47.93a5.86,5.86,0,0,1,8,0l51.82,47.93Z" transform="translate(-648.18 -266.61)"/><polygon class="cls-92" points="428.45 514.63 477.43 469.34 475.81 468.35 428.45 514.63"/><polygon class="cls-92" points="540.13 514.63 491.16 469.34 492.77 468.35 540.13 514.63"/></g></g></svg>