<svg id="Camada_1" data-name="Camada 1" xmlns="http://www.w3.org/2000/svg" xmlns:xlink="http://www.w3.org/1999/xlink" viewBox="0 0 620 539.12"><defs><style>.cls-1{fill:url(#New_Gradient_Swatch_copy_33);}.cls-2{fill:#2d9678;}.cls-3{fill:url(#New_Gradient_Swatch_copy_33-2);}.cls-4{fill:url(#New_Gradient_Swatch_copy_33-3);}.cls-5{fill:none;}.cls-6{fill:#52298a;}.cls-6,.cls-7{fill-rule:evenodd;}.cls-8{fill:url(#New_Gradient_Swatch_copy_8);}.cls-9{fill:url(#New_Gradient_Swatch_copy_5);}.cls-10{fill:url(#New_Gradient_Swatch_copy_8-2);}.cls-11{isolation:isolate;}.cls-12{fill:#21692b;}.cls-13{fill:url(#linear-gradient);}.cls-14{fill:url(#linear-gradient-2);}.cls-15{fill:url(#New_Gradient_Swatch_copy_4);}.cls-16{fill:url(#New_Gradient_Swatch_copy_4-2);}.cls-17{fill:url(#New_Gradient_Swatch_copy_5-2);}.cls-18{fill:url(#New_Gradient_Swatch_copy_2);}.cls-19{fill:url(#New_Gradient_Swatch_copy_8-3);}.cls-20{fill:url(#New_Gradient_Swatch_copy_8-4);}.cls-21{fill:url(#New_Gradient_Swatch_copy_8-5);}.cls-22{fill:url(#New_Gradient_Swatch_copy_10);}.cls-23{fill:url(#New_Gradient_Swatch_copy_12);}.cls-24{fill:url(#New_Gradient_Swatch_copy_4-3);}.cls-25{fill:url(#New_Gradient_Swatch);}.cls-26{fill:url(#New_Gradient_Swatch-2);}.cls-27{fill:url(#New_Gradient_Swatch-3);}.cls-28{fill:url(#New_Gradient_Swatch-4);}.cls-29{fill:url(#New_Gradient_Swatch-5);}.cls-30{fill:url(#New_Gradient_Swatch_copy);}.cls-31{fill:url(#New_Gradient_Swatch_copy-2);}.cls-32{fill:url(#New_Gradient_Swatch_copy-3);}.cls-33{fill:url(#New_Gradient_Swatch_copy-4);}.cls-34{fill:url(#New_Gradient_Swatch_copy-5);}.cls-35{fill:url(#New_Gradient_Swatch_copy-6);}.cls-36{fill:url(#New_Gradient_Swatch_copy-7);}.cls-37{fill:url(#New_Gradient_Swatch_copy-8);}.cls-38{fill:url(#New_Gradient_Swatch_copy-9);}.cls-39{fill:url(#New_Gradient_Swatch_copy_14);}.cls-40{fill:url(#New_Gradient_Swatch_copy_14-2);}.cls-41{fill:url(#New_Gradient_Swatch_copy-10);}.cls-42{fill:url(#New_Gradient_Swatch_copy_14-3);}.cls-43{fill:url(#New_Gradient_Swatch_copy-11);}.cls-44{fill:url(#New_Gradient_Swatch_copy_14-4);}.cls-45{fill:#f9b253;}.cls-46{fill:url(#New_Gradient_Swatch_copy-12);}.cls-47{fill:#ccc;}.cls-48{fill:url(#New_Gradient_Swatch_copy_10-2);}.cls-49{fill:url(#New_Gradient_Swatch_copy_14-5);}.cls-50{fill:url(#New_Gradient_Swatch_copy-13);}.cls-51{fill:url(#New_Gradient_Swatch_copy_2-2);}.cls-52{fill:url(#New_Gradient_Swatch_copy_8-6);}.cls-53{fill:url(#New_Gradient_Swatch_copy-14);}.cls-54{fill:url(#New_Gradient_Swatch_copy-15);}.cls-55{fill:url(#New_Gradient_Swatch_copy-16);}.cls-56{fill:url(#New_Gradient_Swatch_copy-17);}.cls-57{fill:url(#New_Gradient_Swatch_copy_12-2);}.cls-58{fill:url(#New_Gradient_Swatch-6);}.cls-59{fill:url(#New_Gradient_Swatch-7);}.cls-60{fill:url(#New_Gradient_Swatch-8);}.cls-61{fill:url(#New_Gradient_Swatch-9);}.cls-62{fill:url(#New_Gradient_Swatch-10);}.cls-63{fill:url(#New_Gradient_Swatch-11);}.cls-64{fill:url(#New_Gradient_Swatch-12);}.cls-65{fill:url(#New_Gradient_Swatch-13);}.cls-66{fill:url(#New_Gradient_Swatch_copy_2-3);}.cls-67{fill:url(#New_Gradient_Swatch_copy_8-7);}.cls-68{fill:url(#New_Gradient_Swatch_copy_8-8);}.cls-69{fill:url(#New_Gradient_Swatch_copy_8-9);}.cls-70{fill:#fff;}.cls-71{fill:url(#New_Gradient_Swatch_copy_8-10);}.cls-72{fill:url(#New_Gradient_Swatch_copy_8-11);}.cls-73{fill:url(#New_Gradient_Swatch_copy_8-12);}.cls-74{fill:url(#New_Gradient_Swatch_copy_8-13);}.cls-75{fill:url(#New_Gradient_Swatch_copy_16);}.cls-76{fill:url(#New_Gradient_Swatch_copy_16-2);}.cls-77{fill:url(#New_Gradient_Swatch_copy_16-3);}.cls-78{fill:url(#New_Gradient_Swatch_copy_16-4);}.cls-79{fill:url(#New_Gradient_Swatch_copy_16-5);}.cls-80{fill:url(#New_Gradient_Swatch_copy_10-3);}.cls-81{fill:url(#New_Gradient_Swatch_copy_10-4);}.cls-82{fill:url(#New_Gradient_Swatch_copy_10-5);}.cls-83{fill:url(#New_Gradient_Swatch_copy-18);}.cls-84{fill:url(#New_Gradient_Swatch_copy-19);}</style><linearGradient id="New_Gradient_Swatch_copy_33" x1="9726.92" y1="561.49" x2="9945.06" y2="462.05" gradientTransform="matrix(-1, 0, 0, 1, 10581.98, 0)" gradientUnits="userSpaceOnUse"><stop offset="0" stop-color="#2e934b"/><stop offset="0.42" stop-color="#8abb62"/><stop offset="0.82" stop-color="#dedf77"/><stop offset="1" stop-color="#ffed7f"/></linearGradient><linearGradient id="New_Gradient_Swatch_copy_33-2" x1="9833.27" y1="620.02" x2="9675.02" y2="327.03" xlink:href="#New_Gradient_Swatch_copy_33"/><linearGradient id="New_Gradient_Swatch_copy_33-3" x1="9703.63" y1="455.51" x2="9853.33" y2="480.11" xlink:href="#New_Gradient_Swatch_copy_33"/><linearGradient id="New_Gradient_Swatch_copy_8" x1="-7584.1" y1="-2164.67" x2="-7514.33" y2="-2164.67" gradientTransform="translate(9025.91 252.12) rotate(-16.72)" gradientUnits="userSpaceOnUse"><stop offset="0" stop-color="#ffd571"/><stop offset="0.25" stop-color="#ffbd60"/><stop offset="0.78" stop-color="#ff8035"/><stop offset="1" stop-color="#ff6421"/></linearGradient><linearGradient id="New_Gradient_Swatch_copy_5" x1="-7595.6" y1="-2156.24" x2="-7514.33" y2="-2156.24" gradientTransform="translate(9025.91 252.12) rotate(-16.72)" gradientUnits="userSpaceOnUse"><stop offset="0" stop-color="#c662c2"/><stop offset="0.12" stop-color="#b95dbc"/><stop offset="0.35" stop-color="#9751ab"/><stop offset="0.65" stop-color="#5f3d90"/><stop offset="1" stop-color="#17236d"/></linearGradient><linearGradient id="New_Gradient_Swatch_copy_8-2" x1="-7580.69" y1="-2140.14" x2="-7514.33" y2="-2140.14" xlink:href="#New_Gradient_Swatch_copy_8"/><linearGradient id="linear-gradient" x1="9462.53" y1="791.42" x2="10110.12" y2="791.42" gradientTransform="matrix(-1, 0, 0, 1, 10742, 0)" gradientUnits="userSpaceOnUse"><stop offset="0" stop-color="#44a552"/><stop offset="0.43" stop-color="#59bd62"/><stop offset="1" stop-color="#79e27a"/></linearGradient><linearGradient id="linear-gradient-2" x1="10110.09" y1="773.44" x2="9407.44" y2="772.13" gradientTransform="matrix(-1, 0, 0, 1, 10091.82, -270.87)" xlink:href="#linear-gradient"/><linearGradient id="New_Gradient_Swatch_copy_4" x1="793.11" y1="712.76" x2="1224.35" y2="405.75" gradientTransform="translate(-667.11 -270.87)" gradientUnits="userSpaceOnUse"><stop offset="0" stop-color="#be73de"/><stop offset="1" stop-color="#514eb7"/></linearGradient><linearGradient id="New_Gradient_Swatch_copy_4-2" x1="968.61" y1="746.8" x2="969.32" y2="774.62" gradientTransform="translate(-16.92)" xlink:href="#New_Gradient_Swatch_copy_4"/><linearGradient id="New_Gradient_Swatch_copy_5-2" x1="968.99" y1="764.86" x2="970.42" y2="688.52" gradientTransform="translate(-667.11 -270.87)" xlink:href="#New_Gradient_Swatch_copy_5"/><linearGradient id="New_Gradient_Swatch_copy_2" x1="761.14" y1="688.87" x2="1293.38" y2="394.21" gradientTransform="translate(-16.92)" gradientUnits="userSpaceOnUse"><stop offset="0" stop-color="#fff"/><stop offset="0.37" stop-color="#f2f2ff"/><stop offset="1" stop-color="#d2d2ff"/></linearGradient><linearGradient id="New_Gradient_Swatch_copy_8-3" x1="991.62" y1="572.48" x2="1162.14" y2="465.46" gradientTransform="translate(-667.11 -270.87)" xlink:href="#New_Gradient_Swatch_copy_8"/><linearGradient id="New_Gradient_Swatch_copy_8-4" x1="989.7" y1="651.15" x2="1160.22" y2="554.83" gradientTransform="translate(-667.11 -270.87)" xlink:href="#New_Gradient_Swatch_copy_8"/><linearGradient id="New_Gradient_Swatch_copy_8-5" x1="811.14" y1="647.98" x2="1087.25" y2="417.53" gradientTransform="translate(-667.11 -270.87)" xlink:href="#New_Gradient_Swatch_copy_8"/><linearGradient id="New_Gradient_Swatch_copy_10" x1="903.38" y1="563.89" x2="986.86" y2="505.39" gradientTransform="translate(-16.92)" gradientUnits="userSpaceOnUse"><stop offset="0" stop-color="#30944c"/><stop offset="0.41" stop-color="#8abb62"/><stop offset="0.82" stop-color="#dedf77"/><stop offset="1" stop-color="#ffed7f"/></linearGradient><linearGradient id="New_Gradient_Swatch_copy_12" x1="978.04" y1="604.87" x2="903.12" y2="562.06" gradientTransform="translate(-16.92)" gradientUnits="userSpaceOnUse"><stop offset="0" stop-color="#7de1f6"/><stop offset="0.07" stop-color="#74d8f4"/><stop offset="0.71" stop-color="#218be2"/><stop offset="1" stop-color="#006ddb"/></linearGradient><linearGradient id="New_Gradient_Swatch_copy_4-3" x1="845.68" y1="571.48" x2="945.12" y2="571.48" gradientTransform="translate(-16.92)" xlink:href="#New_Gradient_Swatch_copy_4"/><linearGradient id="New_Gradient_Swatch" x1="1013.5" y1="544.67" x2="1025.63" y2="544.67" gradientTransform="translate(-667.11 -270.87)" gradientUnits="userSpaceOnUse"><stop offset="0" stop-color="#b7b4b1"/><stop offset="0.55" stop-color="#959390"/><stop offset="1" stop-color="#7d7b79"/></linearGradient><linearGradient id="New_Gradient_Swatch-2" x1="1031.69" y1="540.63" x2="1043.81" y2="540.63" xlink:href="#New_Gradient_Swatch"/><linearGradient id="New_Gradient_Swatch-3" x1="1049.87" y1="534.57" x2="1061.99" y2="534.57" xlink:href="#New_Gradient_Swatch"/><linearGradient id="New_Gradient_Swatch-4" x1="1068.05" y1="530.2" x2="1080.17" y2="530.2" xlink:href="#New_Gradient_Swatch"/><linearGradient id="New_Gradient_Swatch-5" x1="1086.23" y1="527.37" x2="1098.35" y2="527.37" xlink:href="#New_Gradient_Swatch"/><linearGradient id="New_Gradient_Swatch_copy" x1="1013.5" y1="554.77" x2="1025.63" y2="554.77" gradientTransform="translate(-667.11 -270.87)" gradientUnits="userSpaceOnUse"><stop offset="0" stop-color="gray"/><stop offset="0.64" stop-color="#52524d"/><stop offset="1" stop-color="#3c3c35"/></linearGradient><linearGradient id="New_Gradient_Swatch_copy-2" x1="1031.69" y1="552.25" x2="1043.81" y2="552.25" xlink:href="#New_Gradient_Swatch_copy"/><linearGradient id="New_Gradient_Swatch_copy-3" x1="1049.87" y1="549.72" x2="1061.99" y2="549.72" xlink:href="#New_Gradient_Swatch_copy"/><linearGradient id="New_Gradient_Swatch_copy-4" x1="1068.05" y1="552.25" x2="1080.17" y2="552.25" xlink:href="#New_Gradient_Swatch_copy"/><linearGradient id="New_Gradient_Swatch_copy-5" x1="1086.23" y1="545.68" x2="1098.35" y2="545.68" xlink:href="#New_Gradient_Swatch_copy"/><linearGradient id="New_Gradient_Swatch_copy-6" x1="1007.51" y1="592.76" x2="1104.46" y2="592.76" xlink:href="#New_Gradient_Swatch_copy"/><linearGradient id="New_Gradient_Swatch_copy-7" x1="1007.51" y1="607.08" x2="1104.46" y2="607.08" xlink:href="#New_Gradient_Swatch_copy"/><linearGradient id="New_Gradient_Swatch_copy-8" x1="1007.51" y1="621.39" x2="1104.46" y2="621.39" xlink:href="#New_Gradient_Swatch_copy"/><linearGradient id="New_Gradient_Swatch_copy-9" x1="1007.51" y1="635.71" x2="1104.46" y2="635.71" xlink:href="#New_Gradient_Swatch_copy"/><linearGradient id="New_Gradient_Swatch_copy_14" x1="9662.36" y1="666.54" x2="9673.26" y2="633.83" gradientTransform="matrix(-1, 0, 0, 1, 10742, 0)" gradientUnits="userSpaceOnUse"><stop offset="0" stop-color="#ffecdc"/><stop offset="0.24" stop-color="#f6dac4"/><stop offset="0.74" stop-color="#e0ad87"/><stop offset="1" stop-color="#d39364"/></linearGradient><linearGradient id="New_Gradient_Swatch_copy_14-2" x1="9666.12" y1="714.56" x2="9682.07" y2="714.56" xlink:href="#New_Gradient_Swatch_copy_14"/><linearGradient id="New_Gradient_Swatch_copy-10" x1="9665.91" y1="765.61" x2="9680.97" y2="765.61" gradientTransform="matrix(-1, 0, 0, 1, 10742, 0)" xlink:href="#New_Gradient_Swatch_copy"/><linearGradient id="New_Gradient_Swatch_copy_14-3" x1="9668.4" y1="713.83" x2="9700.16" y2="713.83" xlink:href="#New_Gradient_Swatch_copy_14"/><linearGradient id="New_Gradient_Swatch_copy-11" x1="9684.56" y1="767.17" x2="9700.4" y2="767.17" gradientTransform="matrix(-1, 0, 0, 1, 10742, 0)" xlink:href="#New_Gradient_Swatch_copy"/><linearGradient id="New_Gradient_Swatch_copy_14-4" x1="9755.83" y1="613.86" x2="9681.82" y2="634.68" xlink:href="#New_Gradient_Swatch_copy_14"/><linearGradient id="New_Gradient_Swatch_copy-12" x1="9691.35" y1="707.84" x2="9668.22" y2="653.99" gradientTransform="matrix(-1, 0, 0, 1, 10742, 0)" xlink:href="#New_Gradient_Swatch_copy"/><linearGradient id="New_Gradient_Swatch_copy_10-2" x1="9655.35" y1="672.51" x2="9699.96" y2="611.38" gradientTransform="matrix(-1, 0, 0, 1, 10742, 0)" xlink:href="#New_Gradient_Swatch_copy_10"/><linearGradient id="New_Gradient_Swatch_copy_14-5" x1="9694.05" y1="604.52" x2="9664.65" y2="613.77" xlink:href="#New_Gradient_Swatch_copy_14"/><linearGradient id="New_Gradient_Swatch_copy-13" x1="9652.01" y1="618.78" x2="9685.57" y2="618.78" gradientTransform="matrix(-1, 0, 0, 1, 10742, 0)" xlink:href="#New_Gradient_Swatch_copy"/><linearGradient id="New_Gradient_Swatch_copy_2-2" x1="9511.51" y1="768.8" x2="9675.84" y2="654.15" gradientTransform="matrix(-1, 0, 0, 1, 10091.82, -270.87)" xlink:href="#New_Gradient_Swatch_copy_2"/><linearGradient id="New_Gradient_Swatch_copy_8-6" x1="9540" y1="751.76" x2="9596.55" y2="705.52" gradientTransform="matrix(-1, 0, 0, 1, 10091.82, -270.87)" xlink:href="#New_Gradient_Swatch_copy_8"/><linearGradient id="New_Gradient_Swatch_copy-14" x1="9537.76" y1="770.53" x2="9546.79" y2="770.53" gradientTransform="matrix(-1, 0, 0, 1, 10742, 0)" xlink:href="#New_Gradient_Swatch_copy"/><linearGradient id="New_Gradient_Swatch_copy-15" x1="9580.43" y1="770.51" x2="9589.5" y2="770.51" gradientTransform="matrix(-1, 0, 0, 1, 10742, 0)" xlink:href="#New_Gradient_Swatch_copy"/><linearGradient id="New_Gradient_Swatch_copy-16" x1="9589.65" y1="701.57" x2="9597.25" y2="701.57" gradientTransform="matrix(-1, 0, 0, 1, 10742, 0)" xlink:href="#New_Gradient_Swatch_copy"/><linearGradient id="New_Gradient_Swatch_copy-17" x1="9530.01" y1="701.57" x2="9537.62" y2="701.57" gradientTransform="matrix(-1, 0, 0, 1, 10742, 0)" xlink:href="#New_Gradient_Swatch_copy"/><linearGradient id="New_Gradient_Swatch_copy_12-2" x1="9645.43" y1="653.18" x2="9482.41" y2="811.13" gradientTransform="matrix(-1, 0, 0, 1, 10742, 0)" xlink:href="#New_Gradient_Swatch_copy_12"/><linearGradient id="New_Gradient_Swatch-6" x1="9562.11" y1="699.53" x2="9565.15" y2="699.53" gradientTransform="matrix(-1, 0, 0, 1, 10742, 0)" xlink:href="#New_Gradient_Swatch"/><linearGradient id="New_Gradient_Swatch-7" x1="9562.11" y1="764.97" x2="9565.15" y2="764.97" gradientTransform="matrix(-1, 0, 0, 1, 10742, 0)" xlink:href="#New_Gradient_Swatch"/><linearGradient id="New_Gradient_Swatch-8" x1="9594.07" y1="732.25" x2="9598.63" y2="732.25" gradientTransform="matrix(-1, 0, 0, 1, 10742, 0)" xlink:href="#New_Gradient_Swatch"/><linearGradient id="New_Gradient_Swatch-9" x1="9528.63" y1="732.25" x2="9533.2" y2="732.25" gradientTransform="matrix(-1, 0, 0, 1, 10742, 0)" xlink:href="#New_Gradient_Swatch"/><linearGradient id="New_Gradient_Swatch-10" x1="9584.71" y1="709.12" x2="9588.83" y2="709.12" gradientTransform="matrix(-1, 0, 0, 1, 10742, 0)" xlink:href="#New_Gradient_Swatch"/><linearGradient id="New_Gradient_Swatch-11" x1="9538.44" y1="755.39" x2="9542.56" y2="755.39" gradientTransform="matrix(-1, 0, 0, 1, 10742, 0)" xlink:href="#New_Gradient_Swatch"/><linearGradient id="New_Gradient_Swatch-12" x1="9584.71" y1="755.39" x2="9588.83" y2="755.39" gradientTransform="matrix(-1, 0, 0, 1, 10742, 0)" xlink:href="#New_Gradient_Swatch"/><linearGradient id="New_Gradient_Swatch-13" x1="9538.44" y1="709.12" x2="9542.56" y2="709.12" gradientTransform="matrix(-1, 0, 0, 1, 10742, 0)" xlink:href="#New_Gradient_Swatch"/><linearGradient id="New_Gradient_Swatch_copy_2-3" x1="9545.37" y1="724.07" x2="9569.72" y2="724.07" gradientTransform="matrix(-1, 0, 0, 1, 10742, 0)" xlink:href="#New_Gradient_Swatch_copy_2"/><linearGradient id="New_Gradient_Swatch_copy_8-7" x1="9587.74" y1="697.32" x2="9606.24" y2="697.32" gradientTransform="matrix(-1, 0, 0, 1, 10742, 0)" xlink:href="#New_Gradient_Swatch_copy_8"/><linearGradient id="New_Gradient_Swatch_copy_8-8" x1="9521.02" y1="697.32" x2="9539.52" y2="697.32" gradientTransform="matrix(-1, 0, 0, 1, 10742, 0)" xlink:href="#New_Gradient_Swatch_copy_8"/><linearGradient id="New_Gradient_Swatch_copy_8-9" x1="9561.28" y1="599.05" x2="9587.56" y2="577.48" gradientTransform="matrix(-1, 0, 0, 1, 10742, 0)" xlink:href="#New_Gradient_Swatch_copy_8"/><linearGradient id="New_Gradient_Swatch_copy_8-10" x1="9795.84" y1="444.05" x2="9822.12" y2="422.48" gradientTransform="matrix(-1, 0, 0, 1, 10742, 0)" xlink:href="#New_Gradient_Swatch_copy_8"/><linearGradient id="New_Gradient_Swatch_copy_8-11" x1="9610.63" y1="432.01" x2="9624.01" y2="421.03" gradientTransform="matrix(-1, 0, 0, 1, 10742, 0)" xlink:href="#New_Gradient_Swatch_copy_8"/><linearGradient id="New_Gradient_Swatch_copy_8-12" x1="9979.61" y1="367.55" x2="9992.99" y2="356.57" gradientTransform="matrix(-1, 0, 0, 1, 10742, 0)" xlink:href="#New_Gradient_Swatch_copy_8"/><linearGradient id="New_Gradient_Swatch_copy_8-13" x1="9746.43" y1="281.13" x2="9759.8" y2="270.15" gradientTransform="matrix(-1, 0, 0, 1, 10742, 0)" xlink:href="#New_Gradient_Swatch_copy_8"/><linearGradient id="New_Gradient_Swatch_copy_16" x1="10030.12" y1="418.08" x2="10052.68" y2="449.21" gradientTransform="matrix(-0.99, -0.16, -0.16, 0.99, 10680.29, 1612.76)" gradientUnits="userSpaceOnUse"><stop offset="0" stop-color="#ab75c7"/><stop offset="0.05" stop-color="#a673c6"/><stop offset="0.69" stop-color="#6958bb"/><stop offset="1" stop-color="#514eb7"/></linearGradient><linearGradient id="New_Gradient_Swatch_copy_16-2" x1="9661.14" y1="313.83" x2="9683.7" y2="344.96" gradientTransform="matrix(-0.99, -0.16, -0.16, 0.99, 10668.35, 1552.31)" xlink:href="#New_Gradient_Swatch_copy_16"/><linearGradient id="New_Gradient_Swatch_copy_16-3" x1="9838.94" y1="353.37" x2="9850.3" y2="369.06" gradientTransform="matrix(-1, 0, 0, 1, 10742, 0)" xlink:href="#New_Gradient_Swatch_copy_16"/><linearGradient id="New_Gradient_Swatch_copy_16-4" x1="9501.5" y1="511.12" x2="9512.87" y2="526.8" gradientTransform="matrix(-1, 0, 0, 1, 10091.82, -270.87)" xlink:href="#New_Gradient_Swatch_copy_16"/><linearGradient id="New_Gradient_Swatch_copy_16-5" x1="10037.83" y1="601.65" x2="10049.2" y2="617.33" gradientTransform="matrix(-1, 0, 0, 1, 10742, 0)" xlink:href="#New_Gradient_Swatch_copy_16"/><linearGradient id="New_Gradient_Swatch_copy_10-3" x1="730.52" y1="726.74" x2="673.54" y2="613.74" gradientTransform="matrix(1, 0, 0, 1, 0, 0)" xlink:href="#New_Gradient_Swatch_copy_10"/><linearGradient id="New_Gradient_Swatch_copy_10-4" x1="723.01" y1="727.84" x2="766.95" y2="624.9" gradientTransform="matrix(1, 0, 0, 1, 0, 0)" xlink:href="#New_Gradient_Swatch_copy_10"/><linearGradient id="New_Gradient_Swatch_copy_10-5" x1="703.45" y1="675.88" x2="747.02" y2="675.88" gradientTransform="matrix(1, 0, 0, 1, 0, 0)" xlink:href="#New_Gradient_Swatch_copy_10"/><linearGradient id="New_Gradient_Swatch_copy-18" x1="91.12" y1="500.67" x2="58.74" y2="436.47" gradientTransform="matrix(1, 0, 0, 1, 0, 0)" xlink:href="#New_Gradient_Swatch_copy"/><linearGradient id="New_Gradient_Swatch_copy-19" x1="732.26" y1="742.91" x2="716.68" y2="712.02" gradientTransform="matrix(1, 0, 0, 1, 0, 0)" xlink:href="#New_Gradient_Swatch_copy"/></defs><path class="cls-1" d="M831,559.45s-5-61.72-63.19-95S653,460.47,653,460.47s8.39,53.34,64.22,93.74S831,559.45,831,559.45Z" transform="translate(-650.18 -270.87)"/><polygon class="cls-2" points="79.47 291.24 75.64 289.19 130.4 261.78 71.72 229.15 31.52 249.09 29.32 246.37 68.24 227.22 3.04 190.95 2.78 189.69 5.11 188.36 43.22 209.56 39.03 178.99 42.27 178.55 46.8 211.55 101.53 241.98 102.71 186.27 106.41 187.83 104.75 243.78 180.7 286.01 180.83 288.58 179.82 289.27 133.85 263.7 79.47 291.24"/><path class="cls-3" d="M835,558.15s51.53-34.35,52.35-101.41S835,354.51,835,354.51s-42.52,33.26-50.7,101.68S835,558.15,835,558.15Z" transform="translate(-650.18 -270.87)"/><polygon class="cls-2" points="133.26 199.99 133.18 195.65 183.75 230.18 183.75 163.04 146.78 137.59 148.09 134.36 183.75 159.06 183.75 84.45 184.73 83.61 187.02 85 187.02 128.62 211.7 110.09 213.66 112.71 187.02 132.71 187.02 195.32 236.29 169.29 236.72 173.27 187.02 199.02 187.02 285.92 184.84 287.28 183.75 286.74 183.75 234.13 133.26 199.99"/><path class="cls-4" d="M835.29,559.68s28.29-55.08-3.63-114.07-95.48-63.83-95.48-63.83-21,49.75,5.19,113.51S835.29,559.68,835.29,559.68Z" transform="translate(-650.18 -270.87)"/><polygon class="cls-2" points="97.56 237.66 95.38 233.9 156.37 239.46 123.69 180.8 79.01 176.57 78.58 173.1 121.75 177.33 85.44 112.15 85.89 110.94 88.57 111.03 109.8 149.14 122.34 120.95 125.33 122.28 111.79 152.71 142.26 207.41 172.63 160.69 174.94 163.97 144.06 210.64 186.35 286.56 185.11 288.81 183.89 288.86 158.29 242.91 97.56 237.66"/><path class="cls-5" d="M1116.53,600.39l.82-.44.64-.35,1.2-.69,2.28-1.34c1.48-.9,2.92-1.8,4.35-2.72,2.85-1.84,5.61-3.74,8.33-5.72a189.25,189.25,0,0,0,15.66-12.73l-27-29.68a150.27,150.27,0,0,1-12.29,10c-2.14,1.56-4.33,3.06-6.52,4.48-1.1.71-2.2,1.4-3.29,2.06l-1.6.94-.76.44-.51.28Z" transform="translate(-650.18 -270.87)"/><path class="cls-6" d="M1128.34,566.54l2.52,3.12c1.76-1.43,3.49-2.88,5.19-4.38l-2.64-3C1131.75,563.73,1130.05,565.14,1128.34,566.54Z" transform="translate(-650.18 -270.87)"/><path class="cls-6" d="M1118.83,573.68l2.3,3.29c1.86-1.29,3.68-2.63,5.49-4l-2.42-3.2C1122.43,571.11,1120.65,572.42,1118.83,573.68Z" transform="translate(-650.18 -270.87)"/><path class="cls-7" d="M1108.87,580.08l2,3.47c2-1.15,3.9-2.35,5.8-3.59l-2.19-3.36C1112.65,577.8,1110.78,579,1108.87,580.08Z" transform="translate(-650.18 -270.87)"/><path class="cls-5" d="M1149.81,576.4a165.49,165.49,0,0,0,14.31-14.67,137.2,137.2,0,0,0,12.48-16.93l-34-21.21a111.75,111.75,0,0,1-19.72,23.13Z" transform="translate(-650.18 -270.87)"/><path class="cls-6" d="M1153.18,541.06l3.22,2.4c.69-.9,1.33-1.85,2-2.77s1.29-1.88,1.92-2.83l-3.35-2.21c-.61.92-1.21,1.85-1.86,2.74S1153.86,540.2,1153.18,541.06Z" transform="translate(-650.18 -270.87)"/><path class="cls-6" d="M1145.65,550.22l3,2.69c.76-.85,1.52-1.69,2.25-2.56s1.48-1.72,2.18-2.62L1150,545.2c-.67.87-1.41,1.7-2.12,2.54S1146.39,549.4,1145.65,550.22Z" transform="translate(-650.18 -270.87)"/><polygon class="cls-6" points="487.18 287.8 489.93 290.73 492.38 288.37 494.78 285.96 491.91 283.16 489.57 285.51 487.18 287.8"/><path class="cls-5" d="M1176.6,544.8c.94-1.52,1.87-3,2.74-4.62.44-.78.89-1.56,1.31-2.35l1.25-2.42c.82-1.54,1.63-3.4,2.43-5.14.41-.85.76-1.83,1.13-2.75s.73-1.85,1.06-2.83l1-3c.15-.5.32-1,.45-1.51l.39-1.57.38-1.58c.12-.53.26-1,.35-1.61.19-1.11.38-2.22.55-3.33,0-.28.09-.55.13-.83l.08-.87.15-1.74.13-1.74c0-.58,0-1.19,0-1.78,0-1.2,0-2.39-.05-3.59s-.21-2.43-.33-3.64L1150,502.85a6.25,6.25,0,0,0,.08.85c0,.29,0,.61,0,.91s0,.3,0,.47,0,.33,0,.5,0,.34,0,.51v.25c0,.09,0,.18,0,.28-.07.37-.13.74-.19,1.11a3.5,3.5,0,0,1-.13.59l-.15.61-.14.61c0,.2-.14.43-.2.64-.15.44-.28.88-.42,1.32s-.36.92-.53,1.38-.32.92-.57,1.41l-.67,1.46c-.12.25-.2.47-.35.75l-.41.79-.81,1.59c-.29.53-.6,1-.89,1.58-.57,1.06-1.22,2.09-1.85,3.13Z" transform="translate(-650.18 -270.87)"/><path class="cls-6" d="M1168.29,509.49l4,.59.15-.88.08-.89.14-1.79a15.23,15.23,0,0,0,.05-1.79v-1.8l-4,.16v1.61a12.26,12.26,0,0,1,0,1.6l-.13,1.6-.07.8Z" transform="translate(-650.18 -270.87)"/><path class="cls-6" d="M1165.09,520.66l3.71,1.53c.41-1.08.86-2.16,1.25-3.26s.72-2.22,1-3.35l-3.87-1.07c-.3,1-.65,2.07-1,3.11S1165.48,519.65,1165.09,520.66Z" transform="translate(-650.18 -270.87)"/><path class="cls-6" d="M1159.79,531.15l3.46,2,1.68-3c.56-1,1.06-2,1.59-3l-3.59-1.8c-.51,1-1,2-1.52,2.92Z" transform="translate(-650.18 -270.87)"/><path class="cls-5" d="M1189.75,497.92a54.26,54.26,0,0,0-3.78-14c-.47-1.09-1-2.13-1.5-3.19-.26-.52-.51-1.06-.79-1.55l-.85-1.48-.86-1.46c-.29-.49-.59-1-.9-1.42-.62-.9-1.24-1.8-1.87-2.69-.16-.22-.31-.45-.48-.66l-.49-.62-1-1.23c-.66-.81-1.32-1.67-2-2.39l-2-2.24-.52-.56-.52-.51-1-1c-.7-.67-1.4-1.38-2.11-2l-2.12-1.87-1.07-.93c-.35-.3-.71-.58-1.06-.87l-2.15-1.71L1138,487.08l1.38,1.1c.22.19.46.37.68.55l.63.56,1.26,1.1c.41.37.75.74,1.14,1.1l.57.55.28.27.25.28,1,1.08a13.41,13.41,0,0,1,.88,1.07l.43.52.21.26c.07.08.12.17.18.25.23.34.46.68.7,1a2.59,2.59,0,0,1,.3.49l.28.47.29.47a3.68,3.68,0,0,1,.21.46c.13.3.31.59.44.88a14.49,14.49,0,0,1,.89,3.3Z" transform="translate(-650.18 -270.87)"/><path class="cls-6" d="M1156.33,478.42l2.83-2.85c-1.64-1.65-3.38-3.15-5.14-4.63l-2.55,3.09C1153.14,475.44,1154.8,476.87,1156.33,478.42Z" transform="translate(-650.18 -270.87)"/><path class="cls-6" d="M1163.68,487.44l3.41-2.11c-.29-.53-.64-1-1-1.49l-1-1.45c-.33-.5-.72-.93-1.08-1.4l-1.1-1.37-3.07,2.59,1,1.26c.33.43.7.83,1,1.29l.93,1.33C1163.1,486.53,1163.42,487,1163.68,487.44Z" transform="translate(-650.18 -270.87)"/><path class="cls-6" d="M1168,498l3.92-.83a15.05,15.05,0,0,0-.43-1.76l-.49-1.74c-.18-.57-.42-1.12-.62-1.69s-.41-1.13-.66-1.67l-3.67,1.61c.22.48.38,1,.58,1.49s.4,1,.56,1.5l.43,1.54A13.48,13.48,0,0,1,1168,498Z" transform="translate(-650.18 -270.87)"/><path class="cls-5" d="M1162.61,455.46A151.72,151.72,0,0,0,1145.38,444c-5.75-3.33-11.5-6.3-17.24-9.1l-17.53,36.05c5.05,2.47,10,5,14.62,7.72a112.14,112.14,0,0,1,12.74,8.44Z" transform="translate(-650.18 -270.87)"/><path class="cls-6" d="M1127.05,458.37l1.88-3.54c-2-1.07-4-2.07-6-3.08l-1.79,3.59C1123.12,456.34,1125.1,457.32,1127.05,458.37Z" transform="translate(-650.18 -270.87)"/><path class="cls-6" d="M1137.43,464.22l2.08-3.43-2.92-1.73c-1-.59-2-1.11-2.94-1.67l-2,3.5c1,.54,1.94,1.06,2.89,1.63Z" transform="translate(-650.18 -270.87)"/><path class="cls-6" d="M1147.27,470.77l2.38-3.23c-1.82-1.38-3.72-2.62-5.6-3.9l-2.2,3.35C1143.67,468.23,1145.52,469.44,1147.27,470.77Z" transform="translate(-650.18 -270.87)"/><path class="cls-5" d="M1128.14,434.87c-11.47-5.58-22.91-10.4-34.35-15l-14.87,37.23c10.85,4.35,21.55,8.88,31.69,13.8Z" transform="translate(-650.18 -270.87)"/><polygon class="cls-6" points="444.29 172.47 445.82 168.76 442.72 167.48 439.61 166.22 438.11 169.94 441.2 171.19 444.29 172.47"/><path class="cls-6" d="M1105.47,448l1.62-3.67c-2-.92-4.11-1.78-6.17-2.67l-1.57,3.69C1101.39,446.27,1103.45,447.12,1105.47,448Z" transform="translate(-650.18 -270.87)"/><path class="cls-6" d="M1116.31,453l1.72-3.62c-2-1-4.07-1.89-6.1-2.84l-1.66,3.65C1112.28,451.12,1114.31,452,1116.31,453Z" transform="translate(-650.18 -270.87)"/><path class="cls-5" d="M1093.79,419.89l-8.23-3.32c-2.72-1.12-5.45-2.23-8.14-3.36s-5.37-2.28-8.05-3.43-5.31-2.32-7.91-3.52l-16.6,36.5c2.85,1.31,5.69,2.54,8.54,3.8s5.69,2.45,8.53,3.63,5.68,2.35,8.51,3.51l8.48,3.42Z" transform="translate(-650.18 -270.87)"/><polygon class="cls-6" points="410.95 158.74 412.55 155.06 406.46 152.37 404.82 156.03 410.95 158.74"/><polygon class="cls-6" points="422.02 163.42 423.56 159.72 417.41 157.14 415.84 160.83 422.02 163.42"/><path class="cls-6" d="M1083.3,438.8l1.49-3.72c-2.07-.84-4.14-1.65-6.19-2.5l-1.51,3.71C1079.15,437.14,1081.23,438,1083.3,438.8Z" transform="translate(-650.18 -270.87)"/><path class="cls-5" d="M1061.46,406.26c-5.23-2.38-10.37-4.82-15.27-7.37a157.45,157.45,0,0,1-13.79-8l-22.09,33.46c5.85,3.84,11.63,7.07,17.38,10.08s11.46,5.7,17.17,8.3Z" transform="translate(-650.18 -270.87)"/><path class="cls-6" d="M1028.63,413.76l2-3.48c-1-.53-1.89-1.12-2.84-1.67l-1.41-.84-1.39-.88-2.14,3.39,1.43.9,1.45.87C1026.69,412.62,1027.64,413.22,1028.63,413.76Z" transform="translate(-650.18 -270.87)"/><polygon class="cls-6" points="389.08 148.58 390.89 145 387.94 143.5 385.02 141.94 383.12 145.47 386.09 147.05 389.08 148.58"/><path class="cls-6" d="M1050.08,424.67l1.68-3.64c-2-.95-4-1.87-6-2.85l-1.75,3.61C1046,422.78,1048.05,423.71,1050.08,424.67Z" transform="translate(-650.18 -270.87)"/><path class="cls-5" d="M1032.4,390.92c-2-1.39-4.06-2.78-5.74-4.17l-.65-.52-.33-.26-.28-.26-1.16-1c-.2-.17-.36-.34-.52-.5l-.5-.5-.5-.48c-.16-.16-.28-.32-.42-.47l-.42-.47a4.74,4.74,0,0,1-.38-.44c-.21-.29-.43-.56-.66-.83s-.3-.5-.48-.74l-.12-.17-.07-.15c0-.1-.1-.2-.16-.3a4.14,4.14,0,0,1-.51-1.48l-39.85,4.47c.08.7.17,1.4.26,2.09s.27,1.38.42,2.07.3,1.37.46,2.06.4,1.32.61,2,.42,1.31.65,2,.5,1.24.76,1.86a35.57,35.57,0,0,0,1.67,3.57l.92,1.68.47.84c.16.27.33.51.49.77.66,1,1.34,2,2,3s1.4,1.82,2.11,2.72c.36.47.72.85,1.08,1.27l1.09,1.21c.36.4.73.82,1.09,1.2l1.1,1.1,1.1,1.09c.37.36.75.73,1.11,1l2.22,2,.55.49.55.44,1.11.9c3,2.41,5.89,4.44,8.82,6.42Z" transform="translate(-650.18 -270.87)"/><path class="cls-6" d="M1001.16,389.91l3.53-1.9a25,25,0,0,1-1.28-2.73c-.19-.47-.31-.95-.47-1.42l-.24-.7-.15-.73-3.91.91c.07.28.12.58.19.86l.27.85c.19.55.35,1.13.57,1.67A28.06,28.06,0,0,0,1001.16,389.91Z" transform="translate(-650.18 -270.87)"/><path class="cls-6" d="M1008.82,399.64l2.78-2.89c-.75-.75-1.54-1.47-2.21-2.27l-1.06-1.17c-.34-.4-.64-.82-1-1.23l-3.18,2.45c.36.46.71.93,1.08,1.36l1.15,1.29C1007.17,398.06,1008,398.83,1008.82,399.64Z" transform="translate(-650.18 -270.87)"/><path class="cls-6" d="M1018.29,407.27l2.29-3.29c-.91-.6-1.76-1.27-2.64-1.9s-1.71-1.32-2.55-2l-2.53,3.1c.88.72,1.76,1.44,2.68,2.1S1017.35,406.65,1018.29,407.27Z" transform="translate(-650.18 -270.87)"/><path class="cls-5" d="M1019.5,378.16a5.5,5.5,0,0,1,.2-1.91c.09-.28.13-.53.22-.83s.25-.64.35-1a1.4,1.4,0,0,1,.11-.27l.12-.27.25-.56.11-.28.06-.14.06-.11.21-.41a8.38,8.38,0,0,1,.72-1.18,3.72,3.72,0,0,0,.27-.34h0l-11-38.55A39.7,39.7,0,0,0,995.51,341c-.56.51-1.1,1-1.64,1.55s-1,1.05-1.5,1.59-.93,1.06-1.37,1.6-.87,1.07-1.25,1.6a49.54,49.54,0,0,0-4,6.45l-.8,1.59-.2.4-.16.38-.34.75-.66,1.5-.32.76c-.11.25-.21.5-.31.78q-.6,1.64-1.17,3.27c-.35,1.13-.67,2.34-1,3.51l-.23.89-.18.95-.35,1.89a37.55,37.55,0,0,0-.48,3.94c0,.67-.12,1.32-.13,2s0,1.38,0,2.08,0,1.38.06,2.07.13,1.41.2,2.11Z" transform="translate(-650.18 -270.87)"/><path class="cls-6" d="M1007.63,355.11l2.72,2.95a16.78,16.78,0,0,1,4.84-3.18l-1.6-3.68A20.79,20.79,0,0,0,1007.63,355.11Z" transform="translate(-650.18 -270.87)"/><path class="cls-6" d="M1000.74,365.54l3.69,1.56a30.47,30.47,0,0,1,2.88-5.46l-3.32-2.25A34.52,34.52,0,0,0,1000.74,365.54Z" transform="translate(-650.18 -270.87)"/><path class="cls-6" d="M998,377.66l4,0v-.75l.07-.75c0-.49.08-1,.14-1.49l.28-1.49c0-.25.08-.5.14-.75l.2-.74-3.88-1-.23.84c-.07.29-.11.58-.16.87l-.32,1.72c-.07.59-.11,1.17-.17,1.76l-.07.88Z" transform="translate(-650.18 -270.87)"/><path class="cls-5" d="M1022.18,370.89h0s0,0,.06,0,.08,0,.14,0l.09,0h.12a8.18,8.18,0,0,1,1.38,0,18.66,18.66,0,0,1,2.11.3c.81.18,1.69.39,2.62.67a53.33,53.33,0,0,1,6.13,2.29c2.16.93,4.4,2,6.68,3.26L1060.38,342c-3-1.61-6.16-3.17-9.51-4.63a93.45,93.45,0,0,0-10.75-4c-1.94-.57-4-1.09-6.11-1.53a59.81,59.81,0,0,0-6.8-1,48.28,48.28,0,0,0-7.62,0l-1,.07-1,.12c-.69.09-1.36.17-2.09.31s-1.41.24-2.15.42-1.46.35-2.18.55Z" transform="translate(-650.18 -270.87)"/><path class="cls-6" d="M1043.1,354.31l-1.59,3.69c2,.86,4,1.79,5.9,2.78l1.82-3.58C1047.22,356.18,1045.18,355.21,1043.1,354.31Z" transform="translate(-650.18 -270.87)"/><path class="cls-6" d="M1031.51,350.39l-.9,3.91a54.06,54.06,0,0,1,6.12,1.8l1.35-3.77A56.39,56.39,0,0,0,1031.51,350.39Z" transform="translate(-650.18 -270.87)"/><path class="cls-6" d="M1019.12,349.64l.59,4a26,26,0,0,1,6-.11l.37-4A29.93,29.93,0,0,0,1019.12,349.64Z" transform="translate(-650.18 -270.87)"/><path class="cls-5" d="M1041.51,377.39c4.56,2.43,9.24,5.29,14,8.36s9.5,6.37,14.42,9.78l22.83-33c-5-3.42-10.06-6.95-15.4-10.42s-10.92-6.9-16.95-10.13Z" transform="translate(-650.18 -270.87)"/><polygon class="cls-6" points="424.23 101.7 421.97 105.02 427.47 108.79 429.75 105.49 424.23 101.7"/><path class="cls-6" d="M1064.36,366l-2.15,3.38c1.87,1.19,3.72,2.39,5.57,3.62l2.21-3.34Q1067.2,367.75,1064.36,366Z" transform="translate(-650.18 -270.87)"/><path class="cls-6" d="M1054,359.77l-2,3.5c1.92,1.07,3.82,2.17,5.7,3.32l2.08-3.44Q1057,361.41,1054,359.77Z" transform="translate(-650.18 -270.87)"/><path class="cls-5" d="M1069.9,395.53l7.56,5.2,1,.66.5.34.73.46c1,.62,2,1.23,3,1.82s2.12,1.11,3.18,1.65,2.2,1,3.33,1.47a50.19,50.19,0,0,0,14.53,3.47,51.83,51.83,0,0,0,14.6-.91l-8-39.29a12.07,12.07,0,0,1-3.33.24,10.19,10.19,0,0,1-2.91-.73,13.52,13.52,0,0,1-1.61-.76l-.87-.55-.23-.12-.43-.3-.89-.6-7.28-5Z" transform="translate(-650.18 -270.87)"/><path class="cls-6" d="M1105.1,389.17l-.37,4c.6.08,1.2.07,1.81.11a15.62,15.62,0,0,0,1.81,0l1.81-.06c.6-.05,1.2-.13,1.8-.19l-.49-4-1.59.17-1.6,0a12.05,12.05,0,0,1-1.59,0C1106.16,389.23,1105.63,389.24,1105.1,389.17Z" transform="translate(-650.18 -270.87)"/><path class="cls-6" d="M1094.22,385.87l-1.86,3.55,1.61.82c.54.25,1.11.46,1.67.69l.84.34.42.17.43.13,1.73.54,1.08-3.87-1.52-.46-.38-.12-.37-.15-.74-.3c-.49-.21-1-.39-1.48-.61Z" transform="translate(-650.18 -270.87)"/><polygon class="cls-6" points="434.19 108.56 431.9 111.86 437.44 115.66 439.69 112.34 434.19 108.56"/><path class="cls-5" d="M1118.26,409.69a60.51,60.51,0,0,0,12.79-4.18,74.69,74.69,0,0,0,10.78-6,88.06,88.06,0,0,0,9.21-7.14c1.44-1.27,2.83-2.57,4.19-3.94l1-1q.51-.53,1-1.08c.34-.36.69-.75,1-1.14l.55-.63.31-.36.42-.5-31-25.43.08-.1,0,0-.06.06-.19.22-.48.52c-.17.18-.34.37-.53.56l-.55.56c-.76.76-1.56,1.51-2.37,2.23a47.45,47.45,0,0,1-5,3.89,26.76,26.76,0,0,1-9.19,4.21Z" transform="translate(-650.18 -270.87)"/><path class="cls-7" d="M1136.57,376.48l2.64,3c1.74-1.52,3.41-3.11,5-4.8l-2.91-2.75C1139.8,373.52,1138.22,375,1136.57,376.48Z" transform="translate(-650.18 -270.87)"/><path class="cls-6" d="M1127.11,383.39l2.05,3.45a63.34,63.34,0,0,0,5.78-3.88l-2.4-3.21A55.88,55.88,0,0,1,1127.11,383.39Z" transform="translate(-650.18 -270.87)"/><path class="cls-6" d="M1116.54,388l1.09,3.86a48.08,48.08,0,0,0,6.64-2.48l-1.68-3.64A45,45,0,0,1,1116.54,388Z" transform="translate(-650.18 -270.87)"/><path class="cls-8" d="M1133.93,341.29,1140.3,357l72.27,3.6Z" transform="translate(-650.18 -270.87)"/><path class="cls-9" d="M1134.48,383.08,1140.3,357l72.27,3.6-66.2,10.26Z" transform="translate(-650.18 -270.87)"/><path class="cls-10" d="M1157.89,394.94l-11.52-24.11,66.2-10.26Z" transform="translate(-650.18 -270.87)"/><g class="cls-11"><g class="cls-11"><path class="cls-12" d="M650.18,772.85v11.38a2.52,2.52,0,0,0,.44,1.37V774.22a2.55,2.55,0,0,1-.44-1.37" transform="translate(-650.18 -270.87)"/><path class="cls-13" d="M650.18,772.85a2.6,2.6,0,0,0,.49,1.44,1.94,1.94,0,0,0,.21.29.69.69,0,0,0,.11.13c.07.09.16.18.24.27l.12.12.39.35,0,0,.49.37.21.14.28.19.24.15.3.18.26.15.34.18.28.15.36.18.31.15.39.18.33.15.41.18.35.15.45.18.37.14.48.18.4.15.3.11.53.18.33.12.55.18.34.11.61.19.32.1.75.23.21.06,1,.28.27.08.77.21.39.1.69.18.43.11.7.18.45.11.74.18.43.1.9.21.3.07,1.25.27.23.06,1.05.22.45.09.87.18.52.11.85.17.54.1.88.18.53.1,1,.18.44.09,1.47.26.18,0,1.33.24.53.09,1,.17.61.1,1,.16.63.11,1,.16.63.1,1.14.17.52.09,1.68.25h0l1.73.26.57.08,1.2.17.68.09,1.13.16.72.1,1.14.15.72.1,1.24.16.64.09,1.59.2.32,0,1.93.24.6.07,1.39.17.73.09,1.28.15.79.09,1.28.15.79.09,1.34.15.76.09,1.56.17.55.06,2.14.23.52,0,1.65.17.79.09,1.41.14.87.09,1.41.14.85.08,1.47.14.83.08,1.68.16.62.06,2.33.22.45,0,1.91.17.85.08,1.54.13,1,.08,1.5.13,1,.09,1.54.12.92.08,1.73.14.76.07,2.5.2.32,0,2.24.18.81.06,1.75.13,1,.08,1.58.12,1,.07,1.65.12,1,.08,1.78.12.89.07,2.46.17H763l2.69.18.91.06,1.84.12,1,.07,1.74.11,1.11.08,1.7.1,1.1.07,1.86.12,1,.05,2.38.15.46,0,2.85.17.9.05,2,.11,1.08.06,1.84.11,1.16.06,1.81.1,1.17.06,1.85.1,1.13.06,2.21.11.76,0,3,.15.67,0,2.33.11,1.15.06,1.92.09,1.23.06,1.88.08,1.21.06,2,.09,1.12,0,2.23.09.91,0,3.14.13.57,0,2.58.1,1.15.05,2.05.08,1.28,0,1.95.07,1.27.05,2,.07,1.24.05,2.13.08,1.13,0,3.26.11h0l3.25.11,1.05,0,2.25.08,1.29,0L853,797l1.3,0,2.12.06,1.26,0,2.26.06,1.12,0,3,.08h.35l3.4.09,1.07,0,2.35.06,1.34,0,2.08,0,1.44,0,2.12.05,1.32,0,2.28,0,1.23,0,2.76.06h.73L890,798l1,0,2.51,0,1.31,0,2.23,0,1.39,0,2.25,0,1.34,0,2.33,0,1.28,0,2.73,0h.85l3.61.05h.79l2.83,0h1.31l2.29,0,1.49,0,2.19,0h1.5l2.25,0h1.41l2.59,0h1.07l3.68,0h.55l3.16,0h20.2c171.21,0,310-11.53,310-25.76v11.38c0,14.23-138.79,25.76-310,25.76H940l-3.16,0h-.55l-3.68,0h-1.07l-2.59,0-1.41,0-2.25,0h-1.5l-2.19,0-1.49,0-2.29,0-1.31,0-2.83,0h-.79l-3.61-.05h-.85l-2.73,0-1.28,0-2.33,0-1.34,0-2.25,0-1.39,0-2.23,0-1.31,0-2.51,0-1,0-3.48-.07h-.73l-2.76-.06-1.23,0-2.28,0-1.32,0-2.12-.05-1.44,0-2.08,0-1.34,0-2.35-.06-1.07,0-3.4-.09h-.35l-3-.08-1.12,0-2.26-.07-1.26,0-2.12-.06-1.3,0-2.07-.06-1.29,0-2.25-.08-1.05,0-3.25-.11h0l-3.26-.11-1.13,0-2.13-.08-1.24,0-2-.08-1.27,0-1.95-.07-1.28,0-2.05-.08-1.15,0-2.58-.1-.57,0-3.14-.13-.91,0-2.23-.09L815,807l-2-.09-1.21-.06-1.88-.08-1.23-.06-1.92-.09-1.15,0-2.33-.12-.67,0-3-.15-.76,0-2.21-.11-1.13-.06-1.85-.1-1.17-.06-1.81-.1-1.16-.06-1.84-.1-1.08-.06-2-.12-.9-.05-2.85-.17-.46,0-2.38-.15-1-.05-1.86-.12-1.1-.07-1.7-.1-1.11-.07-1.74-.12-1-.06-1.84-.13-.91-.06-2.69-.18h-.21l-2.46-.17-.89-.07-1.78-.12-1-.07-1.65-.12-1-.08-1.58-.12-1-.08-1.75-.13-.81-.06-2.24-.18-.32,0-2.5-.2-.76-.07-1.73-.14-.92-.07-1.54-.13-1-.09-1.5-.12-1-.09-1.54-.13-.85-.08-1.91-.17-.45,0-2.33-.22-.62-.06-1.68-.16-.83-.08-1.47-.14-.85-.08-1.41-.14-.87-.09-1.41-.14-.79-.08-1.65-.18-.52,0-2.14-.23-.55-.06-1.56-.17-.76-.09-1.34-.15-.79-.09-1.28-.15-.79-.09-1.28-.15-.73-.09-1.39-.17-.6-.07-1.93-.24-.32,0-1.59-.2-.64-.09-1.24-.16-.72-.1-1.14-.15-.72-.1-1.13-.16-.68-.09-1.2-.17-.57-.08-1.73-.26h0l-1.68-.25-.52-.08-1.14-.18-.63-.1-1-.16-.63-.1-1-.17-.61-.1-1-.17-.53-.09-1.33-.24-.18,0-1.47-.26-.44-.08-1-.19-.53-.1-.88-.17-.54-.11-.85-.17-.52-.1-.87-.18-.45-.1-1.05-.22-.23,0L669,793.1l-.3-.07-.9-.21-.43-.1-.74-.18-.45-.11-.7-.18-.43-.11-.69-.18-.39-.1-.77-.21-.27-.08-1-.28-.21-.06L661,791l-.32-.1-.61-.19-.34-.11-.55-.18-.33-.11-.53-.19L658,790l-.13,0-.27-.11-.48-.18-.37-.14-.45-.18-.35-.15-.41-.18-.33-.15-.39-.18-.31-.15-.36-.18-.28-.15-.34-.18-.26-.15-.3-.18-.24-.15-.28-.19-.16-.1-.05,0-.49-.37,0,0c-.14-.12-.27-.23-.39-.35l-.12-.12c-.08-.09-.17-.18-.24-.27a.69.69,0,0,1-.11-.13,1.94,1.94,0,0,1-.21-.29.18.18,0,0,1,0-.07h0a2.55,2.55,0,0,1-.44-1.37Z" transform="translate(-650.18 -270.87)"/></g><ellipse class="cls-14" cx="310" cy="501.97" rx="310" ry="25.77"/></g><rect class="cls-15" x="132.39" y="197.47" width="338.3" height="238.91" rx="12.76"/><path class="cls-16" d="M1017.49,772.4H887.18a21.71,21.71,0,0,1,21.72-21.71h86.87a21.71,21.71,0,0,1,21.72,21.71" transform="translate(-650.18 -270.87)"/><polygon class="cls-17" points="340.16 479.81 264.14 479.81 275 436.38 329.3 436.38 340.16 479.81"/><path class="cls-18" d="M1109.8,663.81H794.87V489.65a10.45,10.45,0,0,1,10.45-10.45h294a10.45,10.45,0,0,1,10.45,10.45V663.81Z" transform="translate(-650.18 -270.87)"/><rect class="cls-19" x="332.63" y="223.09" width="112.09" height="76.5"/><rect class="cls-20" x="332.63" y="309.82" width="112.09" height="66.27"/><rect class="cls-21" x="160.41" y="223.09" width="152.99" height="152.99"/><path class="cls-22" d="M893.79,567.2h56.48a60.82,60.82,0,0,0-56.48-56.48Z" transform="translate(-650.18 -270.87)"/><path class="cls-23" d="M934.3,612.63a60.63,60.63,0,0,0,16-37h-53Z" transform="translate(-650.18 -270.87)"/><path class="cls-24" d="M885.4,575.59V510.72a60.83,60.83,0,1,0,42.8,107.67Z" transform="translate(-650.18 -270.87)"/><polygon class="cls-25" points="346.4 278.85 358.52 278.85 358.52 268.75 346.4 268.75 346.4 278.85"/><polygon class="cls-26" points="364.58 278.85 376.7 278.85 376.7 260.67 364.58 260.67 364.58 278.85"/><polygon class="cls-27" points="382.76 278.85 394.88 278.85 394.88 248.55 382.76 248.55 382.76 278.85"/><polygon class="cls-28" points="400.94 278.85 413.06 278.85 413.06 239.81 400.94 239.81 400.94 278.85"/><polygon class="cls-29" points="419.12 278.85 431.24 278.85 431.24 234.14 419.12 234.14 419.12 278.85"/><polygon class="cls-30" points="346.4 288.95 358.52 288.95 358.52 278.85 346.4 278.85 346.4 288.95"/><polygon class="cls-31" points="364.58 288.95 376.7 288.95 376.7 273.8 364.58 273.8 364.58 288.95"/><polygon class="cls-32" points="382.76 288.95 394.88 288.95 394.88 268.75 382.76 268.75 382.76 288.95"/><polygon class="cls-33" points="400.94 288.95 413.06 288.95 413.06 273.8 400.94 273.8 400.94 288.95"/><polygon class="cls-34" points="419.12 288.95 431.24 288.95 431.24 260.67 419.12 260.67 419.12 288.95"/><rect class="cls-35" x="340.4" y="318" width="96.95" height="7.77" rx="0.81"/><rect class="cls-36" x="340.4" y="332.32" width="96.95" height="7.77" rx="0.81"/><rect class="cls-37" x="340.4" y="346.64" width="96.95" height="7.77" rx="0.81"/><rect class="cls-38" x="340.4" y="360.95" width="96.95" height="7.77" rx="0.81"/><path class="cls-39" d="M1078.53,641l2.62,11.43c.07,1.1-2.1,2.2-2.51,3.23l-4.42,11.06-2.89-2.88,2.89-11-.62-11Z" transform="translate(-650.18 -270.87)"/><path class="cls-40" d="M1061.09,670.48l13.2-10.62a24.75,24.75,0,0,1,.64,15.3c-1.21,3.85.08,6.58-.58,8.41s-5.08,25.93-4.83,27.72,2.22,6.81,2.89,12.06c.74,5.77.26,23.39.64,30.54h0s.32,5.33.92,6.51a10.77,10.77,0,0,1,1.57,4.06,2.48,2.48,0,0,1-1.52,2.38c-1.06.51-1.75-.06-2.13,0-2.2.22-2.63,1.87-6.41,2.4a5.75,5.75,0,0,1-3.93-1.09.86.86,0,0,1-.13-1.17c.23-.34,3-1.23,4.3-2a10.05,10.05,0,0,0,2.77-3.54,3.81,3.81,0,0,0,0-1.38h0c-.14-1.13-.3-2.29-.47-3.5-.15-.91-.28-1.57-.28-1.57h0c-2.37-15.55-7-36.15-7.6-43.22C1059.52,703.85,1060.22,689.46,1061.09,670.48Z" transform="translate(-650.18 -270.87)"/><path class="cls-41" d="M1061.26,768.38c-.26-.47-.31-1.18-.06-1.35a21,21,0,0,1,2.38-1.35c.74-.32,1.9-.59,1.49-.38s.32,1.05,1,1c2.36-.09,4.14-1.62,5.49-1.92,2-.44,2.82-2.71,2.91-3.08a8.9,8.9,0,0,1,1.33,2.69,4.56,4.56,0,0,1,.24,2,4.73,4.73,0,0,0-.26,1.93,3.59,3.59,0,0,1-1.4.47,5.51,5.51,0,0,1-1.51,0l-.13-1.23a5.83,5.83,0,0,0-1.21.09,6.65,6.65,0,0,0-1.85.82c-.28.31-.51.89-.87,1.06a7.37,7.37,0,0,1-3.11.7C1063.17,770,1061.71,769.2,1061.26,768.38Z" transform="translate(-650.18 -270.87)"/><path class="cls-42" d="M1042.09,767.17c.28-.3,3.29-.76,4.7-1.33a8.08,8.08,0,0,0,3.31-3.1c.33-.76.29-4.63.27-6.25-.17-11.35-1.95-38.22-2.19-45.14-.41-11.39,1.19-23.13,5.75-41.37l16.45-12.36s4.48,8.55,2.87,16.65c-.94,4.7-4.85,5.39-5.53,7.21s-10.85,31.26-10.85,31.26a55.67,55.67,0,0,1,1.89,13.39c0,6-2.85,24-3.42,30.81-.07,1.34-.34,4.55.05,5.57.47,1.26,1.69,2.74,1.61,4.32a2.44,2.44,0,0,1-1.88,2.13c-1.16.35-1.79-.33-2.19-.35-2.3-.12-3,1.46-6.92,1.42a6.27,6.27,0,0,1-3.93-1.68A.84.84,0,0,1,1042.09,767.17Z" transform="translate(-650.18 -270.87)"/><path class="cls-43" d="M1041.74,768.57c-.21-.51-.18-1.23.11-1.35a22.39,22.39,0,0,1,2.63-1c.8-.2,2-.29,1.58-.15s.2,1.09.91,1.17c2.45.27,4.48-1,5.92-1.07,2.07-.14,2.85-2.27,3-2.62a9.31,9.31,0,0,1,1.44,2.87,4.57,4.57,0,0,1,0,2.05,4.37,4.37,0,0,0-.52,1.87,3.75,3.75,0,0,1-1.51.26,6,6,0,0,1-1.55-.24v-1.24a6.08,6.08,0,0,0-1.25-.09,4.16,4.16,0,0,0-2,.7,3.85,3.85,0,0,1-1.1.77,8.25,8.25,0,0,1-3.22.21C1043.51,770.42,1042.1,769.44,1041.74,768.57Z" transform="translate(-650.18 -270.87)"/><path class="cls-44" d="M1009.58,614.64c-.12-.48.43-.62,1,.32a5.33,5.33,0,0,0,3.59,2.4c.11-.26-.24-.34-.5-.89s-.1-1,.17-1.14.68.62.84.76l1.82,1.54a3.89,3.89,0,0,1,1.32,1.8c0,.05.06.23.09.45,4.07,3.1,17.48,7,19.29,8.07,1.19.72,20.46-.07,20.46-.07l-2.23,8c-6.13-.07-17.1-1.12-18.6-1.41-5.68-1.11-17.78-10.65-19-11.5-.84.21-5.45-.71-6.13-1.8a1.83,1.83,0,0,1-.31-1.18c-.4-.47-1.1-2.15.11-1.8C1010.23,617.31,1009.91,616.05,1009.58,614.64Z" transform="translate(-650.18 -270.87)"/><path class="cls-45" d="M1075.84,628.31a78.13,78.13,0,0,1,3.45,12.56l-6.3,1v-8.92" transform="translate(-650.18 -270.87)"/><path class="cls-46" d="M1054.55,656.9c-.1,1-5.47,12.22-6.13,24.24-.45,8-.56,12.55.06,18.3,5.6,3.3,18,3.69,24.06-.73-.08-4.76,1.26-10.9,1.91-15.08.29-1.83,2.14-6.88,2.38-8.71.91-6.94-.83-13.43-5.37-17.35Z" transform="translate(-650.18 -270.87)"/><path class="cls-47" d="M1054.72,646.09a56.9,56.9,0,0,1-.3,9.11,20.08,20.08,0,0,0-.3,2.41,1.37,1.37,0,0,0,.48.94v0c-.41-.91.57-5.43,1-8A28.67,28.67,0,0,0,1055,640c-.89-3.11-1.23-4.59-1.23-4.59s-.71-1.06-1.2-1.87a5.65,5.65,0,0,0,0,4.35A30.86,30.86,0,0,1,1054.72,646.09Z" transform="translate(-650.18 -270.87)"/><path class="cls-48" d="M1043.92,627.56s5.55-.92,8.21-2.49c1.44-.85,4-1,5.25-.93a10.29,10.29,0,0,1,3.14-3c.4-.06,2.68,0,5.37,0a10.77,10.77,0,0,1,10.48,11.48,77,77,0,0,1-1.18,8.76,93.16,93.16,0,0,0-.6,14.81c.07,1.58.8,2,.8,2.83,0,1.15-1.94,1.79-3.83,1.41s-9.15.15-13.66-.66a6.69,6.69,0,0,1-3.3-1.28,1.37,1.37,0,0,1-.48-.94,20.08,20.08,0,0,1,.3-2.41,56.9,56.9,0,0,0,.3-9.11,30.86,30.86,0,0,0-2.15-8.23,9.26,9.26,0,0,1-.33-1.12c-.25,0-.5-.08-.75-.1-5.47-.6-7.31-.31-7.31-.31C1043.5,633.9,1043.92,627.56,1043.92,627.56Z" transform="translate(-650.18 -270.87)"/><path class="cls-49" d="M1058.13,603c1.35-2.59,3.5-6.24,8.62-5.74s9.5,3.74,9.44,7.58-2.66,8.46-3.66,11.11a17.5,17.5,0,0,0-.58,6.6l-10.9-.32s-.15-3.55-.85-4.87a18.3,18.3,0,0,0-3.67-3.53c-.77-.62-1.39-1.92-.93-3.95a29.74,29.74,0,0,1,1.38-5.25C1057.3,604,1057.84,603.51,1058.13,603Z" transform="translate(-650.18 -270.87)"/><path class="cls-50" d="M1057.24,600.21c-1.72-1-.87-4.18,4.35-5.26s17.68-.72,15.87,15,10.36,24.24,11.54,25.24c2.35,2,.36,6.13-4.33,3.79s-3.42,3.24-5.4,3.78-3.53.31-6.28-1.74-3,1.12-5.08,1.38c-4.15.54-4.69-4-3.61-6.49s5.59-23.26.36-27.23a4.6,4.6,0,0,0-4-.75.49.49,0,0,1-.58-.67C1060.76,605.68,1059.66,601.61,1057.24,600.21Z" transform="translate(-650.18 -270.87)"/><circle class="cls-51" cx="528.19" cy="461.56" r="39.57"/><circle class="cls-52" cx="528.19" cy="461.56" r="22.83"/><path class="cls-53" d="M1202.72,775.05a1.53,1.53,0,0,0,1.07-2.6l-6-6a1.52,1.52,0,0,0-2.16,2.15l6,6A1.52,1.52,0,0,0,1202.72,775.05Z" transform="translate(-650.18 -270.87)"/><path class="cls-54" d="M1154,775.05a1.52,1.52,0,0,0,1.08-.45l6-6a1.52,1.52,0,1,0-2.16-2.15l-6,6a1.53,1.53,0,0,0,1.08,2.6Z" transform="translate(-650.18 -270.87)"/><path class="cls-55" d="M1150.83,705.37a1.53,1.53,0,0,0,1.08-2.6l-4.57-4.56a1.51,1.51,0,0,0-2.15,0,1.53,1.53,0,0,0,0,2.15l4.57,4.56A1.5,1.5,0,0,0,1150.83,705.37Z" transform="translate(-650.18 -270.87)"/><path class="cls-56" d="M1205.9,705.37a1.52,1.52,0,0,0,1.08-.45l4.56-4.56a1.52,1.52,0,1,0-2.15-2.15l-4.57,4.56a1.53,1.53,0,0,0,1.08,2.6Z" transform="translate(-650.18 -270.87)"/><path class="cls-57" d="M1135.76,732.44a42.61,42.61,0,1,1,42.61,42.61A42.65,42.65,0,0,1,1135.76,732.44Zm6.09,0a36.52,36.52,0,1,0,36.52-36.53A36.56,36.56,0,0,0,1141.85,732.44Z" transform="translate(-650.18 -270.87)"/><path class="cls-58" d="M1178.37,697.25a1.52,1.52,0,0,1,1.52,1.52v1.53a1.52,1.52,0,0,1-3,0v-1.53A1.52,1.52,0,0,1,1178.37,697.25Z" transform="translate(-650.18 -270.87)"/><path class="cls-59" d="M1178.37,762.69a1.52,1.52,0,0,1,1.52,1.52v1.52a1.52,1.52,0,1,1-3,0v-1.52A1.52,1.52,0,0,1,1178.37,762.69Z" transform="translate(-650.18 -270.87)"/><path class="cls-60" d="M1144.89,730.73h1.52a1.52,1.52,0,0,1,0,3h-1.52a1.52,1.52,0,1,1,0-3Z" transform="translate(-650.18 -270.87)"/><path class="cls-61" d="M1210.32,730.73h1.53a1.52,1.52,0,0,1,0,3h-1.53a1.52,1.52,0,0,1,0-3Z" transform="translate(-650.18 -270.87)"/><path class="cls-62" d="M1155.77,707.5l1.08,1.08a1.52,1.52,0,1,1-2.16,2.15l-1.07-1.08a1.51,1.51,0,0,1,0-2.15A1.53,1.53,0,0,1,1155.77,707.5Z" transform="translate(-650.18 -270.87)"/><path class="cls-63" d="M1202,753.77l1.08,1.08A1.52,1.52,0,1,1,1201,757l-1.07-1.08a1.51,1.51,0,0,1,0-2.15A1.53,1.53,0,0,1,1202,753.77Z" transform="translate(-650.18 -270.87)"/><path class="cls-64" d="M1154.69,753.77a1.52,1.52,0,0,1,2.16,2.15l-1.08,1.08a1.52,1.52,0,0,1-2.15-2.15Z" transform="translate(-650.18 -270.87)"/><path class="cls-65" d="M1201,707.5a1.52,1.52,0,0,1,2.16,2.15l-1.08,1.08a1.52,1.52,0,0,1-1.08.45,1.48,1.48,0,0,1-1.07-.45,1.51,1.51,0,0,1,0-2.15Z" transform="translate(-650.18 -270.87)"/><path class="cls-66" d="M1195.11,730.91h-10.87a6.08,6.08,0,0,0-4.35-4.34V711.13a1.53,1.53,0,0,0-3.05,0v15.44a6.07,6.07,0,1,0,7.4,7.39h10.87a1.53,1.53,0,0,0,0-3.05Zm-16.74,4.57a3,3,0,1,1,3-3A3.05,3.05,0,0,1,1178.37,735.48Z" transform="translate(-650.18 -270.87)"/><path class="cls-67" d="M1138.93,691.24a10.85,10.85,0,0,0,0,15.33l15.33-15.33A10.85,10.85,0,0,0,1138.93,691.24Z" transform="translate(-650.18 -270.87)"/><path class="cls-68" d="M1217.8,691.24a10.85,10.85,0,0,1,0,15.33l-15.32-15.33A10.83,10.83,0,0,1,1217.8,691.24Z" transform="translate(-650.18 -270.87)"/><path class="cls-69" d="M1158.55,590.82a10.39,10.39,0,1,0,8.74-11.81A10.38,10.38,0,0,0,1158.55,590.82Z" transform="translate(-650.18 -270.87)"/><path class="cls-70" d="M1170.54,594.56a1.06,1.06,0,0,0,.29-.27l3.46-4.53a1.1,1.1,0,0,0-1.75-1.34l-2.69,3.53-5.61-5.6a1.1,1.1,0,0,0-1.56,0,1.12,1.12,0,0,0,0,1.57l6.5,6.48a1.07,1.07,0,0,0,.85.32A1.13,1.13,0,0,0,1170.54,594.56Z" transform="translate(-650.18 -270.87)"/><path class="cls-71" d="M924,435.82A10.39,10.39,0,1,0,932.73,424,10.39,10.39,0,0,0,924,435.82Z" transform="translate(-650.18 -270.87)"/><path class="cls-70" d="M936,439.56a1.27,1.27,0,0,0,.3-.27l3.46-4.53a1.11,1.11,0,0,0-1.76-1.34L935.29,437l-5.61-5.6a1.1,1.1,0,1,0-1.55,1.57l6.49,6.48a1.08,1.08,0,0,0,.85.32A1.13,1.13,0,0,0,936,439.56Z" transform="translate(-650.18 -270.87)"/><path class="cls-72" d="M1120.08,427.83a5.29,5.29,0,1,0,4.45-6A5.29,5.29,0,0,0,1120.08,427.83Z" transform="translate(-650.18 -270.87)"/><path class="cls-70" d="M1126.19,429.73a.66.66,0,0,0,.15-.14l1.76-2.3a.56.56,0,0,0-.11-.79.57.57,0,0,0-.79.1l-1.37,1.8-2.85-2.85a.56.56,0,0,0-.79,0,.57.57,0,0,0,0,.8l3.3,3.3a.58.58,0,0,0,.7.08Z" transform="translate(-650.18 -270.87)"/><path class="cls-73" d="M751.1,363.36a5.29,5.29,0,1,0,4.45-6A5.29,5.29,0,0,0,751.1,363.36Z" transform="translate(-650.18 -270.87)"/><path class="cls-70" d="M757.2,365.26a.5.5,0,0,0,.15-.14l1.77-2.3A.57.57,0,0,0,759,362a.56.56,0,0,0-.79.11l-1.37,1.79L754,361.08a.56.56,0,0,0-.79,0,.57.57,0,0,0,0,.8l3.3,3.3a.59.59,0,0,0,.44.16A.44.44,0,0,0,757.2,365.26Z" transform="translate(-650.18 -270.87)"/><path class="cls-74" d="M984.29,276.94a5.29,5.29,0,1,0,4.45-6A5.29,5.29,0,0,0,984.29,276.94Z" transform="translate(-650.18 -270.87)"/><path class="cls-70" d="M990.39,278.84a.47.47,0,0,0,.15-.13l1.76-2.31a.56.56,0,0,0-.89-.68L990,277.51l-2.85-2.84a.57.57,0,0,0-.8,0,.56.56,0,0,0,0,.79l3.31,3.3a.54.54,0,0,0,.43.17A.62.62,0,0,0,990.39,278.84Z" transform="translate(-650.18 -270.87)"/><circle class="cls-75" cx="707.87" cy="423.61" r="10.58" transform="translate(-708.9 -152.01) rotate(-9.22)"/><path class="cls-70" d="M703.05,419.43c2.68-1.06,4.82,2.65,4.82,2.65s2.14-3.71,4.83-2.65c4,1.55-1.52,8.74-4.83,10.38C704.56,428.17,699.08,421,703.05,419.43Z" transform="translate(-650.18 -270.87)"/><circle class="cls-76" cx="1076.85" cy="319.36" r="10.58" transform="translate(-687.43 -94.25) rotate(-9.22)"/><path class="cls-70" d="M1072,315.18c2.69-1.06,4.82,2.65,4.82,2.65s2.14-3.71,4.83-2.65c4,1.55-1.51,8.74-4.83,10.38C1073.54,323.92,1068.06,316.73,1072,315.18Z" transform="translate(-650.18 -270.87)"/><path class="cls-77" d="M895.71,356.16a5.34,5.34,0,1,0,5.33-5.33A5.33,5.33,0,0,0,895.71,356.16Z" transform="translate(-650.18 -270.87)"/><path class="cls-70" d="M898.61,354.05c1.36-.53,2.43,1.34,2.43,1.34s1.08-1.87,2.44-1.34c2,.79-.77,4.41-2.44,5.23C899.38,358.46,896.61,354.84,898.61,354.05Z" transform="translate(-650.18 -270.87)"/><circle class="cls-78" cx="588.3" cy="243.03" r="5.33"/><path class="cls-70" d="M1236.05,511.8c1.35-.53,2.43,1.33,2.43,1.33s1.08-1.86,2.43-1.33c2,.78-.76,4.4-2.43,5.23C1236.81,516.2,1234.05,512.58,1236.05,511.8Z" transform="translate(-650.18 -270.87)"/><path class="cls-79" d="M696.82,604.43a5.33,5.33,0,1,0,5.33-5.33A5.34,5.34,0,0,0,696.82,604.43Z" transform="translate(-650.18 -270.87)"/><path class="cls-70" d="M699.72,602.33c1.35-.53,2.43,1.33,2.43,1.33s1.08-1.86,2.43-1.33c2,.78-.76,4.4-2.43,5.23C700.48,606.73,697.72,603.11,699.72,602.33Z" transform="translate(-650.18 -270.87)"/><path class="cls-80" d="M726.08,685.32c-3.35-1.77-7.16-2.89-9.81-5.59-4.75-4.85-4.13-13-8.26-18.41-3.84-5-10.91-6.51-14.94-11.33-2.24-2.69-4-6.63-7.48-6.83s-5.94,4.16-5.34,7.7,3,6.43,5,9.47c3.2,5.1-.14,9.06.11,15.08.31,7.07,9.57,9,13,15.27,3.8,7-3.24,11.38,2.85,20.32,4.66,6.84,10.11,7.81,13,16,2.39,6.77,13.1,7.44,19.4,4C750.75,721.61,739.5,692.41,726.08,685.32Z" transform="translate(-650.18 -270.87)"/><path class="cls-2" d="M733.79,724.57c-3.09-4.3-6.12-8.64-9.13-13q-.27-5.49-.59-11c-.15-2.49.26-5.92-.75-8.21a.65.65,0,0,0-.73-.29l-.21.07a.65.65,0,0,0-.47.62l0,.18a23.64,23.64,0,0,0,.55,2.67l.15,2.48c.09,1.44.18,2.89.26,4.34q.2,3.53.38,7.08-9.13-13.32-17.75-27c0-5.08-.08-10.15-.36-15.23,0-.82-1.33-.83-1.28,0,.23,4.39.35,8.77.36,13.17q-7.51-12-14.6-24.33a.64.64,0,0,0-1.11.65q6.9,12,14.21,23.69l-7-5.16c-.67-.5-1.31.62-.65,1.11l9.43,7h0q8.25,13.14,17,25.95A90.44,90.44,0,0,0,710,703.08c-.74-.34-1.4.77-.64,1.11a90.71,90.71,0,0,1,14.17,8q4.51,6.54,9.15,13C733.16,725.88,734.28,725.24,733.79,724.57Z" transform="translate(-650.18 -270.87)"/><path class="cls-81" d="M753.38,698c-.27-3.75-1.33-7.55-.45-11.2,1.59-6.55,8.81-10.32,11.17-16.64,2.18-5.84-.25-12.6,1.69-18.53,1.09-3.3,3.49-6.85,1.82-9.9s-6.62-2.82-9.29-.45-3.82,5.94-5.38,9.15c-2.61,5.38-7.71,4.64-12.64,8-5.8,4-2.59,12.81-6.06,18.93-3.9,6.89-11.28,3.25-15.62,13.09-3.31,7.51-1.26,12.61-6.67,19.39-4.45,5.57.62,14.95,6.83,18.44C735.78,737.82,754.46,713,753.38,698Z" transform="translate(-650.18 -270.87)"/><path class="cls-2" d="M724.37,725.1c2-4.87,4-9.7,6.14-14.53q4.49-3.11,8.93-6.26c2-1.43,5.13-2.89,6.52-4.94a.64.64,0,0,0-.13-.77l-.18-.14a.65.65,0,0,0-.77-.07l-.14.11a26,26,0,0,0-2,1.87l-2,1.43-3.52,2.49c-1.92,1.36-3.84,2.7-5.77,4q6.42-14.69,13.4-29.13,6.45-4,12.65-8.3c.67-.47,0-1.56-.68-1.08Q751.5,673.57,746,677q6.19-12.66,12.82-25.09a.63.63,0,0,0-1.12-.59q-6.46,12.1-12.5,24.42l.69-8.58c.07-.81-1.21-.77-1.27,0q-.47,5.81-.94,11.61v0q-6.72,13.86-12.89,28a91.22,91.22,0,0,0-.77-13.1c-.11-.81-1.39-.78-1.28,0a89.9,89.9,0,0,1,.69,16.15q-3.14,7.24-6.15,14.54C722.94,725.26,724.06,725.86,724.37,725.1Z" transform="translate(-650.18 -270.87)"/><path class="cls-82" d="M707.09,684.66c2.17-3.76,5.2-7.17,6.12-11.42,1.65-7.6-3.94-15.16-3.21-22.91.68-7.18,6.62-13,7.58-20.12.54-4-.16-8.87,3.11-11.19s8.3.41,9.88,4.21,1,8.1,1,12.22c0,6.91,5.67,8.71,9.09,14.71,4,7.06-3.77,14.62-3.25,22.72C738,682,747.46,682,747,694.36c-.35,9.48-5.06,13.75-2.86,23.52,1.81,8-8.18,15.21-16.4,15.71C705.28,734.94,698.39,699.73,707.09,684.66Z" transform="translate(-650.18 -270.87)"/><path class="cls-2" d="M723.55,727.47c.38-6.06.68-12.12.94-18.18q-3.07-5.5-6.12-11c-1.37-2.5-3.86-5.59-4.27-8.42a.72.72,0,0,1,.52-.73l.25,0a.74.74,0,0,1,.84.31l.09.19a27.86,27.86,0,0,1,1.09,2.92c.46.83.91,1.67,1.36,2.5l2.4,4.37q2,3.55,4,7.1.75-18.5.77-37-4.7-7.38-8.94-15c-.46-.83.78-1.61,1.24-.78q3.68,6.6,7.69,13-.06-16.27-.67-32.53a.74.74,0,0,1,1.47,0q.62,15.84.66,31.67l3.61-9.25c.34-.89,1.65-.2,1.31.68l-4.89,12.54h0q0,17.81-.72,35.6a102.65,102.65,0,0,1,7.41-13.22c.51-.79,1.82-.11,1.3.68A103.74,103.74,0,0,0,726,709.22c-.27,6.07-.57,12.14-1,18.2C725,728.36,723.49,728.42,723.55,727.47Z" transform="translate(-650.18 -270.87)"/><polygon class="cls-83" points="49.79 460.8 60.39 502.74 93.58 502.74 102.8 460.8 49.79 460.8"/><path class="cls-84" d="M753.67,733.51H699.74a1.63,1.63,0,0,1-1.11-.44,1.61,1.61,0,0,1-.51-1.17h0a1.57,1.57,0,0,1,.48-1.14,1.6,1.6,0,0,1,1.14-.47h53.93a1.65,1.65,0,0,1,.85.24,1.61,1.61,0,0,1,.76,1.37h0a1.61,1.61,0,0,1-1.61,1.61Z" transform="translate(-650.18 -270.87)"/></svg>