<svg xmlns="http://www.w3.org/2000/svg" xmlns:xlink="http://www.w3.org/1999/xlink" viewBox="0 0 630 496.13"><defs><style>.cls-1{isolation:isolate;}.cls-2{fill:none;}.cls-3{fill:#52298a;}.cls-3,.cls-4{fill-rule:evenodd;}.cls-5{fill:url(#New_Gradient_Swatch_copy_8);}.cls-6{fill:url(#New_Gradient_Swatch_copy_23);}.cls-7{fill:url(#New_Gradient_Swatch_copy_8-2);}.cls-8{fill:#21692b;}.cls-9{fill:url(#linear-gradient);}.cls-10{fill:url(#linear-gradient-2);}.cls-11{fill:url(#New_Gradient_Swatch_copy_8-3);}.cls-12{fill:url(#New_Gradient_Swatch_copy_4);}.cls-13{fill:url(#New_Gradient_Swatch_copy_4-2);}.cls-14{fill:url(#New_Gradient_Swatch_copy_26);}.cls-15{fill:url(#New_Gradient_Swatch_copy_26-2);}.cls-16{fill:url(#New_Gradient_Swatch_copy_10);}.cls-17{fill:#2d9678;}.cls-18{fill:url(#New_Gradient_Swatch_copy_10-2);}.cls-19{fill:url(#New_Gradient_Swatch_copy_10-3);}.cls-20{fill:url(#New_Gradient_Swatch_copy);}.cls-21{fill:url(#New_Gradient_Swatch_copy-2);}.cls-22{fill:url(#New_Gradient_Swatch_copy_8-4);}.cls-23{fill:#fff;}.cls-24{fill:url(#New_Gradient_Swatch_copy_8-5);}.cls-25{fill:url(#New_Gradient_Swatch_copy_4-3);}.cls-26{fill:url(#New_Gradient_Swatch_copy_4-4);}.cls-27{fill:url(#New_Gradient_Swatch_copy_4-5);}.cls-28{fill:url(#New_Gradient_Swatch_copy_8-6);}.cls-29{fill:url(#New_Gradient_Swatch_copy_8-7);}.cls-30{fill:url(#New_Gradient_Swatch_copy_8-8);}.cls-31{fill:url(#New_Gradient_Swatch_copy_8-9);}.cls-32{fill:url(#New_Gradient_Swatch_copy_4-6);}.cls-33{fill:url(#New_Gradient_Swatch_copy_4-7);}.cls-34{fill:url(#New_Gradient_Swatch_copy_22);}.cls-35{opacity:0.5;mix-blend-mode:multiply;}.cls-36{fill:#6c78ba;}.cls-37{fill:#aba6e2;}.cls-38{fill:url(#New_Gradient_Swatch_copy_12);}.cls-39{fill:#cbcfd8;}.cls-40{fill:#f0f1f4;}.cls-41{fill:#f5ba46;}.cls-42{fill:url(#New_Gradient_Swatch_copy_12-2);}.cls-43{fill:url(#New_Gradient_Swatch_copy_14);}.cls-44{fill:url(#New_Gradient_Swatch_copy_14-2);}.cls-45{fill:url(#New_Gradient_Swatch_copy_12-3);}.cls-46{fill:url(#New_Gradient_Swatch_copy_26-3);}.cls-47{fill:url(#New_Gradient_Swatch_copy-3);}.cls-48{fill:url(#New_Gradient_Swatch_copy-4);}.cls-49{fill:url(#New_Gradient_Swatch_copy_8-10);}.cls-50{fill:url(#New_Gradient_Swatch_copy_8-11);}.cls-51{fill:url(#New_Gradient_Swatch_copy_15);}.cls-52{fill:url(#New_Gradient_Swatch_copy_14-3);}.cls-53{fill:url(#New_Gradient_Swatch_copy-5);}</style><linearGradient id="New_Gradient_Swatch_copy_8" x1="6413.52" y1="2195.66" x2="6486.63" y2="2195.66" gradientTransform="matrix(-0.94, -0.33, -0.33, 0.94, 7634.96, 370.52)" gradientUnits="userSpaceOnUse"><stop offset="0" stop-color="#ffd571"/><stop offset="0.25" stop-color="#ffbd60"/><stop offset="0.78" stop-color="#ff8035"/><stop offset="1" stop-color="#ff6421"/></linearGradient><linearGradient id="New_Gradient_Swatch_copy_23" x1="6401.48" y1="2204.48" x2="6486.63" y2="2204.48" gradientTransform="matrix(-0.94, -0.33, -0.33, 0.94, 7634.96, 370.52)" gradientUnits="userSpaceOnUse"><stop offset="0" stop-color="#c662c2"/><stop offset="0.12" stop-color="#b95dbc"/><stop offset="0.35" stop-color="#9751ab"/><stop offset="0.65" stop-color="#5f3d90"/><stop offset="1" stop-color="#17236d"/></linearGradient><linearGradient id="New_Gradient_Swatch_copy_8-2" x1="6417.1" y1="2221.35" x2="6486.63" y2="2221.35" xlink:href="#New_Gradient_Swatch_copy_8"/><linearGradient id="linear-gradient" x1="6249.38" y1="772.63" x2="6907.42" y2="772.63" gradientTransform="matrix(-1, 0, 0, 1, 7534, 0)" gradientUnits="userSpaceOnUse"><stop offset="0" stop-color="#44a552"/><stop offset="0.43" stop-color="#59bd62"/><stop offset="1" stop-color="#79e27a"/></linearGradient><linearGradient id="linear-gradient-2" x1="6907.39" y1="757.56" x2="6193.41" y2="756.22" gradientTransform="matrix(-1, 0, 0, 1, 6888.82, -292.18)" xlink:href="#linear-gradient"/><linearGradient id="New_Gradient_Swatch_copy_8-3" x1="6566.81" y1="520.76" x2="6559.38" y2="822.92" gradientTransform="matrix(-1, 0, 0, 1, 7534, 0)" xlink:href="#New_Gradient_Swatch_copy_8"/><linearGradient id="New_Gradient_Swatch_copy_4" x1="6565.03" y1="621.99" x2="6563.79" y2="787.92" gradientTransform="matrix(-1, 0, 0, 1, 7534, 0)" gradientUnits="userSpaceOnUse"><stop offset="0" stop-color="#be73de"/><stop offset="1" stop-color="#514eb7"/></linearGradient><linearGradient id="New_Gradient_Swatch_copy_4-2" x1="6561.05" y1="397.92" x2="6566" y2="664.16" xlink:href="#New_Gradient_Swatch_copy_4"/><linearGradient id="New_Gradient_Swatch_copy_26" x1="6451.96" y1="619.32" x2="6640.19" y2="433.57" gradientTransform="matrix(-1, 0, 0, 1, 7534, 0)" gradientUnits="userSpaceOnUse"><stop offset="0" stop-color="#fff"/><stop offset="0.37" stop-color="#f2f2ff"/><stop offset="1" stop-color="#d2d2ff"/></linearGradient><linearGradient id="New_Gradient_Swatch_copy_26-2" x1="6635.03" y1="480.63" x2="6659.79" y2="455.86" xlink:href="#New_Gradient_Swatch_copy_26"/><linearGradient id="New_Gradient_Swatch_copy_10" x1="6825.99" y1="720.84" x2="6780" y2="629.64" gradientTransform="matrix(-1, 0, 0, 1, 7534, 0)" gradientUnits="userSpaceOnUse"><stop offset="0" stop-color="#30944c"/><stop offset="0.41" stop-color="#8abb62"/><stop offset="0.82" stop-color="#dedf77"/><stop offset="1" stop-color="#ffed7f"/></linearGradient><linearGradient id="New_Gradient_Swatch_copy_10-2" x1="6819.93" y1="721.74" x2="6855.4" y2="638.64" xlink:href="#New_Gradient_Swatch_copy_10"/><linearGradient id="New_Gradient_Swatch_copy_10-3" x1="6804.14" y1="679.79" x2="6839.31" y2="679.79" xlink:href="#New_Gradient_Swatch_copy_10"/><linearGradient id="New_Gradient_Swatch_copy" x1="6834.7" y1="757.01" x2="6808.56" y2="705.19" gradientTransform="matrix(-1, 0, 0, 1, 6888.82, -292.18)" gradientUnits="userSpaceOnUse"><stop offset="0" stop-color="gray"/><stop offset="0.64" stop-color="#52524d"/><stop offset="1" stop-color="#3c3c35"/></linearGradient><linearGradient id="New_Gradient_Swatch_copy-2" x1="6827.39" y1="733.9" x2="6814.82" y2="708.96" gradientTransform="matrix(-1, 0, 0, 1, 7534, 0)" xlink:href="#New_Gradient_Swatch_copy"/><linearGradient id="New_Gradient_Swatch_copy_8-4" x1="6376" y1="363.56" x2="6400.26" y2="343.65" gradientTransform="matrix(-1, 0, 0, 1, 7534, 0)" xlink:href="#New_Gradient_Swatch_copy_8"/><linearGradient id="New_Gradient_Swatch_copy_8-5" x1="6626.15" y1="331.13" x2="6650.4" y2="311.22" gradientTransform="matrix(-1, 0, 0, 1, 7534, 0)" xlink:href="#New_Gradient_Swatch_copy_8"/><linearGradient id="New_Gradient_Swatch_copy_4-3" x1="6813.31" y1="595.71" x2="6829.76" y2="595.71" xlink:href="#New_Gradient_Swatch_copy_4"/><linearGradient id="New_Gradient_Swatch_copy_4-4" x1="6494.84" y1="300.4" x2="6511.28" y2="300.4" xlink:href="#New_Gradient_Swatch_copy_4"/><linearGradient id="New_Gradient_Swatch_copy_4-5" x1="6299.12" y1="529.7" x2="6315.56" y2="529.7" xlink:href="#New_Gradient_Swatch_copy_4"/><linearGradient id="New_Gradient_Swatch_copy_8-6" x1="6469.16" y1="402.07" x2="6518.73" y2="380.29" gradientTransform="matrix(-1, 0, 0, 1, 7534, 0)" xlink:href="#New_Gradient_Swatch_copy_8"/><linearGradient id="New_Gradient_Swatch_copy_8-7" x1="6473.25" y1="411.36" x2="6522.81" y2="389.59" gradientTransform="matrix(-1, 0, 0, 1, 7534, 0)" xlink:href="#New_Gradient_Swatch_copy_8"/><linearGradient id="New_Gradient_Swatch_copy_8-8" x1="6363.66" y1="454.03" x2="6379.42" y2="430.12" gradientTransform="matrix(-1, 0, 0, 1, 7534, 0)" xlink:href="#New_Gradient_Swatch_copy_8"/><linearGradient id="New_Gradient_Swatch_copy_8-9" x1="6377.15" y1="462.92" x2="6392.91" y2="439" gradientTransform="matrix(-1, 0, 0, 1, 7534, 0)" xlink:href="#New_Gradient_Swatch_copy_8"/><linearGradient id="New_Gradient_Swatch_copy_4-6" x1="6344.36" y1="477.12" x2="6379.82" y2="447.57" xlink:href="#New_Gradient_Swatch_copy_4"/><linearGradient id="New_Gradient_Swatch_copy_4-7" x1="6770.89" y1="574.64" x2="6796.15" y2="514.01" gradientTransform="matrix(-1, 0, 0, 1, 6888.82, -292.18)" xlink:href="#New_Gradient_Swatch_copy_4"/><linearGradient id="New_Gradient_Swatch_copy_22" x1="6745.32" y1="389.24" x2="6772.64" y2="440.43" gradientTransform="matrix(-1, 0, 0, 1, 6888.82, -292.18)" gradientUnits="userSpaceOnUse"><stop offset="0" stop-color="#ffd582"/><stop offset="0.29" stop-color="#ffbd6e"/><stop offset="0.9" stop-color="#ff8039"/><stop offset="1" stop-color="#ff7530"/></linearGradient><linearGradient id="New_Gradient_Swatch_copy_12" x1="900.77" y1="750.07" x2="740.65" y2="639.95" gradientUnits="userSpaceOnUse"><stop offset="0" stop-color="#7de1f6"/><stop offset="0.07" stop-color="#74d8f4"/><stop offset="0.71" stop-color="#218be2"/><stop offset="1" stop-color="#006ddb"/></linearGradient><linearGradient id="New_Gradient_Swatch_copy_12-2" x1="894.72" y1="758.88" x2="734.59" y2="648.76" xlink:href="#New_Gradient_Swatch_copy_12"/><linearGradient id="New_Gradient_Swatch_copy_14" x1="1088.34" y1="707.52" x2="1111.35" y2="707.52" gradientUnits="userSpaceOnUse"><stop offset="0" stop-color="#ffecdc"/><stop offset="0.24" stop-color="#f6dac4"/><stop offset="0.74" stop-color="#e0ad87"/><stop offset="1" stop-color="#d39364"/></linearGradient><linearGradient id="New_Gradient_Swatch_copy_14-2" x1="1181.55" y1="712.07" x2="1151.55" y2="704.23" xlink:href="#New_Gradient_Swatch_copy_14"/><linearGradient id="New_Gradient_Swatch_copy_12-3" x1="1133.74" y1="649.89" x2="1130.68" y2="730.22" xlink:href="#New_Gradient_Swatch_copy_12"/><linearGradient id="New_Gradient_Swatch_copy_26-3" x1="487.48" y1="411.06" x2="487.48" y2="447.56" gradientTransform="matrix(1, 0, 0, 1, 0, 0)" xlink:href="#New_Gradient_Swatch_copy_26"/><linearGradient id="New_Gradient_Swatch_copy-3" x1="1065.47" y1="740.39" x2="1164.14" y2="740.39" gradientTransform="matrix(1, 0, 0, 1, 0, 0)" xlink:href="#New_Gradient_Swatch_copy"/><linearGradient id="New_Gradient_Swatch_copy-4" x1="1101.28" y1="741.24" x2="1201.4" y2="741.24" gradientTransform="matrix(1, 0, 0, 1, 0, 0)" xlink:href="#New_Gradient_Swatch_copy"/><linearGradient id="New_Gradient_Swatch_copy_8-10" x1="1064.86" y1="761.24" x2="1113.86" y2="746.57" gradientTransform="matrix(1, 0, 0, 1, 0, 0)" xlink:href="#New_Gradient_Swatch_copy_8"/><linearGradient id="New_Gradient_Swatch_copy_8-11" x1="1201.03" y1="762.73" x2="1156.2" y2="747.9" gradientTransform="matrix(1, 0, 0, 1, 0, 0)" xlink:href="#New_Gradient_Swatch_copy_8"/><linearGradient id="New_Gradient_Swatch_copy_15" x1="487.6" y1="388.06" x2="484.74" y2="347.23" gradientUnits="userSpaceOnUse"><stop offset="0" stop-color="#e3cbba"/><stop offset="0.25" stop-color="#dbbaa2"/><stop offset="0.78" stop-color="#c88f65"/><stop offset="1" stop-color="#bf7c4a"/></linearGradient><linearGradient id="New_Gradient_Swatch_copy_14-3" x1="1133.77" y1="666.35" x2="1127.27" y2="619.02" xlink:href="#New_Gradient_Swatch_copy_14"/><linearGradient id="New_Gradient_Swatch_copy-5" x1="1119.53" y1="651.3" x2="1140.19" y2="613.47" gradientTransform="matrix(1, 0, 0, 1, 0, 0)" xlink:href="#New_Gradient_Swatch_copy"/></defs><g class="cls-1"><g id="Camada_1" data-name="Camada 1"><path class="cls-2" d="M869.43,586.38l-.84-.5-.66-.4-1.22-.77c-.8-.5-1.56-1-2.32-1.51-1.52-1-3-2-4.44-3q-4.34-3.09-8.45-6.37a195.83,195.83,0,0,1-15.82-14l29.56-29.85a155.28,155.28,0,0,0,12.41,11c2.17,1.72,4.39,3.4,6.62,5,1.12.79,2.24,1.56,3.34,2.3l1.64,1.06.78.49.52.32Z" transform="translate(-645.18 -292.18)"/><path class="cls-3" d="M858.6,550.41l-2.78,3.15c-1.78-1.58-3.53-3.18-5.24-4.82l2.91-3C855.16,547.31,856.87,548.87,858.6,550.41Z" transform="translate(-645.18 -292.18)"/><path class="cls-3" d="M868.23,558.32l-2.55,3.33c-1.89-1.43-3.74-2.92-5.57-4.42l2.68-3.24C864.58,555.46,866.38,556.91,868.23,558.32Z" transform="translate(-645.18 -292.18)"/><path class="cls-4" d="M878.36,565.47,876.09,569c-2-1.29-4-2.63-5.91-4l2.44-3.42C874.51,562.91,876.42,564.22,878.36,565.47Z" transform="translate(-645.18 -292.18)"/><path class="cls-2" d="M835.68,559.76a171.29,171.29,0,0,1-14.31-16,144.32,144.32,0,0,1-12.31-18.29l36.58-20.66a116.2,116.2,0,0,0,19.6,25.11Z" transform="translate(-645.18 -292.18)"/><path class="cls-3" d="M833.75,522.62,830.28,525c-.7-1-1.32-2-2-3s-1.27-2-1.89-3l3.61-2.16c.59,1,1.18,2,1.82,2.94S833.08,521.67,833.75,522.62Z" transform="translate(-645.18 -292.18)"/><path class="cls-3" d="M841.22,532.54,838,535.22c-.76-.92-1.52-1.83-2.24-2.78s-1.48-1.87-2.17-2.84l3.37-2.51c.67.94,1.4,1.84,2.1,2.75S840.48,531.65,841.22,532.54Z" transform="translate(-645.18 -292.18)"/><polygon class="cls-3" points="204.32 249.59 201.32 252.52 198.86 249.94 196.45 247.31 199.59 244.51 201.93 247.08 204.32 249.59"/><path class="cls-2" d="M809.06,525.46c-.91-1.63-1.82-3.26-2.65-5-.43-.85-.86-1.68-1.27-2.53L804,515.4c-.8-1.66-1.56-3.64-2.32-5.49-.39-.92-.71-2-1-2.94s-.69-2-1-3l-.87-3.16c-.13-.54-.29-1-.4-1.61l-.34-1.66-.33-1.68c-.1-.56-.22-1.1-.29-1.69-.15-1.17-.29-2.34-.43-3.51l-.09-.88-.05-.92-.08-1.82-.06-1.83c0-.61,0-1.25.05-1.87.06-1.25.09-2.5.22-3.75s.32-2.53.51-3.79l41.43,7a8.89,8.89,0,0,1-.13.88c0,.31,0,.64,0,1,0,.16,0,.31,0,.48s0,.36,0,.53,0,.36,0,.54v.26a1.35,1.35,0,0,0,0,.29c.06.39.1.78.14,1.18a3.69,3.69,0,0,0,.11.62l.13.65.12.64c0,.21.13.46.18.69.13.46.26.92.38,1.39s.33,1,.49,1.47.3,1,.54,1.51l.63,1.55c.11.27.19.5.33.8l.4.85.78,1.7c.27.57.57,1.13.85,1.69.55,1.14,1.18,2.25,1.8,3.36Z" transform="translate(-645.18 -292.18)"/><path class="cls-3" d="M819.37,488.88l-4.18.43-.11-.92,0-.94-.08-1.87a16.81,16.81,0,0,1,0-1.88l.09-1.89,4.19.36-.08,1.67a15.7,15.7,0,0,0,0,1.68l.07,1.68,0,.84Z" transform="translate(-645.18 -292.18)"/><path class="cls-3" d="M822.21,500.72l-4,1.43c-.39-1.15-.81-2.3-1.16-3.47s-.66-2.36-1-3.55l4.09-.95c.27,1.11.59,2.2.88,3.3S821.85,499.64,822.21,500.72Z" transform="translate(-645.18 -292.18)"/><path class="cls-3" d="M827.28,511.93l-3.71,2-1.63-3.2c-.54-1.07-1-2.17-1.52-3.26l3.83-1.72c.49,1,1,2.1,1.46,3.13Z" transform="translate(-645.18 -292.18)"/><path class="cls-2" d="M797.43,475.8A56.21,56.21,0,0,1,802,461.27c.53-1.12,1.13-2.18,1.71-3.27.29-.53.58-1.09.89-1.59l1-1.51,1-1.49a17.41,17.41,0,0,1,1-1.44c.68-.92,1.38-1.83,2.08-2.74.17-.22.35-.46.53-.67l.54-.62,1.08-1.25c.73-.82,1.46-1.69,2.21-2.41l2.24-2.25.57-.56.57-.51,1.14-1c.76-.67,1.52-1.38,2.29-2l2.31-1.87,1.16-.92c.38-.3.77-.57,1.15-.86l2.32-1.7,24.36,34.23-1.48,1.09c-.25.18-.51.35-.74.54l-.68.55-1.37,1.1c-.45.36-.83.74-1.25,1.1l-.62.55-.31.27-.27.28-1.08,1.09a13.43,13.43,0,0,0-1,1.07l-.47.53-.24.26-.19.26q-.37.52-.78,1a3,3,0,0,0-.34.5l-.31.49-.32.47c-.11.16-.16.32-.25.47-.15.31-.35.61-.49.9a14.53,14.53,0,0,0-1.08,3.42Z" transform="translate(-645.18 -292.18)"/><path class="cls-3" d="M833.29,456.9l-2.83-3.11c1.79-1.66,3.68-3.15,5.58-4.62l2.54,3.35C836.76,453.92,835,455.34,833.29,456.9Z" transform="translate(-645.18 -292.18)"/><path class="cls-3" d="M825.19,466l-3.47-2.36a16.48,16.48,0,0,1,1.08-1.51l1.12-1.48c.36-.5.79-.94,1.19-1.41l1.22-1.38,3.09,2.84L828.3,462c-.37.43-.77.84-1.1,1.3l-1,1.35A14.4,14.4,0,0,0,825.19,466Z" transform="translate(-645.18 -292.18)"/><path class="cls-3" d="M820.18,476.85l-4.07-1.05a14.41,14.41,0,0,1,.53-1.81l.59-1.8c.22-.59.49-1.16.73-1.74s.48-1.17.77-1.73l3.77,1.86c-.26.49-.45,1-.68,1.53s-.46,1-.65,1.54l-.52,1.6A11.27,11.27,0,0,0,820.18,476.85Z" transform="translate(-645.18 -292.18)"/><path class="cls-2" d="M827.75,432.57a159.5,159.5,0,0,1,18.57-11.24c6.17-3.22,12.32-6.08,18.45-8.75l16.72,38.54c-5.4,2.35-10.67,4.81-15.65,7.41a117.08,117.08,0,0,0-13.73,8.27Z" transform="translate(-645.18 -292.18)"/><path class="cls-3" d="M864.85,437.24l-1.8-3.8c2.12-1,4.28-2,6.42-2.95l1.71,3.84C869.06,435.28,866.93,436.22,864.85,437.24Z" transform="translate(-645.18 -292.18)"/><path class="cls-3" d="M853.72,442.88l-2-3.68,3.13-1.68c1-.57,2.11-1.07,3.16-1.61l1.89,3.75c-1,.53-2.08,1-3.1,1.58Z" transform="translate(-645.18 -292.18)"/><path class="cls-3" d="M843.12,449.3l-2.34-3.49c2-1.36,4-2.58,6-3.83l2.15,3.61C847,446.81,845,448,843.12,449.3Z" transform="translate(-645.18 -292.18)"/><path class="cls-2" d="M864.77,412.58c12.26-5.31,24.46-9.84,36.64-14.12l13.88,39.64c-11.56,4.07-23,8.32-33.8,13Z" transform="translate(-645.18 -292.18)"/><polygon class="cls-3" points="254.45 130.8 253.01 126.85 256.32 125.64 259.63 124.47 261.04 128.43 257.74 129.6 254.45 130.8"/><path class="cls-3" d="M887.91,427.4l-1.53-3.92c2.18-.87,4.38-1.68,6.58-2.51l1.47,3.93C892.26,425.73,890.07,426.53,887.91,427.4Z" transform="translate(-645.18 -292.18)"/><path class="cls-3" d="M876.34,432.09l-1.64-3.87c2.16-.94,4.35-1.79,6.52-2.7l1.57,3.9C880.64,430.31,878.47,431.16,876.34,432.09Z" transform="translate(-645.18 -292.18)"/><path class="cls-2" d="M901.41,398.46l8.77-3.11c2.9-1,5.8-2.08,8.67-3.14s5.72-2.15,8.58-3.22,5.67-2.19,8.44-3.33l15.73,39c-3.05,1.24-6.08,2.4-9.12,3.59s-6.07,2.31-9.09,3.41-6,2.21-9.07,3.29l-9,3.19Z" transform="translate(-645.18 -292.18)"/><polygon class="cls-3" points="289.97 117.93 288.47 114.01 294.97 111.48 296.51 115.38 289.97 117.93"/><polygon class="cls-3" points="278.17 122.33 276.73 118.39 283.29 115.97 284.76 119.9 278.17 122.33"/><path class="cls-3" d="M911.54,418.73l-1.39-4c2.19-.78,4.4-1.54,6.59-2.34l1.41,4C916,417.19,913.74,418,911.54,418.73Z" transform="translate(-645.18 -292.18)"/><path class="cls-2" d="M935.87,385.66c5.58-2.26,11.08-4.57,16.32-7a166.08,166.08,0,0,0,14.8-7.72l21.6,36A209.3,209.3,0,0,1,970,416.71c-6.16,2.87-12.26,5.44-18.35,7.91Z" transform="translate(-645.18 -292.18)"/><path class="cls-3" d="M969.9,395,968,391.26c1-.51,2-1.08,3-1.62l1.52-.82L974,388l2.08,3.65-1.53.88-1.56.84C972,393.89,971,394.47,969.9,395Z" transform="translate(-645.18 -292.18)"/><polygon class="cls-3" points="313.32 108.29 311.6 104.46 314.75 103.02 317.88 101.53 319.71 105.31 316.53 106.83 313.32 108.29"/><path class="cls-3" d="M947,405.44l-1.59-3.88c2.13-.91,4.29-1.78,6.41-2.71l1.66,3.86C951.28,403.65,949.11,404.53,947,405.44Z" transform="translate(-645.18 -292.18)"/><path class="cls-2" d="M967,370.91c2.19-1.35,4.37-2.72,6.2-4.1l.7-.52.35-.25.31-.26,1.26-1a5.66,5.66,0,0,0,.57-.5l.54-.49.55-.49c.17-.16.31-.32.46-.47l.46-.47a4.32,4.32,0,0,0,.42-.45c.23-.28.47-.57.72-.84s.35-.5.54-.74a1.1,1.1,0,0,0,.14-.18l.08-.16a2.38,2.38,0,0,1,.18-.3,4.38,4.38,0,0,0,.6-1.52l41.51,6.48c-.12.72-.24,1.45-.37,2.18s-.34,1.43-.53,2.14-.38,1.43-.58,2.14-.47,1.36-.72,2-.51,1.36-.77,2-.58,1.28-.88,1.92a38.13,38.13,0,0,1-1.92,3.66l-1,1.72-.53.85c-.18.28-.36.52-.54.79-.74,1-1.49,2.07-2.25,3.06s-1.55,1.84-2.34,2.75c-.39.47-.78.86-1.18,1.28l-1.19,1.22c-.4.4-.8.82-1.2,1.21l-1.2,1.09-1.21,1.09c-.4.37-.81.73-1.2,1.05l-2.41,2-.61.48-.59.45-1.2.88c-3.21,2.4-6.37,4.38-9.53,6.32Z" transform="translate(-645.18 -292.18)"/><path class="cls-3" d="M999.73,371.27l-3.61-2.15a24.83,24.83,0,0,0,1.47-2.79c.21-.48.37-1,.56-1.46l.27-.73c.08-.25.13-.51.2-.76l4,1.13c-.08.3-.15.6-.24.9l-.32.87c-.23.57-.42,1.16-.67,1.73A29.69,29.69,0,0,1,999.73,371.27Z" transform="translate(-645.18 -292.18)"/><path class="cls-3" d="M991.28,381.11,988.5,378c.81-.75,1.68-1.47,2.42-2.27l1.15-1.19c.37-.39.71-.82,1.07-1.23l3.21,2.71c-.4.45-.78.93-1.19,1.37l-1.26,1.29C993.08,379.53,992.16,380.3,991.28,381.11Z" transform="translate(-645.18 -292.18)"/><path class="cls-3" d="M981,388.67l-2.24-3.54c1-.59,1.89-1.25,2.84-1.88s1.86-1.3,2.76-2l2.52,3.37c-1,.71-1.91,1.43-2.91,2.07S982,388.07,981,388.67Z" transform="translate(-645.18 -292.18)"/><path class="cls-2" d="M981.07,358.15a6.15,6.15,0,0,0-.12-2c-.09-.29-.12-.56-.2-.87s-.23-.69-.32-1a1.37,1.37,0,0,0-.1-.28l-.12-.29-.23-.6-.11-.29,0-.15-.06-.12-.2-.45a9.56,9.56,0,0,0-.7-1.26,2.94,2.94,0,0,1-.27-.37h0l13.31-39.85a41.48,41.48,0,0,1,16,9.72c.56.56,1.11,1.13,1.64,1.7s1,1.14,1.5,1.73.92,1.15,1.36,1.73.87,1.16,1.24,1.74a50.73,50.73,0,0,1,3.94,6.94l.77,1.7.19.42.16.4.31.8.62,1.61.31.81c.1.26.2.53.29.83.37,1.15.73,2.31,1.07,3.47s.6,2.48.87,3.72l.2.95.15,1,.28,2a39.44,39.44,0,0,1,.32,4.15c0,.7.07,1.39,0,2.12s-.06,1.45-.1,2.17-.08,1.45-.15,2.17-.2,1.47-.31,2.2Z" transform="translate(-645.18 -292.18)"/><path class="cls-3" d="M994.54,334.56l-3,3a17.45,17.45,0,0,0-4.93-3.55l1.85-3.78A21.65,21.65,0,0,1,994.54,334.56Z" transform="translate(-645.18 -292.18)"/><path class="cls-3" d="M1001.28,345.78l-3.94,1.47a31.32,31.32,0,0,0-2.76-5.84l3.58-2.21A35.93,35.93,0,0,1,1001.28,345.78Z" transform="translate(-645.18 -292.18)"/><path class="cls-3" d="M1003.58,358.6l-4.2-.16,0-.78,0-.78c0-.53,0-1.05-.08-1.58l-.22-1.57c0-.26-.06-.53-.11-.79l-.18-.78,4.1-.88.21.89c.06.3.09.61.13.91l.25,1.82c0,.62.07,1.23.1,1.85l0,.92Z" transform="translate(-645.18 -292.18)"/><path class="cls-2" d="M978.59,350.41h0s0,0-.06,0-.09,0-.15,0l-.09,0h-.12a7.78,7.78,0,0,0-1.45,0,21,21,0,0,0-2.22.22c-.86.15-1.79.33-2.78.58a56.16,56.16,0,0,0-6.51,2.12c-2.31.88-4.71,1.94-7.15,3.11l-18.14-37.89c3.23-1.55,6.59-3,10.16-4.41a97.67,97.67,0,0,1,11.43-3.68c2.06-.52,4.22-1,6.46-1.33a63.36,63.36,0,0,1,7.17-.7,49.49,49.49,0,0,1,8,.3l1,.13,1.07.17c.72.12,1.42.24,2.17.41s1.47.32,2.24.54,1.51.44,2.26.68Z" transform="translate(-645.18 -292.18)"/><path class="cls-3" d="M957.44,332.11l1.5,3.93c-2.12.81-4.22,1.7-6.3,2.64l-1.74-3.82Q954.13,333.39,957.44,332.11Z" transform="translate(-645.18 -292.18)"/><path class="cls-3" d="M969.76,328.53l.75,4.13a55.79,55.79,0,0,0-6.48,1.62l-1.24-4A62.79,62.79,0,0,1,969.76,328.53Z" transform="translate(-645.18 -292.18)"/><path class="cls-3" d="M982.76,328.31l-.8,4.12a27.6,27.6,0,0,0-6.32-.39l-.21-4.19A31.24,31.24,0,0,1,982.76,328.31Z" transform="translate(-645.18 -292.18)"/><path class="cls-2" d="M958.06,356.34c-4.88,2.34-9.91,5.12-15,8.12s-10.24,6.23-15.55,9.58l-22.4-35.54c5.34-3.36,10.85-6.83,16.59-10.22s11.74-6.73,18.21-9.83Z" transform="translate(-645.18 -292.18)"/><polygon class="cls-3" points="278.66 57.63 280.87 61.2 274.94 64.9 272.71 61.34 278.66 57.63"/><path class="cls-3" d="M934.66,343.33l2.1,3.64c-2,1.15-4,2.33-6,3.53l-2.17-3.6Q931.62,345.09,934.66,343.33Z" transform="translate(-645.18 -292.18)"/><path class="cls-3" d="M945.75,337.32l1.89,3.76q-3.09,1.55-6.12,3.21l-2-3.68C941.56,339.48,943.65,338.38,945.75,337.32Z" transform="translate(-645.18 -292.18)"/><path class="cls-2" d="M927.52,374l-8.14,5.1-1.06.65-.53.33-.79.45c-1,.61-2.12,1.2-3.18,1.77s-2.26,1.07-3.4,1.59-2.35.95-3.55,1.38a52.92,52.92,0,0,1-15.37,3,54.11,54.11,0,0,1-15.24-1.62l10.14-40.76a12.51,12.51,0,0,0,3.46.4,10.7,10.7,0,0,0,3.08-.63,15.84,15.84,0,0,0,1.73-.73c.3-.18.61-.36.93-.53l.24-.12.47-.29,1-.59,7.85-4.92Z" transform="translate(-645.18 -292.18)"/><path class="cls-3" d="M891,365.79l.21,4.2c-.63.05-1.26,0-1.9,0a17.23,17.23,0,0,1-1.9-.06l-1.89-.15c-.62-.08-1.25-.19-1.87-.28l.69-4.14,1.66.25,1.67.13a15.34,15.34,0,0,0,1.66.05C889.85,365.8,890.41,365.84,891,365.79Z" transform="translate(-645.18 -292.18)"/><path class="cls-3" d="M902.5,362.83l1.78,3.8-1.71.78c-.58.24-1.19.43-1.78.65l-.89.32-.45.16-.46.12-1.84.48-.95-4.09,1.61-.43.41-.1.39-.14.79-.28c.52-.2,1.06-.36,1.57-.58Z" transform="translate(-645.18 -292.18)"/><polygon class="cls-3" points="267.93 64.36 270.16 67.91 264.2 71.64 261.99 68.06 267.93 64.36"/><path class="cls-2" d="M876.26,386.67a63.19,63.19,0,0,1-13.2-4.95,77.55,77.55,0,0,1-11-6.81,89.75,89.75,0,0,1-9.32-7.89c-1.45-1.38-2.84-2.82-4.21-4.31q-.51-.56-1-1.14l-1-1.17c-.34-.39-.69-.82-1-1.24l-.55-.68-.3-.39-.42-.55,33.59-25.22-.07-.1,0,0,.06.07.19.24.48.56c.16.2.34.4.52.61l.56.62c.75.82,1.55,1.65,2.38,2.43a48.53,48.53,0,0,0,5.07,4.31,28.19,28.19,0,0,0,9.44,4.82Z" transform="translate(-645.18 -292.18)"/><path class="cls-4" d="M858.59,351.08l-2.9,3c-1.75-1.68-3.42-3.42-5-5.26l3.18-2.74C855.35,347.84,856.94,349.5,858.59,351.08Z" transform="translate(-645.18 -292.18)"/><path class="cls-3" d="M868.18,358.74l-2.29,3.52a64.39,64.39,0,0,1-5.88-4.32l2.66-3.25A61.87,61.87,0,0,0,868.18,358.74Z" transform="translate(-645.18 -292.18)"/><path class="cls-3" d="M879,364.09l-1.31,4a51,51,0,0,1-6.84-2.89l1.92-3.74A47.1,47.1,0,0,0,879,364.09Z" transform="translate(-645.18 -292.18)"/><path class="cls-5" d="M863,314.36l-7.38,16.12-75.82.5Z" transform="translate(-645.18 -292.18)"/><path class="cls-6" d="M860.49,358.08l-4.91-27.6-75.82.5,68.84,13.74Z" transform="translate(-645.18 -292.18)"/><path class="cls-7" d="M835.44,369.44l13.16-24.72L779.76,331Z" transform="translate(-645.18 -292.18)"/><g class="cls-1"><g class="cls-1"><path class="cls-8" d="M645.18,757v9.61a1.94,1.94,0,0,0,.44,1.16v-9.61a1.94,1.94,0,0,1-.44-1.16" transform="translate(-645.18 -292.18)"/><path class="cls-9" d="M645.18,757a1.92,1.92,0,0,0,.5,1.22l.21.25.11.1.25.23.12.1c.13.1.26.2.4.29l0,0,.51.32.2.12.29.15.24.13.31.15.27.13.34.15.29.13.36.15.31.13.4.15.33.13.42.15.36.12.45.15.38.13.49.15.4.12.31.09.54.16.34.1.56.15.34.09.62.16.32.09.77.19.21,0,1,.24.28.07.78.17.4.09.7.15.44.1.71.14.45.1.76.15.43.08.92.18.3.06,1.27.23.24.05,1.06.19.46.07.89.16.52.09.86.14.55.09.9.14.54.09,1,.16.44.06,1.5.23.18,0,1.35.19.54.08,1,.15.61.08,1,.14.65.09,1,.13.64.09,1.15.15.53.06,1.71.22h0l1.76.21.58.07,1.22.15.69.08,1.15.13.73.08,1.16.13.73.08,1.26.14.65.07,1.61.17.33,0,2,.2.61.06,1.41.15.75.07,1.3.13.8.08,1.3.12.8.08,1.36.12.78.08,1.59.14.55,0,2.17.19.53,0,1.68.15.8.06,1.44.13.88.07,1.44.12.86.07,1.49.12.84.07,1.71.13.63,0,2.37.18.46,0,1.94.14.86.07,1.56.11,1,.07,1.52.11,1,.07,1.57.11.93.06,1.76.12.77.06,2.54.17.32,0,2.28.14.82.06L748,773l1,.06,1.62.1,1.07.07,1.67.1,1,.06,1.81.11.9.05,2.51.15h.21l2.73.15.93.05,1.86.11,1.06.05,1.76.1,1.13.06,1.72.09,1.12,0,1.9.1,1,0,2.42.12.46,0,2.9.14.92,0,2,.09,1.1,0,1.87.09,1.18,0,1.84.09,1.18,0,1.88.08,1.15,0,2.25.1.77,0,3.07.13.68,0,2.37.1,1.17.05,1.94.07,1.25.05,1.92.07,1.23.05,2,.07,1.14.05,2.26.08.93,0,3.19.11.58,0,2.62.09,1.17,0,2.08.07,1.3,0,2,.06,1.3,0,2.06.06,1.26,0,2.17.07,1.15,0,3.31.1h0l3.3.09,1.07,0,2.29.06,1.31,0,2.1.06,1.32,0,2.15.05,1.29,0,2.29,0,1.14,0,3.09.07h.35l3.46.07,1.08,0,2.4,0,1.36,0,2.11,0,1.46,0,2.16.05,1.34,0,2.31,0,1.26,0,2.8.05.74,0,3.54,0,1.06,0,2.54,0,1.34,0,2.26,0,1.42,0,2.29,0,1.36,0,2.36,0,1.3,0,2.77,0h.87l3.66,0h.81l2.88,0h1.32l2.34,0,1.51,0,2.22,0h5.25l2.63,0h1.08l3.75,0h.56l3.2,0h20.53c174,0,315-9.73,315-21.75v9.61c0,12-141,21.75-315,21.75H939.65l-3.2,0h-.56l-3.75,0h-1.08l-2.63,0h-3.72l-1.53,0H921l-1.51,0-2.34,0h-1.32l-2.88,0h-.81l-3.66,0h-.87l-2.77,0-1.3,0-2.36,0-1.36,0-2.29,0-1.42,0-2.26,0-1.34,0-2.54,0-1.06,0-3.54,0-.74,0-2.8,0-1.26,0-2.31,0-1.34,0-2.16,0-1.46,0-2.11,0-1.36,0-2.4,0-1.08,0-3.46-.08h-.35l-3.09-.07-1.14,0-2.29-.06-1.29,0-2.15,0-1.32,0-2.1-.06-1.31,0-2.29-.06-1.07,0-3.3-.09h0l-3.31-.1-1.15,0-2.17-.07-1.26,0-2.06-.06-1.3,0-2-.06-1.3,0-2.08-.06-1.17,0-2.62-.09-.58,0-3.19-.11-.93,0-2.26-.09-1.14,0-2-.07-1.23-.05-1.92-.07-1.25-.05-1.94-.08-1.17,0-2.37-.1-.68,0-3.07-.13-.77,0-2.25-.1-1.15,0-1.88-.08-1.18,0-1.84-.09-1.18,0-1.87-.09-1.1,0-2-.09-.92,0-2.9-.14-.46,0-2.42-.12-1,0-1.9-.1L771,784l-1.72-.09-1.13-.06-1.76-.1-1.06-.06-1.86-.1-.93,0-2.73-.15-.21,0-2.51-.14-.9-.05L754.4,783l-1-.06-1.67-.1-1.07-.07-1.62-.1-1-.06-1.78-.11-.82-.06-2.28-.14-.32,0-2.54-.16-.77-.06-1.76-.12-.93-.06-1.57-.11-1-.07-1.52-.11-1-.07-1.56-.11-.86-.07-1.94-.14-.46,0-2.37-.18-.63,0-1.71-.13-.84-.07-1.49-.12-.86-.07-1.44-.12-.88-.07-1.44-.13-.8-.07-1.68-.14-.53,0-2.17-.19-.55,0-1.59-.15-.78-.07-1.36-.12-.8-.08-1.3-.13-.8-.07-1.3-.13-.75-.08-1.41-.14-.61-.06-2-.2-.33,0L695,778.3l-.65-.07-1.26-.14-.73-.08-1.16-.13-.73-.08-1.15-.13-.69-.08-1.22-.15-.58-.07-1.76-.21h0l-1.71-.22-.53-.07-1.15-.14-.64-.09-1-.13-.65-.09-1-.14-.61-.08-1-.15-.54-.08-1.35-.19-.18,0-1.5-.23-.44-.06-1-.16-.54-.09-.9-.14-.55-.09-.86-.15-.52-.08-.89-.16-.46-.08-1.06-.19-.24,0-1.27-.23L664,774l-.92-.18-.43-.08-.76-.15-.45-.1-.71-.14-.44-.1-.7-.15-.4-.09-.78-.18-.28-.06-1-.24-.21,0-.77-.19-.32-.09-.62-.16-.34-.09-.56-.15-.34-.1-.54-.16-.31-.09-.12,0-.28-.08-.49-.16-.38-.12-.45-.15-.36-.12-.42-.16-.33-.12-.4-.15-.31-.13-.36-.15-.29-.13-.34-.15-.27-.13-.31-.15-.24-.13-.29-.16-.16-.09,0,0-.51-.32,0,0c-.14-.09-.27-.19-.4-.29l-.12-.1-.25-.23-.11-.11a2.25,2.25,0,0,1-.21-.24l-.06-.06h0a1.89,1.89,0,0,1-.44-1.15Z" transform="translate(-645.18 -292.18)"/></g><ellipse class="cls-10" cx="315" cy="464.77" rx="315" ry="21.76"/></g><path class="cls-11" d="M808.46,737.67a13.69,13.69,0,0,0,4,10.1,14.61,14.61,0,0,0,9.41,3.38l296,.55a16.13,16.13,0,0,0,9.42-3.35,13.7,13.7,0,0,0,4.06-10.08l.36-197.13-322.93-.6-.37,197.13Z" transform="translate(-645.18 -292.18)"/><path class="cls-12" d="M812.48,747.77a14.61,14.61,0,0,0,9.41,3.38l296,.55a16.13,16.13,0,0,0,9.42-3.35L970.16,612.83Z" transform="translate(-645.18 -292.18)"/><path class="cls-13" d="M808.83,540.54l45.68,33.05,106.83,76.9a15.14,15.14,0,0,0,18.17,0L1086,574l45.81-32.88-45.69-33.05-99.44-71.5-7.39-5.4a15.14,15.14,0,0,0-18.16,0l-7.41,5.37-47.83,34.22-23.58,16.78-27.62,20.13Z" transform="translate(-645.18 -292.18)"/><path class="cls-14" d="M854.69,478.06l-.18,95.53,106.83,76.9a15.14,15.14,0,0,0,18.17,0L1086,574l.23-123.79a13.49,13.49,0,0,0-13.43-13.48l-175.6-.33Z" transform="translate(-645.18 -292.18)"/><path class="cls-15" d="M896.42,467.37a10.63,10.63,0,0,1-10.78,10.75l-30.95-.06,41.79-41.64-.06,30.95Z" transform="translate(-645.18 -292.18)"/><path class="cls-16" d="M711.59,687.41c2.7-1.42,5.78-2.33,7.92-4.51,3.84-3.91,3.33-10.51,6.67-14.86,3.09-4,8.8-5.25,12.05-9.14,1.81-2.17,3.23-5.35,6-5.52s4.79,3.36,4.31,6.22-2.46,5.19-4,7.64c-2.58,4.12.12,7.32-.09,12.18-.25,5.7-7.72,7.3-10.45,12.32-3.07,5.65,2.61,9.18-2.3,16.4-3.76,5.53-8.16,6.3-10.51,13-1.93,5.47-10.57,6-15.66,3.22C691.68,716.7,700.76,693.14,711.59,687.41Z" transform="translate(-645.18 -292.18)"/><path class="cls-17" d="M705.37,719.09c2.49-3.46,4.94-7,7.37-10.48.15-3,.3-5.91.48-8.86.12-2-.21-4.78.6-6.62a.53.53,0,0,1,.59-.24l.17.07c.19.07.41.26.38.49l0,.15a18.3,18.3,0,0,1-.44,2.15l-.12,2c-.08,1.17-.15,2.34-.21,3.5-.11,1.91-.21,3.81-.31,5.72q7.38-10.76,14.33-21.78,0-6.15.29-12.3c0-.66,1.07-.66,1,0-.19,3.54-.28,7.09-.29,10.63q6.06-9.72,11.78-19.64a.52.52,0,0,1,.9.53q-5.56,9.66-11.46,19.12l5.61-4.17c.54-.39,1.05.51.52.9L729,685.9h0q-6.68,10.61-13.76,20.94a72.33,72.33,0,0,1,9.36-5.1c.6-.28,1.13.62.52.89a73.3,73.3,0,0,0-11.44,6.48c-2.43,3.52-4.88,7-7.38,10.5C705.87,720.15,705,719.64,705.37,719.09Z" transform="translate(-645.18 -292.18)"/><path class="cls-18" d="M689.56,697.63c.21-3,1.07-6.1.36-9-1.28-5.28-7.11-8.33-9-13.43-1.77-4.71.2-10.17-1.37-15-.88-2.66-2.81-5.52-1.47-8s5.35-2.28,7.5-.37,3.08,4.8,4.34,7.39c2.11,4.34,6.22,3.74,10.2,6.47,4.69,3.21,2.1,10.34,4.89,15.28,3.15,5.56,9.11,2.63,12.61,10.56,2.68,6.07,1,10.19,5.39,15.66,3.59,4.5-.5,12.06-5.52,14.88C703.77,729.79,688.69,709.76,689.56,697.63Z" transform="translate(-645.18 -292.18)"/><path class="cls-17" d="M713,719.52c-1.61-3.93-3.27-7.83-5-11.72q-3.62-2.52-7.21-5.06c-1.63-1.15-4.14-2.33-5.26-4a.52.52,0,0,1,.1-.62l.15-.11a.54.54,0,0,1,.62-.06l.11.1a18.48,18.48,0,0,1,1.58,1.5l1.62,1.16,2.84,2,4.65,3.26q-5.18-11.87-10.81-23.51-5.2-3.21-10.21-6.71c-.54-.38,0-1.25.54-.87q4.34,3,8.8,5.83-5-10.22-10.35-20.25a.51.51,0,0,1,.91-.48q5.22,9.76,10.09,19.71l-.56-6.92c0-.66,1-.62,1,0l.75,9.38h0q5.45,11.2,10.42,22.61a71.84,71.84,0,0,1,.62-10.57c.08-.66,1.11-.63,1,0a73,73,0,0,0-.56,13q2.54,5.84,5,11.73C714.13,719.65,713.22,720.14,713,719.52Z" transform="translate(-645.18 -292.18)"/><path class="cls-19" d="M726.92,686.88c-1.75-3-4.19-5.79-4.94-9.21-1.33-6.14,3.18-12.25,2.59-18.5-.55-5.79-5.34-10.47-6.12-16.24-.43-3.21.13-7.16-2.51-9s-6.7.34-8,3.41-.78,6.54-.78,9.86c0,5.57-4.58,7-7.34,11.88-3.25,5.69,3,11.79,2.62,18.33-.46,7.37-8.14,7.33-7.77,17.34.28,7.66,4.08,11.1,2.3,19-1.46,6.49,6.61,12.28,13.24,12.68C728.38,727.47,733.94,699.05,726.92,686.88Z" transform="translate(-645.18 -292.18)"/><path class="cls-17" d="M713.64,721.44q-.46-7.34-.77-14.68,2.49-4.44,4.94-8.89c1.11-2,3.12-4.51,3.45-6.8a.58.58,0,0,0-.42-.59l-.2,0a.62.62,0,0,0-.68.25l-.07.15a24.05,24.05,0,0,0-.88,2.36l-1.1,2c-.64,1.18-1.29,2.35-1.94,3.53-1.05,1.91-2.12,3.82-3.19,5.73q-.6-14.94-.62-29.88,3.8-6,7.22-12.12c.37-.67-.63-1.3-1-.63q-3,5.32-6.2,10.49,0-13.12.54-26.25a.6.6,0,0,0-1.19,0q-.49,12.78-.54,25.56l-2.91-7.47c-.28-.71-1.33-.16-1.05.55L711,674.81h0c0,9.58.21,19.16.58,28.74a82.66,82.66,0,0,0-6-10.67c-.42-.64-1.47-.09-1.05.54a84,84,0,0,1,7.15,13.27c.22,4.9.46,9.8.77,14.7C712.5,722.16,713.69,722.2,713.64,721.44Z" transform="translate(-645.18 -292.18)"/><polygon class="cls-20" points="87.49 432.65 78.93 466.5 52.14 466.5 44.7 432.65 87.49 432.65"/><path class="cls-21" d="M689.32,726.31h43.54a1.29,1.29,0,0,0,.89-.35,1.32,1.32,0,0,0,.41-1h0a1.3,1.3,0,0,0-1.3-1.3H689.32a1.27,1.27,0,0,0-.69.2A1.32,1.32,0,0,0,688,725h0a1.29,1.29,0,0,0,.25.77A1.31,1.31,0,0,0,689.32,726.31Z" transform="translate(-645.18 -292.18)"/><path class="cls-22" d="M1137.54,356a9.59,9.59,0,1,0,8.06-10.9A9.59,9.59,0,0,0,1137.54,356Z" transform="translate(-645.18 -292.18)"/><path class="cls-23" d="M1148.6,359.41a1,1,0,0,0,.27-.24l3.2-4.18a1,1,0,1,0-1.62-1.24L1148,357l-5.17-5.16a1,1,0,1,0-1.44,1.44l6,6a1,1,0,0,0,.78.29A1,1,0,0,0,1148.6,359.41Z" transform="translate(-645.18 -292.18)"/><path class="cls-24" d="M887.39,323.54a9.59,9.59,0,1,0,8.06-10.9A9.57,9.57,0,0,0,887.39,323.54Z" transform="translate(-645.18 -292.18)"/><path class="cls-23" d="M898.45,327a1.12,1.12,0,0,0,.28-.25l3.19-4.18a1,1,0,0,0-1.62-1.24l-2.48,3.26-5.18-5.17a1,1,0,0,0-1.44,0,1,1,0,0,0,0,1.45l6,6a1,1,0,0,0,.79.3A1.09,1.09,0,0,0,898.45,327Z" transform="translate(-645.18 -292.18)"/><path class="cls-25" d="M706.06,593.9h4.59v-4.59a1.82,1.82,0,1,1,3.63,0v4.59h4.59a1.82,1.82,0,1,1,0,3.63h-4.59v4.59a1.82,1.82,0,0,1-3.63,0v-4.59h-4.59a1.82,1.82,0,1,1,0-3.63Z" transform="translate(-645.18 -292.18)"/><path class="cls-26" d="M1024.53,298.58h4.6V294a1.82,1.82,0,1,1,3.63,0v4.58h4.59a1.82,1.82,0,0,1,0,3.64h-4.59v4.59a1.82,1.82,0,0,1-3.63,0v-4.59h-4.6a1.82,1.82,0,0,1,0-3.64Z" transform="translate(-645.18 -292.18)"/><path class="cls-27" d="M1220.25,527.89h4.59V523.3a1.82,1.82,0,1,1,3.63,0v4.59h4.59a1.82,1.82,0,1,1,0,3.63h-4.59v4.59a1.82,1.82,0,0,1-3.63,0v-4.59h-4.59a1.82,1.82,0,0,1,0-3.63Z" transform="translate(-645.18 -292.18)"/><path class="cls-28" d="M1031.48,392.18a14.64,14.64,0,0,1,27.64,4.76h-3.63a11.05,11.05,0,0,0-21.28-2l2,2h-6.88v-6.87Z" transform="translate(-645.18 -292.18)"/><path class="cls-29" d="M1044.59,409.76a11.05,11.05,0,0,0,10.36-7.23l-2-2h6.88v6.88l-2.1-2.1a14.64,14.64,0,0,1-27.63-4.78h3.63A11.06,11.06,0,0,0,1044.59,409.76Z" transform="translate(-645.18 -292.18)"/><path class="cls-30" d="M1160.5,451.82l-6.28-8.15a23,23,0,0,1,14.55-6.11v10.23A12.92,12.92,0,0,0,1160.5,451.82Z" transform="translate(-645.18 -292.18)"/><path class="cls-31" d="M1146.77,460.11a23,23,0,0,1,5.8-14.76l6.45,8.36a12.93,12.93,0,0,0-2,7c0,.37,0,.75.06,1.12Z" transform="translate(-645.18 -292.18)"/><path class="cls-32" d="M1157.48,464.26a13,13,0,1,0,13.62-16.47V437.56a23.18,23.18,0,1,1-24.27,24.92Z" transform="translate(-645.18 -292.18)"/><polygon class="cls-33" points="89.17 254.37 106.38 227.64 123.28 254.37 113.75 254.37 113.75 276.47 98.7 276.47 98.7 254.37 89.17 254.37"/><circle class="cls-34" cx="133.14" cy="116.46" r="20.91"/><g class="cls-35"><rect class="cls-36" x="120.13" y="108.94" width="26.84" height="18.29"/></g><rect class="cls-23" x="119.13" y="107.94" width="26.84" height="18.29"/><path class="cls-37" d="M791.15,418.4c-2.33-1.73-4.61-3.52-6.88-5.31-1.14-.89-2.26-1.82-3.39-2.73l-3.37-2.74H778l-3.38,2.74c-1.13.91-2.24,1.84-3.38,2.73-2.27,1.8-4.55,3.59-6.88,5.31,2.14-1.95,4.33-3.85,6.53-5.73,1.09-1,2.22-1.87,3.32-2.81l3.34-2.79.22-.18.23.18,3.33,2.79c1.11.94,2.23,1.85,3.32,2.81C786.82,414.55,789,416.45,791.15,418.4Z" transform="translate(-645.18 -292.18)"/><polyline class="cls-23" points="145.97 107.94 132.55 118.99 119.13 107.94"/><path class="cls-37" d="M791.15,400.12c-2.14,1.95-4.33,3.85-6.54,5.73-1.09,1-2.21,1.87-3.32,2.81L778,411.45l-.23.18-.22-.18-3.34-2.79c-1.1-.94-2.23-1.85-3.32-2.81-2.2-1.88-4.39-3.78-6.53-5.73,2.33,1.73,4.61,3.52,6.88,5.31,1.14.89,2.25,1.82,3.38,2.73L778,410.9h-.45l3.37-2.74c1.13-.91,2.25-1.84,3.39-2.72C786.54,403.64,788.82,401.85,791.15,400.12Z" transform="translate(-645.18 -292.18)"/><path class="cls-38" d="M821.69,660.05l-2.77-3.65a9.94,9.94,0,0,0-7-3.49h-30.1a4.36,4.36,0,0,0-4.42,4.33v81.5a4.36,4.36,0,0,0,4.42,4.32H884.54a4.36,4.36,0,0,0,4.41-4.32V668.42a4.39,4.39,0,0,0-4.41-4.36l-55.81-.49A9.89,9.89,0,0,1,821.69,660.05Z" transform="translate(-645.18 -292.18)"/><path class="cls-39" d="M882.8,718H783.5a2.19,2.19,0,0,1-2.21-2.15V671.22a2.18,2.18,0,0,1,2.21-2.17h99.3a2.18,2.18,0,0,1,2.21,2.17v44.63A2.18,2.18,0,0,1,882.8,718Z" transform="translate(-645.18 -292.18)"/><path class="cls-40" d="M884.42,722.46H781.89a2.22,2.22,0,0,1-2.29-2.17V675.68a2.23,2.23,0,0,1,2.29-2.17H884.42a2.22,2.22,0,0,1,2.28,2.17v44.61A2.21,2.21,0,0,1,884.42,722.46Z" transform="translate(-645.18 -292.18)"/><path class="cls-41" d="M883.45,757.48H782.85a4.92,4.92,0,0,1-4.8-4.28l-7.55-70.4a3.79,3.79,0,0,1,3.87-4.28H891.93a3.79,3.79,0,0,1,3.87,4.28l-7.55,70.4A4.92,4.92,0,0,1,883.45,757.48Z" transform="translate(-645.18 -292.18)"/><path class="cls-42" d="M883.45,758.89H782.85a4.94,4.94,0,0,1-4.8-4.31l-7.55-70.37a3.82,3.82,0,0,1,3.87-4.31H891.93a3.82,3.82,0,0,1,3.87,4.31l-7.55,70.37A4.94,4.94,0,0,1,883.45,758.89Z" transform="translate(-645.18 -292.18)"/><path class="cls-43" d="M1091.74,689.42l-3.12,14.47a12.41,12.41,0,0,0,4.1,12.07l11.38,9.66,7.25-5.94-7.67-11.94,4.69-11.08Z" transform="translate(-645.18 -292.18)"/><path class="cls-44" d="M1157.81,695.81l14.91-6.39,3.75,15a12.41,12.41,0,0,1-3.69,12.18l-11.56,10.53V707.52Z" transform="translate(-645.18 -292.18)"/><path class="cls-45" d="M1124.14,665.12l8.09,11.51,6.4-11.51,14.36,1.36a15.13,15.13,0,0,1,12,8.1l7.7,14.84-14.91,6.39,3.41,8.52V727.1L1131,741.2l-19.18-10.87-8.1-22.59,4.69-11.08-16.63-7.24,9.87-15.74a15.2,15.2,0,0,1,10.8-7Z" transform="translate(-645.18 -292.18)"/><polygon class="cls-46" points="454.66 438.15 454.66 412.15 520.3 412.15 520.3 438.15 485.77 449.02 454.66 438.15"/><path class="cls-47" d="M1163.35,759.31s-65.64-7.24-88.65-19.18,1.7-23.44,23-16.62,66.43,24.06,66.43,24.06Z" transform="translate(-645.18 -292.18)"/><path class="cls-48" d="M1102.83,759.31l-1.55-10.41s75.28-34.34,95.74-23.68S1162.92,755.48,1102.83,759.31Z" transform="translate(-645.18 -292.18)"/><path class="cls-49" d="M1101.33,748.87l1.5,10.44s-27.07,3.41-29.2,2.35-9.16-5.76-4.69-10.23S1095.15,746.74,1101.33,748.87Z" transform="translate(-645.18 -292.18)"/><path class="cls-50" d="M1164.23,749.94l-1.49,10s27.06,3.41,29.19,2.35,9.17-5.76,4.69-10.23S1170.41,747.81,1164.23,749.94Z" transform="translate(-645.18 -292.18)"/><polygon class="cls-51" points="478.95 372.94 487.05 386.79 493.44 372.94 493.44 363.14 478.95 363.14 478.95 372.94"/><path class="cls-52" d="M1128.22,661s-10.07-6.36-11.21-14.19-1.14-14.25,1.49-14.84,20.16-4.62,21.18-4.09,4.62,10.52,4.79,14.19c.34,7.32-7.41,18.32-9.68,19.59S1128.22,661,1128.22,661Z" transform="translate(-645.18 -292.18)"/><path class="cls-53" d="M1117.18,647.68a32.79,32.79,0,0,1-4.55-11.54c-1.49-9.57,3.19-14.44,5.51-15.57,13.21-6.39,15.71.27,27-4a26.35,26.35,0,0,1,2,12,58.76,58.76,0,0,1-3,14s0-10-6.79-10.48c-3.1-.22-14.07,2.77-16.62,0C1120.73,632.09,1115.55,632.8,1117.18,647.68Z" transform="translate(-645.18 -292.18)"/></g></g></svg>