<svg xmlns="http://www.w3.org/2000/svg" xmlns:xlink="http://www.w3.org/1999/xlink" viewBox="0 0 1646.04 1085.2"><defs><style>.cls-1{isolation:isolate;}.cls-2{fill:url(#New_Gradient_Swatch_copy_10);}.cls-3{fill:#149173;}.cls-4{fill:url(#New_Gradient_Swatch_copy_10-2);}.cls-5{fill:url(#New_Gradient_Swatch_copy_10-3);}.cls-6{fill:#21692b;}.cls-7{fill:url(#linear-gradient);}.cls-8{fill:url(#linear-gradient-2);}.cls-9{fill:url(#New_Gradient_Swatch_copy_4);}.cls-10{fill:url(#New_Gradient_Swatch_copy_2);}.cls-11{opacity:0.1;}.cls-12{fill:url(#New_Gradient_Swatch_copy_4-2);}.cls-13{fill:url(#New_Gradient_Swatch_copy_2-2);}.cls-14{fill:url(#New_Gradient_Swatch_copy_2-3);}.cls-15{fill:url(#New_Gradient_Swatch_copy_2-4);}.cls-16{fill:url(#New_Gradient_Swatch_copy_2-5);}.cls-17{fill:url(#New_Gradient_Swatch_copy_2-6);}.cls-18{fill:url(#New_Gradient_Swatch_copy_2-7);}.cls-19{fill:#fff;}.cls-20{fill:url(#New_Gradient_Swatch_copy_8);}.cls-21{fill:url(#New_Gradient_Swatch_copy_8-2);}.cls-22{fill:url(#New_Gradient_Swatch_copy_8-3);}.cls-23{fill:url(#New_Gradient_Swatch_copy_8-4);}.cls-24{fill:url(#New_Gradient_Swatch_copy_8-5);}.cls-25{fill:url(#New_Gradient_Swatch_copy_8-6);}.cls-26{fill:url(#New_Gradient_Swatch_copy_2-8);}.cls-27{fill:url(#New_Gradient_Swatch_copy_8-7);}.cls-28{fill:url(#New_Gradient_Swatch_copy_10-4);}.cls-29{fill:url(#New_Gradient_Swatch_copy_4-3);}.cls-30{fill:url(#New_Gradient_Swatch_copy_2-9);}.cls-31{fill:url(#New_Gradient_Swatch_copy_4-4);}.cls-32{fill:url(#New_Gradient_Swatch_copy_8-8);}.cls-33{fill:url(#New_Gradient_Swatch_copy_8-9);}.cls-34{fill:url(#New_Gradient_Swatch_copy_8-10);}.cls-35{fill:url(#New_Gradient_Swatch_copy_8-11);}.cls-36{fill:url(#New_Gradient_Swatch_copy_8-12);}.cls-37{fill:url(#New_Gradient_Swatch_copy_8-13);}.cls-38{fill:url(#New_Gradient_Swatch_copy_8-14);}.cls-39{fill:url(#New_Gradient_Swatch_copy_10-5);}.cls-40{fill:url(#New_Gradient_Swatch_copy_10-6);}.cls-41{fill:url(#New_Gradient_Swatch_copy_10-7);}.cls-42{fill:url(#New_Gradient_Swatch_copy_8-15);}.cls-43{fill:url(#New_Gradient_Swatch_copy_2-10);}.cls-44{fill:url(#New_Gradient_Swatch_copy_2-11);}.cls-45{fill:url(#New_Gradient_Swatch_copy_2-12);}.cls-46{fill:url(#New_Gradient_Swatch_copy_8-16);}.cls-47{fill:url(#New_Gradient_Swatch_copy_5);}.cls-48{fill:url(#New_Gradient_Swatch_copy_10-8);}.cls-49{fill:url(#New_Gradient_Swatch_copy_5-2);}.cls-50{fill:url(#New_Gradient_Swatch_copy_5-3);}.cls-51{fill:url(#New_Gradient_Swatch_copy_10-9);}.cls-52{fill:url(#New_Gradient_Swatch_copy_5-4);}.cls-53{fill:url(#New_Gradient_Swatch_copy_8-17);}.cls-54{fill:url(#New_Gradient_Swatch_copy_14);}.cls-55{fill:url(#New_Gradient_Swatch_copy);}.cls-56{fill:url(#New_Gradient_Swatch_copy_14-2);}.cls-57{fill:url(#New_Gradient_Swatch_copy_14-3);}.cls-58{fill:url(#New_Gradient_Swatch_copy_14-4);}.cls-59{fill:url(#New_Gradient_Swatch_copy_15);}.cls-60{fill:url(#New_Gradient_Swatch_copy_2-13);}.cls-61{fill:url(#New_Gradient_Swatch_copy-2);}.cls-62{fill:url(#New_Gradient_Swatch_copy_14-5);}.cls-63{fill:url(#New_Gradient_Swatch_copy-3);}.cls-64{fill:#0f0a3c;opacity:0.32;}.cls-65{fill:url(#New_Gradient_Swatch_copy-4);}.cls-66{fill:url(#New_Gradient_Swatch_copy_10-10);}.cls-67{fill:#00663e;}.cls-68{fill:url(#New_Gradient_Swatch_copy_10-11);}.cls-69{fill:url(#New_Gradient_Swatch_copy_10-12);}.cls-70{fill:url(#New_Gradient_Swatch_copy_10-13);}.cls-71{fill:url(#New_Gradient_Swatch_copy_10-14);}.cls-72{fill:url(#New_Gradient_Swatch_copy_10-15);}.cls-73{fill:url(#New_Gradient_Swatch_copy_10-16);}.cls-74{fill:url(#New_Gradient_Swatch_copy_10-17);}.cls-75{fill:url(#New_Gradient_Swatch_copy_14-6);}.cls-76{fill:url(#New_Gradient_Swatch_copy_14-7);}.cls-77{fill:url(#New_Gradient_Swatch_copy-5);}.cls-78{fill:url(#New_Gradient_Swatch_copy_14-8);}.cls-79{fill:url(#New_Gradient_Swatch_copy-6);}.cls-80{fill:url(#New_Gradient_Swatch_copy_14-9);}.cls-81{fill:#f9b253;}.cls-82{fill:url(#New_Gradient_Swatch_copy-7);}.cls-83{fill:#ccc;}.cls-84{fill:url(#New_Gradient_Swatch_copy_10-18);}.cls-85{fill:url(#New_Gradient_Swatch_copy_14-10);}.cls-86{fill:url(#New_Gradient_Swatch_copy-8);}.cls-87{fill:url(#New_Gradient_Swatch_copy_8-18);}.cls-88{fill:url(#New_Gradient_Swatch_copy_8-19);}.cls-89{fill:url(#New_Gradient_Swatch_copy_4-5);}.cls-90{fill:url(#New_Gradient_Swatch_copy_4-6);}.cls-91{fill:url(#New_Gradient_Swatch_copy_30);}.cls-92{opacity:0.5;}.cls-92,.cls-96,.cls-98{mix-blend-mode:multiply;}.cls-93{fill:#6c78ba;}.cls-94{fill:#aba6e2;}.cls-95{fill:url(#New_Gradient_Swatch_copy_30-2);}.cls-96,.cls-98{opacity:0.63;}.cls-96{fill:url(#New_Gradient_Swatch_copy_30-3);}.cls-97{fill:url(#New_Gradient_Swatch_copy_30-4);}.cls-98{fill:url(#New_Gradient_Swatch_copy_30-5);}.cls-99{fill:url(#New_Gradient_Swatch_copy_29);}.cls-100{fill:url(#New_Gradient_Swatch_copy_29-2);}.cls-101{fill:url(#New_Gradient_Swatch_copy_29-3);}.cls-102{fill:url(#New_Gradient_Swatch_copy_29-4);}.cls-103{fill:url(#New_Gradient_Swatch_copy_29-5);}.cls-104{fill:#71c48f;}.cls-105{fill:url(#New_Gradient_Swatch_copy_29-6);}.cls-106{fill:url(#New_Gradient_Swatch_copy_29-7);}.cls-107{fill:url(#New_Gradient_Swatch_copy_29-8);}.cls-108{fill:url(#New_Gradient_Swatch_copy_10-19);}.cls-109{fill:url(#New_Gradient_Swatch_copy_29-9);}.cls-110{fill:url(#New_Gradient_Swatch_copy_10-20);}</style><linearGradient id="New_Gradient_Swatch_copy_10" x1="1523.26" y1="884.01" x2="1743.03" y2="457.02" gradientTransform="translate(-12.97 655.48) rotate(-20.71)" gradientUnits="userSpaceOnUse"><stop offset="0" stop-color="#30944c"/><stop offset="0.41" stop-color="#8abb62"/><stop offset="0.82" stop-color="#dedf77"/><stop offset="1" stop-color="#ffed7f"/></linearGradient><linearGradient id="New_Gradient_Swatch_copy_10-2" x1="1657.78" y1="830.83" x2="1962.32" y2="783.74" xlink:href="#New_Gradient_Swatch_copy_10"/><linearGradient id="New_Gradient_Swatch_copy_10-3" x1="1573.61" y1="941.96" x2="1776.11" y2="615.44" xlink:href="#New_Gradient_Swatch_copy_10"/><linearGradient id="linear-gradient" x1="594.31" y1="1375.14" x2="2313.6" y2="1375.14" gradientUnits="userSpaceOnUse"><stop offset="0" stop-color="#44a552"/><stop offset="0.43" stop-color="#59bd62"/><stop offset="1" stop-color="#79e27a"/></linearGradient><linearGradient id="linear-gradient-2" x1="1694.62" y1="1019.1" x2="-170.84" y2="1015.62" xlink:href="#linear-gradient"/><linearGradient id="New_Gradient_Swatch_copy_4" x1="114.75" y1="755.15" x2="806.98" y2="755.15" gradientUnits="userSpaceOnUse"><stop offset="0" stop-color="#be73de"/><stop offset="1" stop-color="#514eb7"/></linearGradient><linearGradient id="New_Gradient_Swatch_copy_2" x1="-32.22" y1="414.53" x2="1264.38" y2="1340.34" gradientUnits="userSpaceOnUse"><stop offset="0" stop-color="#fff"/><stop offset="0.37" stop-color="#f2f2ff"/><stop offset="1" stop-color="#d2d2ff"/></linearGradient><linearGradient id="New_Gradient_Swatch_copy_4-2" x1="171.6" y1="914.34" x2="946.04" y2="481.44" xlink:href="#New_Gradient_Swatch_copy_4"/><linearGradient id="New_Gradient_Swatch_copy_2-2" x1="292.15" y1="647.07" x2="749.37" y2="643.97" xlink:href="#New_Gradient_Swatch_copy_2"/><linearGradient id="New_Gradient_Swatch_copy_2-3" x1="292.52" y1="687.24" x2="749.76" y2="684.14" xlink:href="#New_Gradient_Swatch_copy_2"/><linearGradient id="New_Gradient_Swatch_copy_2-4" x1="292.72" y1="727.41" x2="749.98" y2="724.31" xlink:href="#New_Gradient_Swatch_copy_2"/><linearGradient id="New_Gradient_Swatch_copy_2-5" x1="292.91" y1="767.58" x2="750.19" y2="764.48" xlink:href="#New_Gradient_Swatch_copy_2"/><linearGradient id="New_Gradient_Swatch_copy_2-6" x1="293.11" y1="808.51" x2="750.41" y2="805.41" xlink:href="#New_Gradient_Swatch_copy_2"/><linearGradient id="New_Gradient_Swatch_copy_2-7" x1="293.31" y1="848.68" x2="750.63" y2="845.58" xlink:href="#New_Gradient_Swatch_copy_2"/><linearGradient id="New_Gradient_Swatch_copy_8" x1="292.21" y1="645.32" x2="611.45" y2="645.32" gradientUnits="userSpaceOnUse"><stop offset="0" stop-color="#ffd571"/><stop offset="0.25" stop-color="#ffbd60"/><stop offset="0.78" stop-color="#ff8035"/><stop offset="1" stop-color="#ff6421"/></linearGradient><linearGradient id="New_Gradient_Swatch_copy_8-2" x1="292.21" y1="686.04" x2="660.88" y2="686.04" xlink:href="#New_Gradient_Swatch_copy_8"/><linearGradient id="New_Gradient_Swatch_copy_8-3" x1="292.21" y1="726.27" x2="452.04" y2="726.27" xlink:href="#New_Gradient_Swatch_copy_8"/><linearGradient id="New_Gradient_Swatch_copy_8-4" x1="292.21" y1="767.47" x2="485.45" y2="767.47" xlink:href="#New_Gradient_Swatch_copy_8"/><linearGradient id="New_Gradient_Swatch_copy_8-5" x1="292.21" y1="808.02" x2="564.99" y2="808.02" xlink:href="#New_Gradient_Swatch_copy_8"/><linearGradient id="New_Gradient_Swatch_copy_8-6" x1="292.21" y1="848.27" x2="612.73" y2="848.27" xlink:href="#New_Gradient_Swatch_copy_8"/><linearGradient id="New_Gradient_Swatch_copy_2-8" x1="291.1" y1="749.29" x2="686.47" y2="749.29" xlink:href="#New_Gradient_Swatch_copy_2"/><linearGradient id="New_Gradient_Swatch_copy_8-7" x1="349.85" y1="908.81" x2="372.08" y2="884.31" xlink:href="#New_Gradient_Swatch_copy_8"/><linearGradient id="New_Gradient_Swatch_copy_10-4" x1="511.61" y1="884.88" x2="489.05" y2="907.44" gradientTransform="matrix(1, 0, 0, 1, 0, 0)" xlink:href="#New_Gradient_Swatch_copy_10"/><linearGradient id="New_Gradient_Swatch_copy_4-3" x1="131.39" y1="1078.96" x2="823.62" y2="1078.96" gradientTransform="matrix(-1, 0, 0, 1, 1654.04, -323.8)" xlink:href="#New_Gradient_Swatch_copy_4"/><linearGradient id="New_Gradient_Swatch_copy_2-9" x1="1683.17" y1="397.81" x2="222.33" y2="1461.17" xlink:href="#New_Gradient_Swatch_copy_2"/><linearGradient id="New_Gradient_Swatch_copy_4-4" x1="1471.23" y1="959.15" x2="640.23" y2="370.6" xlink:href="#New_Gradient_Swatch_copy_4"/><linearGradient id="New_Gradient_Swatch_copy_8-8" x1="938.1" y1="908.83" x2="1013.92" y2="863.86" xlink:href="#New_Gradient_Swatch_copy_8"/><linearGradient id="New_Gradient_Swatch_copy_8-9" x1="999.14" y1="910.8" x2="1076.37" y2="865" xlink:href="#New_Gradient_Swatch_copy_8"/><linearGradient id="New_Gradient_Swatch_copy_8-10" x1="1061.52" y1="912.82" x2="1140.21" y2="866.15" xlink:href="#New_Gradient_Swatch_copy_8"/><linearGradient id="New_Gradient_Swatch_copy_8-11" x1="1125.28" y1="914.89" x2="1205.48" y2="867.33" xlink:href="#New_Gradient_Swatch_copy_8"/><linearGradient id="New_Gradient_Swatch_copy_8-12" x1="1190.48" y1="917.01" x2="1272.22" y2="868.53" xlink:href="#New_Gradient_Swatch_copy_8"/><linearGradient id="New_Gradient_Swatch_copy_8-13" x1="1257.16" y1="919.18" x2="1340.5" y2="869.75" xlink:href="#New_Gradient_Swatch_copy_8"/><linearGradient id="New_Gradient_Swatch_copy_8-14" x1="1325.37" y1="921.4" x2="1410.36" y2="871" xlink:href="#New_Gradient_Swatch_copy_8"/><linearGradient id="New_Gradient_Swatch_copy_10-5" x1="1189.69" y1="615.01" x2="896.11" y2="615.01" gradientTransform="matrix(1, 0, 0, 1, 0, 0)" xlink:href="#New_Gradient_Swatch_copy_10"/><linearGradient id="New_Gradient_Swatch_copy_10-6" x1="1189.69" y1="644.08" x2="896.11" y2="644.08" gradientTransform="matrix(1, 0, 0, 1, 0, 0)" xlink:href="#New_Gradient_Swatch_copy_10"/><linearGradient id="New_Gradient_Swatch_copy_10-7" x1="1914.2" y1="1101.03" x2="2021.43" y2="1177.13" gradientTransform="matrix(1, 0, 0, 1, 0, 0)" xlink:href="#New_Gradient_Swatch_copy_10"/><linearGradient id="New_Gradient_Swatch_copy_8-15" x1="1938.25" y1="1139.79" x2="2052.41" y2="1152.47" xlink:href="#New_Gradient_Swatch_copy_8"/><linearGradient id="New_Gradient_Swatch_copy_2-10" x1="1955.36" y1="1144.32" x2="2007.82" y2="1144.32" xlink:href="#New_Gradient_Swatch_copy_2"/><linearGradient id="New_Gradient_Swatch_copy_2-11" x1="1955.36" y1="1144.43" x2="2007.82" y2="1144.43" xlink:href="#New_Gradient_Swatch_copy_2"/><linearGradient id="New_Gradient_Swatch_copy_2-12" x1="1955.36" y1="1144.38" x2="2007.82" y2="1144.38" xlink:href="#New_Gradient_Swatch_copy_2"/><linearGradient id="New_Gradient_Swatch_copy_8-16" x1="1408.85" y1="736.04" x2="1472.42" y2="736.04" xlink:href="#New_Gradient_Swatch_copy_8"/><linearGradient id="New_Gradient_Swatch_copy_5" x1="1436.92" y1="783.7" x2="1444.21" y2="424.45" gradientUnits="userSpaceOnUse"><stop offset="0" stop-color="#c662c2"/><stop offset="0.12" stop-color="#b95dbc"/><stop offset="0.35" stop-color="#9751ab"/><stop offset="0.65" stop-color="#5f3d90"/><stop offset="1" stop-color="#17236d"/></linearGradient><linearGradient id="New_Gradient_Swatch_copy_10-8" x1="1344.91" y1="706.98" x2="1521.8" y2="411.55" gradientTransform="matrix(1, 0, 0, 1, 0, 0)" xlink:href="#New_Gradient_Swatch_copy_10"/><linearGradient id="New_Gradient_Swatch_copy_5-2" x1="1341.24" y1="679.41" x2="1614.79" y2="683.06" xlink:href="#New_Gradient_Swatch_copy_5"/><linearGradient id="New_Gradient_Swatch_copy_5-3" x1="1428.54" y1="314.37" x2="1446.78" y2="471.2" xlink:href="#New_Gradient_Swatch_copy_5"/><linearGradient id="New_Gradient_Swatch_copy_10-9" x1="1385.07" y1="787.34" x2="1514.55" y2="601.33" gradientTransform="matrix(1, 0, 0, 1, 0, 0)" xlink:href="#New_Gradient_Swatch_copy_10"/><linearGradient id="New_Gradient_Swatch_copy_5-4" x1="1494.29" y1="456.37" x2="1346.72" y2="606.11" gradientTransform="translate(1173.35 -993.75) rotate(60.4)" xlink:href="#New_Gradient_Swatch_copy_5"/><linearGradient id="New_Gradient_Swatch_copy_8-17" x1="1488.5" y1="471.82" x2="1386.07" y2="555.38" xlink:href="#New_Gradient_Swatch_copy_8"/><linearGradient id="New_Gradient_Swatch_copy_14" x1="1166.94" y1="1027.84" x2="1177.14" y2="1027.84" gradientUnits="userSpaceOnUse"><stop offset="0" stop-color="#ffecdc"/><stop offset="0.24" stop-color="#f6dac4"/><stop offset="0.74" stop-color="#e0ad87"/><stop offset="1" stop-color="#d39364"/></linearGradient><linearGradient id="New_Gradient_Swatch_copy" x1="1778.26" y1="1362.63" x2="1798.65" y2="1362.63" gradientUnits="userSpaceOnUse"><stop offset="0" stop-color="gray"/><stop offset="0.64" stop-color="#52524d"/><stop offset="1" stop-color="#3c3c35"/></linearGradient><linearGradient id="New_Gradient_Swatch_copy_14-2" x1="1114.69" y1="1029.12" x2="1124.88" y2="1029.12" xlink:href="#New_Gradient_Swatch_copy_14"/><linearGradient id="New_Gradient_Swatch_copy_14-3" x1="1618.11" y1="1148.84" x2="1746.41" y2="1147.99" xlink:href="#New_Gradient_Swatch_copy_14"/><linearGradient id="New_Gradient_Swatch_copy_14-4" x1="1910.8" y1="1148.23" x2="1792.7" y2="1148.66" xlink:href="#New_Gradient_Swatch_copy_14"/><linearGradient id="New_Gradient_Swatch_copy_15" x1="1753.62" y1="1116.54" x2="1783.36" y2="1116.54" gradientUnits="userSpaceOnUse"><stop offset="0" stop-color="#e3cbba"/><stop offset="0.25" stop-color="#dbbaa2"/><stop offset="0.78" stop-color="#c88f65"/><stop offset="1" stop-color="#bf7c4a"/></linearGradient><linearGradient id="New_Gradient_Swatch_copy_2-13" x1="1713.59" y1="1175.2" x2="1813.2" y2="1175.2" xlink:href="#New_Gradient_Swatch_copy_2"/><linearGradient id="New_Gradient_Swatch_copy-2" x1="1148.05" y1="1035.68" x2="1142.1" y2="896.57" xlink:href="#New_Gradient_Swatch_copy"/><linearGradient id="New_Gradient_Swatch_copy_14-5" x1="1749.52" y1="1100.29" x2="1761.23" y2="1100.29" xlink:href="#New_Gradient_Swatch_copy_14"/><linearGradient id="New_Gradient_Swatch_copy-3" x1="1749.68" y1="1093.8" x2="1779.99" y2="1093.8" xlink:href="#New_Gradient_Swatch_copy"/><linearGradient id="New_Gradient_Swatch_copy-4" x1="1726" y1="1363.91" x2="1746.4" y2="1363.91" xlink:href="#New_Gradient_Swatch_copy"/><linearGradient id="New_Gradient_Swatch_copy_10-10" x1="1478.44" y1="1333.57" x2="1508.45" y2="1252.37" gradientTransform="matrix(1, 0, 0, 1, 0, 0)" xlink:href="#New_Gradient_Swatch_copy_10"/><linearGradient id="New_Gradient_Swatch_copy_10-11" x1="1471.78" y1="1342.58" x2="1430.29" y2="1252.55" gradientTransform="matrix(1, 0, 0, 1, 0, 0)" xlink:href="#New_Gradient_Swatch_copy_10"/><linearGradient id="New_Gradient_Swatch_copy_10-12" x1="1446.43" y1="1337.56" x2="1386.51" y2="1237.9" gradientTransform="matrix(1, 0, 0, 1, 0, 0)" xlink:href="#New_Gradient_Swatch_copy_10"/><linearGradient id="New_Gradient_Swatch_copy_10-13" x1="1504.32" y1="1336.61" x2="1559.93" y2="1247.46" gradientTransform="matrix(1, 0, 0, 1, 0, 0)" xlink:href="#New_Gradient_Swatch_copy_10"/><linearGradient id="New_Gradient_Swatch_copy_10-14" x1="1099.43" y1="1356.42" x2="1123.87" y2="1290.27" gradientTransform="matrix(1, 0, 0, 1, 0, 0)" xlink:href="#New_Gradient_Swatch_copy_10"/><linearGradient id="New_Gradient_Swatch_copy_10-15" x1="1094.01" y1="1363.75" x2="1060.21" y2="1290.42" gradientTransform="matrix(1, 0, 0, 1, 0, 0)" xlink:href="#New_Gradient_Swatch_copy_10"/><linearGradient id="New_Gradient_Swatch_copy_10-16" x1="1073.36" y1="1359.67" x2="1024.56" y2="1278.49" gradientTransform="matrix(1, 0, 0, 1, 0, 0)" xlink:href="#New_Gradient_Swatch_copy_10"/><linearGradient id="New_Gradient_Swatch_copy_10-17" x1="1120.51" y1="1358.89" x2="1165.81" y2="1286.28" gradientTransform="matrix(1, 0, 0, 1, 0, 0)" xlink:href="#New_Gradient_Swatch_copy_10"/><linearGradient id="New_Gradient_Swatch_copy_14-6" x1="393.6" y1="1202.34" x2="411.43" y2="1148.87" gradientTransform="matrix(-1, 0, 0, 1, 1759.44, 0)" xlink:href="#New_Gradient_Swatch_copy_14"/><linearGradient id="New_Gradient_Swatch_copy_14-7" x1="399.76" y1="1280.85" x2="425.83" y2="1280.85" gradientTransform="matrix(-1, 0, 0, 1, 1759.44, 0)" xlink:href="#New_Gradient_Swatch_copy_14"/><linearGradient id="New_Gradient_Swatch_copy-5" x1="399.4" y1="1364.31" x2="424.02" y2="1364.31" gradientTransform="matrix(-1, 0, 0, 1, 1759.44, 0)" xlink:href="#New_Gradient_Swatch_copy"/><linearGradient id="New_Gradient_Swatch_copy_14-8" x1="403.49" y1="1279.65" x2="455.4" y2="1279.65" gradientTransform="matrix(-1, 0, 0, 1, 1759.44, 0)" xlink:href="#New_Gradient_Swatch_copy_14"/><linearGradient id="New_Gradient_Swatch_copy-6" x1="429.91" y1="1366.87" x2="455.79" y2="1366.87" gradientTransform="matrix(-1, 0, 0, 1, 1759.44, 0)" xlink:href="#New_Gradient_Swatch_copy"/><linearGradient id="New_Gradient_Swatch_copy_14-9" x1="546.42" y1="1116.23" x2="425.42" y2="1150.26" gradientTransform="matrix(-1, 0, 0, 1, 1759.44, 0)" xlink:href="#New_Gradient_Swatch_copy_14"/><linearGradient id="New_Gradient_Swatch_copy-7" x1="441.01" y1="1269.87" x2="403.19" y2="1181.82" gradientTransform="matrix(-1, 0, 0, 1, 1759.44, 0)" xlink:href="#New_Gradient_Swatch_copy"/><linearGradient id="New_Gradient_Swatch_copy_10-18" x1="382.15" y1="1212.11" x2="455.08" y2="1112.18" gradientTransform="matrix(-1, 0, 0, 1, 1759.44, 0)" xlink:href="#New_Gradient_Swatch_copy_10"/><linearGradient id="New_Gradient_Swatch_copy_14-10" x1="445.42" y1="1100.95" x2="397.35" y2="1116.08" gradientTransform="matrix(-1, 0, 0, 1, 1759.44, 0)" xlink:href="#New_Gradient_Swatch_copy_14"/><linearGradient id="New_Gradient_Swatch_copy-8" x1="376.69" y1="1124.27" x2="431.54" y2="1124.27" gradientTransform="matrix(-1, 0, 0, 1, 1759.44, 0)" xlink:href="#New_Gradient_Swatch_copy"/><linearGradient id="New_Gradient_Swatch_copy_8-18" x1="1183.27" y1="788.52" x2="1288.73" y2="701.86" xlink:href="#New_Gradient_Swatch_copy_8"/><linearGradient id="New_Gradient_Swatch_copy_8-19" x1="1147.13" y1="744.55" x2="1252.59" y2="657.88" xlink:href="#New_Gradient_Swatch_copy_8"/><linearGradient id="New_Gradient_Swatch_copy_4-5" x1="1475.35" y1="424.75" x2="1515.85" y2="327.54" xlink:href="#New_Gradient_Swatch_copy_4"/><linearGradient id="New_Gradient_Swatch_copy_4-6" x1="483.55" y1="90.67" x2="525.33" y2="-9.61" xlink:href="#New_Gradient_Swatch_copy_4"/><linearGradient id="New_Gradient_Swatch_copy_30" x1="892.39" y1="686.09" x2="937.44" y2="770.51" gradientTransform="translate(1399.39 -332.03) rotate(76.72)" gradientUnits="userSpaceOnUse"><stop offset="0" stop-color="#ffd582"/><stop offset="0.29" stop-color="#ffbd6e"/><stop offset="0.9" stop-color="#ff8039"/><stop offset="1" stop-color="#ff7530"/></linearGradient><linearGradient id="New_Gradient_Swatch_copy_30-2" x1="1659.09" y1="367.39" x2="1689.32" y2="424.06" gradientTransform="translate(764.27 -1067.36) rotate(45)" xlink:href="#New_Gradient_Swatch_copy_30"/><linearGradient id="New_Gradient_Swatch_copy_30-3" x1="1256.07" y1="445.55" x2="1230.4" y2="444.79" gradientTransform="matrix(1, 0, 0, 1, 0, 0)" xlink:href="#New_Gradient_Swatch_copy_30"/><linearGradient id="New_Gradient_Swatch_copy_30-4" x1="1235.07" y1="432.06" x2="1246.77" y2="442.54" gradientTransform="matrix(1, 0, 0, 1, 0, 0)" xlink:href="#New_Gradient_Swatch_copy_30"/><linearGradient id="New_Gradient_Swatch_copy_30-5" x1="1223.15" y1="453.34" x2="1247.24" y2="453.34" gradientTransform="matrix(1, 0, 0, 1, 0, 0)" xlink:href="#New_Gradient_Swatch_copy_30"/><linearGradient id="New_Gradient_Swatch_copy_29" x1="215.63" y1="126.42" x2="228.75" y2="220.28" gradientUnits="userSpaceOnUse"><stop offset="0" stop-color="#ab75c7"/><stop offset="0.05" stop-color="#a673c6"/><stop offset="0.69" stop-color="#6958bb"/><stop offset="1" stop-color="#514eb7"/></linearGradient><linearGradient id="New_Gradient_Swatch_copy_29-2" x1="232.01" y1="124.13" x2="245.13" y2="217.99" xlink:href="#New_Gradient_Swatch_copy_29"/><linearGradient id="New_Gradient_Swatch_copy_29-3" x1="197.87" y1="128.91" x2="210.98" y2="222.76" xlink:href="#New_Gradient_Swatch_copy_29"/><linearGradient id="New_Gradient_Swatch_copy_29-4" x1="249.91" y1="121.63" x2="263.03" y2="215.49" xlink:href="#New_Gradient_Swatch_copy_29"/><linearGradient id="New_Gradient_Swatch_copy_29-5" x1="200.86" y1="134.9" x2="259.79" y2="134.9" xlink:href="#New_Gradient_Swatch_copy_29"/><linearGradient id="New_Gradient_Swatch_copy_29-6" x1="1079.33" y1="565.11" x2="1111.58" y2="609.6" gradientTransform="translate(1476.87 -589.83) rotate(80.78)" xlink:href="#New_Gradient_Swatch_copy_29"/><linearGradient id="New_Gradient_Swatch_copy_29-7" x1="1194.55" y1="226.5" x2="1226.79" y2="270.99" xlink:href="#New_Gradient_Swatch_copy_29"/><linearGradient id="New_Gradient_Swatch_copy_29-8" x1="1777.46" y1="73.68" x2="1842.17" y2="7.53" gradientTransform="translate(-322.51 -443.5) rotate(16.85)" xlink:href="#New_Gradient_Swatch_copy_29"/><linearGradient id="New_Gradient_Swatch_copy_10-19" x1="1822.55" y1="-14.81" x2="1760.99" y2="85.7" gradientTransform="translate(-322.51 -443.5) rotate(16.85)" xlink:href="#New_Gradient_Swatch_copy_10"/><linearGradient id="New_Gradient_Swatch_copy_29-9" x1="1815.49" y1="85.55" x2="1814.06" y2="44.88" gradientTransform="translate(-322.51 -443.5) rotate(16.85)" xlink:href="#New_Gradient_Swatch_copy_29"/><linearGradient id="New_Gradient_Swatch_copy_10-20" x1="1837.99" y1="-5.35" x2="1776.42" y2="95.16" gradientTransform="translate(-322.51 -443.5) rotate(16.85)" xlink:href="#New_Gradient_Swatch_copy_10"/></defs><g class="cls-1"><g id="Object"><path class="cls-2" d="M1802.11,962.77S1660.92,842.43,1656.3,726.13c-5.66-142.61,36-208.71,36-208.71S1931.57,648.17,1802.11,962.77Z" transform="translate(-618.96 -323.8)"/><path class="cls-3" d="M1685.33,604.05l4,1.66,42.27,17.46c-21.8-74-39.27-105.75-39.27-105.75,18.49,29.56,34.07,63.59,47.19,99.27l10.55-31.25-5.68,44.86c5.73,16.53,10.95,33.33,15.71,50.15l10.3-50.43-6.52,64.12c3.72,13.85,7.12,27.64,10.25,41.25l19.93-69.27-15.39,89.78c4,18.9,7.47,37.24,10.46,54.62l23.63-52.36-19.33,78.71c2.74,17.8,5,34.18,6.72,48.57l19.37-62.8-14.13,87.13c1.21,20.67.64,43.13.64,43.13l-3.94,9.87L1791,952.7c.3-16.05.37-28.89-1.59-44.11l-45.83-53.24,41.79,31q-3.22-23.53-6.65-45.37l-63.82-53.62,60.53,33.1q-5.06-30.6-10.36-57.74l-60.85-47.66,57.4,30.37q-4.82-23.61-9.68-44.53l-59.52-53.72,54.87,34.21q-6.6-26.92-13-49Z" transform="translate(-618.96 -323.8)"/><path class="cls-4" d="M1788.74,959.39S1941,916.21,1985.9,827.64c55.06-108.6,46.19-174.7,46.19-174.7S1800.09,669.38,1788.74,959.39Z" transform="translate(-618.96 -323.8)"/><path class="cls-3" d="M2006.75,722.64l-3.7-.14-39-1.47c43.21-49.7,68-68.09,68-68.09-24.85,16.37-49,37.22-71.88,60.24l2.92-28L1951.61,722c-10.32,10.79-20.34,22-30,33.31l9.93-42.77L1913.8,764.6c-7.8,9.42-15.34,18.91-22.6,28.36l9.15-60.82-19.95,75.12c-9.83,13.23-19,26.22-27.53,38.64l.28-49-13,67.91c-8.45,12.84-16,24.76-22.47,35.29l7.29-55.59-20,72.6c-8.29,15.6-15.83,33.23-15.83,33.23l-.44,9,12.22-3.85c5.47-12.55,10-22.54,16.91-33.65l54.46-25-43.45,9.23q10.88-17.11,21.28-32.83l68.55-18.91L1860,858.53q14.79-21.93,28.55-41.1l64.13-15.36-55.31,3.17q12.12-16.61,23.33-31.1L1986,753.62l-54.71,7q14.67-18.54,27.48-33.44Z" transform="translate(-618.96 -323.8)"/><path class="cls-5" d="M1794.68,960.07s102.26-94.14,102.39-181.36c.15-106.94-33-155.24-33-155.24S1688.73,728.23,1794.68,960.07Z" transform="translate(-618.96 -323.8)"/><path class="cls-3" d="M1871.83,688.14l-3,1.36-31.15,14.28c14.2-56.07,26.37-80.31,26.37-80.31-13,22.67-23.69,48.59-32.49,75.69l-8.79-23.1,5.54,33.43c-3.82,12.54-7.24,25.27-10.33,38L1808.86,710l6.72,47.83c-2.38,10.47-4.54,20.9-6.49,31.17l-16.91-51.29,14.1,66.78c-2.46,14.27-4.53,28.1-6.27,41.2l-19.19-38.53,16.73,58.38c-1.54,13.41-2.73,25.73-3.64,36.56l-16.3-46.47,13.08,64.83c-.32,15.52.75,32.32.75,32.32l3.24,7.27,8-7.86c-.68-12-1.1-21.62-.07-33.07L1835.45,878l-30.4,24.44q1.74-17.73,3.67-34.17l46.26-42-44.38,26.52q2.91-23.06,6.11-43.53l44.19-37.44-42.11,24.39q2.93-17.82,6-33.62l43-41.93-40.11,27.19q4.17-20.36,8.3-37.09Z" transform="translate(-618.96 -323.8)"/><g class="cls-1"><g class="cls-1"><path class="cls-6" d="M2265,1341.28V1362a3.74,3.74,0,0,1-1.15,2.5v-20.75a3.74,3.74,0,0,0,1.15-2.5" transform="translate(-618.96 -323.8)"/><path class="cls-7" d="M2265,1341.28a3.88,3.88,0,0,1-1.29,2.64l-.56.53-.29.23-.65.49-.32.21c-.32.22-.67.43-1,.64l-.08,0q-.61.35-1.32.69l-.54.26-.75.34-.63.27-.81.33-.7.27-.88.34-.76.27-1,.33-.82.27-1,.33-.88.27c-.35.11-.72.22-1.1.32l-.93.27-1.18.33-1,.26-1.28.33-1.06.27-.8.2-1.41.34-.88.21-1.46.33-.91.2-1.6.35-.85.18-2,.41-.54.11-2.66.52-.72.14-2,.38-1,.19-1.85.33-1.14.2-1.85.32-1.19.2-2,.33-1.12.18-2.4.38-.8.13-3.31.51-.63.09-2.77.41-1.2.17-2.31.33-1.37.19-2.25.31-1.44.19-2.35.32-1.39.18-2.68.34-1.15.15-3.92.48-.46.06-3.54.43-1.39.16-2.73.32-1.6.18-2.63.3-1.69.19-2.67.29-1.69.18-3,.32-1.39.15-4.47.46h0l-4.6.46-1.53.15-3.16.31-1.8.17-3,.29-1.92.18-3,.28-1.92.18-3.29.29-1.7.16-4.21.37-.86.07-5.13.44-1.59.13-3.68.31-2,.16-3.39.28-2.11.16-3.38.27-2.1.17-3.56.27-2,.16-4.15.31-1.45.11-5.67.42-1.39.1-4.38.31-2.1.15-3.76.26-2.3.16-3.75.26-2.25.15-3.91.26-2.18.14-4.46.29-1.66.11-6.19.4-1.19.07-5.07.31-2.25.14-4.09.25-2.53.15-4,.23-2.55.15-4.1.24-2.44.14-4.59.26-2,.11-6.63.37-.83,0-6,.32-2.15.12-4.64.24-2.68.14-4.21.21-2.79.15-4.37.21-2.62.13-4.74.24-2.35.11-6.55.31-.55,0-7.14.33-2.41.11-4.88.22-2.75.13-4.6.2-3,.13-4.5.19-2.92.13-5,.21-2.51.1-6.32.26-1.22,0-7.56.31-2.41.09-5.3.21-2.86.11-4.9.18-3.08.12-4.81.18-3.08.11-4.93.18-3,.11-5.87.2-2,.07-8,.28-1.79.06-6.19.2-3.06.1-5.07.17-3.27.1-5,.16-3.22.1-5.29.16-3,.09-5.91.17-2.42.08-8.33.24-1.52,0-6.84.19-3.06.08-5.43.15-3.4.09-5.19.14-3.38.08-5.39.14-3.3.08-5.67.14-3,.08-8.64.2H1753l-8.62.2-2.79.06-6,.14-3.42.07-5.49.12-3.45.07-5.63.11-3.37.07-6,.12-3,.06-8,.15-.94,0-9,.16-2.85,0-6.25.11-3.55.06-5.53.09-3.82.06-5.62.09-3.52.06-6,.09-3.28,0-7.32.1-1.94,0-9.25.12-2.76,0-6.65.08-3.5,0-5.91.07-3.69,0-6,.07-3.56,0-6.17.06-3.39,0-7.26.07-2.25,0-9.58.09-2.12,0-7.51.06-3.46,0-6.1,0-4,0-5.8,0-4,0-6,0-3.75,0-6.88,0-2.83,0-9.79,0H1504l-8.36,0-3.31,0-6.61,0H1442c-454.54,0-823-21-823-47V1362c0,25.94,368.48,47,823,47h33.89l6.11,0h3.73l6.61,0h3.31l8.36,0h1.46l9.79,0,2.83,0,6.88,0,3.75,0,6,0,4,0,5.8,0,4,0,6.1,0,3.46,0,7.51-.07h2.12l9.58-.09,2.25,0,7.26-.07,3.39,0,6.17-.06,3.56,0,6-.07,3.69,0,5.91-.08,3.5,0,6.65-.08,2.76,0,9.25-.12,1.94,0,7.32-.11,3.28,0,6-.09,3.52-.05,5.62-.09,3.82-.06,5.53-.09,3.55-.06,6.25-.11,2.85,0,9-.16.94,0,8-.15,3-.06,6-.12,3.37-.07,5.63-.11,3.45-.08,5.49-.11,3.42-.08,6-.13,2.79-.06,8.62-.2h.11l8.64-.21,3-.07,5.67-.14,3.3-.08,5.39-.14,3.38-.09,5.19-.13,3.4-.09,5.43-.15,3.06-.08,6.84-.19,1.52-.05,8.33-.24,2.42-.07,5.91-.17,3-.09,5.29-.17,3.22-.1,5-.15,3.27-.11,5.07-.16,3.06-.1,6.19-.21,1.79-.06,8-.27,2-.07,5.87-.21,3-.1,4.93-.18,3.08-.12,4.81-.17,3.08-.12,4.9-.19,2.86-.11,5.3-.2,2.41-.1,7.56-.3,1.22,0,6.32-.26,2.51-.11,5-.2,2.92-.13,4.5-.19,3-.13,4.6-.21,2.75-.12,4.88-.22,2.41-.11,7.14-.33.55,0,6.55-.31,2.35-.12,4.74-.23,2.62-.13,4.37-.22,2.79-.14,4.21-.21,2.68-.14,4.64-.25,2.15-.11,6-.32.83,0,6.63-.37,2-.11,4.59-.26,2.44-.14,4.1-.24,2.55-.15,4-.23,2.53-.15,4.09-.25,2.25-.14,5.07-.31,1.19-.08,6.19-.39,1.66-.11,4.46-.29,2.18-.14,3.91-.26,2.25-.16,3.75-.25,2.3-.16,3.76-.26,2.1-.15,4.38-.32,1.39-.1,5.67-.41,1.45-.11,4.15-.31,2-.16,3.56-.28,2.1-.16,3.38-.27,2.11-.17,3.39-.27,2-.16,3.68-.31,1.59-.13,5.13-.44.86-.08,4.21-.37,1.7-.15,3.29-.3,1.92-.17,3-.28,1.92-.18,3-.29,1.8-.17,3.16-.31,1.53-.15,4.6-.46h0l4.47-.46,1.39-.15,3-.32,1.69-.18,2.67-.3,1.69-.18,2.63-.3,1.6-.18,2.73-.32,1.39-.17,3.54-.42.46-.06,3.92-.48,1.15-.15,2.68-.34,1.39-.19,2.35-.31,1.44-.19,2.25-.31,1.37-.19,2.31-.33,1.2-.17,2.77-.41.63-.1,3.31-.5.8-.13,2.4-.38,1.12-.18,2-.33,1.19-.2,1.85-.32,1.14-.2,1.85-.33,1-.19,2-.38.72-.14,2.66-.52.54-.11,2-.41.85-.19,1.6-.34.91-.21,1.46-.33.88-.2,1.41-.34.8-.2.33-.08.73-.19,1.28-.33,1-.26,1.18-.33.93-.27,1.1-.32.88-.28,1-.32.82-.27,1-.33.76-.28.88-.33.7-.27.81-.33c.21-.09.43-.18.63-.28l.75-.34.42-.19.12-.06q.71-.35,1.32-.69l.08,0c.37-.21.72-.43,1-.64l.32-.22c.23-.16.45-.32.65-.48l.29-.24a7.11,7.11,0,0,0,.56-.53,1.66,1.66,0,0,0,.14-.13h0A3.72,3.72,0,0,0,2265,1362Z" transform="translate(-618.96 -323.8)"/></g><ellipse class="cls-8" cx="823.02" cy="1017.47" rx="823.02" ry="46.97"/></g><polygon class="cls-9" points="806.98 990.69 114.75 1016.5 114.75 493.8 806.98 519.62 806.98 990.69"/><polygon class="cls-10" points="797.72 980.34 126.48 1005.02 126.48 505.29 797.72 529.97 797.72 980.34"/><polygon class="cls-11" points="136.22 504.46 135.73 995.77 798.34 976.02 798.34 980.96 125.86 1005.64 125.86 504.67 136.22 504.46"/><polygon class="cls-11" points="735.41 586.73 741.58 586.11 742.82 937.77 209.76 957.51 209.76 951.46 736.03 932.22 735.41 586.73"/><polygon class="cls-12" points="736.64 932.84 202.36 951.46 202.36 562.79 736.64 578.7 736.64 932.84"/><polygon class="cls-13" points="647.23 661.07 292.21 655.91 292.21 630.66 647.23 637.33 647.23 661.07"/><polygon class="cls-14" points="647.23 700 292.21 697.33 292.21 672.08 647.23 676.26 647.23 700"/><polygon class="cls-15" points="647.23 738.93 292.21 738.74 292.21 713.49 647.23 715.19 647.23 738.93"/><polygon class="cls-16" points="647.23 777.86 292.21 780.15 292.21 754.9 647.23 754.12 647.23 777.86"/><polygon class="cls-17" points="647.23 816.79 292.21 821.57 292.21 796.32 647.23 793.05 647.23 816.79"/><polygon class="cls-18" points="647.23 855.72 292.21 862.98 292.21 837.73 647.23 831.99 647.23 855.72"/><path class="cls-19" d="M863,1012.1a7.7,7.7,0,0,0,1.22,0,4.23,4.23,0,0,0,2.34-1,4.66,4.66,0,0,0,1.47-2.87H868a3.28,3.28,0,0,1-2.63,1.14,3.22,3.22,0,0,1-3.3-3.35,3.72,3.72,0,0,1,3.82-3.81c2.28,0,3.69,1.84,3.69,4.6a6.68,6.68,0,0,1-1.92,5.07,5.73,5.73,0,0,1-3.25,1.42,7.09,7.09,0,0,1-1.39.07Zm.55-6.23a2.13,2.13,0,0,0,2.15,2.32,2.52,2.52,0,0,0,2.2-1.11,1,1,0,0,0,.13-.53c0-1.85-.7-3.28-2.28-3.29C864.5,1003.24,863.59,1004.33,863.59,1005.87Z" transform="translate(-618.96 -323.8)"/><path class="cls-19" d="M878.37,1007.75c0,3.67-1.41,5.69-3.87,5.67-2.18,0-3.65-2-3.69-5.6s1.62-5.61,3.88-5.58S878.37,1004.3,878.37,1007.75Zm-6,.1c0,2.82.89,4.42,2.26,4.43,1.55,0,2.28-1.72,2.28-4.48s-.7-4.42-2.26-4.43C873.28,1003.35,872.32,1004.91,872.32,1007.85Z" transform="translate(-618.96 -323.8)"/><path class="cls-19" d="M884.75,1005.57c0,2.27-1.22,3.39-2.66,3.38s-2.58-1.11-2.6-3.29,1.22-3.36,2.69-3.34S884.75,1003.51,884.75,1005.57Zm-4.06,0c0,1.38.49,2.43,1.43,2.44s1.44-1,1.44-2.44-.39-2.41-1.44-2.42S880.69,1004.26,880.69,1005.62Zm1.3,7.86,6.52-11.1h1l-6.52,11.1Zm10-3.38c0,2.27-1.23,3.39-2.64,3.38s-2.58-1.1-2.6-3.26,1.21-3.38,2.68-3.36S892,1008,892,1010.1Zm-4.06.06c0,1.38.53,2.43,1.45,2.44s1.43-1,1.43-2.44-.39-2.41-1.43-2.42S887.91,1008.8,887.91,1010.16Z" transform="translate(-618.96 -323.8)"/><path class="cls-19" d="M871.8,963.05v1l-4.86,9.78-1.56,0,4.84-9.5v0l-5.46-.09v-1.22Z" transform="translate(-618.96 -323.8)"/><path class="cls-19" d="M880.74,968.49c0,3.68-1.4,5.68-3.86,5.65-2.18,0-3.65-2-3.68-5.62s1.61-5.6,3.87-5.56S880.74,965.05,880.74,968.49Zm-6,.07c0,2.81.89,4.43,2.26,4.45,1.54,0,2.28-1.71,2.28-4.47s-.7-4.42-2.26-4.45C875.66,964.07,874.7,965.62,874.7,968.56Z" transform="translate(-618.96 -323.8)"/><path class="cls-19" d="M887.13,966.36c0,2.27-1.23,3.38-2.67,3.36s-2.57-1.12-2.59-3.3,1.21-3.35,2.68-3.33S887.13,964.3,887.13,966.36Zm-4.07,0c0,1.38.5,2.43,1.44,2.45s1.43-1,1.43-2.44-.39-2.41-1.43-2.43S883.06,965,883.06,966.39Zm1.3,7.86,6.52-11,1,0-6.51,11Zm10-3.31c0,2.27-1.22,3.38-2.64,3.36s-2.57-1.12-2.59-3.28,1.21-3.36,2.68-3.34S894.33,968.88,894.33,970.94Zm-4.05,0c0,1.38.53,2.43,1.45,2.45s1.43-1,1.43-2.43-.39-2.42-1.43-2.43S890.28,969.61,890.28,971Z" transform="translate(-618.96 -323.8)"/><path class="cls-19" d="M862.12,1054.21a5.1,5.1,0,0,0,2.47.69c1.94,0,2.55-1.19,2.53-2.09,0-1.52-1.43-2.17-2.89-2.18h-.84v-1.1h.84c1.1,0,2.49-.54,2.49-1.82,0-.87-.56-1.64-2-1.64a4.21,4.21,0,0,0-2.23.71l-.4-1.07a5.43,5.43,0,0,1,2.93-.82c2.2,0,3.19,1.27,3.19,2.59a2.69,2.69,0,0,1-2.06,2.54v0a2.86,2.86,0,0,1,2.49,2.78c0,1.74-1.39,3.25-4.07,3.25a6,6,0,0,1-2.91-.74Z" transform="translate(-618.96 -323.8)"/><path class="cls-19" d="M878,1050.4c0,3.68-1.4,5.7-3.87,5.7-2.17,0-3.65-2-3.68-5.57s1.61-5.62,3.87-5.61S878,1047,878,1050.4Zm-6,.15c0,2.82.89,4.42,2.26,4.42,1.54,0,2.28-1.74,2.28-4.5s-.7-4.41-2.26-4.42C872.88,1046.05,871.92,1047.61,871.92,1050.55Z" transform="translate(-618.96 -323.8)"/><path class="cls-19" d="M884.35,1048.18c0,2.27-1.23,3.4-2.66,3.4s-2.58-1.09-2.6-3.27,1.21-3.37,2.68-3.36S884.35,1046.12,884.35,1048.18Zm-4.06.08c0,1.38.49,2.43,1.43,2.44s1.44-1,1.44-2.46-.4-2.41-1.44-2.41S880.29,1046.9,880.29,1048.26Zm1.29,7.85L888.1,1045h1l-6.52,11.14Zm10-3.45c0,2.27-1.22,3.4-2.64,3.4s-2.57-1.09-2.59-3.24,1.21-3.39,2.68-3.38S891.56,1050.6,891.56,1052.66Zm-4,.09c0,1.38.53,2.43,1.45,2.43s1.43-1,1.43-2.46-.39-2.4-1.43-2.4S887.51,1051.39,887.51,1052.75Z" transform="translate(-618.96 -323.8)"/><path class="cls-19" d="M867.29,1096.61v-2.95l-5.19,0v-1l5-6.94h1.63v6.73h1.56v1.15h-1.56v2.95Zm0-4.1v-3.61c0-.57,0-1.14.05-1.7h-.05c-.34.63-.62,1.1-.93,1.6l-2.73,3.69v0Z" transform="translate(-618.96 -323.8)"/><path class="cls-19" d="M878.82,1091c0,3.67-1.4,5.71-3.87,5.72-2.17,0-3.65-2-3.68-5.54s1.61-5.63,3.87-5.64S878.82,1087.59,878.82,1091Zm-6,.19c0,2.81.89,4.41,2.26,4.4,1.54,0,2.27-1.76,2.27-4.52s-.7-4.4-2.25-4.4C873.74,1086.71,872.78,1088.28,872.78,1091.22Z" transform="translate(-618.96 -323.8)"/><path class="cls-19" d="M885.21,1088.76c0,2.28-1.23,3.41-2.67,3.42s-2.58-1.07-2.6-3.25,1.22-3.38,2.69-3.38S885.21,1086.7,885.21,1088.76Zm-4.07.12c0,1.37.5,2.42,1.44,2.41s1.43-1,1.43-2.46-.39-2.41-1.43-2.4S881.14,1087.51,881.14,1088.88Zm1.3,7.83,6.52-11.19h.95l-6.51,11.19Zm10-3.52c0,2.28-1.23,3.41-2.64,3.42s-2.58-1.07-2.59-3.23,1.21-3.39,2.67-3.39S892.42,1091.14,892.42,1093.19Zm-4.06.12c0,1.38.53,2.42,1.45,2.42s1.43-1,1.43-2.46-.39-2.41-1.43-2.4S888.36,1092,888.36,1093.31Z" transform="translate(-618.96 -323.8)"/><path class="cls-19" d="M867.6,1130.57a5.16,5.16,0,0,0-1.13.07,4.54,4.54,0,0,0-3.89,3.9h.06a3.38,3.38,0,0,1,2.69-1.28,3.21,3.21,0,0,1,3.37,3.46,3.72,3.72,0,0,1-3.71,3.86c-2.39,0-4-1.76-4-4.57a6.78,6.78,0,0,1,1.89-4.91,6.24,6.24,0,0,1,3.57-1.64,7.26,7.26,0,0,1,1.1-.09Zm-.43,6.25a2.2,2.2,0,0,0-2.3-2.46,2.55,2.55,0,0,0-2.17,1.36,1.28,1.28,0,0,0-.17.65c0,1.79.88,3.09,2.46,3.07C866.3,1139.43,867.17,1138.37,867.17,1136.82Z" transform="translate(-618.96 -323.8)"/><path class="cls-19" d="M877.44,1134.72c0,3.67-1.41,5.72-3.87,5.75-2.18,0-3.65-1.94-3.69-5.52s1.61-5.64,3.88-5.67S877.44,1131.27,877.44,1134.72Zm-6.05.23c0,2.82.89,4.4,2.26,4.39,1.54,0,2.28-1.78,2.28-4.54s-.7-4.4-2.26-4.38C872.35,1130.43,871.39,1132,871.39,1135Z" transform="translate(-618.96 -323.8)"/><path class="cls-19" d="M883.82,1132.4c0,2.28-1.22,3.42-2.66,3.44s-2.58-1-2.6-3.23,1.22-3.39,2.69-3.41S883.82,1130.34,883.82,1132.4Zm-4.06.14c0,1.38.49,2.43,1.43,2.42s1.44-1,1.44-2.48-.39-2.41-1.44-2.4S879.76,1131.18,879.76,1132.54Zm1.3,7.83,6.52-11.23h.95L882,1140.36Zm10-3.59c0,2.27-1.23,3.42-2.64,3.44s-2.58-1-2.59-3.21,1.21-3.4,2.67-3.42S891,1134.72,891,1136.78Zm-4.06.15c0,1.38.53,2.42,1.45,2.41s1.43-1,1.43-2.48-.39-2.4-1.43-2.39S887,1135.57,887,1136.93Z" transform="translate(-618.96 -323.8)"/><path class="cls-19" d="M869.28,1170.2v1l-4.86,9.95-1.56,0,4.85-9.67v0l-5.47.09v-1.21Z" transform="translate(-618.96 -323.8)"/><path class="cls-19" d="M878.24,1175.33c0,3.68-1.4,5.73-3.87,5.78-2.17,0-3.65-1.91-3.68-5.49s1.61-5.65,3.87-5.69S878.24,1171.89,878.24,1175.33Zm-6,.28c0,2.82.89,4.4,2.26,4.37,1.54,0,2.28-1.79,2.28-4.55s-.71-4.4-2.26-4.37C873.16,1171.08,872.2,1172.67,872.2,1175.61Z" transform="translate(-618.96 -323.8)"/><path class="cls-19" d="M884.63,1173c0,2.28-1.23,3.43-2.67,3.46s-2.58-1-2.59-3.21,1.21-3.4,2.68-3.42S884.63,1170.91,884.63,1173Zm-4.07.18c0,1.38.5,2.42,1.44,2.4s1.43-1.06,1.43-2.49-.39-2.4-1.43-2.38S880.56,1171.78,880.56,1173.15Zm1.3,7.82,6.52-11.28,1,0L882.82,1181Zm10-3.66c0,2.27-1.23,3.42-2.64,3.45s-2.58-1-2.59-3.19,1.21-3.41,2.67-3.43S891.84,1175.25,891.84,1177.31Zm-4.06.17c0,1.38.53,2.42,1.45,2.4s1.43-1.06,1.43-2.48-.39-2.4-1.43-2.38S887.78,1176.12,887.78,1177.48Z" transform="translate(-618.96 -323.8)"/><polygon class="cls-20" points="549.59 659.98 292.21 656.26 292.21 630.66 549.59 635.5 549.59 659.98"/><polygon class="cls-21" points="609.74 700 292.21 697.63 292.21 672.08 609.74 675.82 609.74 700"/><polygon class="cls-22" points="398.97 739.05 292.21 739 292.21 713.49 398.97 714 398.97 739.05"/><polygon class="cls-23" points="440.53 779.41 292.21 780.37 292.21 754.9 440.53 754.58 440.53 779.41"/><polygon class="cls-24" points="511.23 818.79 292.21 821.74 292.21 796.32 511.23 794.3 511.23 818.79"/><polygon class="cls-25" points="557.68 857.68 292.21 863.12 292.21 837.73 557.68 833.43 557.68 857.68"/><polygon class="cls-26" points="686.47 868.38 291.1 877.43 291.1 621.16 293.52 621.21 293.52 875.01 686.47 866.18 686.47 868.38"/><polygon class="cls-27" points="367.64 906.29 351.08 906.76 351.08 890.36 367.64 889.94 367.64 906.29"/><polygon class="cls-19" points="452.87 891.57 372.5 893.66 372.5 890.77 452.87 888.73 452.87 891.57"/><polygon class="cls-19" points="452.87 897.26 372.5 899.43 372.5 896.54 452.87 894.41 452.87 897.26"/><polygon class="cls-19" points="424.42 903.74 372.5 905.19 372.5 902.31 424.42 900.88 424.42 903.74"/><polygon class="cls-28" points="509.86 902.29 494.09 902.74 494.09 886.74 509.86 886.34 509.86 902.29"/><polygon class="cls-19" points="591.02 887.98 514.48 889.97 514.48 887.16 591.02 885.21 591.02 887.98"/><polygon class="cls-19" points="591.02 893.53 514.48 895.6 514.48 892.78 591.02 890.76 591.02 893.53"/><polygon class="cls-19" points="563.92 899.85 514.48 901.23 514.48 898.41 563.92 897.05 563.92 899.85"/><polygon class="cls-29" points="830.42 990.69 1522.65 1016.5 1522.65 493.8 830.42 519.62 830.42 990.69"/><polygon class="cls-30" points="839.68 980.34 1510.92 1005.02 1510.92 505.29 839.68 529.97 839.68 980.34"/><polygon class="cls-11" points="1501.18 504.46 1501.67 995.77 839.06 976.02 839.06 980.96 1511.54 1005.64 1511.54 504.67 1501.18 504.46"/><polygon class="cls-31" points="1444.91 951.46 900.75 932.84 900.75 578.7 1444.91 562.79 1444.91 951.46"/><path class="cls-19" d="M1942.86,969.7c-7.07.11-12.79,5.67-12.79,12.42a11.51,11.51,0,0,0,.67,3.86c-20,15.56-26.53,40.16-32.85,64-8.31,31.34-16.14,60.86-52.66,68.08-34.6,6.83-51.43-4-70.8-16.53-20.51-13.24-43.57-28.11-90.86-26.69-47.93,1.46-72.36,26.46-84.45,47.08a116,116,0,0,0-14.95,44.59,2.93,2.93,0,0,0,2.59,3.16h.24a2.8,2.8,0,0,0,2.83-2.59,111.43,111.43,0,0,1,14.2-42.19c16.57-28.22,43.3-43.13,79.73-44.21,45.41-1.34,67.63,13,87.37,25.8s38.29,24.77,75.39,17.47c40.36-7.93,49.06-40.71,57.49-72.5,6.28-23.64,12.27-46.19,30.23-60.41a12.9,12.9,0,0,0,8.62,3.11c7.1-.09,12.86-5.65,12.86-12.42S1950,969.58,1942.86,969.7Z" transform="translate(-618.96 -323.8)"/><polygon class="cls-32" points="991.29 904.14 951.06 902.99 951.06 874.29 991.29 875.23 991.29 904.14"/><polygon class="cls-33" points="1053.38 905.91 1012.28 904.74 1012.28 875.73 1053.38 876.69 1053.38 905.91"/><polygon class="cls-34" points="1116.85 907.73 1074.83 906.53 1074.83 877.2 1116.85 878.18 1116.85 907.73"/><polygon class="cls-35" points="1181.74 909.59 1138.78 908.36 1138.78 878.7 1181.74 879.71 1181.74 909.59"/><polygon class="cls-36" points="1248.11 911.49 1204.17 910.23 1204.17 880.24 1248.11 881.27 1248.11 911.49"/><polygon class="cls-37" points="1315.99 913.43 1271.04 912.14 1271.04 881.81 1315.99 882.87 1315.99 913.43"/><polygon class="cls-38" points="1385.44 915.41 1339.45 914.1 1339.45 883.42 1385.44 884.5 1385.44 915.41"/><polygon class="cls-39" points="1095.69 620.11 951.06 623.15 951.06 610.24 1095.69 606.86 1095.69 620.11"/><polygon class="cls-40" points="1095.69 649.54 951.06 651.86 951.06 638.94 1095.69 636.3 1095.69 649.54"/><polygon class="cls-11" points="900.75 586.73 894.59 586.11 893.35 937.77 1436.27 957.51 1436.27 951.46 900.14 932.22 900.75 586.73"/><path class="cls-41" d="M1974.49,1180.14a36.31,36.31,0,1,1,25.69-10.64A36.08,36.08,0,0,1,1974.49,1180.14Zm0-65.73a29.41,29.41,0,1,0,20.26,8.09A29.24,29.24,0,0,0,1974.49,1114.41Z" transform="translate(-618.96 -323.8)"/><path class="cls-42" d="M1974.49,1180.14a36.08,36.08,0,0,1-25.68-10.64l4.89-4.89a29.41,29.41,0,1,0,20.79-50.2v-6.92a36.33,36.33,0,1,1,0,72.65Z" transform="translate(-618.96 -323.8)"/><path class="cls-43" d="M1966.4,1140.92l-2.42.26a1.72,1.72,0,0,0-.46-1.1,1.37,1.37,0,0,0-1-.35,1.64,1.64,0,0,0-1.34.71,6.07,6.07,0,0,0-.69,3,3,3,0,0,1,2.32-1.1,3.53,3.53,0,0,1,2.67,1.19,4.31,4.31,0,0,1,1.12,3.07,4.36,4.36,0,0,1-1.18,3.2,4.28,4.28,0,0,1-6.24-.32c-.84-1-1.27-2.7-1.27-5s.44-4.1,1.33-5.15a4.26,4.26,0,0,1,3.43-1.58,3.67,3.67,0,0,1,2.45.83A3.87,3.87,0,0,1,1966.4,1140.92Zm-5.65,5.43a2.8,2.8,0,0,0,.56,1.88,1.63,1.63,0,0,0,1.27.66,1.47,1.47,0,0,0,1.16-.54,2.77,2.77,0,0,0,.46-1.78,2.84,2.84,0,0,0-.5-1.85,1.53,1.53,0,0,0-1.24-.59,1.55,1.55,0,0,0-1.22.56A2.46,2.46,0,0,0,1960.75,1146.35Z" transform="translate(-618.96 -323.8)"/><path class="cls-44" d="M1968.09,1147.39l2.48-.26a2.14,2.14,0,0,0,.63,1.34,1.7,1.7,0,0,0,1.21.49,1.68,1.68,0,0,0,1.32-.63,2.91,2.91,0,0,0,.54-1.92,2.61,2.61,0,0,0-.54-1.79,1.77,1.77,0,0,0-1.39-.6,2.56,2.56,0,0,0-1.93,1l-2-.29,1.28-6.77h6.59v2.33h-4.7l-.39,2.21a3.71,3.71,0,0,1,1.7-.42,3.75,3.75,0,0,1,2.81,1.21,4.33,4.33,0,0,1,1.15,3.13,4.72,4.72,0,0,1-.93,2.87,4.13,4.13,0,0,1-3.52,1.71,4.36,4.36,0,0,1-2.93-1A4,4,0,0,1,1968.09,1147.39Z" transform="translate(-618.96 -323.8)"/><path class="cls-45" d="M1978.17,1140.94a3.78,3.78,0,0,1,.77-2.59,2.67,2.67,0,0,1,2.08-.84,2.73,2.73,0,0,1,2.12.84,4.74,4.74,0,0,1,0,5.18,2.68,2.68,0,0,1-2.08.85,2.73,2.73,0,0,1-2.12-.84A3.77,3.77,0,0,1,1978.17,1140.94Zm1.94,0a3.29,3.29,0,0,0,.3,1.7.71.71,0,0,0,.61.32.73.73,0,0,0,.62-.32,5.3,5.3,0,0,0,0-3.4.74.74,0,0,0-1.23,0A3.31,3.31,0,0,0,1980.11,1140.93Zm2.81,10.3h-1.85l6.93-13.72h1.79Zm4-3.41a3.75,3.75,0,0,1,.77-2.59,3,3,0,0,1,4.2,0,4.74,4.74,0,0,1,0,5.18,2.64,2.64,0,0,1-2.08.85,2.7,2.7,0,0,1-2.12-.85A3.75,3.75,0,0,1,1986.94,1147.82Zm1.94,0a3.22,3.22,0,0,0,.3,1.69.69.69,0,0,0,.61.33.7.7,0,0,0,.61-.32,3.32,3.32,0,0,0,.29-1.7,3.47,3.47,0,0,0-.28-1.71.72.72,0,0,0-.62-.31.68.68,0,0,0-.61.31A3.31,3.31,0,0,0,1988.88,1147.81Z" transform="translate(-618.96 -323.8)"/><path class="cls-46" d="M1454.81,691.06l-14-15.22L1426.68,691c-23.69,24.7-23.78,65.2-.21,90l14,15.22,14.1-15.15C1478.28,756.38,1478.38,715.87,1454.81,691.06Z" transform="translate(-618.96 -323.8)"/><path class="cls-47" d="M1546.36,757.1c2.27-7.87,2.85-16.31,2.87-24.19a108.74,108.74,0,0,0-15.63-56.29c-19-31.55-53.88-53-93.26-53.11s-74.32,21.21-93.52,52.67c-9.6,16.3-15.84,36-15.88,56.23a113.7,113.7,0,0,0,2.75,24.19,155.9,155.9,0,1,1,230.59-208.19c19.63,26.49,31.93,59.15,31.29,94.59C1596.59,688,1576.8,729,1546.36,757.1Z" transform="translate(-618.96 -323.8)"/><path class="cls-48" d="M1497.52,709.16c80.71-111.77,69.26-265.38-35.72-365.21L1441,324.21l-20.86,19.64c-105.44,99.34-117.61,252.9-37.42,365Z" transform="translate(-618.96 -323.8)"/><path class="cls-49" d="M1351.38,652.56a326.19,326.19,0,0,0,31.37,56.34l113.65.26c13-17.41,23.15-36.51,31.63-56.19Z" transform="translate(-618.96 -323.8)"/><path class="cls-50" d="M1519.57,420A306,306,0,0,0,1461.8,344L1441,324.21l-20.86,19.64A306.3,306.3,0,0,0,1362,419.67Z" transform="translate(-618.96 -323.8)"/><path class="cls-51" d="M1382.75,708.9c4.49,6.76,10.1,13.52,15.15,19.72l83.26.2a233.08,233.08,0,0,0,15.24-19.66Z" transform="translate(-618.96 -323.8)"/><circle class="cls-52" cx="1440.36" cy="511.09" r="61.26" transform="translate(-334.41 1187.27) rotate(-60.4)"/><path class="cls-53" d="M1470.81,480.78a43,43,0,1,1-60.76-.14A43,43,0,0,1,1470.81,480.78Z" transform="translate(-618.96 -323.8)"/><rect class="cls-54" x="1166.94" y="1023.38" width="10.2" height="8.92"/><path class="cls-55" d="M1785.76,1355.42l-6.19,5a3.52,3.52,0,0,0,.64,5.89l7,3.52h8.62a2.78,2.78,0,0,0,2.74-3.27l-2-11.15Z" transform="translate(-618.96 -323.8)"/><rect class="cls-56" x="1114.69" y="1024.66" width="10.2" height="8.92"/><path class="cls-57" d="M1719.36,1142.88l-24.54,5.77-33.2-7.21-4.95-4a1,1,0,0,0-1.56,1l.74,3a73.37,73.37,0,0,1-11.55,1.44c-2.89,0-4.33,2.89,0,2.89s23.94,4.09,31.76,7.21c7.21,2.89,10.42,4.75,14.44,6a15.41,15.41,0,0,0,8.33.23l24.86-6.22Z" transform="translate(-618.96 -323.8)"/><path class="cls-58" d="M1804.69,1142.88l24.54,5.77,33.2-7.21,5-4a1,1,0,0,1,1.56,1l-.73,3a73.17,73.17,0,0,0,11.54,1.44c2.89,0,4.33,2.89,0,2.89s-23.94,4.09-31.75,7.21c-7.22,2.89-10.43,4.75-14.45,6a15.41,15.41,0,0,1-8.33.23l-24.86-6.22Z" transform="translate(-618.96 -323.8)"/><path class="cls-59" d="M1755.45,1125.56l2.89-20.21h13s-1.44,11.54,1.45,18.76S1755.45,1125.56,1755.45,1125.56Z" transform="translate(-618.96 -323.8)"/><path class="cls-60" d="M1713.59,1141.44l8.66,17.32,15.88-4.33s-1.44,56.3-7.22,73.62c0,0,49.08,5.77,66.41,0l-4.33-76.51,11.54,7.22,8.67-17.32s-24.55-21.66-39-21.66S1735.24,1119.78,1713.59,1141.44Z" transform="translate(-618.96 -323.8)"/><polygon class="cls-61" points="1115.59 904.89 1113.56 1026.95 1126.22 1026.95 1146.6 920.13 1165.53 1025.51 1178.18 1025.51 1176.57 904.89 1115.59 904.89"/><path class="cls-62" d="M1752.57,1089.47s-3.87,7.12-2.89,13c1.44,8.66,8.66,8.66,8.66,8.66l2.89-8.66Z" transform="translate(-618.96 -323.8)"/><path class="cls-63" d="M1762.67,1114s-7.22-1.45-8.66-5.78-2.89-8.66-1.44-11.55-2.89-7.21-2.89-10.1,0-8.66,2.89-13a15,15,0,0,0,10.1,7.21c7.22,1.45,10.11,1.45,13,4.34a8.92,8.92,0,0,1,2.89,5.77s1.44,1.44,1.44,7.22-4.33,13-5.77,14.43S1762.67,1114,1762.67,1114Z" transform="translate(-618.96 -323.8)"/><polygon class="cls-11" points="1175.04 845.76 1169.69 823.41 1185.57 834.96 1173.3 827.01 1175.04 845.76"/><polygon class="cls-11" points="1118.58 845.76 1122.06 827.74 1103.29 834.96 1118.45 831.35 1118.58 845.76"/><polygon class="cls-64" points="1139.48 955.23 1143.71 910.02 1146.6 920.13 1139.48 955.23"/><path class="cls-65" d="M1733.5,1356.69l-6.19,5a3.53,3.53,0,0,0,.64,5.89l7,3.52h8.62a2.79,2.79,0,0,0,2.74-3.27l-2-11.16Z" transform="translate(-618.96 -323.8)"/><path class="cls-11" d="M1550.57,1331.1c0,3.25-34.26,5.88-76.51,5.88s-76.5-2.63-76.5-5.88,34.25-5.89,76.5-5.89S1550.57,1327.85,1550.57,1331.1Z" transform="translate(-618.96 -323.8)"/><path class="cls-66" d="M1496.41,1329.83s17.73-27.48,7.77-66.65c0,0-28.93,6.36-38.69,66.58Z" transform="translate(-618.96 -323.8)"/><path class="cls-67" d="M1483.24,1329.8s7.62-36.13,11.85-43.35c0,0-12.73,22.87-14.66,43.35Z" transform="translate(-618.96 -323.8)"/><path class="cls-68" d="M1447.56,1330.25s-17.62-27.55-7.5-66.68c0,0,28.9,6.48,38.42,66.74Z" transform="translate(-618.96 -323.8)"/><path class="cls-67" d="M1460.73,1330.28s-7.48-36.16-11.68-43.4c0,0,12.64,22.92,14.49,43.4Z" transform="translate(-618.96 -323.8)"/><path class="cls-69" d="M1414.14,1330.18s-22.71-35.51-9.66-86c0,0,37.25,8.36,49.52,86Z" transform="translate(-618.96 -323.8)"/><path class="cls-67" d="M1431.12,1330.22s-9.64-46.62-15.06-56c0,0,16.3,29.55,18.68,56Z" transform="translate(-618.96 -323.8)"/><path class="cls-70" d="M1536.6,1330.43s22.85-35.41,10-85.91c0,0-37.29,8.2-49.88,85.83Z" transform="translate(-618.96 -323.8)"/><path class="cls-67" d="M1519.62,1330.4s9.82-46.58,15.28-55.88c0,0-16.42,29.47-18.91,55.87Z" transform="translate(-618.96 -323.8)"/><ellipse class="cls-11" cx="476.91" cy="1030.6" rx="62.31" ry="4.79"/><path class="cls-71" d="M1114.07,1353.37s14.44-22.38,6.33-54.29c0,0-23.57,5.18-31.52,54.23Z" transform="translate(-618.96 -323.8)"/><path class="cls-67" d="M1103.34,1353.34s6.21-29.42,9.66-35.3c0,0-10.38,18.62-12,35.3Z" transform="translate(-618.96 -323.8)"/><path class="cls-72" d="M1074.28,1353.71s-14.35-22.44-6.11-54.31c0,0,23.55,5.28,31.3,54.36Z" transform="translate(-618.96 -323.8)"/><path class="cls-67" d="M1085,1353.73s-6.09-29.45-9.51-35.35c0,0,10.29,18.67,11.8,35.36Z" transform="translate(-618.96 -323.8)"/><path class="cls-73" d="M1047.06,1353.65s-18.49-28.92-7.87-70c0,0,30.35,6.81,40.34,70.08Z" transform="translate(-618.96 -323.8)"/><path class="cls-67" d="M1060.89,1353.68s-7.85-38-12.26-45.56c0,0,13.27,24.06,15.21,45.57Z" transform="translate(-618.96 -323.8)"/><path class="cls-74" d="M1146.8,1353.86s18.62-28.85,8.16-70c0,0-30.38,6.68-40.63,69.91Z" transform="translate(-618.96 -323.8)"/><path class="cls-67" d="M1133,1353.83s8-37.93,12.45-45.52c0,0-13.37,24-15.4,45.51Z" transform="translate(-618.96 -323.8)"/><path class="cls-75" d="M1364,1160.58l4.28,18.68c.1,1.8-3.44,3.6-4.1,5.28l-7.24,18.09-4.72-4.72,4.72-18-1-17.93Z" transform="translate(-618.96 -323.8)"/><path class="cls-76" d="M1335.5,1208.78l21.59-17.35s5.06,12.21,1,25c-2,6.29.13,10.77-.94,13.75-1,2.78-8.31,42.39-7.91,45.31s3.64,11.14,4.74,19.72c1.21,9.44.42,38.24,1,49.94h0s.52,8.71,1.5,10.64,2.37,4.07,2.57,6.65a4.08,4.08,0,0,1-2.49,3.89c-1.74.83-2.86-.11-3.48,0-3.59.35-4.3,3-10.47,3.92a9.4,9.4,0,0,1-6.43-1.79,1.41,1.41,0,0,1-.22-1.91c.38-.56,5-2,7-3.27s4-4.61,4.53-5.79a6.06,6.06,0,0,0,0-2.26h0c-.23-1.83-.49-3.74-.78-5.71-.24-1.48-.45-2.58-.45-2.58h.07c-3.88-25.42-11.43-59.09-12.43-70.66C1333,1263.34,1334.09,1239.82,1335.5,1208.78Z" transform="translate(-618.96 -323.8)"/><path class="cls-77" d="M1335.79,1368.85c-.43-.78-.52-1.95-.09-2.22a34.61,34.61,0,0,1,3.88-2.21c1.21-.52,3.11-1,2.44-.62s.52,1.72,1.63,1.68c3.86-.14,6.77-2.64,9-3.14,3.19-.71,4.61-4.42,4.76-5,.59.4,1.91,3.44,2.17,4.4a7.41,7.41,0,0,1,.39,3.32,7.82,7.82,0,0,0-.42,3.16,6.15,6.15,0,0,1-2.3.76,8.71,8.71,0,0,1-2.46,0l-.22-2a9.28,9.28,0,0,0-2,.15,10.51,10.51,0,0,0-3,1.33c-.45.51-.83,1.46-1.41,1.74a12.36,12.36,0,0,1-5.09,1.14C1338.91,1371.43,1336.52,1370.18,1335.79,1368.85Z" transform="translate(-618.96 -323.8)"/><path class="cls-78" d="M1304.45,1366.86c.46-.5,5.37-1.24,7.68-2.18a13.27,13.27,0,0,0,5.42-5.06c.52-1.24.47-7.57.43-10.23-.28-18.54-3.18-62.48-3.58-73.78-.67-18.63,1.94-37.82,9.41-67.64l26.88-20.2s7.33,14,4.69,27.22c-1.52,7.69-7.93,8.81-9,11.79s-17.73,51.09-17.73,51.09a91.09,91.09,0,0,1,3.1,21.9c0,9.76-4.67,39.16-5.6,50.37-.12,2.19-.55,7.43.08,9.11.77,2,2.76,4.48,2.63,7.06a4,4,0,0,1-3.06,3.48c-1.9.56-2.94-.54-3.59-.57-3.76-.2-4.83,2.38-11.32,2.31a10.31,10.31,0,0,1-6.42-2.74A1.38,1.38,0,0,1,1304.45,1366.86Z" transform="translate(-618.96 -323.8)"/><path class="cls-79" d="M1303.87,1369.15c-.35-.84-.29-2,.18-2.21a36.55,36.55,0,0,1,4.3-1.61c1.31-.34,3.33-.49,2.59-.25s.32,1.79,1.48,1.91c4,.44,7.33-1.59,9.68-1.75,3.38-.24,4.66-3.71,4.9-4.28a15.49,15.49,0,0,1,2.34,4.69,7.29,7.29,0,0,1,0,3.35,7.41,7.41,0,0,0-.85,3.06,6.28,6.28,0,0,1-2.47.42,9.91,9.91,0,0,1-2.53-.39l0-2a10.14,10.14,0,0,0-2-.15,6.7,6.7,0,0,0-3.32,1.14c-.56.41-1.14,1.1-1.8,1.26a13.62,13.62,0,0,1-5.27.34C1306.76,1372.18,1304.46,1370.58,1303.87,1369.15Z" transform="translate(-618.96 -323.8)"/><path class="cls-80" d="M1251.29,1117.49c-.18-.77.72-1,1.65.53a8.73,8.73,0,0,0,5.89,3.93c.16-.42-.41-.56-.83-1.46s-.16-1.69.28-1.86,1.11,1,1.37,1.24l3,2.52a6.26,6.26,0,0,1,2.16,2.94,5.91,5.91,0,0,1,.16.74c6.65,5.07,28.57,11.38,31.53,13.18,1.94,1.19,33.44-.1,33.44-.1l-3.64,13c-10-.12-28-1.83-30.41-2.31-9.28-1.82-29.06-17.41-31.12-18.81-1.38.35-8.91-1.15-10-2.93a3.06,3.06,0,0,1-.51-1.94c-.66-.77-1.79-3.51.18-2.94C1252.36,1121.86,1251.84,1119.8,1251.29,1117.49Z" transform="translate(-618.96 -323.8)"/><path class="cls-81" d="M1359.62,1139.84s4.25,11.47,5.64,20.54L1355,1162v-14.58" transform="translate(-618.96 -323.8)"/><path class="cls-82" d="M1324.82,1186.58c-.17,1.64-9,20-10,39.64-.72,13-.91,20.52.1,29.92,9.16,5.39,29.38,6,39.34-1.2-.13-7.78,2-17.82,3.12-24.65.47-3,3.5-11.24,3.89-14.24,1.49-11.34-1.35-22-8.77-28.37Z" transform="translate(-618.96 -323.8)"/><path class="cls-83" d="M1325.1,1168.91c.37,3.51,0,8.91-.49,14.91a29.3,29.3,0,0,0-.49,3.93,2.2,2.2,0,0,0,.78,1.53v0c-.67-1.49.93-8.89,1.62-13a47,47,0,0,0-1-17.31c-1.47-5.09-2-7.51-2-7.51s-1.16-1.73-2-3a9.17,9.17,0,0,0,0,7.11C1323.32,1160.2,1324.54,1163.6,1325.1,1168.91Z" transform="translate(-618.96 -323.8)"/><path class="cls-84" d="M1307.45,1138.63s9.06-1.51,13.41-4.08c2.36-1.39,6.49-1.54,8.58-1.52,2.27-2.88,4.49-4.74,5.14-4.85s4.38-.06,8.78,0a17.59,17.59,0,0,1,17.13,18.76,125.3,125.3,0,0,1-1.93,14.32c-1,5.73-1.22,18.57-1,24.22.11,2.57,1.31,3.31,1.31,4.62,0,1.89-3.18,2.93-6.27,2.31-3.28-.64-14.95.24-22.32-1.09-2.27-.4-4.34-1-5.4-2.09a2.2,2.2,0,0,1-.78-1.53,29.3,29.3,0,0,1,.49-3.93c.49-6,.86-11.4.49-14.91-.56-5.31-1.78-8.71-3.51-13.44a11.92,11.92,0,0,1-.54-1.85c-.42-.06-.83-.12-1.24-.16-8.93-1-11.94-.49-11.94-.49C1306.75,1149,1307.45,1138.63,1307.45,1138.63Z" transform="translate(-618.96 -323.8)"/><path class="cls-85" d="M1330.68,1098.39c2.2-4.23,5.71-10.21,14.08-9.38s15.54,6.11,15.44,12.38-4.35,13.83-6,18.17-.94,10.8-.94,10.8l-17.82-.54s-.26-5.8-1.39-8c-.63-1.2-3.12-3.44-6-5.77-1.26-1-2.28-3.14-1.53-6.46,1.13-5,1.54-7.12,2.26-8.58C1329.31,1100,1330.2,1099.31,1330.68,1098.39Z" transform="translate(-618.96 -323.8)"/><path class="cls-86" d="M1329.21,1093.91c-2.8-1.62-1.42-6.83,7.12-8.6s28.89-1.18,25.94,24.47,16.93,39.63,18.87,41.27c3.83,3.24.59,10-7.08,6.19s-5.6,5.3-8.84,6.19-5.77.49-10.25-2.85-5,1.82-8.32,2.26c-6.78.88-7.66-6.49-5.89-10.62s9.13-38,.58-44.51a7.55,7.55,0,0,0-6.46-1.23.81.81,0,0,1-1-1.1C1335,1102.85,1333.17,1096.2,1329.21,1093.91Z" transform="translate(-618.96 -323.8)"/><path class="cls-87" d="M1250.79,767.13V752.76h-6.56a26.84,26.84,0,0,0-2.59-6.25l4.64-4.64-10.16-10.16-4.64,4.64a27.31,27.31,0,0,0-6.25-2.6V727.2h-14.37v6.55a27.31,27.31,0,0,0-6.25,2.6l-4.64-4.64-10.16,10.16,4.64,4.64a27.31,27.31,0,0,0-2.6,6.25h-6.55v14.37h6.55a27.31,27.31,0,0,0,2.6,6.25l-4.64,4.64L1200,788.18l4.64-4.64a27.31,27.31,0,0,0,6.25,2.6v6.55h14.37v-6.55a27.31,27.31,0,0,0,6.25-2.6l4.64,4.64L1246.28,778l-4.64-4.64a26.84,26.84,0,0,0,2.59-6.25ZM1218,772.74a12.79,12.79,0,1,1,12.79-12.8A12.81,12.81,0,0,1,1218,772.74Z" transform="translate(-618.96 -323.8)"/><path class="cls-88" d="M1194.51,730.89v-4.28a18.12,18.12,0,0,0,4.08-1.7l3,3,6.65-6.65-3-3a17.67,17.67,0,0,0,1.7-4.08h4.29v-9.41h-4.29a17.67,17.67,0,0,0-1.7-4.08l3-3-6.65-6.65-3,3a17.67,17.67,0,0,0-4.08-1.7v-4.28h-9.4v4.28A17.56,17.56,0,0,0,1181,694l-3-3-6.65,6.65,3,3a17.64,17.64,0,0,0-1.69,4.08h-4.29v9.41h4.29a17.64,17.64,0,0,0,1.69,4.08l-3,3,6.65,6.65,3-3a18,18,0,0,0,4.09,1.7v4.28Zm-13.07-21.42a8.37,8.37,0,1,1,8.37,8.37A8.37,8.37,0,0,1,1181.44,709.47Z" transform="translate(-618.96 -323.8)"/><polygon class="cls-89" points="1521.45 379.71 1493.87 336.86 1466.77 379.71 1482.05 379.71 1482.05 415.15 1506.18 415.15 1506.18 379.71 1521.45 379.71"/><polygon class="cls-90" points="531.11 44.2 502.66 0 474.71 44.2 490.46 44.2 490.46 80.76 515.36 80.76 515.36 44.2 531.11 44.2"/><circle class="cls-91" cx="909.46" cy="718.09" r="34.49" transform="translate(-617.33 1114.44) rotate(-76.72)"/><g class="cls-92"><rect class="cls-93" x="270.35" y="381.23" width="44.26" height="30.16"/></g><rect class="cls-19" x="269.35" y="380.23" width="44.26" height="30.16"/><path class="cls-94" d="M888.31,734.19l5.42-4.69,5.47-4.63,5.5-4.6,5.51-4.58.23-.19.22.19,5.52,4.58c1.83,1.53,3.68,3,5.5,4.6l5.47,4.63,5.42,4.69-5.64-4.42-5.6-4.48c-1.87-1.49-3.71-3-5.56-4.52l-5.56-4.54h.45l-5.55,4.54-5.56,4.52-5.6,4.48Z" transform="translate(-618.96 -323.8)"/><polyline class="cls-19" points="269.35 380.23 291.48 398.46 313.61 380.23"/><path class="cls-94" d="M888.31,704l5.64,4.43,5.6,4.48,5.56,4.52,5.55,4.54h-.45l5.56-4.54c1.85-1.51,3.69-3,5.56-4.52l5.6-4.48,5.64-4.43-5.42,4.69-5.47,4.64c-1.82,1.55-3.67,3.07-5.5,4.6l-5.52,4.58-.22.19-.23-.19L904.7,718l-5.5-4.6-5.47-4.64Z" transform="translate(-618.96 -323.8)"/><circle class="cls-95" cx="1670.55" cy="388.87" r="23.15" transform="translate(-404.64 971.35) rotate(-45)"/><g class="cls-92"><rect class="cls-93" x="1038.39" y="56.63" width="29.7" height="20.24"/></g><rect class="cls-19" x="1037.39" y="55.63" width="29.7" height="20.24"/><path class="cls-94" d="M1656.35,399.68c2.39-2.15,4.82-4.24,7.26-6.33,1.21-1.05,2.45-2.06,3.68-3.1l3.69-3.08.22-.19.23.19,3.69,3.08c1.23,1,2.47,2.05,3.68,3.1,2.44,2.09,4.88,4.18,7.26,6.33-2.57-1.93-5.09-3.91-7.6-5.91-1.27-1-2.5-2-3.75-3l-3.73-3h.45l-3.73,3c-1.25,1-2.48,2-3.75,3C1661.44,395.77,1658.92,397.75,1656.35,399.68Z" transform="translate(-618.96 -323.8)"/><polyline class="cls-19" points="1037.39 55.63 1052.24 67.87 1067.1 55.63"/><path class="cls-94" d="M1656.35,379.44c2.57,1.92,5.09,3.91,7.6,5.91,1.27,1,2.5,2,3.75,3l3.73,3H1671l3.73-3c1.25-1,2.48-2,3.75-3,2.51-2,5-4,7.6-5.91-2.38,2.15-4.82,4.24-7.26,6.33-1.21,1.05-2.45,2.06-3.68,3.1l-3.69,3.08-.23.19L1671,392l-3.69-3.09c-1.23-1-2.47-2-3.68-3.09C1661.17,383.68,1658.74,381.59,1656.35,379.44Z" transform="translate(-618.96 -323.8)"/><path class="cls-96" d="M1245.41,436.46a13.75,13.75,0,1,0,1.83,13.82h0a13.77,13.77,0,0,0-1.83-13.81Zm-10.85,16.61a8.16,8.16,0,1,1,6.37-13.24,8.11,8.11,0,0,1,1.18,8.17A8.16,8.16,0,0,1,1234.56,453.07Z" transform="translate(-618.96 -323.8)"/><path class="cls-97" d="M1245.41,436.46l-4.48,3.37a8.1,8.1,0,0,0-6.37-3.07v-5.61A13.71,13.71,0,0,1,1245.41,436.46Z" transform="translate(-618.96 -323.8)"/><path class="cls-98" d="M1247.24,450.27h0a13.77,13.77,0,0,1-24.09,2.33l4.59-3.21a8.16,8.16,0,0,0,14.37-1.4Z" transform="translate(-618.96 -323.8)"/><rect class="cls-99" x="216.36" y="145.55" width="10.73" height="49"/><rect class="cls-100" x="233.61" y="153.4" width="10.73" height="41.14"/><rect class="cls-101" x="199.27" y="160.11" width="10.73" height="34.43"/><rect class="cls-102" x="250.86" y="139.03" width="10.73" height="55.52"/><polygon class="cls-103" points="201.55 150.32 200.86 149.61 220.42 130.75 239.84 142.35 259.04 119.47 259.79 120.1 240.06 143.63 220.56 131.99 201.55 150.32"/><path class="cls-104" d="M822.33,473.69a2.11,2.11,0,1,1-2.11-2.11A2.12,2.12,0,0,1,822.33,473.69Z" transform="translate(-618.96 -323.8)"/><path class="cls-104" d="M841.56,455.44a2.11,2.11,0,1,1-2.11-2.11A2.1,2.1,0,0,1,841.56,455.44Z" transform="translate(-618.96 -323.8)"/><path class="cls-104" d="M861,466.53a2.11,2.11,0,1,1-2.11-2.11A2.1,2.1,0,0,1,861,466.53Z" transform="translate(-618.96 -323.8)"/><path class="cls-104" d="M880.49,443.59a2.11,2.11,0,1,1-2.11-2.11A2.12,2.12,0,0,1,880.49,443.59Z" transform="translate(-618.96 -323.8)"/><circle class="cls-105" cx="1085.06" cy="573.01" r="15.13" transform="translate(-273.32 1228.47) rotate(-80.78)"/><path class="cls-19" d="M1092,567c-3.84-1.5-6.9,3.8-6.9,3.8s-3-5.3-6.9-3.8c-5.67,2.23,2.17,12.5,6.9,14.84C1089.8,579.53,1097.63,569.26,1092,567Z" transform="translate(-618.96 -323.8)"/><circle class="cls-106" cx="1200.28" cy="234.4" r="15.13"/><path class="cls-19" d="M1826.14,552.23c-3.84-1.51-6.9,3.79-6.9,3.79s-3.06-5.3-6.9-3.79c-5.67,2.22,2.16,12.49,6.9,14.84C1824,564.72,1831.81,554.45,1826.14,552.23Z" transform="translate(-618.96 -323.8)"/><polygon class="cls-107" points="1374.3 152.85 1352.33 124.83 1436.3 92.06 1374.3 152.85"/><polygon class="cls-108" points="1352.33 124.83 1436.3 92.06 1333.55 122.3 1352.33 124.83"/><polygon class="cls-109" points="1373.25 127.61 1374.3 152.85 1436.3 92.06 1373.25 127.61"/><polygon class="cls-110" points="1436.3 92.06 1400.87 131.42 1373.25 127.61 1436.3 92.06"/></g></g></svg>