<svg xmlns="http://www.w3.org/2000/svg" width="134.882" height="128.099" viewBox="0 0 134.882 128.099">
  <g id="campeao" transform="translate(-1244.683 -741.868)">
    <path id="Caminho_1970" data-name="Caminho 1970" d="M675.521,1138.967c-11.915-11.911-10.182-36.307-28.362-36.307a65.635,65.635,0,0,0-46.548,19.28C588.7,1133.841,581,1161.433,581,1179.613s4.6,13.416,16.516,25.331,32.352,22.974,50.528,22.974,31.792-5.177,43.707-17.085,21.224-24.161,21.224-42.344S687.433,1150.878,675.521,1138.967Z" transform="translate(666.59 -357.951)" fill="#eaf4fe"/>
    <path id="Caminho_1971" data-name="Caminho 1971" d="M898.882,1355.12a.632.632,0,0,0-.632.632v5.3a.632.632,0,0,0,1.263,0v-5.284a.632.632,0,0,0-.632-.649Z" transform="translate(458.841 -523.272)" fill="#c1c1c1"/>
    <path id="Caminho_1972" data-name="Caminho 1972" d="M896.981,1362.8h-5.05a.632.632,0,0,0,0,1.263h5.05a.632.632,0,1,0,0-1.263Z" transform="translate(463.392 -528.302)" fill="#c1c1c1"/>
    <path id="Caminho_1973" data-name="Caminho 1973" d="M821.348,1115.09a.632.632,0,0,0-.632.632v5.05a.632.632,0,1,0,1.26,0v-5.05a.628.628,0,0,0-.628-.632Z" transform="translate(509.615 -366.09)" fill="#fe9595"/>
    <path id="Caminho_1974" data-name="Caminho 1974" d="M819.451,1122H814.4a.632.632,0,1,0,0,1.263h5.05a.632.632,0,0,0,0-1.263Z" transform="translate(514.163 -370.616)" fill="#fe9595"/>
    <path id="Caminho_1975" data-name="Caminho 1975" d="M931.2,1229.74c-3.193-.587-3.538-.932-4.142-4.125a.507.507,0,0,0-1,0c-.59,3.193-.935,3.538-4.142,4.125a.507.507,0,0,0,0,1c3.193.59,3.538.935,4.142,4.142a.507.507,0,0,0,1,0c.587-3.193.932-3.538,4.142-4.142a.507.507,0,0,0,0-1Zm-4.625,2.882a2.38,2.38,0,1,1,0-4.76,2.38,2.38,0,0,1,0,4.76Z" transform="translate(443.622 -438.19)" fill="#fe9595"/>
    <path id="Caminho_1976" data-name="Caminho 1976" d="M583.312,1216.1l-9.347.891a1.526,1.526,0,0,0-1.1,2.416l5.443,7.649a1.522,1.522,0,0,0,2.63-.248h0l3.9-8.539a1.526,1.526,0,0,0-1.533-2.154Zm-2.834,10.479Zm3.452-8.75-3.9,8.539a.507.507,0,0,1-.877.083l-5.443-7.649a.511.511,0,0,1-.048-.507.565.565,0,0,1,.173-.207.529.529,0,0,1,.242-.086l9.35-.9a.5.5,0,0,1,.463.214.494.494,0,0,1,.035.514Z" transform="translate(672.107 -432.236)" fill="#fdc23f"/>
    <path id="Caminho_1977" data-name="Caminho 1977" d="M640.587,1099.979c-3.527-.973-4.2-1.65-5.177-5.177a.5.5,0,0,0-.973,0c-.973,3.524-1.65,4.2-5.177,5.177a.511.511,0,0,0-.369.487.5.5,0,0,0,.369.487c3.527.973,4.2,1.653,5.177,5.177a.5.5,0,0,0,.973,0c.973-3.524,1.65-4.2,5.177-5.177a.5.5,0,0,0,.369-.487A.511.511,0,0,0,640.587,1099.979Zm-5.664,4.311a3.828,3.828,0,0,1,0-7.656,3.828,3.828,0,1,1,0,7.656Z" transform="translate(635.23 -352.561)" fill="#ced3e2"/>
    <g id="Grupo_156" data-name="Grupo 156" transform="translate(1263.291 862.622)" opacity="0.7">
      <path id="Caminho_1978" data-name="Caminho 1978" d="M836.156,1444.28H798.224a.884.884,0,1,0,0,1.767h37.933a.884.884,0,0,0,0-1.767Z" transform="translate(-738.37 -1444.28)" fill="#3a5c91"/>
      <path id="Caminho_1979" data-name="Caminho 1979" d="M706.8,1444.28H672.934a.884.884,0,0,0,0,1.767H706.8a.884.884,0,1,0,0-1.767Z" transform="translate(-656.325 -1444.28)" fill="#3a5c91"/>
      <path id="Caminho_1980" data-name="Caminho 1980" d="M636.106,1444.28h-8.732a.884.884,0,1,0,0,1.767h8.732a.884.884,0,0,0,0-1.767Z" transform="translate(-626.49 -1444.28)" fill="#3a5c91"/>
    </g>
    <path id="Caminho_1981" data-name="Caminho 1981" d="M752.352,1405.771h-1.035v-10.23a1.118,1.118,0,0,0-1.191-1.036H708.517a1.118,1.118,0,0,0-1.191,1.035v10.23h-1.035a1.122,1.122,0,0,0-1.191,1.035v2.416h48.457v-2.416a1.118,1.118,0,0,0-1.2-1.036Z" transform="translate(585.324 -549.062)" fill="#a4e4ff"/>
    <path id="Caminho_1982" data-name="Caminho 1982" d="M750.866,1403.556h-.28V1394.1a1.884,1.884,0,0,0-1.961-1.8H707.031a1.888,1.888,0,0,0-1.961,1.8v9.461h-.28a1.888,1.888,0,0,0-1.96,1.8v3.172h50.01v-3.172a1.888,1.888,0,0,0-1.974-1.8Zm.421,3.434H704.345v-1.633c0-.121.183-.262.421-.262h1.819v-11c0-.117.183-.259.421-.259h41.633c.238,0,.421.142.421.259v11h1.805c.238,0,.421.141.421.262Z" transform="translate(586.811 -547.617)" fill="#3a5c91"/>
    <path id="Caminho_1983" data-name="Caminho 1983" d="M807.387,1153.651c0,2.809-2.641,5.1-5.868,5.112h-2.689l-.059,1.64c-.69,19.291-4.415,34.488-10.482,42.8l-4.559,6.237,3.155-1.691,2.527-3.452c6.068-8.3,9.789-23.5,10.479-42.8l.059-1.64h2.692c3.244,0,5.868-2.3,5.868-5.112v-1.695h9.771l.141-1.091H807.377Z" transform="translate(533.834 -390.234)" fill="#fff" opacity="0.2"/>
    <path id="Caminho_1984" data-name="Caminho 1984" d="M731.4,1152.152c0,2.554-2.178,4.68-5.012,5.053l1.135-7.535h-45.4l1.125,7.459a6.419,6.419,0,0,1-1.812-.659h0a5.726,5.726,0,0,1-1.111-.79l-.024-.021c-.107-.1-.207-.2-.3-.3l-.017-.017a5.3,5.3,0,0,1-.521-.663l-.024-.042a3.741,3.741,0,0,1-.2-.345.391.391,0,0,1-.028-.052c-.062-.117-.117-.238-.169-.345v-.028c-.048-.121-.093-.242-.131-.366a.172.172,0,0,1,0-.038c-.038-.124-.069-.249-.1-.376v-.069c-.024-.128-.045-.255-.059-.383v-.062a4.035,4.035,0,0,1-.021-.411v-1.688H667.69l.242,1.884c2.333,18.038,9.433,42.164,27.216,51.7l.625.345a16.273,16.273,0,0,0,4.125,3.452c.2.114.4.221.607.321.083.041.169.076.252.114s.238.114.345.162.224.086.345.128.186.076.28.107.293.093.438.138l.176.052a9.319,9.319,0,0,0,2.447.345h.031a9.982,9.982,0,0,0,4.922-1.381,15.835,15.835,0,0,0,3.748-3.02l1.474-.794c17.789-9.544,24.886-33.681,27.216-51.7l.245-1.885H731.378Zm-59.35,1.7h2.917c.839,3.566,4.266,6.33,8.5,6.751.652,14.528,3.055,26.784,6.9,35.6C679.111,1185.573,674.113,1168.222,672.049,1153.85Zm63.074,0h2.913c-2.071,14.372-7.058,31.724-18.331,42.347,3.859-8.812,6.261-21.055,6.9-35.6C730.854,1160.18,734.285,1157.415,735.123,1153.85Z" transform="translate(609.822 -388.735)" fill="#ffd599"/>
    <path id="Caminho_1985" data-name="Caminho 1985" d="M732.218,1149.67h-22.7l1.4,7.269h42.9l1.094-7.269h-22.7Z" transform="translate(582.43 -388.735)" fill="#fff" opacity="0.2"/>
    <path id="Caminho_1986" data-name="Caminho 1986" d="M725.95,1158.962l-1.4-9.292H717.87l1.381,9.292c1.191,33.27,10.841,46.62,14.959,48.933a6.108,6.108,0,0,0,2.889,1.111l-.431-1.781C727.31,1201.954,726.437,1172.6,725.95,1158.962Z" transform="translate(576.962 -388.735)" fill="#fff" opacity="0.4"/>
    <path id="Caminho_1987" data-name="Caminho 1987" d="M690.828,1167.036l-.031-.666-.663-.066c-3.849-.383-7.065-2.917-7.832-6.161l-.138-.594H677.75l.124.88c1.919,13.347,6.7,31.609,18.566,42.8l2.761,2.592-1.515-3.452C693.841,1193.6,691.47,1181.381,690.828,1167.036Zm-11.3-5.951h1.436a10.155,10.155,0,0,0,8.349,6.665c.6,12.37,2.492,23.171,5.5,31.561C685.43,1188.605,681.329,1173.025,679.531,1161.086Z" transform="translate(603.234 -395.205)" fill="#3a5c91"/>
    <path id="Caminho_1988" data-name="Caminho 1988" d="M820.354,1166.344l-.031.666c-.646,14.345-3.013,26.577-6.848,35.32l-1.515,3.452,2.761-2.592c11.873-11.187,16.65-29.449,18.566-42.8l.128-.88h-4.428l-.141.594c-.763,3.245-3.983,5.778-7.828,6.161Zm9.83-5.281h1.436c-1.8,11.936-5.912,27.516-15.284,38.226,3.006-8.391,4.894-19.191,5.495-31.561a10.158,10.158,0,0,0,8.353-6.668Z" transform="translate(515.348 -395.179)" fill="#3a5c91"/>
    <path id="Caminho_1989" data-name="Caminho 1989" d="M728.887,1150.685a4.49,4.49,0,0,1-3.31,4.056l1.1-7.311H679.505l1.073,7.138c-.159-.069-.318-.145-.469-.228h-.031a5.175,5.175,0,0,1-.984-.69c-.093-.086-.18-.173-.255-.252l-.021-.021a4.709,4.709,0,0,1-.438-.559l-.028-.041c-.059-.093-.114-.186-.166-.286l-.024-.041c-.052-.1-.1-.2-.138-.293v-.031c-.038-.1-.076-.2-.107-.3v-.038c-.031-.1-.055-.2-.079-.318v-.048a2.833,2.833,0,0,1-.048-.345v-.031c0-.11-.017-.224-.017-.345v-2.464H665.05L665.4,1151c.98,7.569,3.141,18.79,7.877,29.255,4.932,10.9,11.573,18.639,19.74,23.029l.5.269a17.016,17.016,0,0,0,4.273,3.538c.214.121.431.235.645.345l.183.086.18.079.29.131q.135.059.269.1l.183.069c.066.028.135.055.207.079.141.048.283.093.428.135l.1.031.131.041a10.054,10.054,0,0,0,2.633.366h.052a10.781,10.781,0,0,0,5.3-1.464,16.478,16.478,0,0,0,3.845-3.075l1.381-.732c8.166-4.384,14.811-12.132,19.743-23.036,4.732-10.462,6.9-21.679,7.873-29.249l.345-2.761H728.887Zm1.543-.925h9.4l-.131,1.036c-1.905,14.742-7.939,40.984-26.815,51.125l-1.588.849-.086.093a15.187,15.187,0,0,1-3.565,2.879,9.208,9.208,0,0,1-4.525,1.263h-.048a8.505,8.505,0,0,1-2.243-.314l-.066-.021-.138-.042-.362-.114-.148-.055-.211-.083-.211-.079-.235-.107-.207-.093-.128-.059c-.19-.093-.38-.193-.569-.3a15.678,15.678,0,0,1-3.966-3.32l-.09-.1-.745-.4c-18.89-10.137-24.91-36.383-26.815-51.125l-.131-1.036h9.385v.925a3.326,3.326,0,0,0,.028.5v.055c.017.152.038.3.069.445v.083a3.967,3.967,0,0,0,.11.435v.052c.045.145.1.286.148.421v.038c.059.142.124.28.2.435l.024.042c.072.135.148.266.231.393l.031.048a5.76,5.76,0,0,0,.618.78,4.6,4.6,0,0,0,.345.345l.031.027a6.679,6.679,0,0,0,1.229.88h.031a7.134,7.134,0,0,0,2.033.739l1.077.217-1.153-7.662H724.9l-1.156,7.662,1.018-.135c3.238-.428,5.681-2.927,5.681-5.816Z" transform="translate(611.551 -387.268)" fill="#3a5c91"/>
    <path id="Caminho_1990" data-name="Caminho 1990" d="M739.773,1330.08c.107-.059,1.4-4.729,1.4-4.729a1.232,1.232,0,0,0,1.312-1.136v-1.229a.963.963,0,0,0-1.008-.891c-1.094-1.3-1.753-2.416-.9-4.087a9.9,9.9,0,0,1-4.856,1.329h0a9.963,9.963,0,0,1-4.856-1.339,2.834,2.834,0,0,1,.152.345.308.308,0,0,0,.038.107c.014.035.052.138.072.207s.024.083.035.124.031.117.041.176.017.086.024.128a1.268,1.268,0,0,1,0,.162v.407a.409.409,0,0,1-.017.141.318.318,0,0,0,0,.128.685.685,0,0,1-.031.135c-.01.045,0,.086-.031.128a.345.345,0,0,0-.041.128c-.014.045-.028.086-.045.128l-.041.09c-.045.1-.093.207-.148.311,0,.028-.031.055-.045.083l-.1.159c-.021.027-.038.059-.055.086s-.073.107-.111.162l-.059.083a1.927,1.927,0,0,1-.124.166c-.017.024-.038.048-.055.076l-.145.179-.041.055-.176.207H729.9a.884.884,0,0,0-.939.815v1.3a1.232,1.232,0,0,0,1.312,1.135h.11l1.291,4.729c-3.41,6.851-6.313,11.138-16.792,14.462h41.692C746.089,1341.212,743.186,1336.925,739.773,1330.08Z" transform="translate(578.92 -498.965)" fill="#ffd599"/>
    <path id="Caminho_1991" data-name="Caminho 1991" d="M755.344,1342.316c-10.175-3.227-12.981-7.373-16.184-13.765.21-.583.531-1.726,1.17-4a1.937,1.937,0,0,0,1.474-1.822V1321.5a1.681,1.681,0,0,0-1.381-1.615c-.925-1.139-1.2-1.853-.611-3.01a.77.77,0,0,0-1.06-1.036,8.811,8.811,0,0,1-8.974,0,.773.773,0,0,0-1.063,1.025,2.326,2.326,0,0,1,.124.269v.031l.021.055c.021.055.041.107.055.155l.028.1a.738.738,0,0,0,.031.131.449.449,0,0,1,0,.1V1318a.733.733,0,0,1,0,.09v.114a.408.408,0,0,1,0,.069.624.624,0,0,1-.021.1v.031a.361.361,0,0,1,0,.059l-.021.059-.076.2c-.035.083-.076.162-.121.249l-.034.065c-.024.045-.052.086-.079.131l-.048.076-.093.138-.052.076-.117.155-.052.066-.135.169h0a1.626,1.626,0,0,0-1.38,1.557v1.326a1.95,1.95,0,0,0,1.588,1.854c.273.994.863,3.155,1.077,3.931-3.217,6.416-6.013,10.572-16.222,13.806a.773.773,0,0,0,.235,1.508h41.692a.773.773,0,0,0,.231-1.508Zm-37.6-.034c7.642-3.279,10.275-7.549,13.164-13.347a.773.773,0,0,0,.055-.549c-1.349-4.925-1.349-4.925-1.495-5.07a.756.756,0,0,0-.542-.224h-.11c-.318,0-.542-.193-.542-.366v-1.284a.217.217,0,0,1,.173-.066h.069a.766.766,0,0,0,.587-.273l.183-.221.045-.055.159-.2.059-.076.138-.19.062-.086.124-.183.059-.1c.041-.062.079-.124.11-.179a1.093,1.093,0,0,0,.055-.1,3.865,3.865,0,0,0,.193-.4l.038-.09c0-.041.035-.083.048-.128l.021-.066a.906.906,0,0,0,.041-.128.756.756,0,0,1,.038-.145v-.031a.951.951,0,0,1,.038-.166.684.684,0,0,1,.024-.162l.021-.193v-.3a10.071,10.071,0,0,0,7.393,0,4.835,4.835,0,0,0,1.474,3.186.767.767,0,0,0,.573.273c.169,0,.252.1.252.121v1.236c0,.173-.221.366-.542.366a.773.773,0,0,0-.742.563c-.545,1.967-1.177,4.142-1.329,4.549a.773.773,0,0,0-.017.735c2.889,5.8,5.523,10.065,13.164,13.347ZM737.938,1327.916ZM737.938,1327.916Z" transform="translate(580.378 -497.48)" fill="#3a5c91"/>
  </g>
</svg>
