<svg xmlns="http://www.w3.org/2000/svg" width="105.892" height="109.779" viewBox="0 0 105.892 109.779">
  <g id="Grupo_207" data-name="Grupo 207" transform="translate(-282.108 -365.465)">
    <path id="Caminho_352" data-name="Caminho 352" d="M1711.369,637.061a6.48,6.48,0,0,0-8.313-3.863l-11.225,4.1a6.483,6.483,0,0,1-8.313-3.86l-.626-1.713a6.483,6.483,0,0,1,3.86-8.313l11.225-4.1a6.486,6.486,0,0,0,3.863-8.316l-.7-1.9a6.483,6.483,0,0,0-8.313-3.86l-2.283.834a6.48,6.48,0,0,1-8.313-3.863l-.556-1.521a6.48,6.48,0,0,1,3.863-8.313l20.356-7.44a6.48,6.48,0,0,0,3.863-8.313l-.626-1.713a6.483,6.483,0,0,0-8.313-3.86l-89.99,32.891a6.483,6.483,0,0,0-3.86,8.313l.626,1.713a6.483,6.483,0,0,0,8.313,3.863l2.854-1.046a6.483,6.483,0,0,1,8.313,3.863l.556,1.521a6.486,6.486,0,0,1-3.863,8.316l-2.854,1.043a6.483,6.483,0,0,0-3.863,8.313l.7,1.9a6.48,6.48,0,0,0,8.313,3.86l14.649-5.354a6.48,6.48,0,0,1,8.313,3.863l.626,1.71a6.486,6.486,0,0,1-3.863,8.316l-32.343,11.82a6.486,6.486,0,0,0-3.86,8.316l.7,1.9a6.483,6.483,0,0,0,8.313,3.86l89.614-32.755a6.481,6.481,0,0,0,3.863-8.313ZM1658.4,617.821l-2.473.9a6.486,6.486,0,0,1-8.316-3.863l-.556-1.521a6.48,6.48,0,0,1,3.863-8.313l2.473-.9a6.483,6.483,0,0,1,8.316,3.86l.556,1.524a6.486,6.486,0,0,1-3.863,8.313Z" transform="translate(-1324.469 -205.182)" fill="#eaf4fe"/>
    <g id="Layer_2" data-name="Layer 2" transform="translate(289 369)">
      <path id="Caminho_2009" data-name="Caminho 2009" d="M77.629,35.028,66.9,24,56.177,35.028,45.452,24,34.726,34.806,24,24v79.677L34.726,92.871l10.726,10.806L56.177,92.649,66.9,103.677,77.629,92.649l10.726,11.028V24Z" transform="translate(-13.573 -12.339)" fill="#cbecf9"/>
      <path id="Caminho_2010" data-name="Caminho 2010" d="M83.593,28.9l-5.964,6.133L66.9,24,56.177,35.028,45.452,24,34.726,34.806,24,24V96.782L34.726,85.976,45.452,96.782,56.177,85.754,66.9,96.782,77.629,85.754l5.964,6.133Z" transform="translate(-13.573 -12.339)" fill="#fff"/>
      <path id="Caminho_2011" data-name="Caminho 2011" d="M87.121,103.209a.766.766,0,0,1-.548-.234L76.4,92.513,66.217,102.979a.789.789,0,0,1-1.1,0L54.944,92.513,44.766,102.979a.766.766,0,0,1-.548.23h0a.766.766,0,0,1-.544-.226L33.492,92.724,23.31,102.983a.766.766,0,0,1-1.31-.54V22.765a.766.766,0,0,1,1.31-.54L33.492,32.483,43.674,22.225A.709.709,0,0,1,44.218,22a.766.766,0,0,1,.544.234L54.944,32.694,65.122,22.229a.789.789,0,0,1,1.1,0L76.4,32.694,86.573,22.229a.766.766,0,0,1,1.314.536v79.677A.766.766,0,0,1,87.121,103.209ZM33.492,90.87a.766.766,0,0,1,.544.226l10.182,10.255L54.4,90.882a.789.789,0,0,1,1.1,0l10.17,10.462L75.847,90.878a.789.789,0,0,1,1.1,0l9.408,9.68v-75.9L76.943,34.33a.789.789,0,0,1-1.1,0L65.669,23.864,55.491,34.33a.789.789,0,0,1-1.1,0L44.218,23.861,34.036,34.111a.789.789,0,0,1-1.088,0l-9.416-9.485v75.958L32.948,91.1A.766.766,0,0,1,33.492,90.87Z" transform="translate(-12.339 -11.104)" fill="#2fb1ea"/>
      <path id="Caminho_2012" data-name="Caminho 2012" d="M92.373,93.238H85.661a3.065,3.065,0,0,1,0-6.129H98.119a2.681,2.681,0,0,0,0-5.363H91.7V78.681a2.681,2.681,0,0,0-5.363,0v3.065h-.674a8.427,8.427,0,1,0,0,16.855h6.707a3.065,3.065,0,0,1,0,6.129H79.911a2.681,2.681,0,0,0,0,5.363h6.424v3.065a2.681,2.681,0,1,0,5.363,0v-3.065h.674a8.427,8.427,0,1,0,0-16.855Z" transform="translate(-46.412 -44.419)" fill="#13cb7b"/>
      <circle id="Elipse_6" data-name="Elipse 6" cx="2" cy="2" r="2" transform="translate(2 48)" fill="#d4ffd4"/>
      <circle id="Elipse_7" data-name="Elipse 7" cx="1.5" cy="1.5" r="1.5" transform="translate(49 96)" fill="#d4ffd4"/>
      <circle id="Elipse_8" data-name="Elipse 8" cx="1" cy="1" r="1" transform="translate(83 48)" fill="#d4ffd4"/>
      <ellipse id="Elipse_9" data-name="Elipse 9" cx="0.5" cy="1" rx="0.5" ry="1" transform="translate(73 4)" fill="#d4ffd4"/>
      <circle id="Elipse_10" data-name="Elipse 10" cx="0.5" cy="0.5" r="0.5" transform="translate(93 21)" fill="#d4ffd4"/>
      <circle id="Elipse_11" data-name="Elipse 11" cx="2" cy="2" r="2" transform="translate(80 34)" fill="#ffbdbd"/>
      <circle id="Elipse_12" data-name="Elipse 12" cx="1.5" cy="1.5" r="1.5" transform="translate(84 5)" fill="#ffbdbd"/>
      <circle id="Elipse_13" data-name="Elipse 13" cx="1.5" cy="1.5" r="1.5" transform="translate(6 58)" fill="#ffbdbd"/>
      <ellipse id="Elipse_14" data-name="Elipse 14" cx="0.5" cy="1" rx="0.5" ry="1" transform="translate(7 26)" fill="#ffbdbd"/>
      <circle id="Elipse_15" data-name="Elipse 15" cx="0.5" cy="0.5" r="0.5" transform="translate(33 8)" fill="#ffbdbd"/>
      <ellipse id="Elipse_16" data-name="Elipse 16" cx="1.5" cy="2" rx="1.5" ry="2" transform="translate(17 90)" fill="#bbf1ff"/>
      <circle id="Elipse_17" data-name="Elipse 17" cx="1.5" cy="1.5" r="1.5" transform="translate(39 8)" fill="#bbf1ff"/>
      <circle id="Elipse_18" data-name="Elipse 18" cx="1" cy="1" r="1" transform="translate(17 6)" fill="#bbf1ff"/>
      <circle id="Elipse_19" data-name="Elipse 19" cx="0.5" cy="0.5" r="0.5" transform="translate(87 93)" fill="#bbf1ff"/>
      <circle id="Elipse_20" data-name="Elipse 20" cx="0.5" cy="0.5" r="0.5" transform="translate(81 90)" fill="#bbf1ff"/>
      <circle id="Elipse_21" data-name="Elipse 21" cx="2" cy="2" r="2" transform="translate(5 74)" fill="#fff4c5"/>
      <ellipse id="Elipse_22" data-name="Elipse 22" cx="2" cy="1.5" rx="2" ry="1.5" transform="translate(95 76)" fill="#fff4c5"/>
      <ellipse id="Elipse_23" data-name="Elipse 23" cx="1" cy="1.5" rx="1" ry="1.5" transform="translate(67 94)" fill="#fff4c5"/>
      <ellipse id="Elipse_24" data-name="Elipse 24" cx="1" cy="0.5" rx="1" ry="0.5" transform="translate(23 88)" fill="#fff4c5"/>
      <circle id="Elipse_25" data-name="Elipse 25" cx="0.5" cy="0.5" r="0.5" transform="translate(61 8)" fill="#fff4c5"/>
      <circle id="Elipse_26" data-name="Elipse 26" cx="13.5" cy="13.5" r="13.5" transform="translate(60 67)" fill="#13cb7b"/>
      <path id="Caminho_2019" data-name="Caminho 2019" d="M10.577,16,20.6,5.979l1.543,1.542L10.577,19.089,3.636,12.149l1.542-1.542Z" transform="translate(61.012 69.021)" fill="#fff"/>
    </g>
  </g>
</svg>
