<svg xmlns="http://www.w3.org/2000/svg" width="47.17" height="56.026" viewBox="0 0 47.17 56.026">
  <g id="fogueteao" transform="translate(-6.929 30.513) rotate(-45)">
    <path id="Caminho_1977" data-name="Caminho 1977" d="M13.545,144.748l-.081,0L1.72,144.012a1.3,1.3,0,0,1-1.054-1.935,19.2,19.2,0,0,1,4.36-5,14.082,14.082,0,0,1,12.8-2.884,1.3,1.3,0,0,1,.838,1.837l-3.957,7.989a1.3,1.3,0,0,1-1.166.724Zm0,0" transform="translate(0 -122.571)" fill="#ff5b5b"/>
    <path id="Caminho_1978" data-name="Caminho 1978" d="M248.34,310.591a1.3,1.3,0,0,1-1.3-1.22l-.733-11.743a1.3,1.3,0,0,1,.721-1.247l7.989-3.958a1.3,1.3,0,0,1,1.837.839,14.08,14.08,0,0,1-2.884,12.8,19.2,19.2,0,0,1-5,4.36,1.3,1.3,0,0,1-.636.166Zm0,0" transform="translate(-225.329 -267.938)" fill="#ff193d"/>
    <path id="Caminho_1979" data-name="Caminho 1979" d="M124.608,29.28l-8.414-8.414a1.3,1.3,0,0,0-1.289-.328A31.887,31.887,0,0,0,101.162,28.3a26.422,26.422,0,0,0-2.076,2.343A32.227,32.227,0,0,0,94.392,39.1a42.54,42.54,0,0,0-1.886,6.5,39.776,39.776,0,0,0-.87,6.928,1.3,1.3,0,0,0,1.3,1.317h.016a39.711,39.711,0,0,0,6.928-.87,42.522,42.522,0,0,0,6.5-1.886,32.224,32.224,0,0,0,8.447-4.693,26.342,26.342,0,0,0,2.344-2.077,31.88,31.88,0,0,0,7.766-13.744,1.3,1.3,0,0,0-.328-1.289Zm0,0" transform="translate(-83.543 -18.777)" fill="#e1f1fa"/>
    <path id="Caminho_1980" data-name="Caminho 1980" d="M50.635,313.322l-6.3-6.3a1.3,1.3,0,0,0-1.723-.1,12.674,12.674,0,0,0-1.138,1.008c-4.386,4.386-4.522,11.182-4.526,11.469a1.3,1.3,0,0,0,1.3,1.318h.017c.287,0,7.084-.139,11.469-4.526a12.675,12.675,0,0,0,1.007-1.138,1.3,1.3,0,0,0-.1-1.723Zm0,0" transform="translate(-33.408 -281.091)" fill="#fff261"/>
    <path id="Caminho_1981" data-name="Caminho 1981" d="M79.179,240.762l-3.868,3.868a1.3,1.3,0,0,0,0,1.84l10.306,10.306a1.3,1.3,0,0,0,1.84,0l3.868-3.868Zm0,0" transform="translate(-68.229 -220.704)" fill="#1b3b6b"/>
    <path id="Caminho_1982" data-name="Caminho 1982" d="M284.941,144.189a3.97,3.97,0,1,1,2.807-1.163A3.944,3.944,0,0,1,284.941,144.189Zm0,0" transform="translate(-257.108 -124.899)" fill="#06ccab"/>
    <path id="Caminho_1983" data-name="Caminho 1983" d="M270.944,131.461a5.242,5.242,0,1,1,3.707-1.535A5.207,5.207,0,0,1,270.944,131.461Zm0-7.882a2.64,2.64,0,1,0,1.867.773,2.623,2.623,0,0,0-1.867-.773Zm0,0" transform="translate(-243.111 -110.897)" fill="#1b3b6b"/>
    <path id="Caminho_1984" data-name="Caminho 1984" d="M382.378.382A1.3,1.3,0,0,0,381.441,0a42.492,42.492,0,0,0-10.472,1.76L381,11.791a42.491,42.491,0,0,0,1.759-10.472,1.3,1.3,0,0,0-.381-.937Zm0,0" transform="translate(-339.607 0)" fill="#ff5b5b"/>
    <path id="Caminho_1985" data-name="Caminho 1985" d="M128.8,79.766,124.6,75.559,96.211,103.944a1.3,1.3,0,0,0,.92.381h.016a39.718,39.718,0,0,0,6.928-.87,42.519,42.519,0,0,0,6.5-1.886,32.219,32.219,0,0,0,8.447-4.693,26.341,26.341,0,0,0,2.344-2.077,31.881,31.881,0,0,0,7.766-13.744,1.3,1.3,0,0,0-.327-1.289Zm0,0" transform="translate(-87.738 -69.264)" fill="#cdebfc"/>
    <path id="Caminho_1986" data-name="Caminho 1986" d="M54.825,352.2l-3.152-3.152L41.515,359.2h0a1.3,1.3,0,0,0,.92.381h.016c.287,0,7.084-.14,11.47-4.526a12.635,12.635,0,0,0,1.007-1.138,1.3,1.3,0,0,0-.1-1.723Zm0,0" transform="translate(-37.598 -319.969)" fill="#fdbf00"/>
    <path id="Caminho_1987" data-name="Caminho 1987" d="M146.151,313.664l-4.788,4.788,5.153,5.153a1.3,1.3,0,0,0,1.84,0l3.868-3.868Zm0,0" transform="translate(-129.128 -287.533)" fill="#001035"/>
    <path id="Caminho_1988" data-name="Caminho 1988" d="M300.52,150.207h0l-5.614,5.614h0a3.969,3.969,0,1,0,5.614-5.614Zm0,0" transform="translate(-269.881 -137.693)" fill="#1cadb5"/>
    <path id="Caminho_1989" data-name="Caminho 1989" d="M291.515,139.406l-1.84,1.84a2.64,2.64,0,1,1-3.733,3.733h0l-1.84,1.84h0a5.242,5.242,0,0,0,7.414-7.414Zm0,0" transform="translate(-259.976 -127.792)" fill="#001035"/>
    <path id="Caminho_1990" data-name="Caminho 1990" d="M437.566,4.574l-6.394,6.394,5.015,5.015a42.5,42.5,0,0,0,1.76-10.472,1.3,1.3,0,0,0-.381-.937Zm0,0" transform="translate(-394.794 -4.192)" fill="#ff193d"/>
  </g>
</svg>
