<svg xmlns="http://www.w3.org/2000/svg" width="147.983" height="141.507" viewBox="0 0 147.983 141.507">
  <g id="foguete" transform="translate(-704.53 -558.452)">
    <path id="Caminho_1541" data-name="Caminho 1541" d="M1719.807,682.779h-23.243v-.117h-2.834a45.835,45.835,0,0,0-3.321-10.272h6.165v-.041h9.171a5.088,5.088,0,0,0,5.091-5.088v-.093a5.088,5.088,0,0,0-5.091-5.088h-21.814a46.251,46.251,0,0,0-71.182,0h-10.621a5.088,5.088,0,0,0-5.088,5.088v.1a5.088,5.088,0,0,0,5.088,5.088h4.159a45.944,45.944,0,0,0-3.334,10.234h-16.813a5.087,5.087,0,0,0-5.091,5.108v.093a5.091,5.091,0,0,0,5.091,5.084H1596.6a5.178,5.178,0,0,1,5.088,5.177v.1a5.088,5.088,0,0,1-5.088,5.088h-6.234v.041h-7.656a5.084,5.084,0,0,0-5.084,5.088v.093a5.087,5.087,0,0,0,5.084,5.088h24.851a46.275,46.275,0,0,0,81.505,0h14.559a5.091,5.091,0,0,0,5.091-5.088v-.1a5.091,5.091,0,0,0-5.091-5.088h-1.608a5.07,5.07,0,0,1-4.729-5.05v-.1a5.088,5.088,0,0,1,5.088-5.088h17.413a5.088,5.088,0,0,0,5.088-5.088v-.093a5.088,5.088,0,0,0-5.074-5.077Z" transform="translate(-873.099 -58.495)" fill="#eaf4fe"/>
    <path id="Caminho_1542" data-name="Caminho 1542" d="M1914.552,847.735a.632.632,0,0,1-.632-.632v-5.3a.632.632,0,1,1,1.263,0v5.3a.632.632,0,0,1-.632.632Z" transform="translate(-1093.317 -186.716)" fill="#c1c1c1"/>
    <path id="Caminho_1543" data-name="Caminho 1543" d="M1912.651,850.113h-5.05a.632.632,0,1,1,0-1.263h5.05a.632.632,0,1,1,0,1.263Z" transform="translate(-1088.766 -191.745)" fill="#c1c1c1"/>
    <path id="Caminho_1544" data-name="Caminho 1544" d="M1837.022,623.663a.632.632,0,0,1-.632-.632v-5.05a.632.632,0,0,1,1.263,0v5.05a.632.632,0,0,1-.632.632Z" transform="translate(-1042.547 -40.149)" fill="#fe9595"/>
    <path id="Caminho_1545" data-name="Caminho 1545" d="M1835.121,625.6h-5.049a.632.632,0,1,1,0-1.263h5.05a.632.632,0,0,1,0,1.263Z" transform="translate(-1037.996 -44.726)" fill="#fe9595"/>
    <path id="Caminho_1546" data-name="Caminho 1546" d="M1942.307,721.307a.511.511,0,0,1-.5-.418c-.587-3.193-.936-3.541-4.142-4.142a.511.511,0,0,1,0-1c3.193-.587,3.541-.935,4.142-4.142a.511.511,0,0,1,1,0c.587,3.193.935,3.541,4.142,4.142a.507.507,0,0,1,0,1c-3.193.587-3.541.935-4.142,4.142a.511.511,0,0,1-.5.418Zm-2.378-5.046a2.378,2.378,0,1,0,2.378-2.378A2.378,2.378,0,0,0,1939.929,716.261Z" transform="translate(-1108.599 -101.604)" fill="#fe9595"/>
    <path id="Caminho_1547" data-name="Caminho 1547" d="M1596.131,713.428a1.56,1.56,0,0,1-.728.266,1.522,1.522,0,0,1-1.381-.635l-5.44-7.649a1.529,1.529,0,0,1,1.1-2.416l9.347-.887a1.526,1.526,0,0,1,1.532,2.154l-3.9,8.536h0A1.536,1.536,0,0,1,1596.131,713.428ZM1596.183,712.6Zm-6.658-8.491a.511.511,0,0,0-.124.714l5.443,7.649a.487.487,0,0,0,.462.211.494.494,0,0,0,.414-.293l3.9-8.539a.507.507,0,0,0-.511-.718l-9.347.891A.465.465,0,0,0,1589.525,704.105Z" transform="translate(-880.083 -95.647)" fill="#fdc23f"/>
    <path id="Caminho_1548" data-name="Caminho 1548" d="M1590.006,575.1a.5.5,0,0,1-.487-.369c-.973-3.527-1.653-4.2-5.177-5.177a.5.5,0,0,1,0-.973c3.524-.973,4.2-1.65,5.177-5.177a.5.5,0,0,1,.973,0c.973,3.528,1.65,4.2,5.177,5.177a.5.5,0,0,1,0,.973c-3.527.973-4.2,1.65-5.177,5.177A.507.507,0,0,1,1590.006,575.1Zm-3.828-6.033a3.828,3.828,0,0,0,7.656,0,3.828,3.828,0,0,0-7.656-.01Z" transform="translate(-877.251 -4.577)" fill="#ced3e2"/>
    <path id="Caminho_1549" data-name="Caminho 1549" d="M1731.018,785.634l-9.664,10.555-9.513,10.386-4.111-6.089,11.552-19.7,2.247-3.835Z" transform="translate(-958.295 -144.662)" fill="#fff"/>
    <path id="Caminho_1550" data-name="Caminho 1550" d="M1742.012,772.92l10.942,10.01-11.218,12.25-.345-1.681a100.883,100.883,0,0,1-2.071-15.708v-.266Z" transform="translate(-978.981 -142.023)" fill="#d7dde6"/>
    <path id="Caminho_1551" data-name="Caminho 1551" d="M1714.5,815.121c-.09,1-.2,2-.345,2.989l-4.4,4.8-5.05-7.48,9.209-15.7q.231,1.381.4,2.806A61.534,61.534,0,0,1,1714.5,815.121Z" transform="translate(-956.317 -159.579)" fill="#d7dde6"/>
    <path id="Caminho_1552" data-name="Caminho 1552" d="M1719.345,772.92l-5.426,9.254-9.209,15.7,5.05,7.48,4.4-4.8,16.133-17.6Zm-9.357,29.594-3.175-4.7,7.528-12.833,5.422-9.271,8.028,7.352-13.288,14.5Z" transform="translate(-956.317 -142.023)" fill="#3a5c91"/>
    <path id="Caminho_1553" data-name="Caminho 1553" d="M1839.164,800.486l-4.111,6.089-9.713-10.61-9.461-10.331,9.481-8.684,2.019,3.441Z" transform="translate(-1029.116 -144.662)" fill="#fff"/>
    <path id="Caminho_1554" data-name="Caminho 1554" d="M1823.241,772.92,1812.3,782.93l11.214,12.25.345-1.681a100.482,100.482,0,0,0,2.071-15.708v-.266Z" transform="translate(-1026.772 -142.023)" fill="#d7dde6"/>
    <path id="Caminho_1555" data-name="Caminho 1555" d="M1867.232,815.323l-5.05,7.48-4.452-4.863c-.142-.987-.252-1.985-.345-2.986a61.385,61.385,0,0,1,.193-12.595c.114-.942.249-1.878.407-2.8Z" transform="translate(-1056.142 -159.468)" fill="#d7dde6"/>
    <path id="Caminho_1556" data-name="Caminho 1556" d="M1828.619,782.115l-5.378-9.2L1812.3,782.93l16.074,17.555,4.453,4.863,5.05-7.48Zm3.983,20.4-4.584-5-13.237-14.455,8.028-7.352,5.4,9.212,7.566,12.885Z" transform="translate(-1026.772 -142.023)" fill="#3a5c91"/>
    <path id="Caminho_1557" data-name="Caminho 1557" d="M1778.358,693.724c-.328,1.515-.69,3.02-1.084,4.487a90.658,90.658,0,0,1-2.785,8.777H1755a90.366,90.366,0,0,1-2.792-8.808q-.594-2.22-1.084-4.508c-5.346-24.817-1.964-53.993,11.57-74.689.666-.97,1.312-1.664,2.05-1.664s1.381.69,2.047,1.664C1780.336,639.7,1783.715,668.893,1778.358,693.724Z" transform="translate(-985.129 -40.129)" fill="#fff"/>
    <path id="Caminho_1558" data-name="Caminho 1558" d="M1797.145,619.014c-.663-.97-1.315-1.664-2.047-1.664h-.038v89.668h9.782a90.624,90.624,0,0,0,2.785-8.777c.4-1.477.756-2.982,1.084-4.487C1814.068,668.913,1810.689,639.72,1797.145,619.014Z" transform="translate(-1015.482 -40.149)" fill="#d4dbe3"/>
    <path id="Caminho_1559" data-name="Caminho 1559" d="M1773.376,706.212h-20.709l-.214-.573a91.605,91.605,0,0,1-2.823-8.891c-.393-1.481-.759-3.01-1.091-4.549-5.747-26.667-1.267-55.543,11.694-75.358.69-1.035,1.577-2.071,2.789-2.071s2.071,1.035,2.761,2.05c12.978,19.84,17.458,48.729,11.7,75.413-.345,1.546-.69,3.072-1.091,4.539a92.7,92.7,0,0,1-2.816,8.86Zm-19.484-1.767h18.259c.953-2.592,1.809-5.319,2.547-8.118.383-1.443.746-2.941,1.07-4.459h0c5.664-26.232,1.281-54.614-11.442-74.06-.746-1.094-1.139-1.263-1.3-1.263s-.6.224-1.319,1.281c-12.7,19.419-17.085,47.78-11.435,74.005.321,1.508.69,3.01,1.07,4.463C1752.077,699.1,1752.953,701.829,1753.892,704.445Z" transform="translate(-983.406 -38.46)" fill="#3a5c91"/>
    <path id="Caminho_1560" data-name="Caminho 1560" d="M1784.476,640.9c-4.9-1.753-8.525-2.737-11.956-2.854-3.728-.124-7.227.78-11.88,2.854a81.715,81.715,0,0,1,9.868-21.89c.666-.97,1.312-1.664,2.05-1.664s1.381.69,2.047,1.664c.269.411.535.825.794,1.243s.518.839.77,1.263c.193.321.383.645.569.97l.076.131c.083.142.162.286.245.431l.083.148c.169.3.345.6.5.9.228.421.452.846.69,1.27l.024.048q.345.663.673,1.336a.742.742,0,0,1,.045.09c.207.418.407.839.607,1.26s.418.9.621,1.35v.031c.166.373.345.749.494,1.125.038.083.072.166.107.252a89.7,89.7,0,0,1,3.576,10.044Z" transform="translate(-992.943 -40.149)" fill="#ffd599"/>
    <path id="Caminho_1561" data-name="Caminho 1561" d="M1807.016,640.884c-4.9-1.753-8.525-2.737-11.956-2.854V617.32h.038c.732,0,1.381.69,2.047,1.664q.4.616.794,1.243c.259.418.518.839.77,1.263.193.321.383.645.569.97l.076.131c.083.141.162.286.245.431l.083.148c.169.3.345.6.5.9.228.421.452.846.69,1.27l.024.048q.345.663.673,1.336a.724.724,0,0,1,.045.09c.207.418.407.839.607,1.26s.418.9.621,1.35v.031c.166.373.345.749.494,1.125.038.083.072.166.107.252A89.759,89.759,0,0,1,1807.016,640.884Z" transform="translate(-1015.482 -40.129)" fill="#dbb784"/>
    <path id="Caminho_1562" data-name="Caminho 1562" d="M1756.64,640.8l.531-1.833a83.108,83.108,0,0,1,9.979-22.125c.69-1.035,1.577-2.071,2.789-2.071s2.071,1.035,2.761,2.05a83.123,83.123,0,0,1,10.01,22.138l.483,1.664-1.629-.583c-9.833-3.517-14.314-3.98-23.181-.024Zm12.619-5.336c3.383,0,6.82.832,11.249,2.344a79.835,79.835,0,0,0-9.247-20c-.745-1.094-1.139-1.263-1.3-1.263s-.6.224-1.318,1.281a79.61,79.61,0,0,0-9.205,19.836A25.421,25.421,0,0,1,1769.259,635.462Z" transform="translate(-990.323 -38.46)" fill="#3a5c91"/>
    <path id="Caminho_1563" data-name="Caminho 1563" d="M1844.561,833.108a.884.884,0,0,1-.908.856,20.937,20.937,0,0,0-21.565,20.471v.863h-.9a20.73,20.73,0,0,0-12.871,4.446,2.654,2.654,0,0,1-2.761.321,2.623,2.623,0,0,1-1.519-2.3c-.021-.576-.024-2.565-.024-4.673,0-1.878,0-3.945-.021-5.129h-5.405c-.065,2.164-.09,6.254-.11,9.63,0,1.971-.024,3.672-.038,4.6a2.957,2.957,0,0,1-1.108,2.264,2.864,2.864,0,0,1-2.375.583,11.732,11.732,0,0,0-8.336,1.788,2.274,2.274,0,0,1-1.36.445,2.378,2.378,0,0,1-2.337-1.971v-.1l-.49-8.177h-22.27a.884.884,0,0,1-.884-.884.761.761,0,0,1,0-.18.884.884,0,0,1,.866-.69h23.816l.155.69.066,1.063.483,8.008a.6.6,0,0,0,.366.425.535.535,0,0,0,.539-.062,13.463,13.463,0,0,1,9.727-2.088,1.118,1.118,0,0,0,.918-.231,1.2,1.2,0,0,0,.449-.915c0-.922.028-2.623.038-4.591.024-3.9.052-8.75.141-10.545l.041-.839h8.8l.041.839c.034.69.038,3.42.041,6.058,0,2.092,0,4.069.021,4.615a.856.856,0,0,0,.5.756.891.891,0,0,0,.946-.11,22.479,22.479,0,0,1,13.116-4.794A22.7,22.7,0,0,1,1843.7,832.21.88.88,0,0,1,1844.561,833.108Z" transform="translate(-992.048 -180.842)" fill="#cdd3db"/>
    <path id="Caminho_1564" data-name="Caminho 1564" d="M1669.359,856.13a.884.884,0,0,1-.884.884H1646.2l-.5,8.284a2.377,2.377,0,0,1-2.337,1.971,2.292,2.292,0,0,1-1.381-.445,11.719,11.719,0,0,0-8.332-1.788,2.868,2.868,0,0,1-2.375-.583,2.958,2.958,0,0,1-1.108-2.264c0-.932-.027-2.634-.038-4.6-.021-3.376-.045-7.466-.11-9.63h-5.405c-.017,1.18-.021,3.244-.021,5.122,0,2.112,0,4.1-.024,4.68a2.623,2.623,0,0,1-1.519,2.3,2.661,2.661,0,0,1-2.778-.321,20.747,20.747,0,0,0-12.878-4.432h-.866l-.028-.863a20.937,20.937,0,0,0-21.565-20.471.884.884,0,1,1-.052-1.767,22.7,22.7,0,0,1,23.346,21.351,22.46,22.46,0,0,1,13.116,4.791.89.89,0,0,0,.946.11.859.859,0,0,0,.5-.756c0-.545.021-2.527.021-4.625,0-2.634,0-5.353.042-6.047l.038-.839h8.808l.041.839c.086,1.795.117,6.644.142,10.545,0,1.967.024,3.669.038,4.591a1.2,1.2,0,0,0,.449.915,1.122,1.122,0,0,0,.918.231,13.47,13.47,0,0,1,9.727,2.088.535.535,0,0,0,.538.062.611.611,0,0,0,.366-.425l.483-8.008.062-1.015v-.048l.148-.69h23.816a.884.884,0,0,1,.932.859Z" transform="translate(-877.287 -180.835)" fill="#cdd3db"/>
    <path id="Caminho_1565" data-name="Caminho 1565" d="M1655.388,938.579a.877.877,0,0,1-.87-.739,8.36,8.36,0,0,0-12.912-5.578.884.884,0,0,1-.987-1.467,10.13,10.13,0,0,1,15.643,6.758.884.884,0,0,1-.728,1.015Z" transform="translate(-914.092 -244.28)" fill="#cdd3db"/>
    <path id="Caminho_1566" data-name="Caminho 1566" d="M1605.558,868.766h0a.884.884,0,0,1-.877-.894,10.058,10.058,0,0,0-9.958-10.175.884.884,0,0,1,0-1.767h0a11.832,11.832,0,0,1,11.7,11.963A.88.88,0,0,1,1605.558,868.766Z" transform="translate(-883.715 -196.382)" fill="#cdd3db"/>
    <path id="Caminho_1567" data-name="Caminho 1567" d="M1828.845,953.5a1.057,1.057,0,0,1-.148,0,.887.887,0,0,1-.725-1.035,11.1,11.1,0,0,1,17.513-7.09.884.884,0,1,1-1.036,1.422,9.319,9.319,0,0,0-14.721,5.961A.884.884,0,0,1,1828.845,953.5Z" transform="translate(-1037.025 -253.539)" fill="#cdd3db"/>
    <path id="Caminho_1568" data-name="Caminho 1568" d="M1898.047,937.821a.891.891,0,0,1-.87-.735,11.066,11.066,0,0,1,17.175-10.983.884.884,0,1,1-1,1.456,9.3,9.3,0,0,0-14.431,9.226.883.883,0,0,1-.721,1.036A1.146,1.146,0,0,1,1898.047,937.821Z" transform="translate(-1082.248 -241.061)" fill="#cdd3db"/>
    <path id="Caminho_1569" data-name="Caminho 1569" d="M1946.857,927.158a.874.874,0,0,1-.577-.214.887.887,0,0,1-.09-1.249,8.245,8.245,0,0,1,2.437-1.909,7.984,7.984,0,0,1,5.485-.759,6.65,6.65,0,0,1,1.671.628,6.085,6.085,0,0,1,1.212.856.884.884,0,0,1-1.194,1.3,4.053,4.053,0,0,0-.856-.6,4.755,4.755,0,0,0-1.232-.463,6.189,6.189,0,0,0-4.266.6,6.451,6.451,0,0,0-1.919,1.5.887.887,0,0,1-.67.3Z" transform="translate(-1114.308 -240.197)" fill="#cdd3db"/>
    <path id="Caminho_1570" data-name="Caminho 1570" d="M1694.455,799.59c-3.7-12.008-3.055-28.234,2.813-39.151.245-.431.48-.739.749-.739s.508.307.749.739c5.868,10.917,6.517,27.143,2.813,39.151Z" transform="translate(-948.095 -133.366)" fill="#a4e4ff"/>
    <path id="Caminho_1571" data-name="Caminho 1571" d="M1700.558,798.8h-8.425l-.193-.625c-3.98-12.9-2.8-29.273,2.879-39.828.207-.369.69-1.2,1.526-1.2s1.318.835,1.519,1.191c5.681,10.569,6.865,26.946,2.889,39.841Zm-7.117-1.767h5.809c3.614-12.357,2.444-27.789-2.906-37.791C1690.994,769.227,1689.82,784.666,1693.441,797.03Z" transform="translate(-946.422 -131.69)" fill="#3a5c91"/>
    <path id="Caminho_1572" data-name="Caminho 1572" d="M1873.406,799.59c3.7-12.008,3.058-28.234-2.813-39.151-.242-.431-.476-.739-.746-.739s-.507.307-.749.739c-5.868,10.917-6.516,27.143-2.813,39.151Z" transform="translate(-1060.617 -133.366)" fill="#a4e4ff"/>
    <path id="Caminho_1573" data-name="Caminho 1573" d="M1872.383,798.8h-8.425l-.193-.625c-3.976-12.9-2.792-29.276,2.879-39.828.207-.369.69-1.2,1.529-1.2s1.318.835,1.519,1.191c5.678,10.565,6.862,26.946,2.885,39.841Zm-7.117-1.767h5.809c3.617-12.36,2.447-27.789-2.9-37.791C1862.822,769.227,1861.648,784.666,1865.266,797.03Z" transform="translate(-1058.942 -131.69)" fill="#3a5c91"/>
    <path id="Caminho_1574" data-name="Caminho 1574" d="M1784.862,885.565H1761.75l1.791-8.425h19.488Z" transform="translate(-993.669 -210.271)" fill="#a4e4ff"/>
    <path id="Caminho_1575" data-name="Caminho 1575" d="M1783.678,883.706l-.155-.69-1.833-8.425h-20.913l-1.791,8.425-.148.69v.048l-.217,1.015h25.3Zm-22.887-.69,1.412-6.661h18.059l1.45,6.658Z" transform="translate(-991.62 -208.601)" fill="#3a5c91"/>
    <path id="Caminho_1576" data-name="Caminho 1576" d="M1789.583,708a6.171,6.171,0,1,1-6.172-6.171A6.171,6.171,0,0,1,1789.583,708Z" transform="translate(-1003.813 -95.47)" fill="#a4e4ff"/>
    <path id="Caminho_1577" data-name="Caminho 1577" d="M1787.1,701.9l-.286.314-.6.659-7.065,7.787-.6.659-.559.614-.345-.321a7.214,7.214,0,0,1-.9-1.4l.646-.711.669-.742,6.158-6.782.669-.742.649-.714a.934.934,0,0,1,.086.038Z" transform="translate(-1003.492 -94.612)" fill="#fff"/>
    <path id="Caminho_1578" data-name="Caminho 1578" d="M1792.53,707.332l-1.036,1.122-6.8,7.5-1.225,1.35a4.421,4.421,0,0,1-.438-.273l-.345-.314,1.153-1.274,7.062-7.787.884-.973Z" transform="translate(-1007.382 -98.646)" fill="#fff"/>
    <path id="Caminho_1579" data-name="Caminho 1579" d="M1784.271,699.732a.918.918,0,0,0-.086-.038,7.073,7.073,0,0,0-8.805,9.692,7.209,7.209,0,0,0,.9,1.4,6.94,6.94,0,0,0,1.519,1.381,4.438,4.438,0,0,0,.438.273,6.966,6.966,0,0,0,3.493.928,7.052,7.052,0,0,0,2.526-13.637Zm-2.526,11.863a5.176,5.176,0,0,1-2.268-.511,5.343,5.343,0,0,1-.856-.511,5.549,5.549,0,0,1-.818-.742,5.269,5.269,0,0,1-1.094-1.905,5.18,5.18,0,0,1-.252-1.615,5.3,5.3,0,0,1,5.288-5.291,5.032,5.032,0,0,1,1.122.124,5.286,5.286,0,0,1-1.122,10.451Z" transform="translate(-1002.143 -93.786)" fill="#3a5c91"/>
    <path id="Caminho_1580" data-name="Caminho 1580" d="M1868.6,801.011h2.917V763.22C1866.156,773.209,1864.982,788.648,1868.6,801.011Z" transform="translate(-1062.276 -135.671)" fill="#ccf0ff"/>
    <path id="Caminho_1581" data-name="Caminho 1581" d="M1696.776,801.011h2.9V763.22C1694.329,773.209,1693.159,788.648,1696.776,801.011Z" transform="translate(-949.757 -135.671)" fill="#ccf0ff"/>
    <path id="Caminho_1582" data-name="Caminho 1582" d="M1912.031,627.686h-20.14a5.311,5.311,0,1,1,0-10.61,5.831,5.831,0,0,1,1.874.307,7.987,7.987,0,0,1,8.163-7.424,8.2,8.2,0,0,1,7.3,4.27,7.03,7.03,0,0,1,2.8-.583h.059a7.021,7.021,0,0,1-.059,14.041Zm-.041-1.767h.066a5.26,5.26,0,0,0,5.219-5.54,5.326,5.326,0,0,0-5.2-4.967h-.045a5.257,5.257,0,0,0-2.52.642,1.174,1.174,0,0,1-.939.079,1.2,1.2,0,0,1-.69-.656,6.393,6.393,0,0,0-5.94-3.752,6.215,6.215,0,0,0-6.406,5.989q0,.238.021.476a1.173,1.173,0,0,1-1.726,1.136,4.015,4.015,0,0,0-1.923-.483,3.547,3.547,0,1,0,0,7.076ZM1894.659,617.777Z" transform="translate(-1075.243 -35.309)" fill="#cdd3db"/>
    <path id="Caminho_1583" data-name="Caminho 1583" d="M1647.026,650.8H1626.9a7.02,7.02,0,1,1,2.792-13.461,8.246,8.246,0,0,1,7.3-4.27,8,8,0,0,1,8.163,7.421,5.868,5.868,0,0,1,1.874-.3,5.313,5.313,0,1,1,0,10.614Zm-20.14-12.274a5.253,5.253,0,0,0,0,10.507h20.14a3.547,3.547,0,1,0,0-7.076,3.958,3.958,0,0,0-2.337.745l-1.774,1.287.386-2.161a5.457,5.457,0,0,0,.09-1,6.215,6.215,0,0,0-6.4-5.992,6.4,6.4,0,0,0-6.051,4.025l-.373,1.011-.918-.566A5.23,5.23,0,0,0,1626.886,638.526Z" transform="translate(-900.763 -50.443)" fill="#cdd3db"/>
  </g>
</svg>
