<svg id="Layer_1" data-name="Layer 1" xmlns="http://www.w3.org/2000/svg" viewBox="0 0 2647.67 2118.05"><defs><style>.cls-1{fill:#e0e5e9;}.cls-2{fill:#c2b9d6;}.cls-3{fill:#9f95b7;}.cls-4{fill:#d5cfe5;}.cls-5{fill:#afa7c6;}.cls-6{fill:#8d83aa;}.cls-7{fill:#6a6675;}.cls-8{fill:none;}.cls-9{fill:#f2f3f4;}.cls-10{fill:#c7d1d8;}.cls-11{fill:#f46262;}.cls-12{fill:#ff9292;}.cls-13{fill:#e24242;}.cls-14{fill:#9b9b9b;}.cls-15{fill:#bfbfbf;}.cls-16{fill:#7a7a7a;}</style></defs><path class="cls-1" d="M2927,3861.14c0,.22,0,.42,0,.64s0,.42,0,.63Z" transform="translate(-427.56 -3044.6)"/><path class="cls-1" d="M3043.46,4242.31c0,.22,0,.42,0,.64s0,.42,0,.63Z" transform="translate(-427.56 -3044.6)"/><path class="cls-1" d="M2980.41,3383.86H2407.3c-383.65-288.17-930.72-257.71-1279.82,91.39C983.68,3619,894,3796.43,858.28,3982.16l-110.68,1.69a95.3,95.3,0,0,0-94.16,96.42h0a95.28,95.28,0,0,0,96.42,94.15l35.45-.79,65.37-1.47a95.31,95.31,0,0,1,96.42,94.16h0a95.31,95.31,0,0,1-94.16,96.42l-65.38.9-265.84,3.68a95.29,95.29,0,0,0-94.16,96.41h0A95.3,95.3,0,0,0,524,4557.89l265.85-3.49,255.94-3.35a95.29,95.29,0,0,1,96.42,94.15h0a95.3,95.3,0,0,1-94.16,96.42l-166.32,3.58a95.19,95.19,0,0,0-94.15,96.41h0A95.29,95.29,0,0,0,884,4935.77l321.62-5.22c384.61,310.59,949.54,287.19,1307-70.23,148.09-148.08,238.82-331.79,272.24-523.53h160.32c52.42,0,98-41.51,98.34-93.84-.37-52.36-45.92-96.75-98.34-96.75H2750.85c-52.42,0-98.75-41.51-99.13-93.84.38-52.35,46.71-96.74,99.13-96.74h81.32a97.2,97.2,0,0,0,20.71-2.25,94,94,0,0,0,74.1-91.59c-.29-45.24-31.74-84.51-74.1-94.36a91.76,91.76,0,0,0-20.71-2.39h-271.9c-52.42,0-98.76-41.51-99.13-93.84.37-52.35,46.71-96.74,99.13-96.74h420.14c52.41,0,94.46-41.51,94.8-93.84C3074.87,3428.25,3032.82,3383.86,2980.41,3383.86Z" transform="translate(-427.56 -3044.6)"/><path class="cls-1" d="M3075.23,3480c0,.21,0,.41,0,.63s0,.42,0,.63Z" transform="translate(-427.56 -3044.6)"/><path d="M1762.78,5099.13H1635.72a10.59,10.59,0,1,1,0-21.18h127.06a10.59,10.59,0,0,1,0,21.18Z" transform="translate(-427.56 -3044.6)"/><path d="M1572.19,5099.13H1339.26a10.59,10.59,0,1,1,0-21.18h232.93a10.59,10.59,0,0,1,0,21.18Z" transform="translate(-427.56 -3044.6)"/><path d="M958.09,4241.49H873.38a10.59,10.59,0,1,1,0-21.17h84.71a10.59,10.59,0,1,1,0,21.17Z" transform="translate(-427.56 -3044.6)"/><path d="M809.85,4241.49H576.92a10.59,10.59,0,1,1,0-21.17H809.85a10.59,10.59,0,1,1,0,21.17Z" transform="translate(-427.56 -3044.6)"/><path d="M862.79,4178H693.39a10.59,10.59,0,1,1,0-21.17h169.4a10.59,10.59,0,1,1,0,21.17Z" transform="translate(-427.56 -3044.6)"/><path d="M2048.66,5162.65H1529.84a10.59,10.59,0,1,1,0-21.17h518.82a10.59,10.59,0,0,1,0,21.17Z" transform="translate(-427.56 -3044.6)"/><path d="M1445.14,5162.65h-42.35a10.59,10.59,0,1,1,0-21.17h42.35a10.59,10.59,0,1,1,0,21.17Z" transform="translate(-427.56 -3044.6)"/><path d="M2122.77,3161.51H2091a10.59,10.59,0,1,1,0-21.17h31.76a10.59,10.59,0,1,1,0,21.17Z" transform="translate(-427.56 -3044.6)"/><path d="M1964,3161.51h-31.76a10.59,10.59,0,1,1,0-21.17H1964a10.59,10.59,0,1,1,0,21.17Z" transform="translate(-427.56 -3044.6)"/><path d="M2072.4,3116.15a10.6,10.6,0,0,1-7.48-18.08l22.45-22.46a10.59,10.59,0,0,1,15,15L2079.89,3113A10.56,10.56,0,0,1,2072.4,3116.15Z" transform="translate(-427.56 -3044.6)"/><path d="M1960.1,3228.45a10.59,10.59,0,0,1-7.49-18.08l22.46-22.45a10.59,10.59,0,1,1,15,15l-22.46,22.46A10.6,10.6,0,0,1,1960.1,3228.45Z" transform="translate(-427.56 -3044.6)"/><path d="M2027,3097.54a10.59,10.59,0,0,1-10.59-10.59v-31.76a10.59,10.59,0,1,1,21.18,0V3087A10.59,10.59,0,0,1,2027,3097.54Z" transform="translate(-427.56 -3044.6)"/><path d="M2027,3256.36a10.59,10.59,0,0,1-10.59-10.59V3214a10.59,10.59,0,0,1,21.18,0v31.76A10.59,10.59,0,0,1,2027,3256.36Z" transform="translate(-427.56 -3044.6)"/><path d="M1982.56,3116.15a10.56,10.56,0,0,1-7.49-3.11l-22.46-22.45a10.59,10.59,0,0,1,15-15l22.46,22.46a10.6,10.6,0,0,1-7.49,18.08Z" transform="translate(-427.56 -3044.6)"/><path d="M2094.86,3228.45a10.6,10.6,0,0,1-7.49-3.1l-22.45-22.46a10.59,10.59,0,1,1,15-15l22.46,22.45a10.59,10.59,0,0,1-7.49,18.08Z" transform="translate(-427.56 -3044.6)"/><path d="M2980.41,4379.14h-31.77a10.59,10.59,0,1,1,0-21.18h31.77a10.59,10.59,0,0,1,0,21.18Z" transform="translate(-427.56 -3044.6)"/><path d="M2821.58,4379.14h-31.76a10.59,10.59,0,0,1,0-21.18h31.76a10.59,10.59,0,0,1,0,21.18Z" transform="translate(-427.56 -3044.6)"/><path d="M2930,4333.77a10.59,10.59,0,0,1-7.48-18.07l22.46-22.46a10.59,10.59,0,0,1,15,15l-22.46,22.46A10.55,10.55,0,0,1,2930,4333.77Z" transform="translate(-427.56 -3044.6)"/><path d="M2817.73,4446.08a10.59,10.59,0,0,1-7.48-18.07l22.46-22.47a10.59,10.59,0,1,1,15,15L2825.22,4443A10.54,10.54,0,0,1,2817.73,4446.08Z" transform="translate(-427.56 -3044.6)"/><path d="M2884.64,4315.17a10.59,10.59,0,0,1-10.59-10.59v-31.77a10.59,10.59,0,0,1,21.18,0v31.77A10.59,10.59,0,0,1,2884.64,4315.17Z" transform="translate(-427.56 -3044.6)"/><path d="M2884.64,4474a10.59,10.59,0,0,1-10.59-10.59v-31.77a10.59,10.59,0,0,1,21.18,0v31.77A10.59,10.59,0,0,1,2884.64,4474Z" transform="translate(-427.56 -3044.6)"/><path d="M2840.19,4333.77a10.51,10.51,0,0,1-7.48-3.1l-22.46-22.46a10.59,10.59,0,0,1,15-15l22.46,22.46a10.59,10.59,0,0,1-7.49,18.07Z" transform="translate(-427.56 -3044.6)"/><path d="M2952.49,4446.08a10.51,10.51,0,0,1-7.48-3.1l-22.46-22.47a10.59,10.59,0,1,1,15-15L2960,4428a10.59,10.59,0,0,1-7.49,18.07Z" transform="translate(-427.56 -3044.6)"/><path d="M2758.06,3930.47a10.57,10.57,0,0,1-9.29-5.51l-13-23.68a63.46,63.46,0,0,0-25.33-25.33l-23.68-13a10.59,10.59,0,0,1,0-18.58l23.68-12.95a63.5,63.5,0,0,0,25.33-25.32l13-23.7c3.71-6.79,14.86-6.79,18.58,0l13,23.69a63.52,63.52,0,0,0,25.33,25.33l23.68,12.95a10.59,10.59,0,0,1,0,18.58l-23.68,13a63.56,63.56,0,0,0-25.33,25.32l-13,23.69A10.59,10.59,0,0,1,2758.06,3930.47ZM2714,3853.7l6.7,3.67a84.62,84.62,0,0,1,33.74,33.75l3.67,6.7,3.66-6.71a84.62,84.62,0,0,1,33.75-33.74l6.7-3.67-6.7-3.66a84.58,84.58,0,0,1-33.75-33.75l-3.66-6.7-3.67,6.71a84.66,84.66,0,0,1-33.74,33.74h0Z" transform="translate(-427.56 -3044.6)"/><path d="M941.32,4660.16h0a10.59,10.59,0,0,1-9.29-5.51L919.08,4631a63.8,63.8,0,0,0-25.33-25.34l-23.69-12.95a10.59,10.59,0,0,1,0-18.58l23.69-13a63.6,63.6,0,0,0,25.32-25.32L932,4512.14c3.71-6.8,14.87-6.8,18.58,0l13,23.69a63.65,63.65,0,0,0,25.33,25.33l23.67,12.94a10.59,10.59,0,0,1,0,18.58l-23.68,12.95A63.74,63.74,0,0,0,963.57,4631l-13,23.69A10.6,10.6,0,0,1,941.32,4660.16Zm-44.1-76.77,6.7,3.67a84.81,84.81,0,0,1,33.74,33.75l3.66,6.69,3.67-6.7a84.85,84.85,0,0,1,33.74-33.74l6.7-3.67-6.69-3.65A84.8,84.8,0,0,1,945,4546l-3.67-6.7-3.66,6.7a84.75,84.75,0,0,1-33.74,33.75h0Z" transform="translate(-427.56 -3044.6)"/><path d="M2652.18,4961.48H2631a10.59,10.59,0,0,1,0-21.18h21.18a10.59,10.59,0,0,1,0,21.18Z" transform="translate(-427.56 -3044.6)"/><path d="M2546.3,4961.48h-21.18a10.59,10.59,0,1,1,0-21.18h21.18a10.59,10.59,0,0,1,0,21.18Z" transform="translate(-427.56 -3044.6)"/><path d="M2588.18,4918.69a10.59,10.59,0,0,1-10.59-10.59v-21.18a10.59,10.59,0,0,1,21.18,0v21.18A10.59,10.59,0,0,1,2588.18,4918.69Z" transform="translate(-427.56 -3044.6)"/><path d="M2588.18,5024.57a10.59,10.59,0,0,1-10.59-10.59V4992.8a10.59,10.59,0,0,1,21.18,0V5014A10.59,10.59,0,0,1,2588.18,5024.57Z" transform="translate(-427.56 -3044.6)"/><path d="M958.09,3553.27H936.91a10.59,10.59,0,1,1,0-21.18h21.18a10.59,10.59,0,1,1,0,21.18Z" transform="translate(-427.56 -3044.6)"/><path d="M852.21,3553.27H831a10.59,10.59,0,1,1,0-21.18h21.18a10.59,10.59,0,0,1,0,21.18Z" transform="translate(-427.56 -3044.6)"/><path d="M894.09,3510.47a10.59,10.59,0,0,1-10.59-10.58v-21.18a10.59,10.59,0,1,1,21.18,0v21.18A10.59,10.59,0,0,1,894.09,3510.47Z" transform="translate(-427.56 -3044.6)"/><path d="M894.09,3616.35a10.59,10.59,0,0,1-10.59-10.58v-21.18a10.59,10.59,0,1,1,21.18,0v21.18A10.59,10.59,0,0,1,894.09,3616.35Z" transform="translate(-427.56 -3044.6)"/><path d="M2789.82,3330.92H2683.94a10.59,10.59,0,0,1,0-21.18h105.88a10.59,10.59,0,0,1,0,21.18Z" transform="translate(-427.56 -3044.6)"/><path d="M2652.18,3405H2313.36a10.59,10.59,0,0,1,0-21.18h338.82a10.59,10.59,0,0,1,0,21.18Z" transform="translate(-427.56 -3044.6)"/><path d="M2440.41,3479.15h-84.7a10.59,10.59,0,1,1,0-21.17h84.7a10.59,10.59,0,1,1,0,21.17Z" transform="translate(-427.56 -3044.6)"/><path d="M2715.7,3479.15H2525.12a10.59,10.59,0,1,1,0-21.17H2715.7a10.59,10.59,0,1,1,0,21.17Z" transform="translate(-427.56 -3044.6)"/><path d="M1635.72,3267.39H1085.14a10.59,10.59,0,0,1,0-21.17h550.58a10.59,10.59,0,1,1,0,21.17Z" transform="translate(-427.56 -3044.6)"/><path d="M1529.84,3193.28H1339.26a10.59,10.59,0,1,1,0-21.18h190.58a10.59,10.59,0,0,1,0,21.18Z" transform="translate(-427.56 -3044.6)"/><path d="M1233.38,3193.28h-63.53a10.59,10.59,0,1,1,0-21.18h63.53a10.59,10.59,0,0,1,0,21.18Z" transform="translate(-427.56 -3044.6)"/><rect class="cls-2" x="676.62" y="545.46" width="1077.34" height="762.13" rx="58.18"/><path class="cls-3" d="M1104.17,3781.48v-88.76c0-56.47,46.2-102.66,102.67-102.66h872c56.47,0,102.66,46.19,102.66,102.66v88.76Z" transform="translate(-427.56 -3044.6)"/><path class="cls-4" d="M1169.38,4249.53V3786.21h-63.53v463.32c0,56.46,49.82,97.84,106.28,97.84h63.53C1219.2,4347.37,1169.38,4306,1169.38,4249.53Z" transform="translate(-427.56 -3044.6)"/><path class="cls-2" d="M1169.38,3692.72c0-56.47,49.82-97.1,106.28-97.1h-63.53c-56.46,0-106.28,40.63-106.28,97.1v93.49h63.53Z" transform="translate(-427.56 -3044.6)"/><path class="cls-5" d="M2080,4249.53c0,56.46-45.22,97.84-101.68,97.84h105.88c56.46,0,101.68-41.38,101.68-97.84V3786.21H2080Z" transform="translate(-427.56 -3044.6)"/><path class="cls-6" d="M2084.15,3595.62H1978.27c56.46,0,101.68,40.63,101.68,97.1v93.49h105.88v-93.49C2185.83,3636.25,2140.61,3595.62,2084.15,3595.62Z" transform="translate(-427.56 -3044.6)"/><path class="cls-7" d="M2078.85,4373.36h-872A124,124,0,0,1,1083,4249.53V4108.7a21.18,21.18,0,1,1,42.35,0v140.83a81.57,81.57,0,0,0,81.48,81.48h872a81.57,81.57,0,0,0,81.49-81.48V3692.72a81.58,81.58,0,0,0-81.49-81.49h-872a81.58,81.58,0,0,0-81.48,81.49v278.33a21.18,21.18,0,1,1-42.35,0V3692.72a124,124,0,0,1,123.83-123.84h872a124,124,0,0,1,123.84,123.84v556.81A124,124,0,0,1,2078.85,4373.36Z" transform="translate(-427.56 -3044.6)"/><line class="cls-8" x1="676.62" y1="995.27" x2="676.62" y2="995.28"/><path class="cls-7" d="M2175.71,3807.38H2006.3a21.18,21.18,0,0,1,0-42.35h169.41a21.18,21.18,0,1,1,0,42.35Z" transform="translate(-427.56 -3044.6)"/><path class="cls-7" d="M1942.78,3806.94a21.34,21.34,0,0,1-21.18-21.18,21.35,21.35,0,0,1,6.14-14.93c8-7.94,22.13-7.94,30-.11a21.24,21.24,0,0,1,6.25,15,21.34,21.34,0,0,1-21.17,21.18Z" transform="translate(-427.56 -3044.6)"/><path class="cls-7" d="M1879.25,3807.38H1116.91a21.18,21.18,0,1,1,0-42.35h762.34a21.18,21.18,0,0,1,0,42.35Z" transform="translate(-427.56 -3044.6)"/><circle class="cls-1" cx="1646.2" cy="4058.12" r="186.18" transform="translate(-2814.92 -691.96) rotate(-45)"/><path class="cls-9" d="M1513,4058.13c0-92,66.76-168.19,154.42-183.28a185.7,185.7,0,0,0-31.76-2.91c-102.83,0-186.19,83.36-186.19,186.19s83.36,186.18,186.19,186.18a185.7,185.7,0,0,0,31.76-2.91C1579.72,4226.31,1513,4150.1,1513,4058.13Z" transform="translate(-427.56 -3044.6)"/><path class="cls-10" d="M1656.79,3871.94a185.7,185.7,0,0,0-31.76,2.91c87.66,15.09,154.42,91.3,154.42,183.28S1712.69,4226.31,1625,4241.4a185.7,185.7,0,0,0,31.76,2.91c102.83,0,186.19-83.36,186.19-186.18S1759.62,3871.94,1656.79,3871.94Z" transform="translate(-427.56 -3044.6)"/><path class="cls-7" d="M1646.2,4265.48c-114.34,0-207.35-93-207.35-207.35s93-207.36,207.35-207.36,207.36,93,207.36,207.36S1760.54,4265.48,1646.2,4265.48Zm0-372.36c-91,0-165,74-165,165s74,165,165,165,165-74,165-165S1737.19,3893.12,1646.2,3893.12Z" transform="translate(-427.56 -3044.6)"/><circle class="cls-7" cx="785.68" cy="644.26" r="31.98"/><circle class="cls-7" cx="894.35" cy="644.26" r="31.98"/><circle class="cls-7" cx="1003.02" cy="644.26" r="31.98"/><path class="cls-7" d="M1645.84,4103.41a21.19,21.19,0,0,1-21.18-21.18V3976.35a21.18,21.18,0,0,1,42.36,0v105.88A21.19,21.19,0,0,1,1645.84,4103.41Z" transform="translate(-427.56 -3044.6)"/><path class="cls-7" d="M1646.31,4170.85a21.34,21.34,0,0,1-21.18-21.18,20.8,20.8,0,0,1,6.25-14.92c7.83-7.95,22-7.95,29.86,0a20.95,20.95,0,0,1,0,29.85A21,21,0,0,1,1646.31,4170.85Z" transform="translate(-427.56 -3044.6)"/><ellipse class="cls-11" cx="2031.69" cy="4444.2" rx="349.55" ry="268.19" transform="translate(-2975.01 -306.3) rotate(-45)"/><path class="cls-12" d="M1895,4254.56c69-69,153-109.59,232.71-119.49-99-13.08-216,28.63-306.82,119.49-136.51,136.51-162.27,332.08-57.53,436.81,51.83,51.84,125.93,71.66,204.1,62-49.75-6.58-95-26.93-130-62C1732.73,4586.64,1758.48,4391.07,1895,4254.56Z" transform="translate(-427.56 -3044.6)"/><path class="cls-13" d="M2257.69,4197c-51.84-51.84-125.94-71.66-204.11-62,49.75,6.57,95,26.93,130,62,104.74,104.73,79,300.3-57.53,436.81-68.95,68.94-153,109.59-232.71,119.49,99,13.08,216-28.64,306.83-119.49C2336.66,4497.33,2362.42,4301.76,2257.69,4197Z" transform="translate(-427.56 -3044.6)"/><path class="cls-14" d="M2312.81,4501.26c48.86-111.55,39.85-230.44-33.95-304.23-73.29-73.3-191.07-82.69-302-34.94-47.57,20.49-3.81,131.24,100.93,236S2292.32,4548,2312.81,4501.26Z" transform="translate(-427.56 -3044.6)"/><path class="cls-15" d="M2040.43,4162.09c36.21-15.59,73.13-25,109-28.14-51.61-4.84-107.59,4.74-162,28.14-47.57,20.49-3.81,131.23,100.93,236,92,92,187.75,138,223.62,116.22-45.89-13.82-109.08-54.62-170.68-116.22C2036.62,4293.32,1992.86,4182.58,2040.43,4162.09Z" transform="translate(-427.56 -3044.6)"/><path class="cls-16" d="M2268.28,4197c-49.37-49.37-118.93-69.63-193-63.08,53.69,5.05,89.5,19.44,126.86,56.81,73.8,73.79,48.2,226.83,18.53,299.11-2.36,5.76,73.07,30.65,81.51,11.39C2351.08,4389.71,2342.07,4270.82,2268.28,4197Z" transform="translate(-427.56 -3044.6)"/><path d="M1950.62,4776.62c-69.41,0-133.74-22.94-181.07-70.27-112.83-112.83-87-322.22,57.53-466.76s353.93-170.36,466.76-57.53,87,322.2-57.53,466.75h0C2152.41,4732.71,2046.66,4776.62,1950.62,4776.62Zm161.94-622.87c-84.82,0-179.72,40-255.54,115.78-128,128-153.83,310.55-57.53,406.87s278.84,70.49,406.87-57.53,153.84-310.56,57.53-406.87C2224.61,4172.72,2171,4153.75,2112.56,4153.75Z" transform="translate(-427.56 -3044.6)"/><path d="M2289.35,4525.56c-28.43,0-58.41-5.68-89.29-16.94a21.18,21.18,0,1,1,14.51-39.79c28.8,10.49,57.4,15.44,82.78,14.18a21.18,21.18,0,0,1,2,42.31C2296.06,4525.48,2292.71,4525.56,2289.35,4525.56Z" transform="translate(-427.56 -3044.6)"/><path d="M2153.25,4484.22a21.12,21.12,0,0,1-10.7-2.91,416,416,0,0,1-83.22-64.76c-72.27-72.27-113.86-165.76-108.53-244a21.18,21.18,0,0,1,42.26,2.89c-4.53,66.37,32.34,147.28,96.22,211.15a373.94,373.94,0,0,0,74.71,58.19,21.17,21.17,0,0,1-10.74,39.43Z" transform="translate(-427.56 -3044.6)"/><path d="M1923.53,4550a21.18,21.18,0,0,1-15-36.15l128.38-128.39a21.17,21.17,0,1,1,29.95,29.94L1938.5,4543.83A21.08,21.08,0,0,1,1923.53,4550Z" transform="translate(-427.56 -3044.6)"/><path d="M1857.35,4616.21a21.18,21.18,0,0,1-15-36.15l18.53-18.52a21.17,21.17,0,0,1,29.94,29.94L1872.33,4610A21.15,21.15,0,0,1,1857.35,4616.21Z" transform="translate(-427.56 -3044.6)"/><path d="M1774.9,4698.66a21.18,21.18,0,0,1-15-36.15l34.8-34.8a21.17,21.17,0,0,1,30,29.94l-34.8,34.81A21.15,21.15,0,0,1,1774.9,4698.66Z" transform="translate(-427.56 -3044.6)"/><path d="M2448.72,4773.52a21.09,21.09,0,0,1-15-6.2L2384.37,4718,2276,4720.14c-6.16-.13-11.33-2.12-15.4-6.21L2201.65,4655a21.18,21.18,0,0,1,30-30l52.52,52.54,108.41-2.19a20.94,20.94,0,0,1,15.4,6.2l55.76,55.76a21.17,21.17,0,0,1-15,36.14Z" transform="translate(-427.56 -3044.6)"/><path d="M2239.09,4953.21a21.15,21.15,0,0,1-15-6.2l-51.43-51.43a21.19,21.19,0,0,1-6.08-12.62L2158,4806l-61.15-61.16a21.17,21.17,0,1,1,29.95-29.94l66.39,66.4a21.24,21.24,0,0,1,6.07,12.61l8.62,76.94,46.19,46.19a21.18,21.18,0,0,1-15,36.15Z" transform="translate(-427.56 -3044.6)"/><path d="M2026,4991.53a20.79,20.79,0,0,1-5.64-.78,21.17,21.17,0,0,1-14.78-26l17-61.68-5.7-58.43-62.3-62.3a21.17,21.17,0,0,1,29.94-29.94L2052.2,4820a21.2,21.2,0,0,1,6.1,12.92l6.82,69.88a21.28,21.28,0,0,1-.66,7.7L2046.39,4976A21.19,21.19,0,0,1,2026,4991.53Z" transform="translate(-427.56 -3044.6)"/><path d="M2523.59,4294.37a21.08,21.08,0,0,1-15-6.21L2476.45,4256l-85.67-14.72-46.88,46.87a21.17,21.17,0,1,1-29.94-29.94l54.63-54.63a21.08,21.08,0,0,1,18.55-5.9l103.11,17.71a21.11,21.11,0,0,1,11.39,5.9l36.92,36.92a21.18,21.18,0,0,1-15,36.15Z" transform="translate(-427.56 -3044.6)"/><circle cx="2123.99" cy="1254.65" r="60.27"/><circle cx="1682.83" cy="1150.63" r="60.27"/><circle cx="1851.4" cy="1319.2" r="60.27"/><path d="M1834.8,4279.4a21.12,21.12,0,0,1-15-6.21l-62.12-62.13a21.12,21.12,0,0,1-6.2-15.39l2.18-108.41-46.16-46.16a21.18,21.18,0,1,1,30-29.95L1790,4063.7a21.12,21.12,0,0,1,6.2,15.39L1794,4187.5l55.75,55.75a21.18,21.18,0,0,1-15,36.15Z" transform="translate(-427.56 -3044.6)"/><path d="M1745,4384.21a21.13,21.13,0,0,1-15-6.2l-64.37-64.37-76.94-8.62a21.15,21.15,0,0,1-12.61-6.07l-48.22-48.22a21.17,21.17,0,1,1,29.94-29.95l43,43,76.94,8.61a21.17,21.17,0,0,1,12.61,6.08l69.62,69.61a21.18,21.18,0,0,1-15,36.15Z" transform="translate(-427.56 -3044.6)"/><path d="M1700,4519a21.08,21.08,0,0,1-15-6.21l-58-58-58.84-5.74L1504,4464.12a21.17,21.17,0,1,1-9.72-41.21l67.6-15.94a20.45,20.45,0,0,1,6.92-.46l69.89,6.82a21.18,21.18,0,0,1,12.91,6.1l63.39,63.4a21.18,21.18,0,0,1-15,36.15Z" transform="translate(-427.56 -3044.6)"/><path d="M2211,4174a21.17,21.17,0,0,1-15.15-36l46.16-47.29-4.82-74-28.06-28.06a21.18,21.18,0,0,1,30-30l33.7,33.7A21.2,21.2,0,0,1,2279,4006l6,91.36a21.17,21.17,0,0,1-6,16.16l-52.76,54A21.11,21.11,0,0,1,2211,4174Z" transform="translate(-427.56 -3044.6)"/><circle cx="1767.29" cy="897.94" r="60.27"/></svg>