<?xml version="1.0" encoding="UTF-8" standalone="no"?>
<svg
   xmlns:dc="http://purl.org/dc/elements/1.1/"
   xmlns:cc="http://creativecommons.org/ns#"
   xmlns:rdf="http://www.w3.org/1999/02/22-rdf-syntax-ns#"
   xmlns:svg="http://www.w3.org/2000/svg"
   xmlns="http://www.w3.org/2000/svg"
   id="svg3885"
   version="1.1"
   viewBox="0 0 956.661 518.848">
  <metadata
     id="metadata3889">
    <rdf:RDF>
      <cc:Work
         rdf:about="">
        <dc:format>image/svg+xml</dc:format>
        <dc:type
           rdf:resource="http://purl.org/dc/dcmitype/StillImage" />
        <dc:title></dc:title>
      </cc:Work>
    </rdf:RDF>
  </metadata>
  <defs
     id="defs3859" />
  <g
     transform="translate(-209.128 -502.152)"
     data-name="Grupo 93"
     id="Grupo_93">
    <path
       fill="#412564"
       transform="translate(71.41 474.892)"
       d="M162.371,219.145H147.578a2.6,2.6,0,1,1,0-5.2h14.794a2.6,2.6,0,1,1,0,5.2Z"
       data-name="Caminho 41"
       id="Caminho_41" />
    <path
       fill="#412564"
       transform="translate(76.684 469.619)"
       d="M149.718,231.834a2.638,2.638,0,0,1-2.6-2.6V214.41a2.6,2.6,0,1,1,5.2,0v14.827a2.6,2.6,0,0,1-2.6,2.6Z"
       data-name="Caminho 42"
       id="Caminho_42" />
    <path
       fill="#412564"
       transform="translate(764.635 494.433)"
       d="M350.775,246.227a2.669,2.669,0,0,1-1.833-.764,2.563,2.563,0,0,1,0-3.666l10.391-10.391A2.6,2.6,0,1,1,363,235.073l-10.391,10.391a2.737,2.737,0,0,1-1.833.763Z"
       data-name="Caminho 45"
       id="Caminho_45" />
    <path
       fill="#412564"
       transform="translate(764.687 494.498)"
       d="M361.185,246.164a2.738,2.738,0,0,1-1.833-.764l-10.391-10.391a2.563,2.563,0,0,1,0-3.666,2.6,2.6,0,0,1,3.666,0l10.391,10.391a2.6,2.6,0,0,1,0,3.666,2.738,2.738,0,0,1-1.833.764Z"
       data-name="Caminho 46"
       id="Caminho_46" />
    <rect
       fill="#412564"
       transform="translate(1032.365 729.748)"
       height="5.197"
       width="60.283"
       data-name="Retângulo 15"
       id="Retângulo_15" />
    <path
       transform="translate(74.128 436.712)"
       fill="#e2e5ee"
       d="M241.743,184.481h758.621a38.6,38.6,0,0,1,38.56,38.56h0a38.56,38.56,0,0,1-38.56,38.56H913.506a41.962,41.962,0,0,0-41.962,41.962h0a41.962,41.962,0,0,0,41.962,41.962h130.954a47.286,47.286,0,0,1,47.2,47h0a47.288,47.288,0,0,1-47.289,47.289H985.259A127.892,127.892,0,0,0,857.366,567.7H403.875a78.593,78.593,0,0,0-77.6-78.59L186.987,487.3A52.575,52.575,0,0,1,135,434.726h0a52.575,52.575,0,0,1,52.575-52.575H232.01A66.715,66.715,0,0,1,297.8,315.478l69.945-.917a26.477,26.477,0,0,0,26.1-26.485h0A26.476,26.476,0,0,0,367.37,261.6H241.492a38.519,38.519,0,0,1-38.56-38.56h0a38.56,38.56,0,0,1,38.813-38.56Z"
       data-name="Caminho 24"
       id="Caminho_24" />
    <path
       fill="#412564"
       transform="translate(570.902 369.285)"
       d="M312.395,196.185H297.568a2.6,2.6,0,1,1,0-5.2h14.827a2.6,2.6,0,0,1,0,5.2Z"
       data-name="Caminho 39"
       id="Caminho_39" />
    <path
       fill="#412564"
       transform="translate(378.629 343.23)"
       d="M228.849,193.533a2.565,2.565,0,0,1-1.833-.764,2.6,2.6,0,0,1,0-3.666l10.391-10.391a2.565,2.565,0,0,1,3.666,0,2.6,2.6,0,0,1,0,3.666l-10.391,10.391a2.459,2.459,0,0,1-1.834.764Z"
       data-name="Caminho 43"
       id="Caminho_43" />
    <path
       fill="#412564"
       transform="translate(357.244 827.466)"
       d="M228.849,193.533a2.565,2.565,0,0,1-1.833-.764,2.6,2.6,0,0,1,0-3.666l10.391-10.391a2.565,2.565,0,0,1,3.666,0,2.6,2.6,0,0,1,0,3.666l-10.391,10.391a2.459,2.459,0,0,1-1.834.764Z"
       data-name="Caminho 80"
       id="Caminho_80" />
    <path
       fill="#412564"
       transform="translate(378.755 343.229)"
       d="M239.281,193.533a2.53,2.53,0,0,1-1.833-.764l-10.391-10.391a2.6,2.6,0,0,1,0-3.666,2.563,2.563,0,0,1,3.666,0L241.115,189.1a2.6,2.6,0,0,1,0,3.666,2.563,2.563,0,0,1-1.834.764Z"
       data-name="Caminho 44"
       id="Caminho_44" />
    <path
       fill="#412564"
       transform="translate(357.37 827.466)"
       d="M239.281,193.533a2.53,2.53,0,0,1-1.833-.764l-10.391-10.391a2.6,2.6,0,0,1,0-3.666,2.563,2.563,0,0,1,3.666,0L241.115,189.1a2.6,2.6,0,0,1,0,3.666,2.563,2.563,0,0,1-1.834.764Z"
       data-name="Caminho 81"
       id="Caminho_81" />
    <rect
       fill="#412564"
       transform="translate(780.782 560.274)"
       height="5.197"
       width="60.283"
       data-name="Retângulo 14"
       id="Retângulo_14" />
    <rect
       fill="#412564"
       transform="translate(627.292 526.334)"
       height="5.197"
       width="133.038"
       data-name="Retângulo 16"
       id="Retângulo_16" />
    <rect
       fill="#412564"
       transform="translate(605.908 1010.571)"
       height="5.197"
       width="133.038"
       data-name="Retângulo 30"
       id="Retângulo_30" />
    <rect
       fill="#412564"
       transform="translate(233.816 673.667)"
       height="5.197"
       width="88.276"
       data-name="Retângulo 17"
       id="Retângulo_17" />
    <rect
       fill="#412564"
       transform="translate(846.261 560.274)"
       height="5.197"
       width="12.368"
       data-name="Retângulo 18"
       id="Retângulo_18" />
    <path
       fill="#412564"
       transform="translate(517.134 329.703)"
       d="M294.44,178.444a5.995,5.995,0,1,1-5.995-5.995,5.995,5.995,0,0,1,5.995,5.995Z"
       data-name="Caminho 48"
       id="Caminho_48" />
    <path
       fill="#412564"
       transform="translate(495.749 826.159)"
       d="M294.44,178.444a5.995,5.995,0,1,1-5.995-5.995,5.995,5.995,0,0,1,5.995,5.995Z"
       data-name="Caminho 82"
       id="Caminho_82" />
    <path
       fill="#412564"
       transform="translate(147.662 451.791)"
       d="M187.907,200.084a5.995,5.995,0,1,1-5.995-5.995,5.995,5.995,0,0,1,5.995,5.995Z"
       data-name="Caminho 49"
       id="Caminho_49" />
    <path
       fill="#412564"
       transform="translate(99.604 603.877)"
       d="M168.373,261.8a5.957,5.957,0,1,1-1.746-4.248A5.957,5.957,0,0,1,168.373,261.8Z"
       data-name="Caminho 50"
       id="Caminho_50" />
    <path
       fill="#412564"
       transform="translate(216.426 330.646)"
       d="M337.393,215.136a3.256,3.256,0,1,1-3.256-3.256,3.256,3.256,0,0,1,3.256,3.256Z"
       data-name="Caminho 51"
       id="Caminho_51" />
    <path
       fill="#412564"
       transform="translate(707.046 524.768)"
       d="M336.789,258.264a5.995,5.995,0,1,1-5.995-5.994,5.995,5.995,0,0,1,5.995,5.994Z"
       data-name="Caminho 47"
       id="Caminho_47" />
    <g
       transform="translate(-93.62356,213.12961)"
       id="g3955">
      <path
         style="fill:#455a64;stroke-width:0.89899182"
         d="m 781.08156,328.50602 c -70.04094,0.0831 -126.80005,54.86762 -126.88607,122.47397 v 75.36812 c 0,5.20308 4.37024,9.42135 9.76076,9.42135 h 39.04207 c 5.39051,0 9.76074,-4.21827 9.76074,-9.42135 v -75.36812 c -9e-4,-36.42237 30.58894,-65.94766 68.3225,-65.94766 37.73356,0 68.3234,29.52529 68.3234,65.94766 v 75.36812 c 0,5.20308 4.37025,9.42135 9.76076,9.42135 h 39.04115 c 5.39052,0 9.76076,-4.21827 9.76076,-9.42135 V 450.97999 C 907.88166,383.37364 851.1225,328.58904 781.08156,328.50602 Z"
         id="path2" />
      <path
         style="fill:#ffc107;stroke-width:0.89899182"
         d="m 663.95625,516.92676 h 234.25062 c 26.95255,0 48.80192,21.08962 48.80192,47.10497 v 169.57894 c 0,26.01623 -21.84937,47.10584 -48.80192,47.10584 H 663.95625 c -26.95255,0 -48.80192,-21.08961 -48.80192,-47.10496 V 564.03261 c 0,-26.01623 21.84937,-47.10585 48.80192,-47.10585 z"
         id="path4" />
      <path
         style="fill:#455a64;stroke-width:0.89899182"
         d="m 829.88347,620.55892 c 0.11347,-26.01535 -21.64348,-47.19417 -48.59603,-47.30368 -26.95255,-0.10953 -48.89433,20.89089 -49.00779,46.90623 -0.0787,17.98244 10.45618,34.43867 27.15294,42.41505 l -7.53536,50.87368 c -0.75492,5.15185 2.96015,9.9186 8.29759,10.64726 0.45203,0.0618 0.90864,0.0927 1.36525,0.0927 h 39.04208 c 5.3905,0.053 9.80466,-4.12201 9.85865,-9.32509 0.004,-0.47959 -0.0274,-0.95917 -0.0989,-1.43346 l -7.53536,-50.87368 c 16.49271,-7.96668 26.9498,-24.19944 27.05686,-41.99905 z"
         id="path6" />
    </g>
  </g>
</svg>
