<svg xmlns="http://www.w3.org/2000/svg" width="517.125" height="235.768" viewBox="0 0 517.125 235.768">
  <g id="Grupo_14" data-name="Grupo 14" transform="translate(-58.924 -211.08)">
    <path id="Caminho_24" data-name="Caminho 24" d="M192.7,184.48H602.771a20.866,20.866,0,0,1,20.844,20.844h0a20.844,20.844,0,0,1-20.844,20.844h-46.95a22.681,22.681,0,0,0-22.681,22.681h0a22.681,22.681,0,0,0,22.681,22.681h70.787a25.561,25.561,0,0,1,25.516,25.4h0a25.561,25.561,0,0,1-25.562,25.561H594.606a69.132,69.132,0,0,0-69.132,69.132H280.339A42.482,42.482,0,0,0,238.4,349.144l-75.3-.975A28.419,28.419,0,0,1,135,319.749h0a28.419,28.419,0,0,1,28.419-28.419h24.019A36.063,36.063,0,0,1,223,255.29l37.809-.5a14.312,14.312,0,0,0,14.108-14.312h0a14.312,14.312,0,0,0-14.312-14.312H192.564a20.821,20.821,0,0,1-20.844-20.844h0A20.844,20.844,0,0,1,192.7,184.48Z" transform="translate(-76.076 53.885)" fill="#e2e5ee"/>
    <path id="Caminho_25" data-name="Caminho 25" d="M38.834,35.72H196.262a9.594,9.594,0,0,1,9.594,9.594v90.338a5.126,5.126,0,0,1-5.1,5.035H34.366a5.126,5.126,0,0,1-5.126-5.126V45.291a9.594,9.594,0,0,1,9.594-9.571Z" transform="translate(96.048 256.377)" fill="#4c4d4f"/>
    <path id="Caminho_26" data-name="Caminho 26" d="M166.742,311.2h-3.4v-95.26a8.551,8.551,0,0,1,8.551-8.528H193.6v3.4H171.891a5.149,5.149,0,0,0-5.149,5.126Z" transform="translate(-40.139 82.963)" fill="#2d2d2d"/>
    <rect id="Retângulo_3" data-name="Retângulo 3" width="157.655" height="82.967" transform="translate(134.882 302.348)" fill="#feb42f"/>
    <rect id="Retângulo_4" data-name="Retângulo 4" width="53.209" height="31.504" transform="translate(187.003 413.054)" fill="#eee"/>
    <rect id="Retângulo_5" data-name="Retângulo 5" width="53.209" height="15.741" transform="translate(187.003 413.054)" fill="#b8b9bb"/>
    <path id="Caminho_27" data-name="Caminho 27" d="M247.382,295.656h-56.7V260.75h56.7Zm-53.209-3.4h49.9v-28.1h-49.9Z" transform="translate(-5.469 150.603)" fill="#2d2d2d"/>
    <path id="Caminho_28" data-name="Caminho 28" d="M29.25,80.33H205.866v7.575A16.262,16.262,0,0,1,189.6,104.168H45.512A16.262,16.262,0,0,1,29.25,87.905V80.33Z" transform="translate(96.061 312.946)" fill="#fff"/>
    <path id="Caminho_29" data-name="Caminho 29" d="M269.974,279.331H176.824a13.336,13.336,0,0,1-13.314-13.314V252H270.246v3.4H166.889v10.547a9.912,9.912,0,0,0,9.912,9.912h93.151Z" transform="translate(-39.923 139.507)" fill="#2d2d2d"/>
    <rect id="Retângulo_6" data-name="Retângulo 6" width="74.598" height="3.402" transform="translate(176.66 443.447)" fill="#0686d8"/>
    <path id="Caminho_30" data-name="Caminho 30" d="M224.717,282.8h-3.81a4.99,4.99,0,0,1-4.944-5.012v-3.742a24.791,24.791,0,0,1-5.33-2.268l-2.676,2.631a4.99,4.99,0,0,1-3.516,1.452,4.9,4.9,0,0,1-3.516-1.474l-2.676-2.7a4.945,4.945,0,0,1-1.452-3.516,5.057,5.057,0,0,1,1.474-3.516l2.676-2.654a23.8,23.8,0,0,1-2.268-5.33h-3.742a4.99,4.99,0,0,1-4.967-5.013v-3.788a4.9,4.9,0,0,1,1.474-3.516,5.262,5.262,0,0,1,3.516-1.452H198.7a24.951,24.951,0,0,1,2.268-5.33l-2.563-2.586a4.945,4.945,0,0,1-1.452-3.516,5.058,5.058,0,0,1,1.474-3.516l2.7-2.676a4.99,4.99,0,0,1,3.493-1.429h0a5.012,5.012,0,0,1,3.561,1.474l2.631,2.654a25.242,25.242,0,0,1,5.217-2.132v-3.765a4.99,4.99,0,0,1,4.99-4.967h3.788a4.99,4.99,0,0,1,4.99,4.967v5.08h-3.47v-5.081a1.565,1.565,0,0,0-1.588-1.565h-3.788a1.565,1.565,0,0,0-1.588,1.565v6.441l-1.315.295a21.958,21.958,0,0,0-6.691,2.744l-1.134.7-4.536-4.536a1.588,1.588,0,0,0-2.268,0l-2.586,2.722a1.565,1.565,0,0,0-.476,1.111,1.587,1.587,0,0,0,.454,1.112l4.536,4.536-.748,1.134a22.181,22.181,0,0,0-2.835,6.8l-.386,1.179h-6.351a2.086,2.086,0,0,0-1.089.454,1.52,1.52,0,0,0-.476,1.134v3.788a1.565,1.565,0,0,0,1.565,1.588h6.351l.295,1.316a21.525,21.525,0,0,0,2.79,6.8l.726,1.157-4.536,4.536a1.542,1.542,0,0,0-.476,1.089,1.655,1.655,0,0,0,.476,1.134l2.654,2.676a1.565,1.565,0,0,0,1.134.476h0a1.588,1.588,0,0,0,1.112-.454l4.536-4.536,1.134.726a21.886,21.886,0,0,0,6.8,2.835l1.338.318v6.419a1.588,1.588,0,0,0,.454,1.112,1.564,1.564,0,0,0,1.111.476h3.788a1.565,1.565,0,0,0,1.588-1.565V271.4l1.315-.295a21.706,21.706,0,0,0,6.8-2.812l1.814,2.881a24.792,24.792,0,0,1-6.532,2.9v3.765a4.99,4.99,0,0,1-4.99,4.967Zm-1.792-20.753a12.112,12.112,0,1,1,12.089-12.134,12.112,12.112,0,0,1-12.089,12.134Zm0-20.821a8.71,8.71,0,1,0,8.687,8.687,8.71,8.71,0,0,0-8.687-8.687Z" transform="translate(-6.369 95.276)" fill="#2d2d2d"/>
    <path id="Caminho_31" data-name="Caminho 31" d="M191.835,219.767h.476A17.442,17.442,0,0,1,209.05,207.2a17.215,17.215,0,0,1,9.39,2.767,23.838,23.838,0,0,1,46.315-3.447,16.533,16.533,0,0,1,4.264-.567,16.353,16.353,0,0,1,16.149,13.813h2.676a12.27,12.27,0,0,1,12.225,12.225v.885a12.27,12.27,0,0,1-12.225,12.248H191.835a12.27,12.27,0,0,1-12.225-12.248v-.885A12.27,12.27,0,0,1,191.835,219.767Z" transform="translate(-19.507 60.604)" fill="#cfd8df"/>
    <path id="Caminho_32" data-name="Caminho 32" d="M195.963,219.1h.431a15.332,15.332,0,0,1,14.743-11.068,15.151,15.151,0,0,1,8.279,2.427,21,21,0,0,1,40.826-3.017,14.646,14.646,0,0,1,3.765-.522A14.448,14.448,0,0,1,278.25,219.1h2.268a10.819,10.819,0,0,1,10.8,10.773v.794a10.819,10.819,0,0,1-10.8,10.8H195.963a10.819,10.819,0,0,1-10.773-10.8v-.794A10.819,10.819,0,0,1,195.963,219.1Z" transform="translate(-12.431 64.238)" fill="#fff"/>
    <path id="Caminho_33" data-name="Caminho 33" d="M202.468,204.732l-2.858-1.837a21.592,21.592,0,0,1,29.077-6.8l-1.724,2.949a18.145,18.145,0,0,0-24.5,5.738Z" transform="translate(5.855 64.797)" fill="#2d2d2d"/>
    <path id="Caminho_34" data-name="Caminho 34" d="M288.749,247.771v-3.4a10.547,10.547,0,0,0,10.524-10.547v-.885a10.524,10.524,0,0,0-10.524-10.524h-4.128l-.227-1.452a14.561,14.561,0,0,0-18.281-11.839l-1.588.431-.476-1.565a23.494,23.494,0,0,0-1.837-4.241,21.188,21.188,0,0,0-2.381-3.448,22.114,22.114,0,0,0-38.807,10.864l-.385,2.586-2.268-1.406a15.718,15.718,0,0,0-23.588,8.823l-.34,1.248h-1.656a10.524,10.524,0,0,0-10.524,10.524v.885a10.547,10.547,0,0,0,10.524,10.547h64.55v3.4h-64.55a13.971,13.971,0,0,1-13.926-13.949v-.885a13.971,13.971,0,0,1,13.178-13.926,19.143,19.143,0,0,1,26.151-10.728,25.539,25.539,0,0,1,44.251-10.229,24.944,24.944,0,0,1,2.744,3.992,23.194,23.194,0,0,1,1.588,3.4,16.646,16.646,0,0,1,3.153-.295,17.986,17.986,0,0,1,17.555,13.813h1.27a13.926,13.926,0,0,1,13.926,13.926v.885a13.949,13.949,0,0,1-13.926,13.994Z" transform="translate(-20.458 59.635)" fill="#2d2d2d"/>
    <path id="Caminho_35" data-name="Caminho 35" d="M217.782,206.3h-3.4a10.206,10.206,0,0,1,10.184-10.184v3.4a6.8,6.8,0,0,0-6.782,6.782Z" transform="translate(24.585 68.646)" fill="#2d2d2d"/>
    <path id="Caminho_36" data-name="Caminho 36" d="M398.495,371.348V209a8.528,8.528,0,0,0-8.528-8.528H263.838A8.528,8.528,0,0,0,255.31,209v162.35Z" transform="translate(76.488 74.162)" fill="#fff"/>
    <path id="Caminho_37" data-name="Caminho 37" d="M255.31,222.584V207.637a7.167,7.167,0,0,1,7.167-7.167h128.85a7.167,7.167,0,0,1,7.167,7.167v14.947Z" transform="translate(76.488 74.162)" fill="#b8b9bb"/>
    <path id="Caminho_38" data-name="Caminho 38" d="M394.477,372.3h-3.4V208.588a5.466,5.466,0,0,0-5.466-5.466H259.82v-3.4H385.608a8.868,8.868,0,0,1,8.868,8.868Z" transform="translate(82.207 73.211)" fill="#2d2d2d"/>
    <rect id="Retângulo_7" data-name="Retângulo 7" width="143.185" height="3.402" transform="translate(331.798 295.431)" fill="#2d2d2d"/>
    <rect id="Retângulo_8" data-name="Retângulo 8" width="5.738" height="3.402" transform="translate(348.242 285.202)" fill="#2d2d2d"/>
    <rect id="Retângulo_9" data-name="Retângulo 9" width="5.738" height="3.402" transform="translate(361.51 285.202)" fill="#2d2d2d"/>
    <rect id="Retângulo_10" data-name="Retângulo 10" width="5.738" height="3.402" transform="translate(374.778 285.202)" fill="#2d2d2d"/>
    <rect id="Retângulo_11" data-name="Retângulo 11" width="107.485" height="33.59" transform="translate(349.648 308.472)" fill="#eee"/>
    <rect id="Retângulo_12" data-name="Retângulo 12" width="27.194" height="22" transform="translate(388.364 352.383)" fill="#eee"/>
    <rect id="Retângulo_13" data-name="Retângulo 13" width="27.194" height="22" transform="translate(429.961 352.383)" fill="#eee"/>
    <path id="Caminho_39" data-name="Caminho 39" d="M306.378,194.392h-9.707a1.7,1.7,0,0,1,0-3.4h9.707a1.7,1.7,0,0,1,0,3.4Z" transform="translate(126.781 62.141)" fill="#2d2d2d"/>
    <path id="Caminho_40" data-name="Caminho 40" d="M298.761,201.96a1.724,1.724,0,0,1-1.7-1.7v-9.707a1.7,1.7,0,0,1,3.4,0v9.707a1.724,1.724,0,0,1-1.7,1.7Z" transform="translate(129.431 59.427)" fill="#2d2d2d"/>
    <path id="Caminho_41" data-name="Caminho 41" d="M156.366,217.352h-9.685a1.7,1.7,0,0,1,0-3.4h9.685a1.7,1.7,0,1,1,0,3.4Z" transform="translate(-63.421 91.256)" fill="#b0b0b0"/>
    <path id="Caminho_42" data-name="Caminho 42" d="M148.821,224.92a1.724,1.724,0,0,1-1.7-1.7v-9.707a1.7,1.7,0,0,1,3.4,0v9.707A1.7,1.7,0,0,1,148.821,224.92Z" transform="translate(-60.707 88.543)" fill="#2d2d2d"/>
    <path id="Caminho_43" data-name="Caminho 43" d="M227.95,188.151a1.679,1.679,0,0,1-1.2-.5,1.7,1.7,0,0,1,0-2.4l6.8-6.8a1.679,1.679,0,0,1,2.4,0,1.7,1.7,0,0,1,0,2.4l-6.8,6.8A1.61,1.61,0,0,1,227.95,188.151Z" transform="translate(39.638 45.588)" fill="#2d2d2d"/>
    <path id="Caminho_44" data-name="Caminho 44" d="M234.8,188.151a1.656,1.656,0,0,1-1.2-.5l-6.8-6.8a1.7,1.7,0,0,1,0-2.4,1.678,1.678,0,0,1,2.4,0l6.8,6.8a1.7,1.7,0,0,1,0,2.4A1.678,1.678,0,0,1,234.8,188.151Z" transform="translate(39.702 45.588)" fill="#2d2d2d"/>
    <path id="Caminho_45" data-name="Caminho 45" d="M349.875,240.81a1.747,1.747,0,0,1-1.2-.5,1.678,1.678,0,0,1,0-2.4l6.8-6.8a1.7,1.7,0,1,1,2.4,2.4l-6.8,6.8a1.792,1.792,0,0,1-1.2.5Z" transform="translate(194.239 112.321)" fill="#2d2d2d"/>
    <path id="Caminho_46" data-name="Caminho 46" d="M356.7,240.786a1.792,1.792,0,0,1-1.2-.5l-6.8-6.8a1.678,1.678,0,0,1,0-2.4,1.7,1.7,0,0,1,2.4,0l6.8,6.8a1.7,1.7,0,0,1,0,2.4,1.792,1.792,0,0,1-1.2.5Z" transform="translate(194.264 112.345)" fill="#2d2d2d"/>
    <rect id="Retângulo_14" data-name="Retângulo 14" width="39.465" height="3.402" transform="translate(366.046 253.131)" fill="#2d2d2d"/>
    <rect id="Retângulo_15" data-name="Retângulo 15" width="39.465" height="3.402" transform="translate(489.748 345.987)" fill="#2d2d2d"/>
    <rect id="Retângulo_16" data-name="Retângulo 16" width="87.095" height="3.402" transform="translate(280.562 226.912)" fill="#2d2d2d"/>
    <rect id="Retângulo_17" data-name="Retângulo 17" width="57.791" height="3.402" transform="translate(92.968 278.352)" fill="#2d2d2d"/>
    <rect id="Retângulo_18" data-name="Retângulo 18" width="8.097" height="3.402" transform="translate(408.913 253.131)" fill="#2d2d2d"/>
    <path id="Caminho_47" data-name="Caminho 47" d="M332.648,256.194a3.924,3.924,0,1,1-3.924-3.924A3.924,3.924,0,0,1,332.648,256.194Z" transform="translate(164.608 139.85)" fill="#2d2d2d"/>
    <path id="Caminho_48" data-name="Caminho 48" d="M290.3,176.374a3.924,3.924,0,1,1-3.924-3.924A3.924,3.924,0,0,1,290.3,176.374Z" transform="translate(110.904 38.63)" fill="#2d2d2d"/>
    <path id="Caminho_49" data-name="Caminho 49" d="M183.768,198.014a3.924,3.924,0,1,1-3.924-3.924A3.924,3.924,0,0,1,183.768,198.014Z" transform="translate(-24.186 66.072)" fill="#2d2d2d"/>
    <path id="Caminho_50" data-name="Caminho 50" d="M164.258,259.724a3.9,3.9,0,1,1-1.143-2.781A3.924,3.924,0,0,1,164.258,259.724Z" transform="translate(-48.926 144.326)" fill="#2d2d2d"/>
    <path id="Caminho_51" data-name="Caminho 51" d="M335.144,214.012a2.132,2.132,0,1,1-2.132-2.132A2.132,2.132,0,0,1,335.144,214.012Z" transform="translate(172.318 88.631)" fill="#2d2d2d"/>
    <path id="Caminho_52" data-name="Caminho 52" d="M242.254,190.792a2.132,2.132,0,1,1-2.132-2.132A2.132,2.132,0,0,1,242.254,190.792Z" transform="translate(54.525 59.186)" fill="#b0b0b0"/>
    <path id="Caminho_53" data-name="Caminho 53" d="M154.574,226.3a2.132,2.132,0,1,1-2.132-2.132A2.132,2.132,0,0,1,154.574,226.3Z" transform="translate(-56.662 104.216)" fill="#b0b0b0"/>
    <g id="Grupo_5" data-name="Grupo 5" transform="translate(219.505 292.097)" opacity="0.3">
      <path id="Caminho_54" data-name="Caminho 54" d="M228.209,359.52V333.21h43.82a16.262,16.262,0,0,0,16.262-16.262v-7.6h-.159a5.687,5.687,0,0,0,.159-1.247V217.764a9.594,9.594,0,0,0-9.594-9.594H240.275A25.72,25.72,0,0,0,228,225.045H225.51a19.71,19.71,0,0,0-19.71,19.687v1.338a19.709,19.709,0,0,0,10.479,17.4v5.874h-1.7v77h-7.938l1.452,8.755a9.276,9.276,0,0,0,9.208,7.825h20.413v-3.4Z" transform="translate(-205.8 -208.17)" fill="#cfd8df"/>
    </g>
    <g id="Grupo_6" data-name="Grupo 6" transform="translate(331.798 274.632)" opacity="0.3">
      <path id="Caminho_55" data-name="Caminho 55" d="M329.749,363.977l1.293-7.87h-8.755V301.468h1.7v-23.5h-1.7v-4.74a19.755,19.755,0,0,0,10.479-17.4V254.5A19.733,19.733,0,0,0,313.6,234.809,27.512,27.512,0,0,0,287.721,216.3a26.99,26.99,0,0,0-12.588,3.107,36.561,36.561,0,0,0-10.8-18.939h-1.86a7.167,7.167,0,0,0-7.167,7.167V371.348h69.268A10.32,10.32,0,0,0,329.749,363.977Z" transform="translate(-255.31 -200.47)" fill="#aeaeb3"/>
    </g>
    <rect id="Retângulo_19" data-name="Retângulo 19" width="159.764" height="114.834" rx="1" transform="translate(234.474 323.941)" fill="#d4d4d4"/>
    <path id="Caminho_56" data-name="Caminho 56" d="M369.146,322.348H217.32a5.67,5.67,0,0,1-5.67-5.67V235.14h3.4v81.538a2.268,2.268,0,0,0,2.268,2.268H369.146Z" transform="translate(21.123 118.127)" fill="#2d2d2d"/>
    <rect id="Retângulo_20" data-name="Retângulo 20" width="3.402" height="23.384" transform="translate(392.537 352.133)" fill="#2d2d2d"/>
    <rect id="Retângulo_21" data-name="Retângulo 21" width="143.389" height="93.196" transform="translate(242.231 332.968)" fill="#fff"/>
    <path id="Caminho_57" data-name="Caminho 57" d="M373.635,283.03H217.681a7.6,7.6,0,0,1-7.53-6.4l-1.111-6.8H281.3l2.767,3.969H304.05l2.994-3.969h76.14l-.975,5.9a8.687,8.687,0,0,1-8.573,7.3Z" transform="translate(17.813 162.117)" fill="#fff"/>
    <path id="Caminho_58" data-name="Caminho 58" d="M374.764,285.67H218.81a9.276,9.276,0,0,1-9.208-7.825l-1.452-8.755h75.187l2.744,3.969h18.145l2.994-3.969h79.088l-1.293,7.87a10.343,10.343,0,0,1-10.252,8.709Zm-162.6-13.178.794,4.808a5.874,5.874,0,0,0,5.852,4.967H374.764a6.963,6.963,0,0,0,6.8-5.852l.635-3.924H309.012l-2.994,3.969H284.312l-2.767-3.969Z" transform="translate(16.685 161.179)" fill="#2d2d2d"/>
    <path id="Caminho_59" data-name="Caminho 59" d="M367.841,241.044h-.7a25.675,25.675,0,0,0-24.631-18.508,25.312,25.312,0,0,0-13.813,4.083,35.087,35.087,0,0,0-68.179-5.058,23.951,23.951,0,0,0-30.052,19.483h-3.924A18.145,18.145,0,0,0,208.53,259.03v1.338a18.145,18.145,0,0,0,18.009,17.986h141.3a18.145,18.145,0,0,0,18.009-17.986V259.03A18.145,18.145,0,0,0,367.841,241.044Z" transform="translate(17.167 69.628)" fill="#fff"/>
    <path id="Caminho_60" data-name="Caminho 60" d="M368.792,281.035H341.575v-3.4h27.217A16.33,16.33,0,0,0,385.1,261.348V260.01a16.33,16.33,0,0,0-16.308-16.285h-1.973l-.363-1.247a23.906,23.906,0,0,0-35.9-13.45l-2.268,1.406-.408-2.586a33.386,33.386,0,0,0-64.867-4.808l-.476,1.565-1.588-.431a22.3,22.3,0,0,0-27.92,18.145l-.227,1.452h-5.375a16.308,16.308,0,0,0-16.308,16.285v1.338a16.308,16.308,0,0,0,16.308,16.285h25.312v3.4H227.49a19.71,19.71,0,0,1-19.71-19.687v-1.338a19.71,19.71,0,0,1,19.71-19.687h2.495a25.7,25.7,0,0,1,25.221-20.413,24.953,24.953,0,0,1,5.126.544,36.788,36.788,0,0,1,70.538,4.4,26.991,26.991,0,0,1,12.588-3.107,27.512,27.512,0,0,1,25.856,18.53,19.732,19.732,0,0,1,19.165,19.687v1.338a19.71,19.71,0,0,1-19.687,19.687Z" transform="translate(16.216 68.648)" fill="#2d2d2d"/>
    <path id="Caminho_61" data-name="Caminho 61" d="M277.4,218.08a27.54,27.54,0,0,0-37.129-8.732l-1.724-2.926a30.937,30.937,0,0,1,41.71,9.8Z" transform="translate(55.235 76.24)" fill="#2d2d2d"/>
    <path id="Caminho_62" data-name="Caminho 62" d="M243.078,220.8h-3.4a10.8,10.8,0,0,0-10.8-10.8v-3.4A14.221,14.221,0,0,1,243.078,220.8Z" transform="translate(42.972 81.936)" fill="#2d2d2d"/>
    <path id="Caminho_63" data-name="Caminho 63" d="M296.708,246.214h-5.534a24.95,24.95,0,0,0-3.311-7.961l3.924-3.924a3.561,3.561,0,0,0,0-5.058l-2.926-2.926a3.584,3.584,0,0,0-5.058,0l-3.9,3.9a25.155,25.155,0,0,0-7.961-3.289v-5.534a3.584,3.584,0,0,0-3.584-3.584h-4.128a3.584,3.584,0,0,0-3.584,3.584v5.534a25.469,25.469,0,0,0-7.848,3.221l-3.878-3.924a3.561,3.561,0,0,0-5.058,0l-2.949,2.9a3.584,3.584,0,0,0,0,5.058l3.878,3.924a25.533,25.533,0,0,0-3.334,7.961h-5.466a3.538,3.538,0,0,0-3.561,3.561v4.128a3.606,3.606,0,0,0,3.561,3.606H241.5a25.448,25.448,0,0,0,3.289,7.961l-3.924,3.9a3.583,3.583,0,0,0,0,5.058l2.9,2.926a3.584,3.584,0,0,0,5.058,0l3.924-3.879a26.105,26.105,0,0,0,7.961,3.334v5.512a3.561,3.561,0,0,0,3.561,3.584h4.151a3.561,3.561,0,0,0,3.584-3.561V276.7a26.128,26.128,0,0,0,7.984-3.289l3.9,3.924a3.629,3.629,0,0,0,5.08,0l2.9-2.926a3.538,3.538,0,0,0,0-5.035L288,265.447a25.861,25.861,0,0,0,3.311-7.984h5.534a3.584,3.584,0,0,0,3.583-3.561v-4.151a3.561,3.561,0,0,0-3.72-3.538Zm-30.415,16.92a11.34,11.34,0,1,1,11.341-11.34,11.34,11.34,0,0,1-11.341,11.34Z" transform="translate(47.474 124.189)" fill="#01d1ff"/>
    <path id="Caminho_64" data-name="Caminho 64" d="M269.293,288.444h-4.151a5.217,5.217,0,0,1-3.72-1.542,5.33,5.33,0,0,1-1.542-3.765v-4.173a26.784,26.784,0,0,1-6.01-2.518l-2.971,2.948a5.216,5.216,0,0,1-3.72,1.542h0a5.239,5.239,0,0,1-3.72-1.565l-2.926-2.926a5.352,5.352,0,0,1-1.52-3.742,5.217,5.217,0,0,1,1.542-3.72l2.994-2.971a26.83,26.83,0,0,1-2.472-6.01h-4.2a5.307,5.307,0,0,1-5.262-5.307v-4.128a5.239,5.239,0,0,1,1.542-3.742,5.465,5.465,0,0,1,3.742-1.52h4.2a26.625,26.625,0,0,1,2.518-5.988l-2.971-2.971a5.285,5.285,0,0,1,0-7.462l2.949-2.9a5.126,5.126,0,0,1,3.7-1.542h0A5.239,5.239,0,0,1,251.058,226L254.006,229a27.442,27.442,0,0,1,5.874-2.427v-4.2a5.285,5.285,0,0,1,5.285-5.285h4.128a5.307,5.307,0,0,1,5.285,5.285v4.2a27.213,27.213,0,0,1,5.988,2.495l2.971-2.971a5.285,5.285,0,0,1,7.462,0l2.926,2.926a5.285,5.285,0,0,1,0,7.462l-2.971,2.971a27.813,27.813,0,0,1,2.495,6.01h4.2a5.262,5.262,0,0,1,5.262,5.262v4.151a5.307,5.307,0,0,1-5.285,5.262h-4.2a26.626,26.626,0,0,1-2.517,5.988l2.971,2.994a5.257,5.257,0,0,1-.023,7.462l-2.9,2.9a5.307,5.307,0,0,1-7.485,0l-2.971-2.994a26.646,26.646,0,0,1-6.01,2.472v4.219A5.285,5.285,0,0,1,269.293,288.444Zm-15.877-16.33,1.157.726a23.475,23.475,0,0,0,7.394,3.017l1.315.318v6.8a1.973,1.973,0,0,0,.544,1.338,1.9,1.9,0,0,0,1.315.544h4.151a1.883,1.883,0,0,0,1.883-1.86v-6.8l1.338-.295a23.721,23.721,0,0,0,7.439-3.085l1.157-.726,4.854,4.9a1.928,1.928,0,0,0,2.676,0l2.9-2.926a1.838,1.838,0,0,0,.567-1.316,1.905,1.905,0,0,0-.544-1.315l-4.854-4.9.726-1.134a23.948,23.948,0,0,0,3.085-7.439l.295-1.338h6.8a1.905,1.905,0,0,0,1.882-1.883v-4.128a1.86,1.86,0,0,0-1.86-1.86h-6.8l-.295-1.315A23.591,23.591,0,0,0,287.46,240l-.726-1.157,4.876-4.876a1.883,1.883,0,0,0,0-2.654l-2.926-2.926a1.883,1.883,0,0,0-2.654,0l-4.876,4.876-1.134-.726a23.293,23.293,0,0,0-7.439-3.085l-1.315-.318v-6.8a1.883,1.883,0,0,0-1.883-1.882h-4.128a1.883,1.883,0,0,0-1.883,1.883v6.8l-1.338.295a23.5,23.5,0,0,0-7.3,3.017l-1.157.7-4.854-4.876a1.86,1.86,0,0,0-1.338-.567h0a1.723,1.723,0,0,0-1.293.544l-2.948,2.9a1.86,1.86,0,0,0-.567,1.338,1.905,1.905,0,0,0,.544,1.315l4.831,4.9-.726,1.157a23.521,23.521,0,0,0-3.107,7.417l-.295,1.361h-6.8a1.611,1.611,0,0,0-1.316.522,1.859,1.859,0,0,0-.544,1.338v4.151a1.905,1.905,0,0,0,1.882,1.882h6.8l.318,1.316a23.337,23.337,0,0,0,3.062,7.439l.726,1.134-4.99,4.9a1.769,1.769,0,0,0-.544,1.315,1.814,1.814,0,0,0,.544,1.316l2.9,2.926a1.882,1.882,0,0,0,1.338.567h0a1.905,1.905,0,0,0,1.315-.544Zm13.926-6.328a13.053,13.053,0,1,0-.023,0Zm0-22.681a3.993,3.993,0,1,1-.023.023Z" transform="translate(46.447 123.238)" fill="#2d2d2d"/>
    <g id="Grupo_7" data-name="Grupo 7" transform="translate(364.05 378.035)" opacity="0.3">
      <path id="Caminho_65" data-name="Caminho 65" d="M357.918,246.06h-5.466v1.7h-5.965v-1.7h-7.371v1.7h-8.959v-1.7H275.472a5.942,5.942,0,0,0-5.942,5.92v56.975a5.942,5.942,0,0,0,5.943,5.92h82.445a5.92,5.92,0,0,0,5.92-5.92V251.98a5.92,5.92,0,0,0-5.92-5.92Z" transform="translate(-269.53 -246.06)" fill="#d4d4d4"/>
    </g>
    <rect id="Retângulo_22" data-name="Retângulo 22" width="90.905" height="65.412" rx="1.91" transform="translate(370.31 379.736)" fill="#fff"/>
    <path id="Caminho_66" data-name="Caminho 66" d="M359.917,314.874H277.472a5.942,5.942,0,0,1-5.942-5.92V251.98a5.942,5.942,0,0,1,5.942-5.92h54.684v3.4H277.472a2.54,2.54,0,0,0-2.54,2.518v56.974a2.54,2.54,0,0,0,2.54,2.518h82.445a2.518,2.518,0,0,0,2.518-2.518V251.98a2.517,2.517,0,0,0-2.518-2.518h-5.466v-3.4h5.466a5.92,5.92,0,0,1,5.92,5.92v56.975A5.92,5.92,0,0,1,359.917,314.874Z" transform="translate(97.056 131.975)" fill="#2d2d2d"/>
    <rect id="Retângulo_23" data-name="Retângulo 23" width="7.371" height="3.402" transform="translate(438.172 378.035)" fill="#2d2d2d"/>
    <rect id="Retângulo_24" data-name="Retângulo 24" width="3.402" height="16.807" transform="translate(375.663 404.05)" fill="#2d2d2d"/>
    <rect id="Retângulo_25" data-name="Retângulo 25" width="66.478" height="54.23" transform="translate(382.082 385.338)" fill="#feb42f"/>
    <path id="Caminho_67" data-name="Caminho 67" d="M310.917,267.54a4.06,4.06,0,1,1,2.885-1.181,4.06,4.06,0,0,1-2.885,1.181Zm0-4.718a.637.637,0,1,1,0,.045Z" transform="translate(141.884 148.917)" fill="#2d2d2d"/>
    <path id="Caminho_68" data-name="Caminho 68" d="M305.225,295.563h-2.4a3.788,3.788,0,0,1-3.765-3.765v-1.882a15.856,15.856,0,0,1-2.631-1.111l-1.361,1.338a3.742,3.742,0,0,1-2.654,1.089h0a3.674,3.674,0,0,1-2.676-1.111l-1.678-1.7a3.675,3.675,0,0,1-1.111-2.676,3.765,3.765,0,0,1,1.111-2.654l1.361-1.338a17.806,17.806,0,0,1-1.089-2.631h-1.905a3.765,3.765,0,0,1-3.742-3.788v-2.4a3.765,3.765,0,0,1,1.111-2.676,4.106,4.106,0,0,1,2.654-1.089h1.905a15.875,15.875,0,0,1,1.111-2.631l-1.338-1.361a3.584,3.584,0,0,1-1.089-2.676,3.674,3.674,0,0,1,1.111-2.654l1.7-1.678a3.7,3.7,0,0,1,2.654-1.089h0a3.764,3.764,0,0,1,2.676,1.111l1.338,1.361a15.473,15.473,0,0,1,2.54-1.066v-1.905a3.788,3.788,0,0,1,3.788-3.765h2.382a3.788,3.788,0,0,1,3.788,3.765v1.905a18.907,18.907,0,0,1,2.631,1.089l1.338-1.338a3.788,3.788,0,0,1,5.33,0l1.7,1.7a3.764,3.764,0,0,1,1.089,2.676,3.675,3.675,0,0,1-1.111,2.654l-1.338,1.338a14.861,14.861,0,0,1,1.089,2.654h1.905a3.765,3.765,0,0,1,3.765,3.765v2.4a3.788,3.788,0,0,1-3.765,3.765H319.7a16.633,16.633,0,0,1-1.111,2.631l1.338,1.361a3.674,3.674,0,0,1,1.111,2.631,3.765,3.765,0,0,1-1.111,2.676l-1.7,1.7a3.81,3.81,0,0,1-5.33,0l-1.338-1.361a20.108,20.108,0,0,1-2.631,1.089V291.8A3.742,3.742,0,0,1,305.225,295.563Zm-9.3-11.068,1.157.726a12.383,12.383,0,0,0,4.083,1.7l1.315.318v4.536a.386.386,0,0,0,.363.363h2.4a.363.363,0,0,0,.363-.34v-4.536l1.315-.295a12.973,12.973,0,0,0,4.105-1.678l1.134-.726,3.221,3.243a.386.386,0,0,0,.544,0l1.678-1.678a.386.386,0,0,0,.113-.25.318.318,0,0,0-.113-.249l-3.2-3.266.7-1.134a12.582,12.582,0,0,0,1.7-4.083l.318-1.338h4.536a.363.363,0,0,0,.363-.385v-2.268a.363.363,0,0,0-.363-.363h-4.536l-.295-1.315a13.2,13.2,0,0,0-1.7-4.083l-.726-1.157,3.221-3.221a.3.3,0,0,0,.113-.272.318.318,0,0,0,0-.249l-1.7-1.7a.385.385,0,0,0-.522,0l-3.221,3.221-1.157-.726a12.636,12.636,0,0,0-4.083-1.678l-1.315-.318v-4.536a.385.385,0,0,0-.386-.363h-2.382a.386.386,0,0,0-.386.363v4.536l-1.315.295a12.633,12.633,0,0,0-4.014,1.656l-1.157.7-3.2-3.221c-.249-.249-.408-.136-.522,0l-1.724,1.7a.431.431,0,0,0,0,.522l3.221,3.243-.748,1.134a13.454,13.454,0,0,0-1.7,4.083l-.295,1.315H286.6a.34.34,0,0,0-.272.113.363.363,0,0,0,0,.25v2.427a.363.363,0,0,0,.363.363h4.536l.295,1.338a12.315,12.315,0,0,0,1.678,4.06l.726,1.157-3.243,3.243a.341.341,0,0,0,0,.5l1.678,1.7a.386.386,0,0,0,.272.113h.249Zm8.165-2.041a8.278,8.278,0,1,1,8.256-8.278,8.278,8.278,0,0,1-8.256,8.278Zm0-13.132a4.876,4.876,0,1,0,4.854,4.854,4.876,4.876,0,0,0-4.854-4.854Z" transform="translate(111.196 140.534)" fill="#2d2d2d"/>
    <rect id="Retângulo_26" data-name="Retângulo 26" width="371.559" height="3.402" transform="translate(120.639 443.447)" fill="#2d2d2d"/>
    <rect id="Retângulo_27" data-name="Retângulo 27" width="6.215" height="3.402" transform="translate(110.296 443.447)" fill="#2d2d2d"/>
    <rect id="Retângulo_28" data-name="Retângulo 28" width="13.722" height="3.402" transform="translate(495.736 443.447)" fill="#2d2d2d"/>
    <circle id="Elipse_5" data-name="Elipse 5" cx="10" cy="10" r="10" transform="translate(304 366)" fill="#fff"/>
  </g>
</svg>
