<svg id="Layer_1" data-name="Layer 1" xmlns="http://www.w3.org/2000/svg" viewBox="0 0 3169.31 2155.6"><defs><style>.cls-1{fill:#e0e5e9;}.cls-2{fill:#5fb7ce;}.cls-3{fill:#83d7ea;}.cls-4{fill:#4694af;}.cls-5{fill:#919191;}.cls-6{fill:#afafaf;}.cls-7{fill:#727272;}.cls-8{fill:#a05c35;}.cls-9{fill:#bc7251;}.cls-10{fill:#5e7718;}.cls-11{fill:#7d932c;}.cls-12{fill:#4c5e08;}.cls-13{fill:#7a4418;}.cls-14{fill:#ffcf7b;}.cls-15{fill:#f7a731;}.cls-16{fill:#ffc578;}.cls-17{fill:#fffb7b;}</style></defs><path class="cls-1" d="M3459,1359.84v0Z" transform="translate(-289.69 -422.7)"/><path class="cls-1" d="M3352,1254.1H2717c-57.9,0-108.57-46.11-108.58-104s50.68-105.71,108.58-105.71h332.08c57.91,0,107-46.12,107-104s-49.06-105.72-107-105.72H2726.7a1089.07,1089.07,0,0,0-85.51-96.25c-420.9-420.91-1103.33-420.91-1524.23,0-162.41,162.41-262.14,363.75-299.21,574H606.33c-57.92,0-106.91,49.14-106.91,107.05v1.41c0,57.92,49,101.28,106.91,101.28H816.06c57.92,0,102.83,49.13,102.83,107.05v1.41c0,57.91-44.91,101.27-102.83,101.27H390.77c-57.92,0-101.08,49.14-101.08,107.05v1.41c0,57.92,43.16,101.27,101.08,101.27h635c57.91,0,102.83,49.14,102.83,107.06V2050c0,57.91-44.92,101.27-102.83,101.27H693.72c-57.92,0-101.08,49.13-101.08,107v1.41c0,57.92,43.16,101.27,101.08,101.27h536.19c422.34,319.44,1026.24,286.64,1411.28-98.41a1073.87,1073.87,0,0,0,245.69-379.32h249.59c57.91,0,101.14-46.11,101.15-104s-43.24-105.71-101.15-105.71H2926.74c-57.91,0-108.58-46.12-108.59-104s50.68-105.71,108.59-105.71H3352c57.91,0,107-46.12,107-104S3409.94,1254.1,3352,1254.1Z" transform="translate(-289.69 -422.7)"/><path class="cls-1" d="M3237.62,1779.31v0Z" transform="translate(-289.69 -422.7)"/><path class="cls-1" d="M3156.05,940.37v0Z" transform="translate(-289.69 -422.7)"/><path d="M883.94,1114.28H814a11.65,11.65,0,0,0,0,23.3h69.92a11.65,11.65,0,0,0,0-23.3Z" transform="translate(-289.69 -422.7)"/><path d="M744.11,1114.28H487.77a11.65,11.65,0,0,0,0,23.3H744.11a11.65,11.65,0,0,0,0-23.3Z" transform="translate(-289.69 -422.7)"/><path d="M953.85,1184.19H697.51a11.65,11.65,0,1,0,0,23.3H953.85a11.65,11.65,0,0,0,0-23.3Z" transform="translate(-289.69 -422.7)"/><path d="M604.29,1184.19H557.68a11.65,11.65,0,0,0,0,23.3h46.61a11.65,11.65,0,1,0,0-23.3Z" transform="translate(-289.69 -422.7)"/><path d="M2923,1428.88h-35a11.65,11.65,0,0,0,0,23.3h35a11.65,11.65,0,1,0,0-23.3Z" transform="translate(-289.69 -422.7)"/><path d="M2748.24,1428.88h-35a11.65,11.65,0,0,0,0,23.3h35a11.65,11.65,0,1,0,0-23.3Z" transform="translate(-289.69 -422.7)"/><path d="M2884.06,1361.83l-24.72,24.72a11.65,11.65,0,0,0,16.48,16.48l24.72-24.72a11.65,11.65,0,1,0-16.48-16.48Z" transform="translate(-289.69 -422.7)"/><path d="M2760.47,1485.42l-24.71,24.71a11.65,11.65,0,0,0,16.48,16.48l24.71-24.72a11.65,11.65,0,1,0-16.48-16.47Z" transform="translate(-289.69 -422.7)"/><path d="M2818.15,1324a11.65,11.65,0,0,0-11.65,11.66v34.95a11.65,11.65,0,0,0,23.3,0v-34.95A11.66,11.66,0,0,0,2818.15,1324Z" transform="translate(-289.69 -422.7)"/><path d="M2818.15,1498.79a11.65,11.65,0,0,0-11.65,11.65v35a11.65,11.65,0,0,0,23.3,0v-35A11.66,11.66,0,0,0,2818.15,1498.79Z" transform="translate(-289.69 -422.7)"/><path d="M2752.24,1361.83a11.65,11.65,0,0,0-16.48,16.48l24.71,24.72a11.65,11.65,0,1,0,16.48-16.48Z" transform="translate(-289.69 -422.7)"/><path d="M2875.82,1485.42a11.65,11.65,0,0,0-16.48,16.47l24.72,24.72a11.65,11.65,0,1,0,16.48-16.48Z" transform="translate(-289.69 -422.7)"/><path d="M1338.36,671.51h-35a11.65,11.65,0,0,0,0,23.3h35a11.65,11.65,0,1,0,0-23.3Z" transform="translate(-289.69 -422.7)"/><path d="M1163.58,671.51h-34.95a11.65,11.65,0,1,0,0,23.3h34.95a11.65,11.65,0,1,0,0-23.3Z" transform="translate(-289.69 -422.7)"/><path d="M1299.4,604.46l-24.71,24.71a11.65,11.65,0,0,0,16.48,16.48l24.71-24.72a11.65,11.65,0,1,0-16.48-16.47Z" transform="translate(-289.69 -422.7)"/><path d="M1175.82,728l-24.72,24.72a11.65,11.65,0,0,0,16.48,16.48l24.72-24.72A11.65,11.65,0,0,0,1175.82,728Z" transform="translate(-289.69 -422.7)"/><path d="M1233.49,566.64a11.66,11.66,0,0,0-11.65,11.65v35a11.65,11.65,0,0,0,23.3,0v-35A11.65,11.65,0,0,0,1233.49,566.64Z" transform="translate(-289.69 -422.7)"/><path d="M1233.49,741.42a11.66,11.66,0,0,0-11.65,11.65v35a11.65,11.65,0,0,0,23.3,0v-35A11.65,11.65,0,0,0,1233.49,741.42Z" transform="translate(-289.69 -422.7)"/><path d="M1167.58,604.46a11.65,11.65,0,1,0-16.48,16.47l24.72,24.72a11.65,11.65,0,0,0,16.48-16.48Z" transform="translate(-289.69 -422.7)"/><path d="M1291.17,728a11.65,11.65,0,0,0-16.48,16.48l24.71,24.72a11.65,11.65,0,0,0,16.48-16.48Z" transform="translate(-289.69 -422.7)"/><path d="M2535.36,2375.86l-26.07-14.26a69.86,69.86,0,0,1-27.87-27.87l-14.26-26.06a11.65,11.65,0,0,0-20.44,0l-14.26,26.06a69.86,69.86,0,0,1-27.87,27.87l-26.06,14.26a11.64,11.64,0,0,0,0,20.44l26.06,14.26a70,70,0,0,1,27.87,27.87l14.26,26.07a11.65,11.65,0,0,0,20.44,0l14.26-26.07a70,70,0,0,1,27.87-27.87l26.07-14.26a11.65,11.65,0,0,0,0-20.44Zm-37.25,14.25a93.34,93.34,0,0,0-37.14,37.14l-4,7.37-4-7.37a93.34,93.34,0,0,0-37.14-37.14l-7.37-4,7.37-4a93.21,93.21,0,0,0,37.14-37.14l4-7.37,4,7.37a93.21,93.21,0,0,0,37.14,37.14l7.37,4Z" transform="translate(-289.69 -422.7)"/><path d="M752.62,1850.55l-26.07-14.25a70,70,0,0,1-27.87-27.87l-14.26-26.07a11.65,11.65,0,0,0-20.44,0l-14.26,26.07a70,70,0,0,1-27.87,27.87l-26.06,14.25a11.66,11.66,0,0,0,0,20.45l26.06,14.25a70,70,0,0,1,27.87,27.88L664,1939.19a11.65,11.65,0,0,0,20.44,0l14.26-26.06a70,70,0,0,1,27.87-27.88L752.62,1871a11.66,11.66,0,0,0,0-20.45Zm-37.25,14.26a93.17,93.17,0,0,0-37.13,37.13l-4,7.38-4-7.38A93.25,93.25,0,0,0,633,1864.81l-7.37-4,7.37-4a93.25,93.25,0,0,0,37.14-37.13l4-7.38,4,7.38a93.25,93.25,0,0,0,37.14,37.13l7.37,4Z" transform="translate(-289.69 -422.7)"/><path d="M1117,2139.65h-23.3a11.65,11.65,0,0,0,0,23.3H1117a11.65,11.65,0,1,0,0-23.3Z" transform="translate(-289.69 -422.7)"/><path d="M1000.45,2139.65h-23.3a11.65,11.65,0,0,0,0,23.3h23.3a11.65,11.65,0,1,0,0-23.3Z" transform="translate(-289.69 -422.7)"/><path d="M1047.06,2069.73a11.66,11.66,0,0,0-11.65,11.66v23.3a11.65,11.65,0,0,0,23.3,0v-23.3A11.65,11.65,0,0,0,1047.06,2069.73Z" transform="translate(-289.69 -422.7)"/><path d="M1047.06,2186.25a11.66,11.66,0,0,0-11.65,11.66v23.3a11.65,11.65,0,0,0,23.3,0v-23.3A11.65,11.65,0,0,0,1047.06,2186.25Z" transform="translate(-289.69 -422.7)"/><path d="M3086.14,788h-23.3a11.65,11.65,0,0,0,0,23.3h23.3a11.65,11.65,0,1,0,0-23.3Z" transform="translate(-289.69 -422.7)"/><path d="M2969.62,788h-23.3a11.65,11.65,0,0,0,0,23.3h23.3a11.65,11.65,0,1,0,0-23.3Z" transform="translate(-289.69 -422.7)"/><path d="M3016.23,718.12a11.65,11.65,0,0,0-11.65,11.65v23.3a11.65,11.65,0,0,0,23.3,0v-23.3A11.64,11.64,0,0,0,3016.23,718.12Z" transform="translate(-289.69 -422.7)"/><path d="M3016.23,834.63a11.66,11.66,0,0,0-11.65,11.66v23.3a11.65,11.65,0,0,0,23.3,0v-23.3A11.65,11.65,0,0,0,3016.23,834.63Z" transform="translate(-289.69 -422.7)"/><path d="M3272.57,1964.87H2759.89a11.65,11.65,0,0,0,0,23.3h512.68a11.65,11.65,0,1,0,0-23.3Z" transform="translate(-289.69 -422.7)"/><path d="M2643.37,438.47H2526.85a11.65,11.65,0,0,0,0,23.3h116.52a11.65,11.65,0,1,0,0-23.3Z" transform="translate(-289.69 -422.7)"/><path d="M2491.9,520H1839.39a11.66,11.66,0,0,0,0,23.31H2491.9a11.66,11.66,0,0,0,0-23.31Z" transform="translate(-289.69 -422.7)"/><path d="M2258.86,601.6h-314.6a11.65,11.65,0,0,0,0,23.3h314.6a11.65,11.65,0,1,0,0-23.3Z" transform="translate(-289.69 -422.7)"/><path d="M2561.81,601.6H2352.07a11.65,11.65,0,0,0,0,23.3h209.74a11.65,11.65,0,1,0,0-23.3Z" transform="translate(-289.69 -422.7)"/><path d="M1513.14,2465.9h-81.57a11.65,11.65,0,1,0,0,23.3h81.57a11.65,11.65,0,1,0,0-23.3Z" transform="translate(-289.69 -422.7)"/><path d="M1629.66,2524.16h-291.3a11.65,11.65,0,1,0,0,23.3h291.3a11.65,11.65,0,0,0,0-23.3Z" transform="translate(-289.69 -422.7)"/><path d="M1781.13,2465.9H1571.4a11.65,11.65,0,0,0,0,23.3h209.73a11.65,11.65,0,1,0,0-23.3Z" transform="translate(-289.69 -422.7)"/><path d="M3156.05,1883.3H2992.93a11.66,11.66,0,0,0,0,23.31h163.12a11.66,11.66,0,1,0,0-23.31Z" transform="translate(-289.69 -422.7)"/><path d="M2923,1883.3h-69.91a11.66,11.66,0,1,0,0,23.31H2923a11.66,11.66,0,0,0,0-23.31Z" transform="translate(-289.69 -422.7)"/><rect class="cls-2" x="911.76" y="1520.23" width="1405.02" height="136.32"/><rect class="cls-3" x="920.5" y="1518.86" width="58.26" height="139.82"/><rect class="cls-4" x="2225.51" y="1507.21" width="81.56" height="139.82"/><path d="M2301.59,2056H1224.75v-89.71h239.84a23.31,23.31,0,0,0,0-46.61H1201.45a23.3,23.3,0,0,0-23.3,23.3v136.32a23.3,23.3,0,0,0,23.3,23.3H2301.59a23.3,23.3,0,0,0,0-46.6Z" transform="translate(-289.69 -422.7)"/><path d="M2606.47,1919.63H1575.27a23.31,23.31,0,0,0,0,46.61h1007.9V2056H2361.78a23.3,23.3,0,0,0,0,46.6h244.69a23.31,23.31,0,0,0,23.31-23.3V1942.93A23.31,23.31,0,0,0,2606.47,1919.63Z" transform="translate(-289.69 -422.7)"/><path d="M1520.91,1919.63H1519a23.31,23.31,0,0,0,0,46.61h1.94a23.31,23.31,0,0,0,0-46.61Z" transform="translate(-289.69 -422.7)"/><path class="cls-5" d="M1036.84,1538.16a145,145,0,0,0,102.37,177.61l171.42,46.08c26.6,7.14,133.62-21.83,133.62-21.83l178.14,67.52s36.5,48.3,53.35,52.83L1958.63,1936a247.4,247.4,0,0,0,289.92-137.61h0L1060,1452Z" transform="translate(-289.69 -422.7)"/><path class="cls-6" d="M1104.72,1557.65l23.08-85.86L1056.43,1451l-23.16,86.15a145,145,0,0,0,102.37,177.62l54.19,14.56C1123.17,1702.1,1085.55,1629,1104.72,1557.65Z" transform="translate(-289.69 -422.7)"/><path class="cls-7" d="M1881,1912.56l70.82,20.6c117.32,31.53,243-31.9,291.55-138.57l-71.5-20.53C2123.3,1880.73,1998.3,1944.09,1881,1912.56Z" transform="translate(-289.69 -422.7)"/><path d="M2254.45,1778.15,1065.9,1431.77a21.1,21.1,0,0,0-26.26,14.77l-23.15,86.15a166,166,0,0,0,117.07,203.39l75.74,21.09a21.08,21.08,0,1,0,11.31-40.61l-75.93-21.14a123.88,123.88,0,0,1-87.48-151.79l17.57-65.36,1143.39,333.22c-51,87.57-154.1,131-254.09,104.15l-282.34-75.49c-7-3.39-26.68-24.38-42.52-45.32a21.14,21.14,0,0,0-9.35-7l-178.14-67.52a21.11,21.11,0,0,0-13-.63c-48.87,13.23-109.81,25.14-122.56,21.83l-38-10.36a21.08,21.08,0,0,0-11.08,40.67l38.07,10.38c27.64,7.43,105.76-11.58,138-20.06l166.18,63c15.87,20.46,41.81,50.46,61,55.61l282.86,75.63A268.49,268.49,0,0,0,2267.78,1807a21.07,21.07,0,0,0-13.33-28.87Z" transform="translate(-289.69 -422.7)"/><path class="cls-8" d="M2191.68,1494.45c-134.78-128.6-206-92.88-247.26-154-37.25-55.14-125.11-40.28-128.17-129.13-1.63-47-15.07-92.11-60.53-104.32l-43-11.57-68.61,4.66-366.8-103L1243.1,1086s4.81,37.75-43.16,88.81c-39.6,42.13-87.41,103.23-103.54,148.93-8.22,23.29-22.6,78.81-34.73,127.65a96,96,0,0,0,64.4,114.69l206.77,59.35,132.66-6.68,293.88,130.94s222.48,68.78,329.36,74.09c105.4,5.23,159.81-25.37,159.81-25.37S2349.89,1645.39,2191.68,1494.45Z" transform="translate(-289.69 -422.7)"/><path class="cls-9" d="M1293.6,1201.61a22,22,0,0,1-8.29-31.53c34.38-52.32,24.81-65,24.81-65l34.16-88.89L1280,997.81l-34.18,88.94s6.69,27.7-35.77,80.2c-6,5.74-23.42,27.12-42.79,52.79l63,16.34c209.24,110.81,195.2,323.23,187.62,391.67l59.89-13.28S1543.86,1334.72,1293.6,1201.61Z" transform="translate(-289.69 -422.7)"/><path class="cls-10" d="M1169.64,1215.91s-3.1,22.26-33.32,48.78-59.68,125.4-59.68,125.4l-16.84,73.41c-1.74,64.32,18,83.38,78.62,104.85l194.42,57.06,94.14-20.89S1489.1,1301.77,1169.64,1215.91Z" transform="translate(-289.69 -422.7)"/><path class="cls-11" d="M1136.34,1264.64c-30.22,26.52-59.69,125.43-59.69,125.43L1060.23,1462c-1.73,64.31,17.33,85.62,79.06,103.34l56.27,16.16c-61.73-17.73-80.8-39-79.06-103.34l16.62-72.65s29.36-98.51,59.58-125c24.58-21.56,31.07-39.9,32.69-46.15a474.5,474.5,0,0,0-55.73-18.49S1166.56,1238.12,1136.34,1264.64Z" transform="translate(-289.69 -422.7)"/><path class="cls-12" d="M1172.32,1216.68s-.2,1-.57,2.43c256.21,104.06,201.64,370,201.64,370L1280,1609.87l55.56,16.31,94.14-20.89S1491.79,1302.54,1172.32,1216.68Z" transform="translate(-289.69 -422.7)"/><path class="cls-10" d="M2169.14,1481.65s-217.59,68.53-227.22,308.42c0,0,177.72,58.35,306.63,8.32,0,0,66.35-107.25,9.26-206.31S2169.14,1481.65,2169.14,1481.65Z" transform="translate(-289.69 -422.7)"/><path class="cls-13" d="M1883.43,1316a407.72,407.72,0,0,0-62.84-80.81c-23.62-23.56-16.07-44.24-20-79.37-7.65-67.66-104.9-51-104.9-51,23.13,43.58,16.82,88.44,24.18,134.41,7.24,45.28,23.87,101.79,55.48,134.06,41.39,42.27,108,54.37,164.42,68.33,36.53,9,78,4.16,113.37-7.13C1983.17,1421.56,1919.69,1377.2,1883.43,1316Z" transform="translate(-289.69 -422.7)"/><path class="cls-11" d="M2169.14,1481.65s-217.59,68.53-227.22,308.42c0,0,21,6.88,53.69,13.89,8.33-189.38,146.35-271.41,203-297.23C2179.37,1485.38,2169.14,1481.65,2169.14,1481.65Z" transform="translate(-289.69 -422.7)"/><path class="cls-13" d="M2135.3,1451.64s-232.78,73.31-243.08,329.95c0,0,22.42,7.36,57.44,14.86,8.9-202.6,156.56-290.37,217.21-318C2146.24,1455.63,2135.3,1451.64,2135.3,1451.64Z" transform="translate(-289.69 -422.7)"/><path class="cls-12" d="M2158.42,1478.58a242.42,242.42,0,0,0-24.08,9.69c14.65,16.22,34.52,42.59,59.17,85.35,57.09,99.05-9.26,206.31-9.26,206.31-84.65,32.85-190.34,19-252.94,5.57,0,.51-.08,1-.1,1.49,0,0,177.72,58.35,306.62,8.32,0,0,66.35-107.25,9.27-206.3S2158.42,1478.58,2158.42,1478.58Z" transform="translate(-289.69 -422.7)"/><path class="cls-14" d="M1839.39,1165.56c-6.34-62.34-95.32-47.28-95.32-47.28s19.15,30.14,22.92,123.53,60.75,133.47,107.36,149c92.37,30.79,189.88,19.34,189.88,19.34a533.57,533.57,0,0,1-92.57-42.2C1893.93,1323.13,1848.59,1255.91,1839.39,1165.56Z" transform="translate(-289.69 -422.7)"/><path d="M2206.23,1479.2c-80.2-76.52-138.61-99.36-185.54-117.72-34.46-13.47-61.69-24.12-91-52-13.14-12.46-54.54-61.73-71.92-122.56-15.71-55-46.38-86.84-96.52-100.32l-43-11.56a20.9,20.9,0,0,0-6.9-.68l-65,4.41L1283,976.75a21.07,21.07,0,0,0-25.37,12.73l-34.17,88.94c-1.66,4.31-2.25,7.56-1,11.89.27,3.45.92,30.09-37.62,69.79s-89.85,104.34-108.29,156.6c-7,19.87-18.9,63.47-35.31,129.59a117.26,117.26,0,0,0,78.53,139.88l.51.15L1327,1645.67a21,21,0,0,0,6.87.79l127.57-6.43,257.14,116.25a21.08,21.08,0,0,0,17.36-38.42l-261.79-118.34a21.18,21.18,0,0,0-9.74-1.85l-129.15,6.51-203.13-58.3a75,75,0,0,1-50-89.44c15.87-63.9,27.67-107.37,34.15-125.71,15.06-42.66,61.76-103.13,98.78-141.26,46-47.35,50.24-84.84,49.51-100.6l25.49-66.34,348.32,97.83a21.22,21.22,0,0,0,7.13.74l65.1-4.42,39.64,10.65c35.85,9.64,55.24,30.26,66.93,71.2,20.06,70.21,67,126,83.44,141.55,35.35,33.54,69.05,46.72,104.72,60.66,45.75,17.9,97.6,38.17,171.79,109,60.14,57.37,87.56,121.12,81.51,189.47a215.87,215.87,0,0,1-25,83c-14.63,6.44-63.48,24.54-143.88,20.53-62.33-3.09-166.36-28.69-242.65-49.62a21.08,21.08,0,0,0-11.16,40.65c78.33,21.49,185.58,47.79,251.72,51.08,8.64.43,16.94.62,24.94.62,94.08,0,144-27.4,146.24-28.67a20.94,20.94,0,0,0,7.24-6.73c1.16-1.74,28.31-43.33,34.31-105C2306,1648.29,2294.1,1563,2206.23,1479.2Z" transform="translate(-289.69 -422.7)"/><path d="M1791.31,1737.14a20.47,20.47,0,0,0-2.25-.55c-16.84-4.2-24.92,7.49-26.85,14.36-.56,2-4.79,19.36,15.43,26.21l-.28-.07.35.1c.54.18,1.09.35,1.66.52a21.26,21.26,0,0,0,5.12.82c.85.08,1.66.12,2.44.12,15.53,0,19.84-14.38,20-15.09C1809.27,1755.5,1807,1741.81,1791.31,1737.14Z" transform="translate(-289.69 -422.7)"/><path class="cls-10" d="M1505.37,1001.77c-59.29-24.91-189.94-68.24-245.47-55.39-61.56,14.25-82.55,97.11-46.92,122.08s247.13,97.21,280,75.25c37.24-24.91,41.48-34,47.34-82A57.46,57.46,0,0,0,1505.37,1001.77Z" transform="translate(-289.69 -422.7)"/><path class="cls-11" d="M1262.58,947.15c-61.56,14.25-82.55,97.11-46.93,122.07,21.57,15.12,69.93,26.84,53.59,15.39-35.62-25-14.63-107.83,46.93-122.07C1342.57,956.43,1299.65,938.58,1262.58,947.15Z" transform="translate(-289.69 -422.7)"/><path class="cls-12" d="M1508.05,1002.54C1477,989.47,1426.22,971.39,1377,959c30.11,9.61,57.77,19.91,77.48,28.2a57.43,57.43,0,0,1,34.93,59.93c-5.86,48-10.1,57.09-47.34,82-13,8.67-53.79,2.63-100.62-9.35,66.26,20.89,136.42,36.62,154.21,24.73,37.24-24.9,41.48-34,47.34-82A57.45,57.45,0,0,0,1508.05,1002.54Z" transform="translate(-289.69 -422.7)"/><path d="M1513.54,982.34c-49.64-20.86-192.82-71.66-258.39-56.49-39.63,9.17-70.53,42.34-78.73,84.5-6.14,31.61,3.23,60.49,24.46,75.37,19.47,13.64,70.86,33.32,112.46,47.18a21.08,21.08,0,0,0,13.33-40c-52.67-17.55-91-34.27-101.6-41.71-7.29-5.12-10.14-18-7.27-32.81,4.12-21.17,20.2-45.31,46.86-51.47,45.46-10.53,165.64,26.17,232.55,54.28a36.59,36.59,0,0,1,22.17,38c-5.24,42.86-7,46.21-37.58,66.66-1.5.47-9.73,2.41-34.47-1.33a21.08,21.08,0,0,0-6.3,41.69,210,210,0,0,0,30.87,2.71c14.56,0,25.1-2.52,32.77-7.65,43.89-29.35,50.27-45.59,56.55-97A78.89,78.89,0,0,0,1513.54,982.34Z" transform="translate(-289.69 -422.7)"/><path d="M1389.07,1111.44c-2.68-.67-4.14-1-5.56-1.22l-2.07-.56a21.08,21.08,0,1,0-11.23,40.63,51.1,51.1,0,0,0,6.63,1.56l1.9.47a21.48,21.48,0,0,0,5.18.64,21.08,21.08,0,0,0,5.15-41.52Z" transform="translate(-289.69 -422.7)"/><path class="cls-15" d="M1769.65,983.71c-61.85-7.5-63,110.43-57,111.7,0,0,56.19,9.34,89.88,41.48C1783.08,1066.22,1874,996.36,1769.65,983.71Z" transform="translate(-289.69 -422.7)"/><path class="cls-14" d="M1723.4,1098.49a218.31,218.31,0,0,1,31.44,8.39c-5.1-10.23-1.56-118.05,57.68-110.86,1.14.14,2.13.32,3.22.47-7.92-4.45-19.32-7.75-35.37-9.7C1718.51,979.29,1717.38,1097.22,1723.4,1098.49Z" transform="translate(-289.69 -422.7)"/><path d="M1772.19,962.78c-40.68-4.93-70.66,26.49-80.18,84a200.65,200.65,0,0,0-2.75,35.05c.17,9.82.53,30.26,19.09,34.16l.09,0c.52.1,1.06.19,1.59.26s49.87,6.65,77.91,33.41a21.08,21.08,0,0,0,34.87-20.86c-5.83-21.12,1.68-43.55,8.94-65.24,8.14-24.32,16.55-49.47,2.79-71.25C1821,971,1792.48,965.25,1772.19,962.78Zm19.58,87.47c-4.39,13.12-9.34,27.92-11.75,43.86a223.83,223.83,0,0,0-48.65-16.71c.38-18.09,5.08-51.32,18.92-66.4,4.87-5.3,9.9-7.2,16.82-6.37,26.63,3.23,31.34,9.56,31.79,10.27C1802,1019.76,1796.08,1037.38,1791.77,1050.25Z" transform="translate(-289.69 -422.7)"/><path d="M1175.11,1195.56a21.08,21.08,0,1,0-10.94,40.71c166.75,44.81,222.1,152.2,239.16,234.4a21.08,21.08,0,0,0,41.27-8.57C1425.14,1368.31,1362.58,1245.94,1175.11,1195.56Z" transform="translate(-289.69 -422.7)"/><path d="M1429.9,1499.94a21.08,21.08,0,0,0-19.79,22.29c2.68,45.08-3.65,77.43-3.78,78.08a21.07,21.07,0,0,0,16.41,24.86,20.75,20.75,0,0,0,4.26.44,21.09,21.09,0,0,0,20.63-16.85c.31-1.52,7.6-37.82,4.56-89A21.08,21.08,0,0,0,1429.9,1499.94Z" transform="translate(-289.69 -422.7)"/><path class="cls-16" d="M1861,1428.68a35.31,35.31,0,1,0,24.94,43.26A35.31,35.31,0,0,0,1861,1428.68Z" transform="translate(-289.69 -422.7)"/><path d="M1866.52,1408.32a56.39,56.39,0,1,0,34.22,26.3A56,56,0,0,0,1866.52,1408.32Zm-.9,58.15a14.23,14.23,0,1,1-27.48-7.39,14.25,14.25,0,0,1,13.72-10.54,14.25,14.25,0,0,1,12.35,7.13A14.11,14.11,0,0,1,1865.62,1466.47Z" transform="translate(-289.69 -422.7)"/><path class="cls-16" d="M1744.21,1304.9a35.31,35.31,0,1,0,24.93,43.27A35.32,35.32,0,0,0,1744.21,1304.9Z" transform="translate(-289.69 -422.7)"/><path d="M1749.68,1284.55a56.39,56.39,0,1,0,39.82,69.09h0a56.39,56.39,0,0,0-39.82-69.09Zm-.89,58.15a14.23,14.23,0,0,1-26.08,3.41,14.24,14.24,0,0,1,12.34-21.34,14.35,14.35,0,0,1,3.69.49,14.25,14.25,0,0,1,10,17.44Z" transform="translate(-289.69 -422.7)"/><path d="M1949.34,1302.87a21.07,21.07,0,0,0-28.94,7.12l-62.9,104a21.08,21.08,0,1,0,36.07,21.82l62.9-104A21.09,21.09,0,0,0,1949.34,1302.87Z" transform="translate(-289.69 -422.7)"/><path d="M1877.4,1238.57l-116.12,67a21.08,21.08,0,1,0,21.08,36.51l116.12-67.06a21.07,21.07,0,0,0-21.08-36.5Z" transform="translate(-289.69 -422.7)"/><path d="M2066.7,1401.25c-27.78,2.6-107.71,6.26-143.41-7.71-7.66-3-15.19-5.82-22.47-8.54-69-25.79-114.67-42.83-121.26-153.66-3.46-58.25-14.71-100.24-33.41-124.8-16.55-21.73-33.62-22.83-36.87-22.83v31.62a4.11,4.11,0,0,1-1.14-.06c9.23,1.52,34.37,25.67,39.86,118,3.54,59.7,18.48,100.89,47,129.65,25.75,26,59.28,38.49,94.78,51.75,7.16,2.68,14.57,5.45,22,8.36,25.19,9.86,64,12.36,96.92,12.36,32.27,0,58.78-2.41,60.95-2.61a15.81,15.81,0,0,0-2.94-31.48Z" transform="translate(-289.69 -422.7)"/><path d="M2017.55,1557.7c-27.41,28.3-91.71,107.51-96.69,231.52a21.08,21.08,0,0,0,20.22,21.91l.86,0a21.07,21.07,0,0,0,21-20.24c4.4-109.49,60.81-179.05,84.85-203.87a21.08,21.08,0,1,0-30.28-29.34Z" transform="translate(-289.69 -422.7)"/><path d="M2098.59,1528.64a21.08,21.08,0,0,0-32.88-18.83c-9.87,6.7-11,15.45-10.79,20.06,0,.19,0,.39,0,.6a21.07,21.07,0,0,0,33.64,18.88c9.45-7.1,10.33-15.75,10-20.28Z" transform="translate(-289.69 -422.7)"/><path d="M2165.32,1460.92c-2.42.45-24.58,4.87-55.87,22.31a21.08,21.08,0,1,0,20.52,36.82c25-13.9,42.5-17.57,43.1-17.69a21.08,21.08,0,0,0-7.75-41.44Z" transform="translate(-289.69 -422.7)"/><path d="M1125.44,1627.13a21.09,21.09,0,0,0-26.07,14.45l-11.64,40.52a21.08,21.08,0,1,0,40.52,11.63l11.64-40.52A21.09,21.09,0,0,0,1125.44,1627.13Z" transform="translate(-289.69 -422.7)"/><path d="M1216.61,1653.31a21.07,21.07,0,0,0-26.07,14.44l-11.64,40.52a21.08,21.08,0,1,0,40.52,11.64l11.64-40.52A21.09,21.09,0,0,0,1216.61,1653.31Z" transform="translate(-289.69 -422.7)"/><path d="M1702.84,1792.91a21.08,21.08,0,0,0-26.07,14.44l-11.64,40.52a21.08,21.08,0,1,0,40.52,11.64l11.64-40.52A21.09,21.09,0,0,0,1702.84,1792.91Z" transform="translate(-289.69 -422.7)"/><path d="M1794,1819.09a21.06,21.06,0,0,0-26.07,14.44l-11.64,40.52a21.08,21.08,0,0,0,14.44,26.08,21.48,21.48,0,0,0,5.83.82,21.08,21.08,0,0,0,20.25-15.27l11.64-40.52A21.08,21.08,0,0,0,1794,1819.09Z" transform="translate(-289.69 -422.7)"/><path d="M1885.18,1845.26a21.09,21.09,0,0,0-26.08,14.45l-11.63,40.51a21.08,21.08,0,1,0,40.52,11.64l11.63-40.52A21.07,21.07,0,0,0,1885.18,1845.26Z" transform="translate(-289.69 -422.7)"/><path d="M1976.35,1871.44a21.08,21.08,0,0,0-26.08,14.44l-11.63,40.52a21.08,21.08,0,0,0,14.44,26.08,21.42,21.42,0,0,0,5.83.82,21.09,21.09,0,0,0,20.25-15.27l11.63-40.52A21.07,21.07,0,0,0,1976.35,1871.44Z" transform="translate(-289.69 -422.7)"/><path d="M2073.33,1877.35a21.07,21.07,0,0,0-26.07,14.45l-11.64,40.52a21.08,21.08,0,1,0,40.52,11.63l11.64-40.52A21.09,21.09,0,0,0,2073.33,1877.35Z" transform="translate(-289.69 -422.7)"/><path d="M1338.17,1688.21a21.1,21.1,0,0,0-26.08,14.44l-11.63,40.52a21.08,21.08,0,1,0,40.52,11.64l11.63-40.52A21.07,21.07,0,0,0,1338.17,1688.21Z" transform="translate(-289.69 -422.7)"/><path d="M1425,1691.22a21.07,21.07,0,0,0-26.07,14.44l-8.73,30.39a21.09,21.09,0,0,0,14.45,26.08,21.35,21.35,0,0,0,5.82.82,21.08,21.08,0,0,0,20.25-15.27l8.73-30.38A21.09,21.09,0,0,0,1425,1691.22Z" transform="translate(-289.69 -422.7)"/><path class="cls-17" d="M2389.05,1366.69l-60.62,78.87L2147,1358.14l113.87,252-247,52.67L2279,1781.65l-117.23,246.14c70.43-52.44,196.4-118.31,256.34-182.55,39.35-42.16,53.08-113.7,63.82-175.59,11.36-65.47-.38-129.87-27-190.14C2451.09,1470.72,2388.09,1367.93,2389.05,1366.69Z" transform="translate(-289.69 -422.7)"/><path d="M2440.8,1413.66c-12.13-20.29-28.55-47.75-32-54.26a21.08,21.08,0,0,0-36.36-5.73l-.13.17-.11.14-50.08,65.16-166-80a21.08,21.08,0,0,0-28.36,27.67L2230.88,1595l-221.44,47.21a21.08,21.08,0,0,0-4.23,39.85l245.47,110-107.95,226.66a21.08,21.08,0,0,0,31.62,26c24.13-18,55.31-37.78,88.32-58.75,61-38.77,130.14-82.7,170.84-126.32,41.8-44.79,56.57-113.71,69.18-186.36,11.38-65.61,1.81-133.66-28.43-202.25C2472.22,1466.39,2464.51,1453.3,2440.8,1413.66Zm-30.72-48.37a20.55,20.55,0,0,0-.61-3.82A19.06,19.06,0,0,1,2410.08,1365.29Zm51.07,300.76c-11.47,66.13-24.57,128.5-58.46,164.81-37,39.68-103.76,82.09-162.63,119.5q-13.21,8.39-25.95,16.54L2298,1790.72a21.09,21.09,0,0,0-10.41-28.3L2081.34,1670l183.92-39.21a21.09,21.09,0,0,0,14.81-29.3l-90-199.15,129.21,62.25a21.07,21.07,0,0,0,25.86-6.14l41.25-53.68c5.52,9.31,12,20.07,18.23,30.57,12.17,20.34,28.8,48.15,31.14,52.89C2462.53,1549,2471.08,1608.83,2461.15,1666.05Z" transform="translate(-289.69 -422.7)"/><rect class="cls-2" x="2097.34" y="684.59" width="190.31" height="859.81"/><path class="cls-3" d="M2387,1965.64h17.48a29.13,29.13,0,0,0,29.13-29.13V1103.4H2387Z" transform="translate(-289.69 -422.7)"/><rect class="cls-4" x="2225.51" y="679.93" width="58.26" height="873.89"/><path d="M2577.34,1515.07a23.31,23.31,0,0,0-23.3,23.31v404a23.31,23.31,0,0,0,46.61,0v-404A23.31,23.31,0,0,0,2577.34,1515.07Z" transform="translate(-289.69 -422.7)"/><path d="M2577.34,1455a23.3,23.3,0,0,0-23.3,23.3v1.81a23.31,23.31,0,0,0,46.61,0v-1.81A23.31,23.31,0,0,0,2577.34,1455Z" transform="translate(-289.69 -422.7)"/><path d="M2577.34,1084H2387a23.31,23.31,0,0,0-23.3,23.31v835.05a23.3,23.3,0,1,0,46.6,0V1130.59H2554V1416a23.31,23.31,0,0,0,46.61,0V1107.29A23.31,23.31,0,0,0,2577.34,1084Z" transform="translate(-289.69 -422.7)"/></svg>